<svg version="1.1" viewBox="0.0 0.0 755.9317585301837 696.50656167979" fill="none" stroke="none" stroke-linecap="square" stroke-miterlimit="10" xmlns:xlink="http://www.w3.org/1999/xlink" xmlns="http://www.w3.org/2000/svg"><clipPath id="p.0"><path d="m0 0l755.93176 0l0 696.5066l-755.93176 0l0 -696.5066z" clip-rule="nonzero"/></clipPath><g clip-path="url(#p.0)"><path fill="#000000" fill-opacity="0.0" d="m0 0l755.93176 0l0 696.5066l-755.93176 0z" fill-rule="evenodd"/><path fill="#c9daf8" d="m270.43307 4.514281l0 591.47766l-136.81366 -118.2955l0 -354.88663z" fill-rule="evenodd"/><path stroke="#000000" stroke-width="1.0" stroke-linejoin="round" stroke-linecap="butt" d="m270.43307 4.514281l0 591.47766l-136.81366 -118.2955l0 -354.88663z" fill-rule="evenodd"/><path fill="#d9ead3" d="m453.6509 4.514281l0 591.47766l136.81363 -118.2955l0 -354.88663z" fill-rule="evenodd"/><path stroke="#000000" stroke-width="1.0" stroke-linejoin="round" stroke-linecap="butt" d="m453.6509 4.514281l0 591.47766l136.81363 -118.2955l0 -354.88663z" fill-rule="evenodd"/><path fill="#fce5cd" d="m405.86615 4.514436l0 599.7795l-87.33859 0l0 -599.7795z" fill-rule="evenodd"/><path stroke="#000000" stroke-width="1.0" stroke-linejoin="round" stroke-linecap="butt" d="m405.86615 4.514436l0 599.7795l-87.33859 0l0 -599.7795z" fill-rule="evenodd"/><path fill="#000000" d="m350.05496 91.18915q0 -4.703125 3.15625 -7.84375q3.15625 -3.140625 7.921875 -3.140625q4.828125 0 7.9375 3.15625q3.109375 3.15625 3.109375 7.828125q0 5.015625 -4.0 8.28125l-1.3125 -2.109375q1.3125 -1.015625 2.125 -2.640625q0.8125 -1.609375 0.8125 -3.53125q0 -3.546875 -2.46875 -5.890625q-2.453125 -2.328125 -6.203125 -2.328125q-3.78125 0 -6.25 2.34375q-2.453125 2.359375 -2.453125 5.875q0 1.59375 0.625 3.125q0.625 1.546875 1.671875 2.609375l4.359375 0l0 -7.328125l2.359375 0l0 9.96875l-7.703125 0q-3.6875 -3.328125 -3.6875 -8.375zm0.03125 19.581665q0 -3.484375 2.265625 -5.6875q2.28125 -2.1875 5.875 -2.1875q3.421875 0 5.75 2.171875q2.34375 2.1875 2.34375 5.453125q0 3.328125 -2.3125 5.375q-2.296875 2.046875 -5.984375 2.046875l-0.609375 0l0 -12.515625q-2.359375 0.125 -3.859375 1.703125q-1.484375 1.59375 -1.484375 3.859375q0 2.828125 1.953125 4.78125l-1.5625 1.140625q-2.375 -2.359375 -2.375 -6.140625zm9.09375 4.796875q2.140625 0 3.640625 -1.40625q1.515625 -1.40625 1.515625 -3.671875q0 -2.15625 -1.515625 -3.578125q-1.5 -1.421875 -3.640625 -1.484375l0 10.140625zm-8.703125 6.344162l21.34375 0l0 2.65625l-18.96875 0l0 9.921875l-2.375 0l0 -12.578125zm-0.390625 24.159164q0 -4.125 2.25 -6.421875q2.265625 -2.28125 6.421875 -2.28125l13.0625 0l0 2.65625l-12.984375 0q-2.953125 0 -4.671875 1.53125q-1.703125 1.53125 -1.703125 4.515625q0 2.96875 1.703125 4.5q1.71875 1.546875 4.671875 1.546875l12.984375 0l0 2.65625l-13.03125 0q-4.15625 0 -6.4375 -2.25q-2.265625 -2.234375 -2.265625 -6.453125zm0.390625 37.1873l4.734375 -1.890625l0 -10.625l-4.734375 -1.890625l0 -3.046875l21.34375 8.578125l0 3.296875l-21.34375 8.609375l0 -3.03125zm18.59375 -7.203125l-11.484375 -4.546875l0 9.0625l11.484375 -4.515625zm-18.984375 19.743546q0 -3.390625 2.296875 -5.5625q2.3125 -2.15625 5.84375 -2.15625q3.484375 0 5.78125 2.15625q2.3125 2.171875 2.3125 5.5625q0 3.578125 -2.6875 5.65625l-1.46875 -1.59375q2.015625 -1.46875 2.015625 -3.9375q0 -2.375 -1.65625 -3.859375q-1.640625 -1.484375 -4.296875 -1.484375q-2.6875 0 -4.34375 1.46875q-1.640625 1.46875 -1.640625 3.875q0 2.4375 2.015625 3.9375l-1.484375 1.59375q-2.6875 -2.078125 -2.6875 -5.65625zm0 12.918152q0 -3.421875 3.625 -3.421875l10.109375 0l0 -2.5625l2.109375 0l0 2.5625l4.234375 0l0 2.40625l-4.234375 0l0 3.140625l-2.109375 0l0 -3.140625l-9.59375 0q-0.875 0 -1.4375 0.375q-0.546875 0.390625 -0.546875 1.1875q0 1.0 0.640625 1.640625l-1.796875 0.703125q-1.0 -1.0 -1.0 -2.890625zm18.046875 6.68927q0 -0.640625 0.46875 -1.125q0.46875 -0.46875 1.140625 -0.46875q0.671875 0 1.140625 0.46875q0.484375 0.484375 0.484375 1.125q0 0.671875 -0.484375 1.15625q-0.46875 0.484375 -1.140625 0.484375q-0.671875 0 -1.140625 -0.484375q-0.46875 -0.484375 -0.46875 -1.15625zm-17.65625 -1.171875l15.453125 0l0 2.390625l-15.453125 0l0 -2.390625zm0 11.325012l15.453125 -6.4375l0 2.59375l-12.671875 5.15625l12.671875 5.109375l0 2.625l-15.453125 -6.421875l0 -2.625zm0 21.211288l1.765625 0q-2.15625 -1.953125 -2.15625 -5.125q0 -2.328125 1.46875 -3.875q1.484375 -1.53125 3.65625 -1.53125q2.234375 0 3.65625 1.515625q1.4375 1.53125 1.4375 3.890625q0 3.328125 -2.109375 5.125l2.78125 0q1.5625 0 2.40625 -1.109375q0.859375 -1.09375 0.859375 -2.796875q0 -2.71875 -2.15625 -4.734375l1.671875 -1.125q2.5625 2.46875 2.5625 6.1875q0 2.84375 -1.375 4.40625q-1.375 1.578125 -3.84375 1.578125l-10.625 0l0 -2.40625zm1.34375 -4.25q0 2.84375 1.921875 4.25l2.90625 0q1.921875 -1.40625 1.921875 -4.25q0 -1.703125 -0.953125 -2.765625q-0.9375 -1.046875 -2.4375 -1.046875q-1.46875 0 -2.421875 1.046875q-0.9375 1.0625 -0.9375 2.765625zm-1.734375 15.348404q0 -3.421875 3.625 -3.421875l10.109375 0l0 -2.5625l2.109375 0l0 2.5625l4.234375 0l0 2.40625l-4.234375 0l0 3.140625l-2.109375 0l0 -3.140625l-9.59375 0q-0.875 0 -1.4375 0.375q-0.546875 0.390625 -0.546875 1.1875q0 1.0 0.640625 1.640625l-1.796875 0.703125q-1.0 -1.0 -1.0 -2.890625zm18.046875 6.68927q0 -0.640625 0.46875 -1.125q0.46875 -0.46875 1.140625 -0.46875q0.671875 0 1.140625 0.46875q0.484375 0.484375 0.484375 1.125q0 0.671875 -0.484375 1.15625q-0.46875 0.484375 -1.140625 0.484375q-0.671875 0 -1.140625 -0.484375q-0.46875 -0.484375 -0.46875 -1.15625zm-17.65625 -1.171875l15.453125 0l0 2.390625l-15.453125 0l0 -2.390625zm-0.390625 13.950012q0 -3.359375 2.28125 -5.515625q2.296875 -2.140625 5.859375 -2.140625q3.578125 0 5.828125 2.140625q2.265625 2.15625 2.265625 5.515625q0 3.359375 -2.265625 5.5q-2.25 2.140625 -5.828125 2.140625q-3.5625 0 -5.859375 -2.140625q-2.28125 -2.140625 -2.28125 -5.5zm2.15625 0q0 2.234375 1.671875 3.671875q1.6875 1.4375 4.3125 1.4375q2.59375 0 4.265625 -1.4375q1.6875 -1.4375 1.6875 -3.671875q0 -2.25 -1.671875 -3.703125q-1.65625 -1.453125 -4.28125 -1.453125q-2.65625 0 -4.328125 1.4375q-1.65625 1.4375 -1.65625 3.71875zm-1.765625 21.975891l10.109375 0q2.046875 0 2.8125 -0.953125q0.78125 -0.9375 0.78125 -2.5q0 -1.34375 -0.734375 -2.640625q-0.71875 -1.296875 -1.671875 -1.9375l-11.296875 0l0 -2.390625l15.453125 0l0 2.390625l-2.234375 0q1.15625 1.0 1.890625 2.453125q0.734375 1.453125 0.734375 3.046875q0 4.9375 -5.0 4.9375l-10.84375 0l0 -2.40625zm-6.375 18.981812q2.984375 -2.171875 6.625 -3.34375q3.65625 -1.171875 7.53125 -1.171875q3.859375 0 7.484375 1.171875q3.640625 1.171875 6.65625 3.34375l-1.09375 1.4375q-3.84375 -1.921875 -6.703125 -2.625q-2.859375 -0.703125 -6.34375 -0.703125q-3.46875 0 -6.375 0.71875q-2.90625 0.71875 -6.65625 2.609375l-1.125 -1.4375zm5.984375 10.529785q0 -2.71875 1.046875 -4.65625q1.046875 -1.9375 2.484375 -2.9375l1.65625 1.578125q-1.25 0.921875 -2.03125 2.46875q-0.78125 1.5625 -0.78125 3.484375q0 2.328125 1.0625 3.65625q1.078125 1.328125 2.9375 1.328125q1.890625 0 2.828125 -1.390625q0.953125 -1.390625 0.953125 -3.921875l0 -1.3125l-0.03125 -0.890625l2.421875 0l-0.03125 0.921875l0 1.28125q0 2.3125 0.9375 3.640625q0.953125 1.328125 2.578125 1.328125q1.640625 0 2.640625 -1.328125q1.015625 -1.328125 1.015625 -3.453125q0 -3.21875 -2.59375 -5.625l1.671875 -1.46875q3.28125 2.6875 3.28125 7.296875q0 3.265625 -1.546875 5.25q-1.546875 1.984375 -4.140625 1.984375q-1.921875 0 -3.28125 -1.3125q-1.359375 -1.3125 -1.671875 -3.296875q-0.171875 2.015625 -1.65625 3.46875q-1.484375 1.453125 -3.59375 1.453125q-2.796875 0 -4.484375 -2.078125q-1.671875 -2.078125 -1.671875 -5.46875zm1.15625 14.93338q-1.46875 0 -2.75 -0.75q-1.28125 -0.75 -2.078125 -1.859375l0.984375 -1.1875q0.515625 0.765625 1.359375 1.375q0.828125 0.609375 1.625 0.703125l-0.0625 -0.453125q0 -0.671875 0.4375 -1.109375q0.453125 -0.421875 1.1875 -0.421875q0.703125 0 1.21875 0.46875q0.515625 0.484375 0.515625 1.21875q0 0.8125 -0.640625 1.40625q-0.640625 0.609375 -1.796875 0.609375zm-1.15625 10.539886q0 -3.71875 3.0625 -5.953125q3.0625 -2.21875 7.984375 -2.21875q4.953125 0 7.96875 2.25q3.03125 2.265625 3.03125 5.921875q0 2.484375 -1.421875 4.328125q-1.421875 1.84375 -3.953125 2.828125q-2.515625 1.0 -5.625 1.0q-3.078125 0 -5.640625 -1.0q-2.546875 -0.984375 -3.984375 -2.8125q-1.421875 -1.828125 -1.421875 -4.34375zm2.375 0q0 2.5625 2.296875 4.0q2.3125 1.4375 6.375 1.4375q4.09375 0 6.359375 -1.4375q2.28125 -1.4375 2.28125 -4.0q0 -2.5625 -2.28125 -4.0q-2.265625 -1.4375 -6.359375 -1.4375q-4.0625 0 -6.375 1.421875q-2.296875 1.421875 -2.296875 4.015625zm-1.984375 13.66217l18.96875 8.609375l0 -11.5l2.375 0l0 14.5625l-1.828125 0l-19.515625 -8.734375l0 -2.9375zm0 14.339386l2.109375 0q4.453125 5.625 6.484375 7.734375q2.03125 2.109375 3.640625 3.09375q1.625 1.0 3.15625 1.0q1.765625 0 2.828125 -1.21875q1.078125 -1.203125 1.078125 -3.21875q0 -3.75 -2.6875 -5.796875l1.6875 -1.625q1.640625 1.203125 2.5 3.171875q0.859375 1.96875 0.859375 4.25q0 3.09375 -1.71875 5.125q-1.703125 2.03125 -4.546875 2.03125q-2.59375 0 -5.453125 -2.1875q-2.859375 -2.1875 -7.5625 -8.171875l0 10.46875l-2.375 0l0 -14.65625zm0 38.165802l10.109375 0q2.046875 0 2.8125 -0.953125q0.78125 -0.9375 0.78125 -2.5q0 -1.34375 -0.734375 -2.640625q-0.71875 -1.296875 -1.671875 -1.9375l-11.296875 0l0 -2.390625l15.453125 0l0 2.390625l-2.234375 0q1.15625 1.0 1.890625 2.453125q0.734375 1.453125 0.734375 3.046875q0 4.9375 -5.0 4.9375l-10.84375 0l0 -2.40625zm-0.390625 14.178925q0 -3.484375 2.265625 -5.6875q2.28125 -2.1875 5.875 -2.1875q3.421875 0 5.75 2.171875q2.34375 2.1875 2.34375 5.453125q0 3.328125 -2.3125 5.375q-2.296875 2.046875 -5.984375 2.046875l-0.609375 0l0 -12.515625q-2.359375 0.125 -3.859375 1.703125q-1.484375 1.59375 -1.484375 3.859375q0 2.828125 1.953125 4.78125l-1.5625 1.140625q-2.375 -2.359375 -2.375 -6.140625zm9.09375 4.796875q2.140625 0 3.640625 -1.40625q1.515625 -1.40625 1.515625 -3.671875q0 -2.15625 -1.515625 -3.578125q-1.5 -1.421875 -3.640625 -1.484375l0 10.140625zm-8.703125 16.672302l2.171875 0q-1.015625 -0.890625 -1.796875 -2.328125q-0.765625 -1.4375 -0.765625 -3.171875q0 -4.921875 4.9375 -4.921875l10.90625 0l0 2.390625l-10.171875 0q-1.828125 0 -2.671875 0.828125q-0.84375 0.84375 -0.84375 2.625q0 1.40625 0.703125 2.65625q0.703125 1.25 1.625 1.921875l11.359375 0l0 2.40625l-15.453125 0l0 -2.40625zm0 7.210144l15.453125 0l0 2.390625l-2.5 0q2.828125 2.140625 2.828125 5.15625l-2.46875 0l0.09375 -0.96875q0 -1.078125 -0.78125 -2.390625q-0.78125 -1.3125 -1.6875 -1.796875l-10.9375 0l0 -2.390625zm-0.390625 17.310028q0 -3.359375 2.28125 -5.515625q2.296875 -2.140625 5.859375 -2.140625q3.578125 0 5.828125 2.140625q2.265625 2.15625 2.265625 5.515625q0 3.359375 -2.265625 5.5q-2.25 2.140625 -5.828125 2.140625q-3.5625 0 -5.859375 -2.140625q-2.28125 -2.140625 -2.28125 -5.5zm2.15625 0q0 2.234375 1.671875 3.671875q1.6875 1.4375 4.3125 1.4375q2.59375 0 4.265625 -1.4375q1.6875 -1.4375 1.6875 -3.671875q0 -2.25 -1.671875 -3.703125q-1.65625 -1.453125 -4.28125 -1.453125q-2.65625 0 -4.328125 1.4375q-1.65625 1.4375 -1.65625 3.71875zm-1.765625 21.975922l10.109375 0q2.046875 0 2.8125 -0.953125q0.78125 -0.9375 0.78125 -2.5q0 -1.34375 -0.734375 -2.640625q-0.71875 -1.296875 -1.671875 -1.9375l-11.296875 0l0 -2.390625l15.453125 0l0 2.390625l-2.234375 0q1.15625 1.0 1.890625 2.453125q0.734375 1.453125 0.734375 3.046875q0 4.9375 -5.0 4.9375l-10.84375 0l0 -2.40625zm-0.390625 12.100769q0 -3.9375 2.4375 -6.234375l1.734375 1.234375q-0.90625 0.78125 -1.5625 2.140625q-0.65625 1.359375 -0.65625 2.953125q0 1.796936 0.75 2.718811q0.765625 0.9375 1.90625 0.9375q1.03125 0 1.625 -1.015625q0.59375 -1.000061 1.234375 -3.765686q0.46875 -2.328125 1.5 -3.5625q1.046875 -1.234375 2.8125 -1.234375q1.953125 0 3.203125 1.5625q1.25 1.578125 1.25 4.203125q0 3.484436 -2.25 5.718811l-1.65625 -1.109375q0.828125 -0.703125 1.390625 -1.90625q0.5625 -1.203186 0.5625 -2.703186q0 -1.609375 -0.703125 -2.515625q-0.703125 -0.90625 -1.734375 -0.90625q-0.921875 0 -1.46875 1.015625q-0.546875 1.03125 -1.125 3.78125q-0.546875 2.328186 -1.65625 3.546936q-1.09375 1.21875 -2.921875 1.21875q-2.140625 0 -3.40625 -1.671875q-1.265625 -1.65625 -1.265625 -4.406311zm-4.859375 8.130066q3.71875 1.890625 6.734375 2.625q3.03125 0.734375 6.296875 0.734375q3.265625 0 6.21875 -0.71875q2.953125 -0.71875 6.828125 -2.640625l1.09375 1.4375q-3.015625 2.203125 -6.65625 3.375q-3.625 1.171875 -7.484375 1.171875q-3.875 0 -7.53125 -1.171875q-3.640625 -1.171875 -6.625 -3.375l1.125 -1.4375z" fill-rule="nonzero"/><path fill="#000000" fill-opacity="0.0" d="m658.7638 185.7758l0 0c0 -5.8505707 4.742798 -10.593384 10.593384 -10.593384l42.372253 0l0 0c2.8095703 0 5.5040283 1.1160889 7.4906616 3.1027222c1.9866333 1.9866486 3.1027222 4.681122 3.1027222 7.4906616l0 228.95497c0 5.8505554 -4.742798 10.593384 -10.593384 10.593384l-42.372253 0c-5.850586 0 -10.593384 -4.7428284 -10.593384 -10.593384z" fill-rule="evenodd"/><path fill="#000000" fill-opacity="0.0" d="m669.3572 425.32416c-5.850586 0 -10.593384 -4.7428284 -10.593384 -10.593384l0 -228.95497l0 0c0 -5.8505707 4.742798 -10.593384 10.593384 -10.593384m42.372253 0l0 0c2.8095703 0 5.5040283 1.1160889 7.4906616 3.1027222c1.9866333 1.9866486 3.1027222 4.681122 3.1027222 7.4906616l0 228.95497c0 5.8505554 -4.742798 10.593384 -10.593384 10.593384" fill-rule="evenodd"/><path stroke="#000000" stroke-width="1.0" stroke-linejoin="round" stroke-linecap="butt" d="m669.3572 425.32416c-5.850586 0 -10.593384 -4.7428284 -10.593384 -10.593384l0 -228.95497l0 0c0 -5.8505707 4.742798 -10.593384 10.593384 -10.593384m42.372253 0l0 0c2.8095703 0 5.5040283 1.1160889 7.4906616 3.1027222c1.9866333 1.9866486 3.1027222 4.681122 3.1027222 7.4906616l0 228.95497c0 5.8505554 -4.742798 10.593384 -10.593384 10.593384" fill-rule="evenodd"/><path fill="#000000" d="m684.9013 264.9333l11.125 -24.500015l-14.84375 0l0 -3.0625l18.796875 0l0 2.359375l-11.28125 25.20314l-3.796875 0z" fill-rule="nonzero"/><path fill="#000000" d="m691.0652 315.4333q-5.0 0 -7.8125 -3.765625q-2.8125 -3.765625 -2.8125 -10.453125q0 -6.53125 3.03125 -10.390625q3.046875 -3.875 8.171875 -3.875q4.703125 0 7.640625 3.3125l-1.734375 2.5625q-1.078125 -1.234375 -2.40625 -2.015625q-1.3125 -0.796875 -3.5 -0.796875q-3.46875 0 -5.625 3.015625q-2.15625 3.015625 -2.15625 7.8125l0 0.53125l0.046875 0.546875q1.234375 -1.90625 3.46875 -3.09375q2.234375 -1.203125 4.34375 -1.203125q4.015625 0 6.515625 2.359375q2.5 2.34375 2.5 6.4375q0 3.890625 -2.6875 6.453125q-2.6875 2.5625 -6.984375 2.5625zm-0.125 -3.0625q2.8125 0 4.5625 -1.734375q1.75 -1.734375 1.75 -4.09375q0 -2.8125 -1.71875 -4.375q-1.703125 -1.578125 -4.640625 -1.578125q-2.0625 0 -3.90625 1.140625q-1.84375 1.140625 -3.0 3.0q0.34375 3.515625 2.15625 5.578125q1.8125 2.0625 4.796875 2.0625z" fill-rule="nonzero"/><path fill="#000000" d="m690.5687 365.4333q-4.46875 0 -7.171875 -2.109375q-2.703125 -2.109375 -2.703125 -5.375q0 -2.390625 1.75 -4.359375q1.75 -1.96875 4.8125 -2.875q-2.765625 -0.78125 -4.4375 -2.5q-1.671875 -1.71875 -1.671875 -4.109375q0 -3.21875 2.640625 -5.1875q2.640625 -1.96875 6.78125 -1.96875q4.171875 0 6.8125 1.984375q2.640625 1.984375 2.640625 5.171875q0 2.359375 -1.640625 4.09375q-1.625 1.734375 -4.515625 2.515625q3.015625 0.875 4.796875 2.84375q1.78125 1.953125 1.78125 4.390625q0 3.34375 -2.8125 5.421875q-2.8125 2.0625 -7.0625 2.0625zm0 -16.125q5.984375 -1.203125 5.984375 -4.75q0 -2.03125 -1.671875 -3.28125q-1.671875 -1.265625 -4.3125 -1.265625q-2.65625 0 -4.328125 1.265625q-1.671875 1.25 -1.671875 3.28125q0 3.546875 6.0 4.75zm0 13.0625q2.6875 0 4.546875 -1.3125q1.859375 -1.328125 1.859375 -3.484375q0 -1.9375 -1.890625 -3.46875q-1.875 -1.53125 -4.515625 -1.859375q-2.609375 0.328125 -4.53125 1.84375q-1.921875 1.5 -1.921875 3.484375q0 2.15625 1.859375 3.484375q1.859375 1.3125 4.59375 1.3125z" fill-rule="nonzero"/><path fill="#000000" fill-opacity="0.0" d="m12.805775 172.7548l0 0c0 -5.8505707 4.7428207 -10.593384 10.593388 -10.593384l42.372276 0l0 0c2.8095474 0 5.504013 1.1160736 7.4906616 3.1027222c1.9866409 1.9866486 3.1027298 4.681122 3.1027298 7.4906616l0 228.95494c0 5.850586 -4.7428207 10.593414 -10.593391 10.593414l-42.372276 0c-5.850567 0 -10.593388 -4.7428284 -10.593388 -10.593414z" fill-rule="evenodd"/><path fill="#000000" fill-opacity="0.0" d="m23.399162 412.30316c-5.850567 0 -10.593388 -4.7428284 -10.593388 -10.593414l0 -228.95494l0 0c0 -5.8505707 4.7428207 -10.593384 10.593388 -10.593384m42.372276 0l0 0c2.8095474 0 5.504013 1.1160736 7.4906616 3.1027222c1.9866409 1.9866486 3.1027298 4.681122 3.1027298 7.4906616l0 228.95494c0 5.850586 -4.7428207 10.593414 -10.593391 10.593414" fill-rule="evenodd"/><path stroke="#000000" stroke-width="1.0" stroke-linejoin="round" stroke-linecap="butt" d="m23.399162 412.30316c-5.850567 0 -10.593388 -4.7428284 -10.593388 -10.593414l0 -228.95494l0 0c0 -5.8505707 4.7428207 -10.593384 10.593388 -10.593384m42.372276 0l0 0c2.8095474 0 5.504013 1.1160736 7.4906616 3.1027222c1.9866409 1.9866486 3.1027298 4.681122 3.1027298 7.4906616l0 228.95494c0 5.850586 -4.7428207 10.593414 -10.593391 10.593414" fill-rule="evenodd"/><path fill="#000000" d="m38.943295 251.91228l11.125 -24.5l-14.84375 0l0 -3.0625l18.796875 0l0 2.359375l-11.28125 25.203125l-3.796875 0z" fill-rule="nonzero"/><path fill="#000000" d="m45.107197 302.4123q-5.0 0 -7.8125 -3.765625q-2.8125 -3.765625 -2.8125 -10.453125q0 -6.53125 3.03125 -10.390625q3.046875 -3.875 8.171875 -3.875q4.703125 0 7.640625 3.3125l-1.734375 2.5625q-1.078125 -1.234375 -2.40625 -2.015625q-1.3125 -0.796875 -3.5 -0.796875q-3.46875 0 -5.625 3.015625q-2.15625 3.015625 -2.15625 7.8125l0 0.53125l0.046875 0.546875q1.234375 -1.90625 3.46875 -3.09375q2.234375 -1.203125 4.34375 -1.203125q4.015625 0 6.515625 2.359375q2.5 2.34375 2.5 6.4375q0 3.890625 -2.6875 6.453125q-2.6875 2.5625 -6.984375 2.5625zm-0.125 -3.0625q2.8125 0 4.5625 -1.734375q1.75 -1.734375 1.75 -4.09375q0 -2.8125 -1.71875 -4.375q-1.703125 -1.578125 -4.640625 -1.578125q-2.0625 0 -3.90625 1.140625q-1.84375 1.140625 -3.0 3.0q0.34375 3.515625 2.15625 5.578125q1.8125 2.0625 4.796875 2.0625z" fill-rule="nonzero"/><path fill="#000000" d="m44.610714 352.4123q-4.46875 0 -7.171875 -2.109375q-2.703125 -2.109375 -2.703125 -5.375q0 -2.390625 1.75 -4.359375q1.75 -1.96875 4.8125 -2.875q-2.765625 -0.78125 -4.4375 -2.5q-1.671875 -1.71875 -1.671875 -4.109375q0 -3.21875 2.640625 -5.1875q2.640625 -1.96875 6.78125 -1.96875q4.171875 0 6.8125 1.984375q2.640625 1.984375 2.640625 5.171875q0 2.359375 -1.640625 4.09375q-1.625 1.734375 -4.515625 2.515625q3.015625 0.875 4.796875 2.84375q1.78125 1.953125 1.78125 4.390625q0 3.34375 -2.8125 5.421875q-2.8125 2.0625 -7.0625 2.0625zm0 -16.125q5.984375 -1.203125 5.984375 -4.75q0 -2.03125 -1.671875 -3.28125q-1.671875 -1.265625 -4.3125 -1.265625q-2.65625 0 -4.328125 1.265625q-1.671875 1.25 -1.671875 3.28125q0 3.546875 6.0 4.75zm0 13.0625q2.6875 0 4.546875 -1.3125q1.859375 -1.328125 1.859375 -3.484375q0 -1.9375 -1.890625 -3.46875q-1.875 -1.53125 -4.515625 -1.859375q-2.609375 0.328125 -4.53125 1.84375q-1.921875 1.5 -1.921875 3.484375q0 2.15625 1.859375 3.484375q1.859375 1.3125 4.59375 1.3125z" fill-rule="nonzero"/><path fill="#000000" fill-opacity="0.0" d="m534.8163 628.79004l195.71655 0l0 58.04724l-195.71655 0z" fill-rule="evenodd"/><path fill="#000000" d="m557.7538 671.07l0 -11.015625q0 -1.875 -0.890625 -2.84375q-0.875 -0.96875 -2.890625 -0.96875q-1.421875 0 -2.765625 0.734375q-1.328125 0.71875 -2.1875 1.859375l0 12.234375l-2.609375 0l0 -23.109375l2.609375 0l0 8.796875q1.109375 -1.28125 2.703125 -2.0625q1.59375 -0.78125 3.28125 -0.78125q5.34375 0 5.34375 5.34375l0 11.8125l-2.59375 0zm15.134094 -14.0l0 -1.84375l15.28125 0l0 1.84375l-15.28125 0zm0 6.6875l0 -1.796875l15.28125 0l0 1.796875l-15.28125 0zm44.437927 7.3125l-2.046875 -5.125l-11.5 0l-2.046875 5.125l-3.296875 0l9.28125 -23.109375l3.578125 0l9.3125 23.109375l-3.28125 0zm-7.796875 -20.140625l-4.921875 12.453125l9.796875 0l-4.875 -12.453125z" fill-rule="nonzero"/><path fill="#000000" d="m630.2234 684.07l0 -7.34375q0 -1.25 -0.59375 -1.890625q-0.59375 -0.65625 -1.9375 -0.65625q-0.9375 0 -1.828125 0.484375q-0.890625 0.484375 -1.46875 1.25l0 8.15625l-1.734375 0l0 -15.40625l1.734375 0l0 5.859375q0.734375 -0.859375 1.796875 -1.375q1.0625 -0.515625 2.203125 -0.515625q3.546875 0 3.546875 3.5625l0 7.875l-1.71875 0z" fill-rule="nonzero"/><path fill="#000000" d="m647.13605 671.07l-5.03125 -6.859375l-5.03125 6.859375l-2.96875 0l6.40625 -8.59375l-6.0625 -8.140625l3.015625 0l4.640625 6.375l4.640625 -6.375l3.015625 0l-6.0625 8.140625l6.453125 8.59375l-3.015625 0zm21.97174 -10.78125l0 7.390625l-1.984375 0l0 -7.390625l-6.65625 0l0 -1.796875l6.65625 0l0 -7.171875l1.984375 0l0 7.171875l6.640625 0l0 1.796875l-6.640625 0zm21.797302 6.234375q0.6875 1.109375 2.046875 1.875q1.375 0.765625 2.9375 0.765625q2.46875 0 3.9375 -1.78125q1.46875 -1.78125 1.46875 -4.671875q0 -2.90625 -1.453125 -4.6875q-1.453125 -1.78125 -3.953125 -1.78125q-1.5625 0 -2.9375 0.796875q-1.359375 0.796875 -2.046875 1.90625l0 7.578125zm-2.609375 4.546875l0 -23.109375l2.609375 0l0 8.90625q2.140625 -2.953125 5.640625 -2.953125q3.328125 0 5.390625 2.4375q2.0625 2.421875 2.0625 6.359375q0 4.03125 -2.0625 6.40625q-2.0625 2.375 -5.390625 2.375q-1.765625 0 -3.234375 -0.8125q-1.46875 -0.828125 -2.40625 -2.109375l0 2.5l-2.609375 0z" fill-rule="nonzero"/><path fill="#000000" d="m714.9262 684.07l0 -7.34375q0 -1.25 -0.59375 -1.890625q-0.59375 -0.65625 -1.9375 -0.65625q-0.9375 0 -1.828125 0.484375q-0.890625 0.484375 -1.46875 1.25l0 8.15625l-1.734375 0l0 -15.40625l1.734375 0l0 5.859375q0.734375 -0.859375 1.796875 -1.375q1.0625 -0.515625 2.203125 -0.515625q3.546875 0 3.546875 3.5625l0 7.875l-1.71875 0z" fill-rule="nonzero"/><path fill="#000000" fill-opacity="0.0" d="m32.08399 628.79004l205.88977 0l0 58.04724l-205.88977 0z" fill-rule="evenodd"/><path fill="#000000" d="m43.162113 675.2575q0.5625 0.28125 1.421875 0.28125q0.859375 0 1.453125 -0.359375q0.59375 -0.359375 1.046875 -1.40625l1.109375 -2.53125l-7.0 -16.90625l2.796875 0l5.578125 13.71875l5.546875 -13.71875l2.84375 0l-8.390625 20.125q-1.375 3.328125 -4.921875 3.40625q-1.0 0 -1.90625 -0.25l0.421875 -2.359375zm24.844776 -18.1875l0 -1.84375l15.28125 0l0 1.84375l-15.28125 0zm0 6.6875l0 -1.796875l15.28125 0l0 1.796875l-15.28125 0zm44.437927 7.3125l-2.046875 -5.125l-11.5 0l-2.046875 5.125l-3.296875 0l9.28125 -23.109375l3.578125 0l9.3125 23.109375l-3.28125 0zm-7.796875 -20.140625l-4.921875 12.453125l9.796875 0l-4.875 -12.453125z" fill-rule="nonzero"/><path fill="#000000" d="m117.43615 686.8669q0.359375 0.1875 0.9375 0.1875q0.578125 0 0.96875 -0.25q0.40625 -0.234375 0.703125 -0.9375l0.734375 -1.6875l-4.671875 -11.265625l1.875 0l3.71875 9.140625l3.703125 -9.140625l1.890625 0l-5.59375 13.421875q-0.921875 2.21875 -3.28125 2.265625q-0.671875 0 -1.265625 -0.15625l0.28125 -1.578125z" fill-rule="nonzero"/><path fill="#000000" d="m141.30664 671.07l0 -11.015625q0 -1.875 -0.890625 -2.84375q-0.875 -0.96875 -2.890625 -0.96875q-1.421875 0 -2.765625 0.734375q-1.328125 0.71875 -2.1875 1.859375l0 12.234375l-2.609375 0l0 -23.109375l2.609375 0l0 8.796875q1.109375 -1.28125 2.703125 -2.0625q1.59375 -0.78125 3.28125 -0.78125q5.34375 0 5.34375 5.34375l0 11.8125l-2.59375 0zm11.078522 -20.828125q0 1.59375 -0.8125 2.984375q-0.8125 1.375 -2.03125 2.25l-1.28125 -1.078125q0.84375 -0.546875 1.5 -1.46875q0.65625 -0.921875 0.765625 -1.75l-0.484375 0.0625q-0.734375 0 -1.203125 -0.484375q-0.46875 -0.484375 -0.46875 -1.28125q0 -0.765625 0.515625 -1.3125q0.53125 -0.5625 1.328125 -0.5625q0.859375 0 1.515625 0.6875q0.65625 0.671875 0.65625 1.953125zm20.459137 10.046875l0 7.390625l-1.984375 0l0 -7.390625l-6.65625 0l0 -1.796875l6.65625 0l0 -7.171875l1.984375 0l0 7.171875l6.640625 0l0 1.796875l-6.640625 0zm21.797302 6.234375q0.6875 1.109375 2.046875 1.875q1.375 0.765625 2.9375 0.765625q2.46875 0 3.9375 -1.78125q1.46875 -1.78125 1.46875 -4.671875q0 -2.90625 -1.453125 -4.6875q-1.453125 -1.78125 -3.953125 -1.78125q-1.5625 0 -2.9375 0.796875q-1.359375 0.796875 -2.046875 1.90625l0 7.578125zm-2.609375 4.546875l0 -23.109375l2.609375 0l0 8.90625q2.140625 -2.953125 5.640625 -2.953125q3.328125 0 5.390625 2.4375q2.0625 2.421875 2.0625 6.359375q0 4.03125 -2.0625 6.40625q-2.0625 2.375 -5.390625 2.375q-1.765625 0 -3.234375 -0.8125q-1.46875 -0.828125 -2.40625 -2.109375l0 2.5l-2.609375 0z" fill-rule="nonzero"/><path fill="#000000" d="m210.75647 686.8669q0.359375 0.1875 0.9375 0.1875q0.578125 0 0.96875 -0.25q0.40625 -0.234375 0.703125 -0.9375l0.734375 -1.6875l-4.671875 -11.265625l1.875 0l3.71875 9.140625l3.703125 -9.140625l1.890625 0l-5.59375 13.421875q-0.921875 2.21875 -3.28125 2.265625q-0.671875 0 -1.265625 -0.15625l0.28125 -1.578125z" fill-rule="nonzero"/><path fill="#000000" fill-opacity="0.0" d="m264.3386 628.79004l195.71652 0l0 58.04724l-195.71652 0z" fill-rule="evenodd"/><path fill="#000000" d="m287.2761 671.07l0 -11.015625q0 -1.875 -0.890625 -2.84375q-0.875 -0.96875 -2.890625 -0.96875q-1.421875 0 -2.765625 0.734375q-1.328125 0.71875 -2.1875 1.859375l0 12.234375l-2.609375 0l0 -23.109375l2.609375 0l0 8.796875q1.109375 -1.28125 2.703125 -2.0625q1.59375 -0.78125 3.28125 -0.78125q5.34375 0 5.34375 5.34375l0 11.8125l-2.59375 0zm11.078522 -20.828125q0 1.59375 -0.8125 2.984375q-0.8125 1.375 -2.03125 2.25l-1.28125 -1.078125q0.84375 -0.546875 1.5 -1.46875q0.65625 -0.921875 0.765625 -1.75l-0.484375 0.0625q-0.734375 0 -1.203125 -0.484375q-0.46875 -0.484375 -0.46875 -1.28125q0 -0.765625 0.515625 -1.3125q0.53125 -0.5625 1.328125 -0.5625q0.859375 0 1.515625 0.6875q0.65625 0.671875 0.65625 1.953125zm11.818512 6.828125l0 -1.84375l15.28125 0l0 1.84375l-15.28125 0zm0 6.6875l0 -1.796875l15.28125 0l0 1.796875l-15.28125 0zm34.562927 14.109375q-2.15625 0 -3.71875 -0.53125q-1.546875 -0.515625 -3.046875 -1.96875l1.3125 -1.9375q1.046875 1.25 2.34375 1.765625q1.296875 0.515625 3.109375 0.515625q2.5625 0 3.953125 -1.34375q1.40625 -1.328125 1.40625 -3.671875l0 -2.390625q-0.890625 1.28125 -2.375 2.125q-1.46875 0.84375 -3.234375 0.84375q-3.390625 0 -5.421875 -2.390625q-2.03125 -2.390625 -2.03125 -6.265625q0 -4.015625 2.0625 -6.359375q2.0625 -2.34375 5.390625 -2.34375q3.46875 0 5.609375 2.953125l0 -2.53125l2.609375 0l0 16.25q0 3.53125 -2.078125 5.40625q-2.078125 1.875 -5.890625 1.875zm0.375 -8.875q1.421875 0 2.828125 -0.765625q1.40625 -0.765625 2.15625 -1.96875l0 -7.3125q-0.75 -1.21875 -2.171875 -1.953125q-1.421875 -0.75 -2.8125 -0.75q-2.453125 0 -3.921875 1.765625q-1.453125 1.765625 -1.453125 4.609375q0 2.875 1.484375 4.625q1.5 1.75 3.890625 1.75zm20.345825 2.5q-3.78125 0 -6.15625 -2.453125q-2.375 -2.46875 -2.375 -6.359375q0 -3.703125 2.359375 -6.234375q2.359375 -2.53125 5.890625 -2.53125q3.609375 0 5.828125 2.5q2.21875 2.484375 2.21875 6.484375l0 0.65625l-13.5625 0q0.140625 2.5625 1.859375 4.171875q1.71875 1.609375 4.171875 1.609375q3.0625 0 5.171875 -2.109375l1.25 1.6875q-2.5625 2.578125 -6.65625 2.578125zm5.203125 -9.84375q0 -2.328125 -1.53125 -3.953125q-1.53125 -1.625 -3.984375 -1.625q-2.328125 0 -3.875 1.625q-1.53125 1.625 -1.609375 3.953125l11.0 0zm6.74588 9.421875l0 -23.109375l2.609375 0l0 23.109375l-2.609375 0zm19.094543 0l0 -2.359375q-0.96875 1.109375 -2.53125 1.953125q-1.546875 0.828125 -3.421875 0.828125q-5.34375 0 -5.34375 -5.34375l0 -11.8125l2.609375 0l0 11.015625q0 1.96875 0.890625 2.890625q0.90625 0.921875 2.84375 0.921875q1.53125 0 2.875 -0.765625q1.359375 -0.765625 2.078125 -1.765625l0 -12.296875l2.609375 0l0 16.734375l-2.609375 0zm11.611237 6.890625q-2.34375 -3.21875 -3.609375 -7.171875q-1.265625 -3.953125 -1.265625 -8.140625q0 -4.1875 1.265625 -8.125q1.265625 -3.9375 3.609375 -7.1875l1.5625 1.171875q-2.078125 4.15625 -2.84375 7.265625q-0.765625 3.09375 -0.765625 6.875q0 3.75 0.78125 6.90625q0.78125 3.140625 2.828125 7.203125l-1.5625 1.203125zm16.126007 -6.890625l0 -11.015625q0 -1.875 -0.890625 -2.84375q-0.875 -0.96875 -2.890625 -0.96875q-1.421875 0 -2.765625 0.734375q-1.328125 0.71875 -2.1875 1.859375l0 12.234375l-2.609375 0l0 -23.109375l2.609375 0l0 8.796875q1.109375 -1.28125 2.703125 -2.0625q1.59375 -0.78125 3.28125 -0.78125q5.34375 0 5.34375 5.34375l0 11.8125l-2.59375 0zm5.786499 5.6875q2.046875 -4.03125 2.84375 -7.296875q0.796875 -3.28125 0.796875 -6.8125q0 -3.53125 -0.78125 -6.734375q-0.78125 -3.21875 -2.859375 -7.40625l1.5625 -1.171875q2.390625 3.25 3.640625 7.1875q1.265625 3.9375 1.265625 8.125q0 4.1875 -1.265625 8.140625q-1.25 3.953125 -3.640625 7.171875l-1.5625 -1.203125z" fill-rule="nonzero"/></g></svg>