<svg version="1.1" viewBox="0.0 0.0 936.9685039370079 110.55643044619423" fill="none" stroke="none" stroke-linecap="square" stroke-miterlimit="10" xmlns:xlink="http://www.w3.org/1999/xlink" xmlns="http://www.w3.org/2000/svg"><clipPath id="p.0"><path d="m0 0l936.9685 0l0 110.55643l-936.9685 0l0 -110.55643z" clip-rule="nonzero"/></clipPath><g clip-path="url(#p.0)"><path fill="#000000" fill-opacity="0.0" d="m0 0l936.9685 0l0 110.55643l-936.9685 0z" fill-rule="evenodd"/><path fill="#b0dd46" fill-opacity="0.8039" d="m22.396326 20.341208l114.803154 0l0 66.173225l-114.803154 0z" fill-rule="evenodd"/><path stroke="#44546a" stroke-width="1.0" stroke-linejoin="round" stroke-linecap="butt" d="m22.396326 20.341208l114.803154 0l0 66.173225l-114.803154 0z" fill-rule="evenodd"/><path fill="#000000" d="m75.96196 63.61657q0.1875 0.5625 0.234375 0.890625q0.046875 0.328125 -0.125 0.5q-0.171875 0.15625 -0.609375 0.1875q-0.4375 0.046875 -1.203125 0.046875q-0.796875 0 -1.25 -0.03125q-0.4375 -0.015625 -0.671875 -0.078125q-0.234375 -0.078125 -0.328125 -0.203125q-0.09375 -0.125 -0.15625 -0.328125l-1.359375 -4.0625l-7.59375 0l-1.28125 3.953125q-0.0625 0.21875 -0.171875 0.375q-0.09375 0.140625 -0.328125 0.234375q-0.21875 0.078125 -0.640625 0.109375q-0.40625 0.03125 -1.078125 0.03125q-0.71875 0 -1.125 -0.046875q-0.40625 -0.046875 -0.5625 -0.21875q-0.15625 -0.1875 -0.109375 -0.515625q0.046875 -0.328125 0.234375 -0.875l6.234375 -17.9375q0.09375 -0.265625 0.21875 -0.421875q0.125 -0.171875 0.390625 -0.25q0.28125 -0.09375 0.765625 -0.109375q0.484375 -0.03125 1.28125 -0.03125q0.921875 0 1.46875 0.03125q0.546875 0.015625 0.84375 0.109375q0.3125 0.078125 0.4375 0.25q0.140625 0.171875 0.234375 0.46875l6.25 17.921875zm-9.28125 -14.828125l-0.015625 0l-2.859375 8.59375l5.734375 0l-2.859375 -8.59375zm16.890625 13.484375q0 0.625 -0.0625 1.140625q-0.0625 0.5 -0.203125 0.953125q-0.140625 0.453125 -0.359375 0.875q-0.21875 0.4375 -0.546875 0.890625l-2.09375 3.0q-0.109375 0.15625 -0.25 0.265625q-0.125 0.109375 -0.3125 0.171875q-0.1875 0.0625 -0.453125 0.09375q-0.265625 0.046875 -0.671875 0.046875q-0.453125 0 -0.734375 -0.046875q-0.28125 -0.03125 -0.40625 -0.109375q-0.125 -0.078125 -0.140625 -0.203125q0 -0.125 0.078125 -0.296875l1.90625 -4.3125l0 -2.46875q0 -0.53125 0.125 -0.859375q0.125 -0.328125 0.390625 -0.5q0.265625 -0.171875 0.671875 -0.21875q0.40625 -0.0625 0.984375 -0.0625q0.546875 0 0.9375 0.0625q0.390625 0.046875 0.640625 0.21875q0.265625 0.171875 0.375 0.5q0.125 0.328125 0.125 0.859375zm17.65625 -4.8125q0 1.859375 -0.40625 3.34375q-0.40625 1.484375 -1.171875 2.53125q-0.765625 1.046875 -1.890625 1.609375q-1.109375 0.5625 -2.53125 0.5625q-0.703125 0 -1.3125 -0.140625q-0.609375 -0.125 -1.171875 -0.421875q-0.546875 -0.296875 -1.09375 -0.75q-0.53125 -0.453125 -1.09375 -1.09375l0 1.515625q0 0.171875 -0.09375 0.296875q-0.078125 0.109375 -0.28125 0.1875q-0.1875 0.078125 -0.515625 0.109375q-0.328125 0.03125 -0.796875 0.03125q-0.484375 0 -0.8125 -0.03125q-0.3125 -0.03125 -0.515625 -0.109375q-0.1875 -0.078125 -0.265625 -0.1875q-0.078125 -0.125 -0.078125 -0.296875l0 -20.546875q0 -0.15625 0.09375 -0.28125q0.09375 -0.125 0.3125 -0.203125q0.234375 -0.09375 0.609375 -0.140625q0.375 -0.046875 0.953125 -0.046875q0.578125 0 0.953125 0.046875q0.375 0.046875 0.59375 0.140625q0.234375 0.078125 0.328125 0.203125q0.09375 0.125 0.09375 0.28125l0 7.703125q0.53125 -0.53125 1.0625 -0.90625q0.53125 -0.375 1.0625 -0.609375q0.53125 -0.25 1.09375 -0.359375q0.5625 -0.109375 1.1875 -0.109375q1.546875 0 2.625 0.625q1.078125 0.609375 1.75 1.65625q0.6875 1.046875 1.0 2.453125q0.3125 1.390625 0.3125 2.9375zm-4.078125 0.28125q0 -0.890625 -0.140625 -1.71875q-0.125 -0.828125 -0.453125 -1.46875q-0.328125 -0.640625 -0.859375 -1.015625q-0.515625 -0.390625 -1.3125 -0.390625q-0.390625 0 -0.765625 0.109375q-0.375 0.109375 -0.78125 0.375q-0.390625 0.265625 -0.8125 0.6875q-0.421875 0.421875 -0.890625 1.046875l0 4.625q0.828125 1.0625 1.578125 1.625q0.765625 0.546875 1.59375 0.546875q0.765625 0 1.296875 -0.390625q0.53125 -0.390625 0.875 -1.015625q0.359375 -0.625 0.515625 -1.421875q0.15625 -0.796875 0.15625 -1.59375z" fill-rule="nonzero"/><path fill="#000000" fill-opacity="0.0" d="m138.18164 58.285515c4.0538025 -8.756779 46.052933 -44.108486 24.32283 -52.54068c-21.730087 -8.432196 -131.51443 -6.971566 -154.7034 1.9475064c-23.188976 8.919073 12.974628 42.97244 15.569553 51.56693" fill-rule="evenodd"/><path stroke="#44546a" stroke-width="3.0" stroke-linejoin="round" stroke-linecap="butt" d="m138.18164 58.285515c4.0538177 -8.756783 46.052933 -44.108486 24.322845 -52.540684c-21.730103 -8.432196 -131.51445 -6.9715657 -154.70341 1.9475069c-11.594488 4.459535 -8.350831 15.202646 -1.8841863 25.905184c3.2333221 5.351269 7.2723913 10.692394 10.665315 15.232857c0.42411423 0.5675621 0.83813286 1.1226082 1.2392197 1.6636009l0.05537033 0.07494736" fill-rule="evenodd"/><path fill="#44546a" stroke="#44546a" stroke-width="3.0" stroke-linecap="butt" d="m17.876781 50.568928l-4.654476 -1.0489197l7.8047924 6.032196l-2.1013966 -9.637756z" fill-rule="evenodd"/><path fill="#75114a" fill-opacity="0.7451" d="m209.89764 31.538057l105.102356 0l0 -21.889763l43.77954 43.77953l-43.77954 43.77953l0 -21.889763l-105.102356 0z" fill-rule="evenodd"/><path stroke="#44546a" stroke-width="1.0" stroke-linejoin="round" stroke-linecap="butt" d="m209.89764 31.538057l105.102356 0l0 -21.889763l43.77954 43.77953l-43.77954 43.77953l0 -21.889763l-105.102356 0z" fill-rule="evenodd"/><path fill="#000000" d="m251.5109 57.679073q0 1.84375 -0.546875 3.296875q-0.53125 1.4375 -1.53125 2.4375q-1.0 0.9999962 -2.4375 1.5156212q-1.4375 0.515625 -3.265625 0.515625q-1.671875 0 -3.046875 -0.484375q-1.375 -0.484375 -2.359375 -1.4218712q-0.984375 -0.953125 -1.515625 -2.375q-0.53125 -1.421875 -0.53125 -3.28125l0 -12.546875q0 -0.125 0.0625 -0.21875q0.0625 -0.09375 0.21875 -0.140625q0.15625 -0.0625 0.40625 -0.09375q0.25 -0.046875 0.65625 -0.046875q0.375 0 0.640625 0.046875q0.265625 0.03125 0.40625 0.09375q0.15625 0.046875 0.21875 0.140625q0.0625 0.09375 0.0625 0.21875l0 12.21875q0 1.40625 0.34375 2.453125q0.34375 1.046875 0.984375 1.75q0.65625 0.6875 1.5625 1.046875q0.921875 0.34375 2.0625 0.34375q1.171875 0 2.078125 -0.34375q0.921875 -0.34375 1.546875 -1.03125q0.640625 -0.6875 0.96875 -1.703125q0.34375 -1.015625 0.34375 -2.375l0 -12.359375q0 -0.125 0.0625 -0.21875q0.0625 -0.09375 0.21875 -0.140625q0.15625 -0.0625 0.40625 -0.09375q0.265625 -0.046875 0.65625 -0.046875q0.375 0 0.625 0.046875q0.265625 0.03125 0.40625 0.09375q0.15625 0.046875 0.21875 0.140625q0.078125 0.09375 0.078125 0.21875l0 12.34375zm17.140625 7.078121q0 0.125 -0.0625 0.21875q-0.0625 0.078125 -0.203125 0.140625q-0.140625 0.0625 -0.390625 0.09375q-0.25 0.03125 -0.625 0.03125q-0.390625 0 -0.640625 -0.03125q-0.25 -0.03125 -0.390625 -0.09375q-0.140625 -0.0625 -0.203125 -0.140625q-0.0625 -0.09375 -0.0625 -0.21875l0 -8.234371q0 -1.203125 -0.1875 -1.9375q-0.1875 -0.734375 -0.546875 -1.265625q-0.359375 -0.53125 -0.9375 -0.8125q-0.5625 -0.28125 -1.3125 -0.28125q-0.96875 0 -1.9375 0.6875q-0.96875 0.6875 -2.03125 2.015625l0 9.828121q0 0.125 -0.0625 0.21875q-0.0625 0.078125 -0.203125 0.140625q-0.140625 0.0625 -0.390625 0.09375q-0.25 0.03125 -0.640625 0.03125q-0.375 0 -0.625 -0.03125q-0.25 -0.03125 -0.40625 -0.09375q-0.140625 -0.0625 -0.203125 -0.140625q-0.046875 -0.09375 -0.046875 -0.21875l0 -14.062496q0 -0.125 0.046875 -0.203125q0.046875 -0.09375 0.1875 -0.15625q0.140625 -0.078125 0.359375 -0.09375q0.21875 -0.03125 0.578125 -0.03125q0.34375 0 0.5625 0.03125q0.234375 0.015625 0.359375 0.09375q0.125 0.0625 0.171875 0.15625q0.0625 0.078125 0.0625 0.203125l0 1.859375q1.1875 -1.328125 2.359375 -1.9375q1.1875 -0.625 2.390625 -0.625q1.40625 0 2.359375 0.484375q0.96875 0.46875 1.5625 1.265625q0.59375 0.796875 0.84375 1.875q0.265625 1.0625 0.265625 2.5625l0 8.578121zm12.921875 -13.140621q0 0.34375 -0.015625 0.578125q-0.015625 0.234375 -0.0625 0.375q-0.046875 0.125 -0.125 0.203125q-0.0625 0.0625 -0.1875 0.0625q-0.125 0 -0.3125 -0.0625q-0.171875 -0.078125 -0.40625 -0.140625q-0.21875 -0.078125 -0.5 -0.140625q-0.28125 -0.0625 -0.609375 -0.0625q-0.390625 0 -0.765625 0.15625q-0.375 0.15625 -0.796875 0.515625q-0.40625 0.359375 -0.859375 0.953125q-0.453125 0.59375 -1.0 1.453125l0 9.249996q0 0.125 -0.0625 0.21875q-0.0625 0.078125 -0.203125 0.140625q-0.140625 0.0625 -0.390625 0.09375q-0.25 0.03125 -0.640625 0.03125q-0.375 0 -0.625 -0.03125q-0.25 -0.03125 -0.40625 -0.09375q-0.140625 -0.0625 -0.203125 -0.140625q-0.046875 -0.09375 -0.046875 -0.21875l0 -14.062496q0 -0.125 0.046875 -0.203125q0.046875 -0.09375 0.1875 -0.15625q0.140625 -0.078125 0.359375 -0.09375q0.21875 -0.03125 0.578125 -0.03125q0.34375 0 0.5625 0.03125q0.234375 0.015625 0.359375 0.09375q0.125 0.0625 0.171875 0.15625q0.0625 0.078125 0.0625 0.203125l0 2.046875q0.578125 -0.84375 1.078125 -1.375q0.515625 -0.53125 0.96875 -0.828125q0.453125 -0.3125 0.890625 -0.421875q0.453125 -0.125 0.90625 -0.125q0.203125 0 0.453125 0.03125q0.265625 0.015625 0.546875 0.078125q0.28125 0.0625 0.5 0.140625q0.234375 0.078125 0.328125 0.15625q0.09375 0.078125 0.125 0.15625q0.03125 0.0625 0.046875 0.171875q0.03125 0.109375 0.03125 0.328125q0.015625 0.203125 0.015625 0.5625zm15.5 5.953125q0 1.71875 -0.453125 3.171875q-0.453125 1.4375 -1.359375 2.484375q-0.890625 1.0468712 -2.25 1.6406212q-1.34375 0.578125 -3.125 0.578125q-1.734375 0 -3.03125 -0.515625q-1.28125 -0.515625 -2.140625 -1.4999962q-0.859375 -0.984375 -1.28125 -2.390625q-0.421875 -1.40625 -0.421875 -3.1875q0 -1.71875 0.4375 -3.15625q0.453125 -1.453125 1.34375 -2.5q0.90625 -1.046875 2.25 -1.625q1.34375 -0.578125 3.140625 -0.578125q1.734375 0 3.015625 0.515625q1.296875 0.515625 2.15625 1.5q0.859375 0.984375 1.28125 2.390625q0.4375 1.40625 0.4375 3.171875zm-2.71875 0.171875q0 -1.140625 -0.21875 -2.15625q-0.203125 -1.015625 -0.6875 -1.78125q-0.484375 -0.765625 -1.3125 -1.203125q-0.828125 -0.453125 -2.0625 -0.453125q-1.140625 0 -1.96875 0.40625q-0.8125 0.40625 -1.34375 1.15625q-0.53125 0.734375 -0.796875 1.75q-0.25 1.015625 -0.25 2.21875q0 1.15625 0.203125 2.171875q0.21875 1.015625 0.703125 1.78125q0.5 0.75 1.328125 1.203125q0.828125 0.4375 2.0625 0.4375q1.125 0 1.953125 -0.40625q0.828125 -0.40625 1.359375 -1.140625q0.53125 -0.734375 0.78125 -1.75q0.25 -1.015625 0.25 -2.234375zm9.09375 7.015621q0 0.125 -0.0625 0.21875q-0.0625 0.078125 -0.203125 0.140625q-0.140625 0.0625 -0.390625 0.09375q-0.25 0.03125 -0.640625 0.03125q-0.375 0 -0.625 -0.03125q-0.25 -0.03125 -0.40625 -0.09375q-0.140625 -0.0625 -0.203125 -0.140625q-0.046875 -0.09375 -0.046875 -0.21875l0 -20.874996q0 -0.125 0.046875 -0.21875q0.0625 -0.09375 0.203125 -0.15625q0.15625 -0.0625 0.40625 -0.09375q0.25 -0.03125 0.625 -0.03125q0.390625 0 0.640625 0.03125q0.25 0.03125 0.390625 0.09375q0.140625 0.0625 0.203125 0.15625q0.0625 0.09375 0.0625 0.21875l0 20.874996zm7.34375 0q0 0.125 -0.0625 0.21875q-0.0625 0.078125 -0.203125 0.140625q-0.140625 0.0625 -0.390625 0.09375q-0.25 0.03125 -0.640625 0.03125q-0.375 0 -0.625 -0.03125q-0.25 -0.03125 -0.40625 -0.09375q-0.140625 -0.0625 -0.203125 -0.140625q-0.046875 -0.09375 -0.046875 -0.21875l0 -20.874996q0 -0.125 0.046875 -0.21875q0.0625 -0.09375 0.203125 -0.15625q0.15625 -0.0625 0.40625 -0.09375q0.25 -0.03125 0.625 -0.03125q0.390625 0 0.640625 0.03125q0.25 0.03125 0.390625 0.09375q0.140625 0.0625 0.203125 0.15625q0.0625 0.09375 0.0625 0.21875l0 20.874996z" fill-rule="nonzero"/><path fill="#b0dd46" fill-opacity="0.8039" d="m431.4777 20.341208l114.80313 0l0 66.173225l-114.80313 0z" fill-rule="evenodd"/><path stroke="#44546a" stroke-width="1.0" stroke-linejoin="round" stroke-linecap="butt" d="m431.4777 20.341208l114.80313 0l0 66.173225l-114.80313 0z" fill-rule="evenodd"/><path fill="#000000" d="m485.04333 63.61657q0.1875 0.5625 0.234375 0.890625q0.046875 0.328125 -0.125 0.5q-0.171875 0.15625 -0.609375 0.1875q-0.4375 0.046875 -1.203125 0.046875q-0.796875 0 -1.25 -0.03125q-0.4375 -0.015625 -0.671875 -0.078125q-0.234375 -0.078125 -0.328125 -0.203125q-0.09375 -0.125 -0.15625 -0.328125l-1.359375 -4.0625l-7.59375 0l-1.28125 3.953125q-0.0625 0.21875 -0.171875 0.375q-0.09375 0.140625 -0.328125 0.234375q-0.21875 0.078125 -0.640625 0.109375q-0.40625 0.03125 -1.078125 0.03125q-0.71875 0 -1.125 -0.046875q-0.40625 -0.046875 -0.5625 -0.21875q-0.15625 -0.1875 -0.109375 -0.515625q0.046875 -0.328125 0.234375 -0.875l6.234375 -17.9375q0.09375 -0.265625 0.21875 -0.421875q0.125 -0.171875 0.390625 -0.25q0.28125 -0.09375 0.765625 -0.109375q0.484375 -0.03125 1.28125 -0.03125q0.921875 0 1.46875 0.03125q0.546875 0.015625 0.84375 0.109375q0.3125 0.078125 0.4375 0.25q0.140625 0.171875 0.234375 0.46875l6.25 17.921875zm-9.28125 -14.828125l-0.015625 0l-2.859375 8.59375l5.734375 0l-2.859375 -8.59375zm16.890625 13.484375q0 0.625 -0.0625 1.140625q-0.0625 0.5 -0.203125 0.953125q-0.140625 0.453125 -0.359375 0.875q-0.21875 0.4375 -0.546875 0.890625l-2.09375 3.0q-0.109375 0.15625 -0.25 0.265625q-0.125 0.109375 -0.3125 0.171875q-0.1875 0.0625 -0.453125 0.09375q-0.265625 0.046875 -0.671875 0.046875q-0.453125 0 -0.734375 -0.046875q-0.28125 -0.03125 -0.40625 -0.109375q-0.125 -0.078125 -0.140625 -0.203125q0 -0.125 0.078125 -0.296875l1.90625 -4.3125l0 -2.46875q0 -0.53125 0.125 -0.859375q0.125 -0.328125 0.390625 -0.5q0.265625 -0.171875 0.671875 -0.21875q0.40625 -0.0625 0.984375 -0.0625q0.546875 0 0.9375 0.0625q0.390625 0.046875 0.640625 0.21875q0.265625 0.171875 0.375 0.5q0.125 0.328125 0.125 0.859375zm17.65625 -4.8125q0 1.859375 -0.40625 3.34375q-0.40625 1.484375 -1.171875 2.53125q-0.765625 1.046875 -1.890625 1.609375q-1.109375 0.5625 -2.53125 0.5625q-0.703125 0 -1.3125 -0.140625q-0.609375 -0.125 -1.171875 -0.421875q-0.546875 -0.296875 -1.09375 -0.75q-0.53125 -0.453125 -1.09375 -1.09375l0 1.515625q0 0.171875 -0.09375 0.296875q-0.078125 0.109375 -0.28125 0.1875q-0.1875 0.078125 -0.515625 0.109375q-0.328125 0.03125 -0.796875 0.03125q-0.484375 0 -0.8125 -0.03125q-0.3125 -0.03125 -0.515625 -0.109375q-0.1875 -0.078125 -0.265625 -0.1875q-0.078125 -0.125 -0.078125 -0.296875l0 -20.546875q0 -0.15625 0.09375 -0.28125q0.09375 -0.125 0.3125 -0.203125q0.234375 -0.09375 0.609375 -0.140625q0.375 -0.046875 0.953125 -0.046875q0.578125 0 0.953125 0.046875q0.375 0.046875 0.59375 0.140625q0.234375 0.078125 0.328125 0.203125q0.09375 0.125 0.09375 0.28125l0 7.703125q0.53125 -0.53125 1.0625 -0.90625q0.53125 -0.375 1.0625 -0.609375q0.53125 -0.25 1.09375 -0.359375q0.5625 -0.109375 1.1875 -0.109375q1.546875 0 2.625 0.625q1.078125 0.609375 1.75 1.65625q0.6875 1.046875 1.0 2.453125q0.3125 1.390625 0.3125 2.9375zm-4.078125 0.28125q0 -0.890625 -0.140625 -1.71875q-0.125 -0.828125 -0.453125 -1.46875q-0.328125 -0.640625 -0.859375 -1.015625q-0.515625 -0.390625 -1.3125 -0.390625q-0.390625 0 -0.765625 0.109375q-0.375 0.109375 -0.78125 0.375q-0.390625 0.265625 -0.8125 0.6875q-0.421875 0.421875 -0.890625 1.046875l0 4.625q0.828125 1.0625 1.578125 1.625q0.765625 0.546875 1.59375 0.546875q0.765625 0 1.296875 -0.390625q0.53125 -0.390625 0.875 -1.015625q0.359375 -0.625 0.515625 -1.421875q0.15625 -0.796875 0.15625 -1.59375z" fill-rule="nonzero"/><path fill="#b0dd46" fill-opacity="0.8039" d="m608.9921 20.341208l114.80316 0l0 66.173225l-114.80316 0z" fill-rule="evenodd"/><path stroke="#44546a" stroke-width="1.0" stroke-linejoin="round" stroke-linecap="butt" d="m608.9921 20.341208l114.80316 0l0 66.173225l-114.80316 0z" fill-rule="evenodd"/><path fill="#000000" d="m662.55774 63.61657q0.1875 0.5625 0.234375 0.890625q0.046875 0.328125 -0.125 0.5q-0.171875 0.15625 -0.609375 0.1875q-0.4375 0.046875 -1.203125 0.046875q-0.796875 0 -1.25 -0.03125q-0.4375 -0.015625 -0.671875 -0.078125q-0.234375 -0.078125 -0.328125 -0.203125q-0.09375 -0.125 -0.15625 -0.328125l-1.359375 -4.0625l-7.59375 0l-1.28125 3.953125q-0.0625 0.21875 -0.171875 0.375q-0.09375 0.140625 -0.328125 0.234375q-0.21875 0.078125 -0.640625 0.109375q-0.40625 0.03125 -1.078125 0.03125q-0.71875 0 -1.125 -0.046875q-0.40625 -0.046875 -0.5625 -0.21875q-0.15625 -0.1875 -0.109375 -0.515625q0.046875 -0.328125 0.234375 -0.875l6.234375 -17.9375q0.09375 -0.265625 0.21875 -0.421875q0.125 -0.171875 0.390625 -0.25q0.28125 -0.09375 0.765625 -0.109375q0.484375 -0.03125 1.28125 -0.03125q0.921875 0 1.46875 0.03125q0.546875 0.015625 0.84375 0.109375q0.3125 0.078125 0.4375 0.25q0.140625 0.171875 0.234375 0.46875l6.25 17.921875zm-9.28125 -14.828125l-0.015625 0l-2.859375 8.59375l5.734375 0l-2.859375 -8.59375zm16.890625 13.484375q0 0.625 -0.0625 1.140625q-0.0625 0.5 -0.203125 0.953125q-0.140625 0.453125 -0.359375 0.875q-0.21875 0.4375 -0.546875 0.890625l-2.09375 3.0q-0.109375 0.15625 -0.25 0.265625q-0.125 0.109375 -0.3125 0.171875q-0.1875 0.0625 -0.453125 0.09375q-0.265625 0.046875 -0.671875 0.046875q-0.453125 0 -0.734375 -0.046875q-0.28125 -0.03125 -0.40625 -0.109375q-0.125 -0.078125 -0.140625 -0.203125q0 -0.125 0.078125 -0.296875l1.90625 -4.3125l0 -2.46875q0 -0.53125 0.125 -0.859375q0.125 -0.328125 0.390625 -0.5q0.265625 -0.171875 0.671875 -0.21875q0.40625 -0.0625 0.984375 -0.0625q0.546875 0 0.9375 0.0625q0.390625 0.046875 0.640625 0.21875q0.265625 0.171875 0.375 0.5q0.125 0.328125 0.125 0.859375zm17.65625 -4.8125q0 1.859375 -0.40625 3.34375q-0.40625 1.484375 -1.171875 2.53125q-0.765625 1.046875 -1.890625 1.609375q-1.109375 0.5625 -2.53125 0.5625q-0.703125 0 -1.3125 -0.140625q-0.609375 -0.125 -1.171875 -0.421875q-0.546875 -0.296875 -1.09375 -0.75q-0.53125 -0.453125 -1.09375 -1.09375l0 1.515625q0 0.171875 -0.09375 0.296875q-0.078125 0.109375 -0.28125 0.1875q-0.1875 0.078125 -0.515625 0.109375q-0.328125 0.03125 -0.796875 0.03125q-0.484375 0 -0.8125 -0.03125q-0.3125 -0.03125 -0.515625 -0.109375q-0.1875 -0.078125 -0.265625 -0.1875q-0.078125 -0.125 -0.078125 -0.296875l0 -20.546875q0 -0.15625 0.09375 -0.28125q0.09375 -0.125 0.3125 -0.203125q0.234375 -0.09375 0.609375 -0.140625q0.375 -0.046875 0.953125 -0.046875q0.578125 0 0.953125 0.046875q0.375 0.046875 0.59375 0.140625q0.234375 0.078125 0.328125 0.203125q0.09375 0.125 0.09375 0.28125l0 7.703125q0.53125 -0.53125 1.0625 -0.90625q0.53125 -0.375 1.0625 -0.609375q0.53125 -0.25 1.09375 -0.359375q0.5625 -0.109375 1.1875 -0.109375q1.546875 0 2.625 0.625q1.078125 0.609375 1.75 1.65625q0.6875 1.046875 1.0 2.453125q0.3125 1.390625 0.3125 2.9375zm-4.078125 0.28125q0 -0.890625 -0.140625 -1.71875q-0.125 -0.828125 -0.453125 -1.46875q-0.328125 -0.640625 -0.859375 -1.015625q-0.515625 -0.390625 -1.3125 -0.390625q-0.390625 0 -0.765625 0.109375q-0.375 0.109375 -0.78125 0.375q-0.390625 0.265625 -0.8125 0.6875q-0.421875 0.421875 -0.890625 1.046875l0 4.625q0.828125 1.0625 1.578125 1.625q0.765625 0.546875 1.59375 0.546875q0.765625 0 1.296875 -0.390625q0.53125 -0.390625 0.875 -1.015625q0.359375 -0.625 0.515625 -1.421875q0.15625 -0.796875 0.15625 -1.59375z" fill-rule="nonzero"/><path fill="#b0dd46" fill-opacity="0.8039" d="m779.69556 20.341208l114.8031 0l0 66.173225l-114.8031 0z" fill-rule="evenodd"/><path stroke="#44546a" stroke-width="1.0" stroke-linejoin="round" stroke-linecap="butt" d="m779.69556 20.341208l114.8031 0l0 66.173225l-114.8031 0z" fill-rule="evenodd"/><path fill="#000000" d="m833.26117 63.61657q0.1875 0.5625 0.234375 0.890625q0.046875 0.328125 -0.125 0.5q-0.171875 0.15625 -0.609375 0.1875q-0.4375 0.046875 -1.203125 0.046875q-0.796875 0 -1.25 -0.03125q-0.4375 -0.015625 -0.671875 -0.078125q-0.234375 -0.078125 -0.328125 -0.203125q-0.09375 -0.125 -0.15625 -0.328125l-1.359375 -4.0625l-7.59375 0l-1.28125 3.953125q-0.0625 0.21875 -0.171875 0.375q-0.09375 0.140625 -0.328125 0.234375q-0.21875 0.078125 -0.640625 0.109375q-0.40625 0.03125 -1.078125 0.03125q-0.71875 0 -1.125 -0.046875q-0.40625 -0.046875 -0.5625 -0.21875q-0.15625 -0.1875 -0.109375 -0.515625q0.046875 -0.328125 0.234375 -0.875l6.234375 -17.9375q0.09375 -0.265625 0.21875 -0.421875q0.125 -0.171875 0.390625 -0.25q0.28125 -0.09375 0.765625 -0.109375q0.484375 -0.03125 1.28125 -0.03125q0.921875 0 1.46875 0.03125q0.546875 0.015625 0.84375 0.109375q0.3125 0.078125 0.4375 0.25q0.140625 0.171875 0.234375 0.46875l6.25 17.921875zm-9.28125 -14.828125l-0.015625 0l-2.859375 8.59375l5.734375 0l-2.859375 -8.59375zm16.890625 13.484375q0 0.625 -0.0625 1.140625q-0.0625 0.5 -0.203125 0.953125q-0.140625 0.453125 -0.359375 0.875q-0.21875 0.4375 -0.546875 0.890625l-2.09375 3.0q-0.109375 0.15625 -0.25 0.265625q-0.125 0.109375 -0.3125 0.171875q-0.1875 0.0625 -0.453125 0.09375q-0.265625 0.046875 -0.671875 0.046875q-0.453125 0 -0.734375 -0.046875q-0.28125 -0.03125 -0.40625 -0.109375q-0.125 -0.078125 -0.140625 -0.203125q0 -0.125 0.078125 -0.296875l1.90625 -4.3125l0 -2.46875q0 -0.53125 0.125 -0.859375q0.125 -0.328125 0.390625 -0.5q0.265625 -0.171875 0.671875 -0.21875q0.40625 -0.0625 0.984375 -0.0625q0.546875 0 0.9375 0.0625q0.390625 0.046875 0.640625 0.21875q0.265625 0.171875 0.375 0.5q0.125 0.328125 0.125 0.859375zm17.65625 -4.8125q0 1.859375 -0.40625 3.34375q-0.40625 1.484375 -1.171875 2.53125q-0.765625 1.046875 -1.890625 1.609375q-1.109375 0.5625 -2.53125 0.5625q-0.703125 0 -1.3125 -0.140625q-0.609375 -0.125 -1.171875 -0.421875q-0.546875 -0.296875 -1.09375 -0.75q-0.53125 -0.453125 -1.09375 -1.09375l0 1.515625q0 0.171875 -0.09375 0.296875q-0.078125 0.109375 -0.28125 0.1875q-0.1875 0.078125 -0.515625 0.109375q-0.328125 0.03125 -0.796875 0.03125q-0.484375 0 -0.8125 -0.03125q-0.3125 -0.03125 -0.515625 -0.109375q-0.1875 -0.078125 -0.265625 -0.1875q-0.078125 -0.125 -0.078125 -0.296875l0 -20.546875q0 -0.15625 0.09375 -0.28125q0.09375 -0.125 0.3125 -0.203125q0.234375 -0.09375 0.609375 -0.140625q0.375 -0.046875 0.953125 -0.046875q0.578125 0 0.953125 0.046875q0.375 0.046875 0.59375 0.140625q0.234375 0.078125 0.328125 0.203125q0.09375 0.125 0.09375 0.28125l0 7.703125q0.53125 -0.53125 1.0625 -0.90625q0.53125 -0.375 1.0625 -0.609375q0.53125 -0.25 1.09375 -0.359375q0.5625 -0.109375 1.1875 -0.109375q1.546875 0 2.625 0.625q1.078125 0.609375 1.75 1.65625q0.6875 1.046875 1.0 2.453125q0.3125 1.390625 0.3125 2.9375zm-4.078125 0.28125q0 -0.890625 -0.140625 -1.71875q-0.125 -0.828125 -0.453125 -1.46875q-0.328125 -0.640625 -0.859375 -1.015625q-0.515625 -0.390625 -1.3125 -0.390625q-0.390625 0 -0.765625 0.109375q-0.375 0.109375 -0.78125 0.375q-0.390625 0.265625 -0.8125 0.6875q-0.421875 0.421875 -0.890625 1.046875l0 4.625q0.828125 1.0625 1.578125 1.625q0.765625 0.546875 1.59375 0.546875q0.765625 0 1.296875 -0.390625q0.53125 -0.390625 0.875 -1.015625q0.359375 -0.625 0.515625 -1.421875q0.15625 -0.796875 0.15625 -1.59375z" fill-rule="nonzero"/><path fill="#000000" fill-opacity="0.0" d="m405.7454 54.404198l25.7323 -0.9763756" fill-rule="evenodd"/><path stroke="#44546a" stroke-width="3.0" stroke-linejoin="round" stroke-linecap="butt" d="m405.7454 54.404198l7.74527 -0.29388046" fill-rule="evenodd"/><path fill="#44546a" stroke="#44546a" stroke-width="3.0" stroke-linecap="butt" d="m413.67853 59.06195l13.416595 -5.4678383l-13.792358 -4.4354286z" fill-rule="evenodd"/><path fill="#000000" fill-opacity="0.0" d="m546.2808 53.427822l62.70868 0" fill-rule="evenodd"/><path stroke="#44546a" stroke-width="3.0" stroke-linejoin="round" stroke-linecap="butt" d="m546.2808 53.427822l44.70868 0" fill-rule="evenodd"/><path fill="#44546a" stroke="#44546a" stroke-width="3.0" stroke-linecap="butt" d="m590.9895 58.38302l13.614319 -4.9551964l-13.614319 -4.9551964z" fill-rule="evenodd"/><path fill="#000000" fill-opacity="0.0" d="m723.7953 53.427822l55.905518 0" fill-rule="evenodd"/><path stroke="#44546a" stroke-width="3.0" stroke-linejoin="round" stroke-linecap="butt" d="m723.7953 53.427822l37.905518 0" fill-rule="evenodd"/><path fill="#44546a" stroke="#44546a" stroke-width="3.0" stroke-linecap="butt" d="m761.7008 58.38302l13.614258 -4.9551964l-13.614258 -4.9551964z" fill-rule="evenodd"/><path fill="#000000" fill-opacity="0.0" d="m894.49866 53.427822l37.637817 0.9763756" fill-rule="evenodd"/><path stroke="#44546a" stroke-width="3.0" stroke-linejoin="round" stroke-linecap="butt" d="m894.49866 53.427822l19.64392 0.50959015" fill-rule="evenodd"/><path fill="#44546a" stroke="#44546a" stroke-width="3.0" stroke-linecap="butt" d="m914.01404 58.89094l13.73822 -4.6004753l-13.481201 -5.306587z" fill-rule="evenodd"/></g></svg>