<svg version="1.1" viewBox="0.0 0.0 972.8976377952756 438.0813648293963" fill="none" stroke="none" stroke-linecap="square" stroke-miterlimit="10" xmlns:xlink="http://www.w3.org/1999/xlink" xmlns="http://www.w3.org/2000/svg"><clipPath id="p.0"><path d="m0 0l972.89764 0l0 438.08136l-972.89764 0l0 -438.08136z" clip-rule="nonzero"/></clipPath><g clip-path="url(#p.0)"><path fill="#000000" fill-opacity="0.0" d="m0 0l972.89764 0l0 438.08136l-972.89764 0z" fill-rule="evenodd"/><path fill="#b0dd46" fill-opacity="0.8039" d="m664.8399 50.993145l0 0c0 -28.162737 22.830383 -50.993145 50.993164 -50.993145l203.96643 0l0 0c13.524231 0 26.494507 5.3724766 36.057617 14.935547c9.563049 9.56307 14.935547 22.533375 14.935547 36.0576l0 329.44678c0 28.16275 -22.830444 50.993164 -50.993164 50.993164l-203.96643 0c-28.16278 0 -50.993164 -22.830414 -50.993164 -50.993164z" fill-rule="evenodd"/><path stroke="#44546a" stroke-width="1.0" stroke-linejoin="round" stroke-linecap="butt" d="m664.8399 50.993145l0 0c0 -28.162737 22.830383 -50.993145 50.993164 -50.993145l203.96643 0l0 0c13.524231 0 26.494507 5.3724766 36.057617 14.935547c9.563049 9.56307 14.935547 22.533375 14.935547 36.0576l0 329.44678c0 28.16275 -22.830444 50.993164 -50.993164 50.993164l-203.96643 0c-28.16278 0 -50.993164 -22.830414 -50.993164 -50.993164z" fill-rule="evenodd"/><path fill="#b0dd46" fill-opacity="0.8039" d="m0 50.993145l0 0c0 -28.162737 22.830408 -50.993145 50.993145 -50.993145l203.96646 0l0 0c13.524216 0 26.494522 5.3724766 36.057602 14.935547c9.56308 9.56307 14.935547 22.533375 14.935547 36.0576l0 329.44678c0 28.16275 -22.830414 50.993164 -50.99315 50.993164l-203.96646 0c-28.162737 0 -50.993145 -22.830414 -50.993145 -50.993164z" fill-rule="evenodd"/><path stroke="#44546a" stroke-width="1.0" stroke-linejoin="round" stroke-linecap="butt" d="m0 50.993145l0 0c0 -28.162737 22.830408 -50.993145 50.993145 -50.993145l203.96646 0l0 0c13.524216 0 26.494522 5.3724766 36.057602 14.935547c9.56308 9.56307 14.935547 22.533375 14.935547 36.0576l0 329.44678c0 28.16275 -22.830414 50.993164 -50.99315 50.993164l-203.96646 0c-28.162737 0 -50.993145 -22.830414 -50.993145 -50.993164z" fill-rule="evenodd"/><path fill="#b0dd46" fill-opacity="0.8039" d="m332.41995 50.993145l0 0c0 -28.162737 22.830414 -50.993145 50.993134 -50.993145l203.96649 0l0 0c13.524231 0 26.494507 5.3724766 36.057556 14.935547c9.56311 9.56307 14.935547 22.533375 14.935547 36.0576l0 329.44678c0 28.16275 -22.830383 50.993164 -50.993103 50.993164l-203.96649 0c-28.16272 0 -50.993134 -22.830414 -50.993134 -50.993164z" fill-rule="evenodd"/><path stroke="#44546a" stroke-width="1.0" stroke-linejoin="round" stroke-linecap="butt" d="m332.41995 50.993145l0 0c0 -28.162737 22.830414 -50.993145 50.993134 -50.993145l203.96649 0l0 0c13.524231 0 26.494507 5.3724766 36.057556 14.935547c9.56311 9.56307 14.935547 22.533375 14.935547 36.0576l0 329.44678c0 28.16275 -22.830383 50.993164 -50.993103 50.993164l-203.96649 0c-28.16272 0 -50.993134 -22.830414 -50.993134 -50.993164z" fill-rule="evenodd"/><path fill="#e7e6e6" d="m363.33597 104.63393l0 0c0 -9.167053 7.1211243 -16.598427 15.905487 -16.598427l0 0c4.2184143 0 8.264038 1.7487564 11.246918 4.8615646c2.9828491 3.1128159 4.6586 7.3346863 4.6586 11.736862l0 0c0 9.167061 -7.1211243 16.598427 -15.905518 16.598427l0 0c-8.784363 0 -15.905487 -7.431366 -15.905487 -16.598427z" fill-rule="evenodd"/><path stroke="#44546a" stroke-width="1.0" stroke-linejoin="round" stroke-linecap="butt" d="m363.33597 104.63393l0 0c0 -9.167053 7.1211243 -16.598427 15.905487 -16.598427l0 0c4.2184143 0 8.264038 1.7487564 11.246918 4.8615646c2.9828491 3.1128159 4.6586 7.3346863 4.6586 11.736862l0 0c0 9.167061 -7.1211243 16.598427 -15.905518 16.598427l0 0c-8.784363 0 -15.905487 -7.431366 -15.905487 -16.598427z" fill-rule="evenodd"/><path fill="#e7e6e6" d="m363.33597 177.02649l0 0c0 -9.1670685 7.1211243 -16.598434 15.905487 -16.598434l0 0c4.2184143 0 8.264038 1.748764 11.246918 4.8615723c2.9828491 3.1128082 4.6586 7.3346863 4.6586 11.736862l0 0c0 9.167053 -7.1211243 16.59842 -15.905518 16.59842l0 0c-8.784363 0 -15.905487 -7.431366 -15.905487 -16.59842z" fill-rule="evenodd"/><path stroke="#44546a" stroke-width="1.0" stroke-linejoin="round" stroke-linecap="butt" d="m363.33597 177.02649l0 0c0 -9.1670685 7.1211243 -16.598434 15.905487 -16.598434l0 0c4.2184143 0 8.264038 1.748764 11.246918 4.8615723c2.9828491 3.1128082 4.6586 7.3346863 4.6586 11.736862l0 0c0 9.167053 -7.1211243 16.59842 -15.905518 16.59842l0 0c-8.784363 0 -15.905487 -7.431366 -15.905487 -16.59842z" fill-rule="evenodd"/><path fill="#e7e6e6" d="m363.33597 243.63005l0 0c0 -9.1670685 7.1211243 -16.598434 15.905487 -16.598434l0 0c4.2184143 0 8.264038 1.748764 11.246918 4.8615723c2.9828491 3.1128082 4.6586 7.3346863 4.6586 11.736862l0 0c0 9.167053 -7.1211243 16.598404 -15.905518 16.598404l0 0c-8.784363 0 -15.905487 -7.4313507 -15.905487 -16.598404z" fill-rule="evenodd"/><path stroke="#44546a" stroke-width="1.0" stroke-linejoin="round" stroke-linecap="butt" d="m363.33597 243.63005l0 0c0 -9.1670685 7.1211243 -16.598434 15.905487 -16.598434l0 0c4.2184143 0 8.264038 1.748764 11.246918 4.8615723c2.9828491 3.1128082 4.6586 7.3346863 4.6586 11.736862l0 0c0 9.167053 -7.1211243 16.598404 -15.905518 16.598404l0 0c-8.784363 0 -15.905487 -7.4313507 -15.905487 -16.598404z" fill-rule="evenodd"/><path fill="#e7e6e6" d="m363.33597 316.7833l0 0c0 -9.167053 7.1211243 -16.59842 15.905487 -16.59842l0 0c4.2184143 0 8.264038 1.7487488 11.246918 4.8615723c2.9828491 3.112793 4.6586 7.334656 4.6586 11.736847l0 0c0 9.167053 -7.1211243 16.59842 -15.905518 16.59842l0 0c-8.784363 0 -15.905487 -7.431366 -15.905487 -16.59842z" fill-rule="evenodd"/><path stroke="#44546a" stroke-width="1.0" stroke-linejoin="round" stroke-linecap="butt" d="m363.33597 316.7833l0 0c0 -9.167053 7.1211243 -16.59842 15.905487 -16.59842l0 0c4.2184143 0 8.264038 1.7487488 11.246918 4.8615723c2.9828491 3.112793 4.6586 7.334656 4.6586 11.736847l0 0c0 9.167053 -7.1211243 16.59842 -15.905518 16.59842l0 0c-8.784363 0 -15.905487 -7.431366 -15.905487 -16.59842z" fill-rule="evenodd"/><path fill="#e7e6e6" d="m363.33597 389.93655l0 0c0 -9.167053 7.1211243 -16.59845 15.905487 -16.59845l0 0c4.2184143 0 8.264038 1.7487793 11.246918 4.8615723c2.9828491 3.1128235 4.6586 7.3346863 4.6586 11.736877l0 0c0 9.167053 -7.1211243 16.59842 -15.905518 16.59842l0 0c-8.784363 0 -15.905487 -7.431366 -15.905487 -16.59842z" fill-rule="evenodd"/><path stroke="#44546a" stroke-width="1.0" stroke-linejoin="round" stroke-linecap="butt" d="m363.33597 389.93655l0 0c0 -9.167053 7.1211243 -16.59845 15.905487 -16.59845l0 0c4.2184143 0 8.264038 1.7487793 11.246918 4.8615723c2.9828491 3.1128235 4.6586 7.3346863 4.6586 11.736877l0 0c0 9.167053 -7.1211243 16.59842 -15.905518 16.59842l0 0c-8.784363 0 -15.905487 -7.431366 -15.905487 -16.59842z" fill-rule="evenodd"/><path fill="#e7e6e6" d="m553.9417 137.82289l0 0c0 -9.167053 7.121155 -16.598427 15.905518 -16.598427l0 0c4.218445 0 8.264038 1.7487564 11.246887 4.8615646c2.9829102 3.1128082 4.6586304 7.3346863 4.6586304 11.736862l0 0c0 9.167053 -7.121155 16.59842 -15.905518 16.59842l0 0c-8.784363 0 -15.905518 -7.431366 -15.905518 -16.59842z" fill-rule="evenodd"/><path stroke="#44546a" stroke-width="1.0" stroke-linejoin="round" stroke-linecap="butt" d="m553.9417 137.82289l0 0c0 -9.167053 7.121155 -16.598427 15.905518 -16.598427l0 0c4.218445 0 8.264038 1.7487564 11.246887 4.8615646c2.9829102 3.1128082 4.6586304 7.3346863 4.6586304 11.736862l0 0c0 9.167053 -7.121155 16.59842 -15.905518 16.59842l0 0c-8.784363 0 -15.905518 -7.431366 -15.905518 -16.59842z" fill-rule="evenodd"/><path fill="#e7e6e6" d="m363.33597 46.417324l0 0c0 -9.167057 7.1211243 -16.598427 15.905487 -16.598427l0 0c4.2184143 0 8.264038 1.7487583 11.246918 4.8615685c2.9828491 3.1128082 4.6586 7.3346825 4.6586 11.736858l0 0c0 9.167057 -7.1211243 16.598423 -15.905518 16.598423l0 0c-8.784363 0 -15.905487 -7.431366 -15.905487 -16.598423z" fill-rule="evenodd"/><path stroke="#44546a" stroke-width="1.0" stroke-linejoin="round" stroke-linecap="butt" d="m363.33597 46.417324l0 0c0 -9.167057 7.1211243 -16.598427 15.905487 -16.598427l0 0c4.2184143 0 8.264038 1.7487583 11.246918 4.8615685c2.9828491 3.1128082 4.6586 7.3346825 4.6586 11.736858l0 0c0 9.167057 -7.1211243 16.598423 -15.905518 16.598423l0 0c-8.784363 0 -15.905487 -7.431366 -15.905487 -16.598423z" fill-rule="evenodd"/><path fill="#e7e6e6" d="m553.9417 204.78961l0 0c0 -9.1670685 7.121155 -16.598434 15.905518 -16.598434l0 0c4.218445 0 8.264038 1.748764 11.246887 4.8615723c2.9829102 3.1128082 4.6586304 7.3346863 4.6586304 11.736862l0 0c0 9.167053 -7.121155 16.59842 -15.905518 16.59842l0 0c-8.784363 0 -15.905518 -7.431366 -15.905518 -16.59842z" fill-rule="evenodd"/><path stroke="#44546a" stroke-width="1.0" stroke-linejoin="round" stroke-linecap="butt" d="m553.9417 204.78961l0 0c0 -9.1670685 7.121155 -16.598434 15.905518 -16.598434l0 0c4.218445 0 8.264038 1.748764 11.246887 4.8615723c2.9829102 3.1128082 4.6586304 7.3346863 4.6586304 11.736862l0 0c0 9.167053 -7.121155 16.59842 -15.905518 16.59842l0 0c-8.784363 0 -15.905518 -7.431366 -15.905518 -16.59842z" fill-rule="evenodd"/><path fill="#e7e6e6" d="m553.9417 276.81686l0 0c0 -9.167053 7.121155 -16.59842 15.905518 -16.59842l0 0c4.218445 0 8.264038 1.7487488 11.246887 4.8615417c2.9829102 3.1128235 4.6586304 7.3346863 4.6586304 11.736877l0 0c0 9.167053 -7.121155 16.59842 -15.905518 16.59842l0 0c-8.784363 0 -15.905518 -7.431366 -15.905518 -16.59842z" fill-rule="evenodd"/><path stroke="#44546a" stroke-width="1.0" stroke-linejoin="round" stroke-linecap="butt" d="m553.9417 276.81686l0 0c0 -9.167053 7.121155 -16.59842 15.905518 -16.59842l0 0c4.218445 0 8.264038 1.7487488 11.246887 4.8615417c2.9829102 3.1128235 4.6586304 7.3346863 4.6586304 11.736877l0 0c0 9.167053 -7.121155 16.59842 -15.905518 16.59842l0 0c-8.784363 0 -15.905518 -7.431366 -15.905518 -16.59842z" fill-rule="evenodd"/><path fill="#000000" fill-opacity="0.0" d="m395.14697 46.417324l158.80316 91.401566" fill-rule="evenodd"/><path stroke="#44546a" stroke-width="3.0" stroke-linejoin="round" stroke-linecap="butt" d="m395.14697 46.417324l149.89246 86.27287" fill-rule="evenodd"/><path fill="#44546a" stroke="#44546a" stroke-width="3.0" stroke-linecap="butt" d="m545.0394 132.6902l-4.6069946 1.2410583l9.716614 1.6998749l-6.350708 -7.5478973z" fill-rule="evenodd"/><path fill="#000000" fill-opacity="0.0" d="m395.14697 46.417324l158.80316 158.3622" fill-rule="evenodd"/><path stroke="#44546a" stroke-width="3.0" stroke-linejoin="round" stroke-linecap="butt" d="m395.14697 46.417324l151.52307 151.10236" fill-rule="evenodd"/><path fill="#44546a" stroke="#44546a" stroke-width="3.0" stroke-linecap="butt" d="m546.6701 197.5197l-4.77124 0.0066223145l8.945801 4.156357l-4.1812134 -8.934189z" fill-rule="evenodd"/><path fill="#000000" fill-opacity="0.0" d="m395.14697 46.417324l158.80316 230.3937" fill-rule="evenodd"/><path stroke="#44546a" stroke-width="3.0" stroke-linejoin="round" stroke-linecap="butt" d="m395.14697 46.417324l152.96832 221.9285" fill-rule="evenodd"/><path fill="#44546a" stroke="#44546a" stroke-width="3.0" stroke-linecap="butt" d="m548.11536 268.34583l-4.692505 -0.8631592l8.03833 5.717346l-2.482666 -9.546661z" fill-rule="evenodd"/><path fill="#000000" fill-opacity="0.0" d="m395.14697 104.63393l158.80316 33.196854" fill-rule="evenodd"/><path stroke="#44546a" stroke-width="3.0" stroke-linejoin="round" stroke-linecap="butt" d="m395.14697 104.63393l148.73944 31.093094" fill-rule="evenodd"/><path fill="#44546a" stroke="#44546a" stroke-width="3.0" stroke-linecap="butt" d="m543.8864 135.72702l-3.9927368 2.61203l9.76355 -1.4056702l-8.382874 -5.199066z" fill-rule="evenodd"/><path fill="#000000" fill-opacity="0.0" d="m395.14697 104.63393l158.80316 100.157486" fill-rule="evenodd"/><path stroke="#44546a" stroke-width="3.0" stroke-linejoin="round" stroke-linecap="butt" d="m395.14697 104.63393l150.10706 94.672806" fill-rule="evenodd"/><path fill="#44546a" stroke="#44546a" stroke-width="3.0" stroke-linecap="butt" d="m545.254 199.30673l-4.6533813 1.053833l9.639954 2.091217l-6.0404053 -7.798416z" fill-rule="evenodd"/><path fill="#000000" fill-opacity="0.0" d="m395.14697 104.63393l158.80316 172.18898" fill-rule="evenodd"/><path stroke="#44546a" stroke-width="3.0" stroke-linejoin="round" stroke-linecap="butt" d="m395.14697 104.63393l151.83295 164.63118" fill-rule="evenodd"/><path fill="#44546a" stroke="#44546a" stroke-width="3.0" stroke-linecap="butt" d="m546.97986 269.2651l-4.767273 -0.19277954l8.764221 4.5266113l-3.8041382 -9.101135z" fill-rule="evenodd"/><path fill="#000000" fill-opacity="0.0" d="m395.17007 177.004l158.77164 -39.181107" fill-rule="evenodd"/><path stroke="#44546a" stroke-width="3.0" stroke-linejoin="round" stroke-linecap="butt" d="m395.17007 177.004l148.78983 -36.71782" fill-rule="evenodd"/><path fill="#44546a" stroke="#44546a" stroke-width="3.0" stroke-linecap="butt" d="m543.9599 140.28618l-2.467163 4.0838013l8.19104 -5.4963226l-9.807678 -1.054657z" fill-rule="evenodd"/><path fill="#000000" fill-opacity="0.0" d="m395.14697 177.02649l158.80316 27.748032" fill-rule="evenodd"/><path stroke="#44546a" stroke-width="3.0" stroke-linejoin="round" stroke-linecap="butt" d="m395.14697 177.02649l148.67535 25.978363" fill-rule="evenodd"/><path fill="#44546a" stroke="#44546a" stroke-width="3.0" stroke-linecap="butt" d="m543.8223 203.00487l-3.9041138 2.742691l9.71167 -1.7279205l-8.550232 -4.918869z" fill-rule="evenodd"/><path fill="#000000" fill-opacity="0.0" d="m395.14697 177.02649l158.80316 99.77951" fill-rule="evenodd"/><path stroke="#44546a" stroke-width="3.0" stroke-linejoin="round" stroke-linecap="butt" d="m395.14697 177.02649l150.09772 94.30969" fill-rule="evenodd"/><path fill="#44546a" stroke="#44546a" stroke-width="3.0" stroke-linecap="butt" d="m545.2447 271.33618l-4.6516113 1.0617676l9.643555 2.0747986l-6.053711 -7.7881165z" fill-rule="evenodd"/><path fill="#000000" fill-opacity="0.0" d="m395.14697 243.63005l158.80316 -38.834656" fill-rule="evenodd"/><path stroke="#44546a" stroke-width="3.0" stroke-linejoin="round" stroke-linecap="butt" d="m395.14697 243.63005l148.81622 -36.39238" fill-rule="evenodd"/><path fill="#44546a" stroke="#44546a" stroke-width="3.0" stroke-linecap="butt" d="m543.96313 207.23767l-2.475708 4.078598l8.202515 -5.479065l-9.805359 -1.0752869z" fill-rule="evenodd"/><path fill="#000000" fill-opacity="0.0" d="m395.14697 243.63005l158.80316 -105.79529" fill-rule="evenodd"/><path stroke="#44546a" stroke-width="3.0" stroke-linejoin="round" stroke-linecap="butt" d="m395.14697 243.63005l150.24683 -100.095" fill-rule="evenodd"/><path fill="#44546a" stroke="#44546a" stroke-width="3.0" stroke-linecap="butt" d="m545.3938 143.53505l-0.93725586 4.678238l5.843689 -7.94693l-9.584717 2.331482z" fill-rule="evenodd"/><path fill="#000000" fill-opacity="0.0" d="m395.14697 243.63005l158.80316 33.196854" fill-rule="evenodd"/><path stroke="#44546a" stroke-width="3.0" stroke-linejoin="round" stroke-linecap="butt" d="m395.14697 243.63005l148.73944 31.093094" fill-rule="evenodd"/><path fill="#44546a" stroke="#44546a" stroke-width="3.0" stroke-linecap="butt" d="m543.8864 274.72314l-3.9927368 2.61203l9.76355 -1.4057007l-8.382874 -5.1990356z" fill-rule="evenodd"/><path fill="#000000" fill-opacity="0.0" d="m395.14697 316.7833l158.80316 -178.96063" fill-rule="evenodd"/><path stroke="#44546a" stroke-width="3.0" stroke-linejoin="round" stroke-linecap="butt" d="m395.14697 316.7833l151.97919 -171.2705" fill-rule="evenodd"/><path fill="#44546a" stroke="#44546a" stroke-width="3.0" stroke-linecap="butt" d="m547.12616 145.51279l0.28424072 4.762741l3.6288452 -9.17247l-8.675781 4.6939697z" fill-rule="evenodd"/><path fill="#000000" fill-opacity="0.0" d="m395.14697 316.7833l158.80316 -112.0" fill-rule="evenodd"/><path stroke="#44546a" stroke-width="3.0" stroke-linejoin="round" stroke-linecap="butt" d="m395.14697 316.7833l150.4013 -106.07437" fill-rule="evenodd"/><path fill="#44546a" stroke="#44546a" stroke-width="3.0" stroke-linecap="butt" d="m545.5483 210.70892l-0.81256104 4.7015076l5.630432 -8.099426l-9.519409 2.5853577z" fill-rule="evenodd"/><path fill="#000000" fill-opacity="0.0" d="m395.14697 316.7833l158.80316 -39.968506" fill-rule="evenodd"/><path stroke="#44546a" stroke-width="3.0" stroke-linejoin="round" stroke-linecap="butt" d="m395.14697 316.7833l148.83282 -37.459106" fill-rule="evenodd"/><path fill="#44546a" stroke="#44546a" stroke-width="3.0" stroke-linecap="butt" d="m543.9798 279.3242l-2.4482422 4.095154l8.165527 -5.5341187l-9.812439 -1.0093079z" fill-rule="evenodd"/><path fill="#000000" fill-opacity="0.0" d="m395.14697 389.93655l158.80316 -252.12599" fill-rule="evenodd"/><path stroke="#44546a" stroke-width="3.0" stroke-linejoin="round" stroke-linecap="butt" d="m395.14697 389.93655l153.32373 -243.42654" fill-rule="evenodd"/><path fill="#44546a" stroke="#44546a" stroke-width="3.0" stroke-linecap="butt" d="m548.4707 146.51001l1.0566406 4.652725l2.0854492 -9.64122l-7.7948 6.0451355z" fill-rule="evenodd"/><path fill="#000000" fill-opacity="0.0" d="m395.14697 389.93655l158.80316 -185.13387" fill-rule="evenodd"/><path stroke="#44546a" stroke-width="3.0" stroke-linejoin="round" stroke-linecap="butt" d="m395.14697 389.93655l152.10931 -177.3302" fill-rule="evenodd"/><path fill="#44546a" stroke="#44546a" stroke-width="3.0" stroke-linecap="butt" d="m547.25635 212.60635l0.36419678 4.7572784l3.4741821 -9.232117l-8.595703 4.839035z" fill-rule="evenodd"/><path fill="#000000" fill-opacity="0.0" d="m395.17007 389.9507l158.77164 -113.13385" fill-rule="evenodd"/><path stroke="#44546a" stroke-width="3.0" stroke-linejoin="round" stroke-linecap="butt" d="m395.17007 389.9507l150.39859 -107.16757" fill-rule="evenodd"/><path fill="#44546a" stroke="#44546a" stroke-width="3.0" stroke-linecap="butt" d="m545.56866 282.78314l-0.7897339 4.7053833l5.5910645 -8.126617l-9.506714 2.6314697z" fill-rule="evenodd"/><path fill="#e7e6e6" d="m700.169 104.63393l0 0c0 -9.167053 7.1210938 -16.598427 15.905518 -16.598427l0 0c4.218384 0 8.264038 1.7487564 11.246887 4.8615646c2.9828491 3.1128159 4.6586304 7.3346863 4.6586304 11.736862l0 0c0 9.167061 -7.121155 16.598427 -15.905518 16.598427l0 0c-8.784424 0 -15.905518 -7.431366 -15.905518 -16.598427z" fill-rule="evenodd"/><path stroke="#44546a" stroke-width="1.0" stroke-linejoin="round" stroke-linecap="butt" d="m700.169 104.63393l0 0c0 -9.167053 7.1210938 -16.598427 15.905518 -16.598427l0 0c4.218384 0 8.264038 1.7487564 11.246887 4.8615646c2.9828491 3.1128159 4.6586304 7.3346863 4.6586304 11.736862l0 0c0 9.167061 -7.121155 16.598427 -15.905518 16.598427l0 0c-8.784424 0 -15.905518 -7.431366 -15.905518 -16.598427z" fill-rule="evenodd"/><path fill="#e7e6e6" d="m700.169 177.02649l0 0c0 -9.1670685 7.1210938 -16.598434 15.905518 -16.598434l0 0c4.218384 0 8.264038 1.748764 11.246887 4.8615723c2.9828491 3.1128082 4.6586304 7.3346863 4.6586304 11.736862l0 0c0 9.167053 -7.121155 16.59842 -15.905518 16.59842l0 0c-8.784424 0 -15.905518 -7.431366 -15.905518 -16.59842z" fill-rule="evenodd"/><path stroke="#44546a" stroke-width="1.0" stroke-linejoin="round" stroke-linecap="butt" d="m700.169 177.02649l0 0c0 -9.1670685 7.1210938 -16.598434 15.905518 -16.598434l0 0c4.218384 0 8.264038 1.748764 11.246887 4.8615723c2.9828491 3.1128082 4.6586304 7.3346863 4.6586304 11.736862l0 0c0 9.167053 -7.121155 16.59842 -15.905518 16.59842l0 0c-8.784424 0 -15.905518 -7.431366 -15.905518 -16.59842z" fill-rule="evenodd"/><path fill="#e7e6e6" d="m700.169 243.63005l0 0c0 -9.1670685 7.1210938 -16.598434 15.905518 -16.598434l0 0c4.218384 0 8.264038 1.748764 11.246887 4.8615723c2.9828491 3.1128082 4.6586304 7.3346863 4.6586304 11.736862l0 0c0 9.167053 -7.121155 16.598404 -15.905518 16.598404l0 0c-8.784424 0 -15.905518 -7.4313507 -15.905518 -16.598404z" fill-rule="evenodd"/><path stroke="#44546a" stroke-width="1.0" stroke-linejoin="round" stroke-linecap="butt" d="m700.169 243.63005l0 0c0 -9.1670685 7.1210938 -16.598434 15.905518 -16.598434l0 0c4.218384 0 8.264038 1.748764 11.246887 4.8615723c2.9828491 3.1128082 4.6586304 7.3346863 4.6586304 11.736862l0 0c0 9.167053 -7.121155 16.598404 -15.905518 16.598404l0 0c-8.784424 0 -15.905518 -7.4313507 -15.905518 -16.598404z" fill-rule="evenodd"/><path fill="#e7e6e6" d="m700.169 316.7833l0 0c0 -9.167053 7.1210938 -16.59842 15.905518 -16.59842l0 0c4.218384 0 8.264038 1.7487488 11.246887 4.8615723c2.9828491 3.112793 4.6586304 7.334656 4.6586304 11.736847l0 0c0 9.167053 -7.121155 16.59842 -15.905518 16.59842l0 0c-8.784424 0 -15.905518 -7.431366 -15.905518 -16.59842z" fill-rule="evenodd"/><path stroke="#44546a" stroke-width="1.0" stroke-linejoin="round" stroke-linecap="butt" d="m700.169 316.7833l0 0c0 -9.167053 7.1210938 -16.59842 15.905518 -16.59842l0 0c4.218384 0 8.264038 1.7487488 11.246887 4.8615723c2.9828491 3.112793 4.6586304 7.334656 4.6586304 11.736847l0 0c0 9.167053 -7.121155 16.59842 -15.905518 16.59842l0 0c-8.784424 0 -15.905518 -7.431366 -15.905518 -16.59842z" fill-rule="evenodd"/><path fill="#e7e6e6" d="m700.169 389.93655l0 0c0 -9.167053 7.1210938 -16.59845 15.905518 -16.59845l0 0c4.218384 0 8.264038 1.7487793 11.246887 4.8615723c2.9828491 3.1128235 4.6586304 7.3346863 4.6586304 11.736877l0 0c0 9.167053 -7.121155 16.59842 -15.905518 16.59842l0 0c-8.784424 0 -15.905518 -7.431366 -15.905518 -16.59842z" fill-rule="evenodd"/><path stroke="#44546a" stroke-width="1.0" stroke-linejoin="round" stroke-linecap="butt" d="m700.169 389.93655l0 0c0 -9.167053 7.1210938 -16.59845 15.905518 -16.59845l0 0c4.218384 0 8.264038 1.7487793 11.246887 4.8615723c2.9828491 3.1128235 4.6586304 7.3346863 4.6586304 11.736877l0 0c0 9.167053 -7.121155 16.59842 -15.905518 16.59842l0 0c-8.784424 0 -15.905518 -7.431366 -15.905518 -16.59842z" fill-rule="evenodd"/><path fill="#e7e6e6" d="m700.169 46.417324l0 0c0 -9.167057 7.1210938 -16.598427 15.905518 -16.598427l0 0c4.218384 0 8.264038 1.7487583 11.246887 4.8615685c2.9828491 3.1128082 4.6586304 7.3346825 4.6586304 11.736858l0 0c0 9.167057 -7.121155 16.598423 -15.905518 16.598423l0 0c-8.784424 0 -15.905518 -7.431366 -15.905518 -16.598423z" fill-rule="evenodd"/><path stroke="#44546a" stroke-width="1.0" stroke-linejoin="round" stroke-linecap="butt" d="m700.169 46.417324l0 0c0 -9.167057 7.1210938 -16.598427 15.905518 -16.598427l0 0c4.218384 0 8.264038 1.7487583 11.246887 4.8615685c2.9828491 3.1128082 4.6586304 7.3346825 4.6586304 11.736858l0 0c0 9.167057 -7.121155 16.598423 -15.905518 16.598423l0 0c-8.784424 0 -15.905518 -7.431366 -15.905518 -16.598423z" fill-rule="evenodd"/><path fill="#000000" fill-opacity="0.0" d="m585.75275 137.82289l114.42523 -91.40157" fill-rule="evenodd"/><path stroke="#44546a" stroke-width="3.0" stroke-linejoin="round" stroke-linecap="butt" d="m585.75275 137.82289l106.39221 -84.984856" fill-rule="evenodd"/><path fill="#44546a" stroke="#44546a" stroke-width="3.0" stroke-linecap="butt" d="m692.1449 52.83803l-0.5303955 4.7416344l5.13678 -8.421154l-9.347961 3.1491241z" fill-rule="evenodd"/><path fill="#000000" fill-opacity="0.0" d="m585.75275 137.82289l114.42523 -33.196846" fill-rule="evenodd"/><path stroke="#44546a" stroke-width="3.0" stroke-linejoin="round" stroke-linecap="butt" d="m585.75275 137.82289l104.55115 -30.332191" fill-rule="evenodd"/><path fill="#44546a" stroke="#44546a" stroke-width="3.0" stroke-linecap="butt" d="m690.3039 107.49071l-2.3001099 4.180168l7.962158 -5.8228455l-9.842224 -0.6574478z" fill-rule="evenodd"/><path fill="#000000" fill-opacity="0.0" d="m585.75275 137.82289l114.42523 39.2126" fill-rule="evenodd"/><path stroke="#44546a" stroke-width="3.0" stroke-linejoin="round" stroke-linecap="butt" d="m585.75275 137.82289l104.69922 35.879578" fill-rule="evenodd"/><path fill="#44546a" stroke="#44546a" stroke-width="3.0" stroke-linecap="butt" d="m690.45197 173.70247l-4.2852783 2.0978394l9.862427 -0.18658447l-7.674988 -6.196518z" fill-rule="evenodd"/><path fill="#000000" fill-opacity="0.0" d="m585.75275 137.82289l114.42523 105.79527" fill-rule="evenodd"/><path stroke="#44546a" stroke-width="3.0" stroke-linejoin="round" stroke-linecap="butt" d="m585.75275 137.82289l106.87622 98.81558" fill-rule="evenodd"/><path fill="#44546a" stroke="#44546a" stroke-width="3.0" stroke-linecap="butt" d="m692.62897 236.63847l-4.767578 0.18682861l9.0963745 3.8155212l-4.515625 -8.769897z" fill-rule="evenodd"/><path fill="#000000" fill-opacity="0.0" d="m585.75275 137.82289l114.42523 178.96062" fill-rule="evenodd"/><path stroke="#44546a" stroke-width="3.0" stroke-linejoin="round" stroke-linecap="butt" d="m585.75275 137.82289l108.88684 170.29863" fill-rule="evenodd"/><path fill="#44546a" stroke="#44546a" stroke-width="3.0" stroke-linecap="butt" d="m694.6396 308.12152l-4.65979 -1.0250244l7.8356323 5.992035l-2.1508179 -9.626831z" fill-rule="evenodd"/><path fill="#000000" fill-opacity="0.0" d="m585.75275 137.82289l114.42523 252.12599" fill-rule="evenodd"/><path stroke="#44546a" stroke-width="3.0" stroke-linejoin="round" stroke-linecap="butt" d="m585.75275 137.82289l110.17633 242.76378" fill-rule="evenodd"/><path fill="#44546a" stroke="#44546a" stroke-width="3.0" stroke-linecap="butt" d="m695.929 380.58667l-4.4664307 -1.677887l6.902893 7.046417l-0.7585449 -9.834961z" fill-rule="evenodd"/><path fill="#000000" fill-opacity="0.0" d="m585.75275 204.78961l114.42523 -158.36221" fill-rule="evenodd"/><path stroke="#44546a" stroke-width="3.0" stroke-linejoin="round" stroke-linecap="butt" d="m585.75275 204.78961l108.40381 -150.02872" fill-rule="evenodd"/><path fill="#44546a" stroke="#44546a" stroke-width="3.0" stroke-linecap="butt" d="m694.1566 54.76089l0.758667 4.710495l2.6941528 -9.489143l-8.16333 5.5373535z" fill-rule="evenodd"/><path fill="#000000" fill-opacity="0.0" d="m585.75275 204.78961l114.42523 -100.157486" fill-rule="evenodd"/><path stroke="#44546a" stroke-width="3.0" stroke-linejoin="round" stroke-linecap="butt" d="m585.75275 204.78961l106.689026 -93.38587" fill-rule="evenodd"/><path fill="#44546a" stroke="#44546a" stroke-width="3.0" stroke-linecap="butt" d="m692.4417 111.40374l-0.31652832 4.760689l4.7527466 -8.643715l-9.196899 3.5664825z" fill-rule="evenodd"/><path fill="#000000" fill-opacity="0.0" d="m585.75275 204.78961l114.42523 -27.748032" fill-rule="evenodd"/><path stroke="#44546a" stroke-width="3.0" stroke-linejoin="round" stroke-linecap="butt" d="m585.75275 204.78961l104.43359 -25.325043" fill-rule="evenodd"/><path fill="#44546a" stroke="#44546a" stroke-width="3.0" stroke-linecap="butt" d="m690.18634 179.46455l-2.4836426 4.073822l8.213135 -5.463211l-9.803345 -1.0942383z" fill-rule="evenodd"/><path fill="#000000" fill-opacity="0.0" d="m585.75275 204.78961l114.42523 38.83464" fill-rule="evenodd"/><path stroke="#44546a" stroke-width="3.0" stroke-linejoin="round" stroke-linecap="butt" d="m585.75275 204.78961l104.68945 35.53041" fill-rule="evenodd"/><path fill="#44546a" stroke="#44546a" stroke-width="3.0" stroke-linecap="butt" d="m690.44214 240.32004l-4.2789917 2.110489l9.861816 -0.21575928l-7.6932983 -6.1737823z" fill-rule="evenodd"/><path fill="#000000" fill-opacity="0.0" d="m585.75275 204.78961l114.42523 112.0" fill-rule="evenodd"/><path stroke="#44546a" stroke-width="3.0" stroke-linejoin="round" stroke-linecap="butt" d="m585.75275 204.78961l107.07788 104.80835" fill-rule="evenodd"/><path fill="#44546a" stroke="#44546a" stroke-width="3.0" stroke-linecap="butt" d="m692.83057 309.59796l-4.770935 0.051086426l8.984131 4.0727844l-4.264282 -8.894806z" fill-rule="evenodd"/><path fill="#000000" fill-opacity="0.0" d="m585.75275 204.78961l114.42523 185.13385" fill-rule="evenodd"/><path stroke="#44546a" stroke-width="3.0" stroke-linejoin="round" stroke-linecap="butt" d="m585.75275 204.78961l109.01984 176.38824" fill-rule="evenodd"/><path fill="#44546a" stroke="#44546a" stroke-width="3.0" stroke-linecap="butt" d="m694.7726 381.17786l-4.6435547 -1.0960999l7.743164 6.111084l-2.00354 -9.6586z" fill-rule="evenodd"/><path fill="#000000" fill-opacity="0.0" d="m585.75275 276.81686l114.42523 -230.3937" fill-rule="evenodd"/><path stroke="#44546a" stroke-width="3.0" stroke-linejoin="round" stroke-linecap="butt" d="m585.75275 276.81686l109.85199 -221.18556" fill-rule="evenodd"/><path fill="#44546a" stroke="#44546a" stroke-width="3.0" stroke-linecap="butt" d="m695.60474 55.6313l1.520935 4.522297l1.1015015 -9.802494l-7.1447144 6.8011246z" fill-rule="evenodd"/><path fill="#000000" fill-opacity="0.0" d="m585.75275 276.81686l114.42523 -172.18898" fill-rule="evenodd"/><path stroke="#44546a" stroke-width="3.0" stroke-linejoin="round" stroke-linecap="butt" d="m585.75275 276.81686l108.73486 -163.62604" fill-rule="evenodd"/><path fill="#44546a" stroke="#44546a" stroke-width="3.0" stroke-linecap="butt" d="m694.4876 113.19083l0.94262695 4.677162l2.3203735 -9.587387l-7.9401245 5.8528595z" fill-rule="evenodd"/><path fill="#000000" fill-opacity="0.0" d="m585.75275 276.81686l114.42523 -99.779526" fill-rule="evenodd"/><path stroke="#44546a" stroke-width="3.0" stroke-linejoin="round" stroke-linecap="butt" d="m585.75275 276.81686l106.67633 -93.022415" fill-rule="evenodd"/><path fill="#44546a" stroke="#44546a" stroke-width="3.0" stroke-linecap="butt" d="m692.4291 183.79445l-0.3255005 4.760086l4.768921 -8.634796l-9.203552 3.5492554z" fill-rule="evenodd"/><path fill="#000000" fill-opacity="0.0" d="m585.75275 276.81686l114.42523 -33.196854" fill-rule="evenodd"/><path stroke="#44546a" stroke-width="3.0" stroke-linejoin="round" stroke-linecap="butt" d="m585.75275 276.81686l104.55115 -30.332184" fill-rule="evenodd"/><path fill="#44546a" stroke="#44546a" stroke-width="3.0" stroke-linecap="butt" d="m690.3039 246.48468l-2.3001099 4.1801605l7.962158 -5.82283l-9.842224 -0.65745544z" fill-rule="evenodd"/><path fill="#000000" fill-opacity="0.0" d="m585.75275 276.81686l114.42523 39.968506" fill-rule="evenodd"/><path stroke="#44546a" stroke-width="3.0" stroke-linejoin="round" stroke-linecap="butt" d="m585.75275 276.81686l104.719055 36.578156" fill-rule="evenodd"/><path fill="#44546a" stroke="#44546a" stroke-width="3.0" stroke-linecap="butt" d="m690.4718 313.39502l-4.2975464 2.0725098l9.863342 -0.12838745l-7.6383057 -6.241699z" fill-rule="evenodd"/><path fill="#000000" fill-opacity="0.0" d="m585.75275 276.81686l114.42523 113.13385" fill-rule="evenodd"/><path stroke="#44546a" stroke-width="3.0" stroke-linejoin="round" stroke-linecap="butt" d="m585.75275 276.81686l107.114136 105.90524" fill-rule="evenodd"/><path fill="#44546a" stroke="#44546a" stroke-width="3.0" stroke-linecap="butt" d="m692.8669 382.72214l-4.771118 0.027069092l8.963501 4.117981l-4.2194214 -8.916199z" fill-rule="evenodd"/><path fill="#000000" fill-opacity="0.0" d="m248.93286 137.81787l114.39371 -91.401566" fill-rule="evenodd"/><path stroke="#44546a" stroke-width="3.0" stroke-linejoin="round" stroke-linecap="butt" d="m248.93285 137.81787l106.36153 -84.98378" fill-rule="evenodd"/><path fill="#44546a" stroke="#44546a" stroke-width="3.0" stroke-linecap="butt" d="m355.29437 52.834095l-0.52975464 4.741699l5.13562 -8.421841l-9.347565 3.1503792z" fill-rule="evenodd"/><path fill="#000000" fill-opacity="0.0" d="m248.93286 137.81787l114.39371 -33.196846" fill-rule="evenodd"/><path stroke="#44546a" stroke-width="3.0" stroke-linejoin="round" stroke-linecap="butt" d="m248.93285 137.81787l104.51982 -30.331467" fill-rule="evenodd"/><path fill="#44546a" stroke="#44546a" stroke-width="3.0" stroke-linecap="butt" d="m353.45267 107.48641l-2.2998047 4.180336l7.9617615 -5.823433l-9.842285 -0.6567154z" fill-rule="evenodd"/><path fill="#000000" fill-opacity="0.0" d="m248.93286 137.81787l114.39371 39.181107" fill-rule="evenodd"/><path stroke="#44546a" stroke-width="3.0" stroke-linejoin="round" stroke-linecap="butt" d="m248.93285 137.81787l104.66719 35.849655" fill-rule="evenodd"/><path fill="#44546a" stroke="#44546a" stroke-width="3.0" stroke-linecap="butt" d="m353.6 173.66753l-4.284912 2.098526l9.862396 -0.18818665l-7.675995 -6.1952667z" fill-rule="evenodd"/><path fill="#000000" fill-opacity="0.0" d="m248.93286 137.81787l114.39371 105.79527" fill-rule="evenodd"/><path stroke="#44546a" stroke-width="3.0" stroke-linejoin="round" stroke-linecap="butt" d="m248.93285 137.81787l106.84563 98.814545" fill-rule="evenodd"/><path fill="#44546a" stroke="#44546a" stroke-width="3.0" stroke-linecap="butt" d="m355.77847 236.63242l-4.767578 0.18617249l9.095856 3.8167725l-4.514435 -8.770523z" fill-rule="evenodd"/><path fill="#000000" fill-opacity="0.0" d="m248.93286 137.81787l114.39371 178.96063" fill-rule="evenodd"/><path stroke="#44546a" stroke-width="3.0" stroke-linejoin="round" stroke-linecap="butt" d="m248.93285 137.81787l108.8564 170.29791" fill-rule="evenodd"/><path fill="#44546a" stroke="#44546a" stroke-width="3.0" stroke-linecap="butt" d="m357.78928 308.11578l-4.6596985 -1.0255737l7.8349304 5.9930115l-2.1496582 -9.627106z" fill-rule="evenodd"/><path fill="#000000" fill-opacity="0.0" d="m248.93286 137.81787l114.39371 252.12598" fill-rule="evenodd"/><path stroke="#44546a" stroke-width="3.0" stroke-linejoin="round" stroke-linecap="butt" d="m248.93285 137.81787l110.14574 242.76334" fill-rule="evenodd"/><path fill="#44546a" stroke="#44546a" stroke-width="3.0" stroke-linecap="butt" d="m359.07858 380.5812l-4.466278 -1.6783447l6.902191 7.0471497l-0.75756836 -9.8350525z" fill-rule="evenodd"/><path fill="#000000" fill-opacity="0.0" d="m248.93286 204.78459l114.39371 -158.3937" fill-rule="evenodd"/><path stroke="#44546a" stroke-width="3.0" stroke-linejoin="round" stroke-linecap="butt" d="m248.93285 204.78459l108.37419 -150.05887" fill-rule="evenodd"/><path fill="#44546a" stroke="#44546a" stroke-width="3.0" stroke-linecap="butt" d="m357.30704 54.725735l0.7597656 4.7103233l2.691986 -9.489754l-8.162079 5.539192z" fill-rule="evenodd"/><path fill="#000000" fill-opacity="0.0" d="m248.93286 204.78459l114.39371 -100.157486" fill-rule="evenodd"/><path stroke="#44546a" stroke-width="3.0" stroke-linejoin="round" stroke-linecap="butt" d="m248.93285 204.78459l106.6584 -93.38481" fill-rule="evenodd"/><path fill="#44546a" stroke="#44546a" stroke-width="3.0" stroke-linecap="butt" d="m355.59125 111.39978l-0.31588745 4.7607346l4.751526 -8.644363l-9.196381 3.5677338z" fill-rule="evenodd"/><path fill="#000000" fill-opacity="0.0" d="m248.93286 204.78459l114.39371 -27.779526" fill-rule="evenodd"/><path stroke="#44546a" stroke-width="3.0" stroke-linejoin="round" stroke-linecap="butt" d="m248.93285 204.78459l104.40282 -25.353333" fill-rule="evenodd"/><path fill="#44546a" stroke="#44546a" stroke-width="3.0" stroke-linecap="butt" d="m353.3357 179.43126l-2.4823303 4.0746155l8.211365 -5.465851l-9.80365 -1.0910797z" fill-rule="evenodd"/><path fill="#000000" fill-opacity="0.0" d="m248.93286 204.78459l114.39371 38.83464" fill-rule="evenodd"/><path stroke="#44546a" stroke-width="3.0" stroke-linejoin="round" stroke-linecap="butt" d="m248.93285 204.78459l104.65816 35.529587" fill-rule="evenodd"/><path fill="#44546a" stroke="#44546a" stroke-width="3.0" stroke-linecap="butt" d="m353.591 240.3142l-4.2792053 2.110138l9.861847 -0.2149353l-7.6927795 -6.174423z" fill-rule="evenodd"/><path fill="#000000" fill-opacity="0.0" d="m248.93286 204.78459l114.39371 111.999985" fill-rule="evenodd"/><path stroke="#44546a" stroke-width="3.0" stroke-linejoin="round" stroke-linecap="butt" d="m248.93285 204.78459l107.04732 104.80733" fill-rule="evenodd"/><path fill="#44546a" stroke="#44546a" stroke-width="3.0" stroke-linecap="butt" d="m355.98016 309.59192l-4.770935 0.050445557l8.983551 4.0740356l-4.2630615 -8.895416z" fill-rule="evenodd"/><path fill="#000000" fill-opacity="0.0" d="m248.93286 204.78459l114.39371 185.13387" fill-rule="evenodd"/><path stroke="#44546a" stroke-width="3.0" stroke-linejoin="round" stroke-linecap="butt" d="m248.93285 204.78459l108.989395 176.38753" fill-rule="evenodd"/><path fill="#44546a" stroke="#44546a" stroke-width="3.0" stroke-linecap="butt" d="m357.92224 381.17212l-4.643463 -1.0966492l7.742462 6.11203l-2.0023193 -9.658813z" fill-rule="evenodd"/><path fill="#000000" fill-opacity="0.0" d="m248.93286 276.81183l114.39371 -230.39369" fill-rule="evenodd"/><path stroke="#44546a" stroke-width="3.0" stroke-linejoin="round" stroke-linecap="butt" d="m248.93285 276.81183l109.82149 -221.18504" fill-rule="evenodd"/><path fill="#44546a" stroke="#44546a" stroke-width="3.0" stroke-linecap="butt" d="m358.75433 55.626785l1.5214233 4.522129l1.1004333 -9.802616l-7.143982 6.8019104z" fill-rule="evenodd"/><path fill="#000000" fill-opacity="0.0" d="m248.93286 276.81183l114.39371 -172.18896" fill-rule="evenodd"/><path stroke="#44546a" stroke-width="3.0" stroke-linejoin="round" stroke-linecap="butt" d="m248.93285 276.81183l108.70445 -163.62529" fill-rule="evenodd"/><path fill="#44546a" stroke="#44546a" stroke-width="3.0" stroke-linecap="butt" d="m357.6373 113.18654l0.9432068 4.67704l2.3191833 -9.587685l-7.939453 5.8538666z" fill-rule="evenodd"/><path fill="#000000" fill-opacity="0.0" d="m248.93286 276.81183l114.39371 -99.77951" fill-rule="evenodd"/><path stroke="#44546a" stroke-width="3.0" stroke-linejoin="round" stroke-linecap="butt" d="m248.93285 276.81183l106.64574 -93.02135" fill-rule="evenodd"/><path fill="#44546a" stroke="#44546a" stroke-width="3.0" stroke-linecap="butt" d="m355.57855 183.79048l-0.32479858 4.760132l4.7677307 -8.635452l-9.203064 3.5505066z" fill-rule="evenodd"/><path fill="#000000" fill-opacity="0.0" d="m248.93286 276.81183l114.39371 -33.19684" fill-rule="evenodd"/><path stroke="#44546a" stroke-width="3.0" stroke-linejoin="round" stroke-linecap="butt" d="m248.93285 276.81183l104.51982 -30.331451" fill-rule="evenodd"/><path fill="#44546a" stroke="#44546a" stroke-width="3.0" stroke-linecap="butt" d="m353.45267 246.48038l-2.2998047 4.1803436l7.9617615 -5.8234253l-9.842285 -0.656723z" fill-rule="evenodd"/><path fill="#000000" fill-opacity="0.0" d="m248.93286 276.81183l114.39371 39.968506" fill-rule="evenodd"/><path stroke="#44546a" stroke-width="3.0" stroke-linejoin="round" stroke-linecap="butt" d="m248.93285 276.81183l104.68785 36.57733" fill-rule="evenodd"/><path fill="#44546a" stroke="#44546a" stroke-width="3.0" stroke-linecap="butt" d="m353.6207 313.38916l-4.29776 2.0721436l9.863373 -0.12753296l-7.6377563 -6.24234z" fill-rule="evenodd"/><path fill="#000000" fill-opacity="0.0" d="m248.93286 276.81183l114.39371 113.13388" fill-rule="evenodd"/><path stroke="#44546a" stroke-width="3.0" stroke-linejoin="round" stroke-linecap="butt" d="m248.93285 276.81183l107.08363 105.9043" fill-rule="evenodd"/><path fill="#44546a" stroke="#44546a" stroke-width="3.0" stroke-linecap="butt" d="m356.01648 382.71613l-4.7711487 0.026397705l8.962952 4.119232l-4.218231 -8.916779z" fill-rule="evenodd"/><path fill="#000000" fill-opacity="0.0" d="m41.90814 94.51181l187.71652 0l0 208.40945l-187.71652 0z" fill-rule="evenodd"/><path fill="#000000" d="m62.53314 226.39182l0 -12.8125l12.812496 0l0 12.8125l-12.812496 0zm35.562496 0l0 -12.8125l12.8125 0l0 12.8125l-12.8125 0zm35.562508 0l0 -12.8125l12.8125 0l0 12.8125l-12.8125 0z" fill-rule="nonzero"/><path fill="#000000" fill-opacity="0.0" d="m752.81366 94.51181l187.71655 0l0 208.40945l-187.71655 0z" fill-rule="evenodd"/><path fill="#000000" d="m773.43866 226.39182l0 -12.8125l12.8125 0l0 12.8125l-12.8125 0zm35.5625 0l0 -12.8125l12.8125 0l0 12.8125l-12.8125 0zm35.5625 0l0 -12.8125l12.8125 0l0 12.8125l-12.8125 0z" fill-rule="nonzero"/><path fill="#000000" fill-opacity="0.0" d="m523.5171 367.15747l80.566895 0l0 63.68506l-80.566895 0z" fill-rule="evenodd"/><path fill="#000000" d="m552.75146 410.97934q0 0.3125 -0.015625 0.546875q-0.015625 0.234375 -0.078125 0.421875q-0.046875 0.171875 -0.125 0.3125q-0.078125 0.125 -0.28125 0.328125q-0.1875 0.1875 -0.8125 0.59375q-0.625 0.390625 -1.546875 0.78125q-0.921875 0.375 -2.125 0.640625q-1.203125 0.265625 -2.625 0.265625q-2.46875 0 -4.453125 -0.8125q-1.984375 -0.828125 -3.375 -2.421875q-1.390625 -1.609375 -2.15625 -3.953125q-0.75 -2.359375 -0.75 -5.4375q0 -3.140625 0.8125 -5.59375q0.8125 -2.46875 2.28125 -4.171875q1.46875 -1.71875 3.5 -2.609375q2.046875 -0.90625 4.53125 -0.90625q1.09375 0 2.125 0.21875q1.03125 0.203125 1.90625 0.515625q0.890625 0.3125 1.5625 0.71875q0.6875 0.40625 0.953125 0.671875q0.265625 0.265625 0.34375 0.40625q0.078125 0.125 0.125 0.3125q0.046875 0.1875 0.078125 0.453125q0.03125 0.25 0.03125 0.59375q0 0.390625 -0.046875 0.671875q-0.03125 0.265625 -0.109375 0.453125q-0.078125 0.1875 -0.1875 0.28125q-0.109375 0.078125 -0.265625 0.078125q-0.265625 0 -0.765625 -0.375q-0.484375 -0.390625 -1.265625 -0.84375q-0.765625 -0.453125 -1.875 -0.828125q-1.09375 -0.390625 -2.640625 -0.390625q-1.671875 0 -3.046875 0.671875q-1.375 0.671875 -2.359375 1.984375q-0.96875 1.3125 -1.515625 3.203125q-0.53125 1.875 -0.53125 4.296875q0 2.40625 0.515625 4.25q0.515625 1.84375 1.484375 3.09375q0.96875 1.234375 2.375 1.875q1.40625 0.625 3.1875 0.625q1.5 0 2.625 -0.375q1.125 -0.375 1.90625 -0.828125q0.796875 -0.453125 1.296875 -0.828125q0.515625 -0.375 0.8125 -0.375q0.125 0 0.21875 0.0625q0.109375 0.0625 0.15625 0.234375q0.0625 0.15625 0.09375 0.453125q0.03125 0.28125 0.03125 0.734375zm19.078125 -6.46875q0 0.765625 -0.375 1.09375q-0.375 0.3125 -0.875 0.3125l-11.515625 0q0 1.46875 0.28125 2.640625q0.296875 1.171875 0.984375 2.015625q0.6875 0.84375 1.78125 1.296875q1.09375 0.4375 2.671875 0.4375q1.25 0 2.21875 -0.203125q0.984375 -0.203125 1.6875 -0.453125q0.71875 -0.265625 1.171875 -0.46875q0.46875 -0.203125 0.703125 -0.203125q0.140625 0 0.25 0.078125q0.109375 0.0625 0.15625 0.203125q0.0625 0.125 0.09375 0.375q0.03125 0.25 0.03125 0.59375q0 0.25 -0.03125 0.4375q-0.015625 0.1875 -0.046875 0.34375q-0.015625 0.140625 -0.09375 0.265625q-0.0625 0.109375 -0.171875 0.21875q-0.109375 0.109375 -0.640625 0.359375q-0.515625 0.234375 -1.359375 0.46875q-0.84375 0.234375 -1.953125 0.421875q-1.09375 0.1875 -2.34375 0.1875q-2.171875 0 -3.8125 -0.609375q-1.625 -0.609375 -2.734375 -1.796875q-1.109375 -1.1875 -1.6875 -2.984375q-0.5625 -1.796875 -0.5625 -4.1875q0 -2.265625 0.578125 -4.0625q0.59375 -1.8125 1.703125 -3.0625q1.109375 -1.265625 2.671875 -1.9375q1.5625 -0.6875 3.484375 -0.6875q2.078125 0 3.53125 0.671875q1.453125 0.65625 2.390625 1.78125q0.9375 1.125 1.375 2.640625q0.4375 1.515625 0.4375 3.234375l0 0.578125zm-3.234375 -0.953125q0.0625 -2.53125 -1.125 -3.96875q-1.1875 -1.453125 -3.5 -1.453125q-1.203125 0 -2.109375 0.453125q-0.890625 0.4375 -1.5 1.1875q-0.59375 0.734375 -0.9375 1.71875q-0.328125 0.984375 -0.359375 2.0625l9.53125 0zm11.371094 10.515625q0 0.15625 -0.078125 0.265625q-0.078125 0.09375 -0.265625 0.1875q-0.171875 0.078125 -0.484375 0.109375q-0.3125 0.046875 -0.796875 0.046875q-0.46875 0 -0.78125 -0.046875q-0.3125 -0.03125 -0.5 -0.109375q-0.1875 -0.09375 -0.265625 -0.1875q-0.0625 -0.109375 -0.0625 -0.265625l0 -26.09375q0 -0.15625 0.0625 -0.265625q0.078125 -0.125 0.265625 -0.203125q0.1875 -0.078125 0.5 -0.109375q0.3125 -0.046875 0.78125 -0.046875q0.484375 0 0.796875 0.046875q0.3125 0.03125 0.484375 0.109375q0.1875 0.078125 0.265625 0.203125q0.078125 0.109375 0.078125 0.265625l0 26.09375zm9.1796875 0q0 0.15625 -0.078125 0.265625q-0.078125 0.09375 -0.265625 0.1875q-0.171875 0.078125 -0.484375 0.109375q-0.3125 0.046875 -0.796875 0.046875q-0.46875 0 -0.78125 -0.046875q-0.3125 -0.03125 -0.5 -0.109375q-0.1875 -0.09375 -0.265625 -0.1875q-0.0625 -0.109375 -0.0625 -0.265625l0 -26.09375q0 -0.15625 0.0625 -0.265625q0.078125 -0.125 0.265625 -0.203125q0.1875 -0.078125 0.5 -0.109375q0.3125 -0.046875 0.78125 -0.046875q0.484375 0 0.796875 0.046875q0.3125 0.03125 0.484375 0.109375q0.1875 0.078125 0.265625 0.203125q0.078125 0.109375 0.078125 0.265625l0 26.09375z" fill-rule="nonzero"/></g></svg>