<svg version="1.1" viewBox="0.0 0.0 505.79527559055117 465.7191601049869" fill="none" stroke="none" stroke-linecap="square" stroke-miterlimit="10" xmlns:xlink="http://www.w3.org/1999/xlink" xmlns="http://www.w3.org/2000/svg"><clipPath id="p.0"><path d="m0 0l505.7953 0l0 465.71915l-505.7953 0l0 -465.71915z" clip-rule="nonzero"/></clipPath><g clip-path="url(#p.0)"><path fill="#000000" fill-opacity="0.0" d="m0 0l505.7953 0l0 465.71915l-505.7953 0z" fill-rule="evenodd"/><path fill="#b0dd46" fill-opacity="0.8039" d="m25.732283 285.27954l114.80315 0l0 66.17322l-114.80315 0z" fill-rule="evenodd"/><path stroke="#44546a" stroke-width="1.0" stroke-linejoin="round" stroke-linecap="butt" d="m25.732283 285.27954l114.80315 0l0 66.17322l-114.80315 0z" fill-rule="evenodd"/><path fill="#000000" d="m84.42424 329.5549q0 0.15625 -0.09375 0.28125q-0.09375 0.109375 -0.3125 0.1875q-0.21875 0.078125 -0.609375 0.109375q-0.375 0.046875 -0.9375 0.046875q-0.578125 0 -0.96875 -0.046875q-0.375 -0.03125 -0.59375 -0.109375q-0.21875 -0.078125 -0.3125 -0.1875q-0.09375 -0.125 -0.09375 -0.28125l0 -7.953125q0 -1.015625 -0.15625 -1.59375q-0.140625 -0.578125 -0.421875 -0.984375q-0.28125 -0.421875 -0.734375 -0.640625q-0.4375 -0.234375 -1.03125 -0.234375q-0.75 0 -1.515625 0.546875q-0.765625 0.546875 -1.59375 1.59375l0 9.265625q0 0.15625 -0.09375 0.28125q-0.09375 0.109375 -0.328125 0.1875q-0.21875 0.078125 -0.59375 0.109375q-0.375 0.046875 -0.953125 0.046875q-0.578125 0 -0.953125 -0.046875q-0.375 -0.03125 -0.609375 -0.109375q-0.21875 -0.078125 -0.3125 -0.1875q-0.09375 -0.125 -0.09375 -0.28125l0 -20.546875q0 -0.15625 0.09375 -0.28125q0.09375 -0.125 0.3125 -0.203125q0.234375 -0.09375 0.609375 -0.140625q0.375 -0.046875 0.953125 -0.046875q0.578125 0 0.953125 0.046875q0.375 0.046875 0.59375 0.140625q0.234375 0.078125 0.328125 0.203125q0.09375 0.125 0.09375 0.28125l0 7.703125q1.015625 -1.0 2.0625 -1.484375q1.0625 -0.5 2.203125 -0.5q1.421875 0 2.390625 0.46875q0.984375 0.46875 1.578125 1.28125q0.609375 0.8125 0.875 1.90625q0.265625 1.078125 0.265625 2.625l0 8.546875z" fill-rule="nonzero"/><path fill="#000000" d="m96.14299 341.03928q0 0.296875 -0.03125 0.5q-0.03125 0.203125 -0.09375 0.328125q-0.046875 0.109375 -0.125 0.171875q-0.0625 0.046875 -0.15625 0.046875l-7.4375 0q-0.09375 0 -0.171875 -0.046875q-0.0625 -0.0625 -0.125 -0.171875q-0.046875 -0.125 -0.078125 -0.328125q-0.03125 -0.203125 -0.03125 -0.5q0 -0.296875 0.015625 -0.5q0.03125 -0.203125 0.078125 -0.328125q0.0625 -0.125 0.140625 -0.171875q0.078125 -0.0625 0.171875 -0.0625l2.5 0l0 -8.765625l-2.15625 1.1875q-0.25 0.109375 -0.40625 0.140625q-0.140625 0.03125 -0.234375 -0.0625q-0.078125 -0.09375 -0.109375 -0.3125q-0.03125 -0.21875 -0.03125 -0.609375q0 -0.25 0 -0.40625q0.015625 -0.15625 0.046875 -0.265625q0.046875 -0.125 0.125 -0.1875q0.078125 -0.078125 0.203125 -0.171875l2.890625 -1.875q0.046875 -0.03125 0.125 -0.0625q0.078125 -0.03125 0.203125 -0.046875q0.125 -0.015625 0.328125 -0.015625q0.203125 0 0.53125 0q0.390625 0 0.640625 0.015625q0.25 0.015625 0.375 0.046875q0.125 0.03125 0.15625 0.09375q0.046875 0.0625 0.046875 0.15625l0 11.140625l2.203125 0q0.09375 0 0.171875 0.0625q0.078125 0.046875 0.125 0.171875q0.0625 0.125 0.078125 0.328125q0.03125 0.203125 0.03125 0.5z" fill-rule="nonzero"/><path fill="#b0dd46" fill-opacity="0.8039" d="m203.24672 285.27954l114.80315 0l0 66.17322l-114.80315 0z" fill-rule="evenodd"/><path stroke="#44546a" stroke-width="1.0" stroke-linejoin="round" stroke-linecap="butt" d="m203.24672 285.27954l114.80315 0l0 66.17322l-114.80315 0z" fill-rule="evenodd"/><path fill="#000000" d="m261.93866 329.5549q0 0.15625 -0.09375 0.28125q-0.09375 0.109375 -0.3125 0.1875q-0.21875 0.078125 -0.609375 0.109375q-0.375 0.046875 -0.9375 0.046875q-0.578125 0 -0.96875 -0.046875q-0.375 -0.03125 -0.59375 -0.109375q-0.21875 -0.078125 -0.3125 -0.1875q-0.09375 -0.125 -0.09375 -0.28125l0 -7.953125q0 -1.015625 -0.15625 -1.59375q-0.140625 -0.578125 -0.421875 -0.984375q-0.28125 -0.421875 -0.734375 -0.640625q-0.4375 -0.234375 -1.0312347 -0.234375q-0.75 0 -1.515625 0.546875q-0.765625 0.546875 -1.59375 1.59375l0 9.265625q0 0.15625 -0.09375 0.28125q-0.09375 0.109375 -0.328125 0.1875q-0.21875 0.078125 -0.59375 0.109375q-0.375 0.046875 -0.953125 0.046875q-0.578125 0 -0.953125 -0.046875q-0.375 -0.03125 -0.609375 -0.109375q-0.21875 -0.078125 -0.3125 -0.1875q-0.09375 -0.125 -0.09375 -0.28125l0 -20.546875q0 -0.15625 0.09375 -0.28125q0.09375 -0.125 0.3125 -0.203125q0.234375 -0.09375 0.609375 -0.140625q0.375 -0.046875 0.953125 -0.046875q0.578125 0 0.953125 0.046875q0.375 0.046875 0.59375 0.140625q0.234375 0.078125 0.328125 0.203125q0.09375 0.125 0.09375 0.28125l0 7.703125q1.015625 -1.0 2.0625 -1.484375q1.0625 -0.5 2.2031097 -0.5q1.421875 0 2.390625 0.46875q0.984375 0.46875 1.578125 1.28125q0.609375 0.8125 0.875 1.90625q0.265625 1.078125 0.265625 2.625l0 8.546875z" fill-rule="nonzero"/><path fill="#000000" d="m273.7824 340.97678q0 0.296875 -0.03125 0.515625q-0.015625 0.203125 -0.078125 0.34375q-0.046875 0.140625 -0.125 0.203125q-0.078125 0.046875 -0.1875 0.046875l-7.75 0q-0.234375 0 -0.40625 -0.03125q-0.15625 -0.046875 -0.265625 -0.171875q-0.09375 -0.125 -0.140625 -0.34375q-0.046875 -0.234375 -0.046875 -0.59375q0 -0.34375 0.03125 -0.59375q0.03125 -0.25 0.109375 -0.4375q0.078125 -0.1875 0.203125 -0.375q0.140625 -0.1875 0.34375 -0.40625l2.34375 -2.5q0.6875 -0.71875 1.109375 -1.3125q0.4375 -0.609375 0.671875 -1.09375q0.25 -0.5 0.328125 -0.921875q0.09375 -0.421875 0.09375 -0.796875q0 -0.34375 -0.109375 -0.640625q-0.109375 -0.3125 -0.328125 -0.53125q-0.203125 -0.234375 -0.53125 -0.359375q-0.328125 -0.140625 -0.765625 -0.140625q-0.609375 0 -1.09375 0.15625q-0.46875 0.15625 -0.828125 0.359375q-0.359375 0.1875 -0.59375 0.34375q-0.234375 0.15625 -0.375 0.15625q-0.09375 0 -0.171875 -0.0625q-0.0625 -0.0625 -0.109375 -0.203125q-0.03125 -0.140625 -0.0625 -0.375q-0.015625 -0.25 -0.015625 -0.609375q0 -0.234375 0.015625 -0.390625q0.015625 -0.171875 0.046875 -0.28125q0.03125 -0.125 0.078125 -0.21875q0.046875 -0.09375 0.171875 -0.21875q0.140625 -0.125 0.484375 -0.3125q0.359375 -0.1875 0.859375 -0.375q0.515625 -0.1875 1.125 -0.3125q0.625 -0.125 1.28125 -0.125q1.0625 0 1.84375 0.265625q0.78125 0.265625 1.296875 0.75q0.53125 0.46875 0.78125 1.125q0.265625 0.640625 0.265625 1.390625q0 0.65625 -0.125 1.296875q-0.125 0.625 -0.53125 1.359375q-0.390625 0.734375 -1.109375 1.625q-0.71875 0.890625 -1.90625 2.078125l-1.578125 1.609375l5.3125 0q0.109375 0 0.1875 0.0625q0.09375 0.0625 0.15625 0.203125q0.0625 0.125 0.09375 0.34375q0.03125 0.203125 0.03125 0.5z" fill-rule="nonzero"/><path fill="#b0dd46" fill-opacity="0.8039" d="m373.95013 285.27954l114.80316 0l0 66.17322l-114.80316 0z" fill-rule="evenodd"/><path stroke="#44546a" stroke-width="1.0" stroke-linejoin="round" stroke-linecap="butt" d="m373.95013 285.27954l114.80316 0l0 66.17322l-114.80316 0z" fill-rule="evenodd"/><path fill="#000000" d="m432.6421 329.5549q0 0.15625 -0.09375 0.28125q-0.09375 0.109375 -0.3125 0.1875q-0.21875 0.078125 -0.609375 0.109375q-0.375 0.046875 -0.9375 0.046875q-0.578125 0 -0.96875 -0.046875q-0.375 -0.03125 -0.59375 -0.109375q-0.21875 -0.078125 -0.3125 -0.1875q-0.09375 -0.125 -0.09375 -0.28125l0 -7.953125q0 -1.015625 -0.15625 -1.59375q-0.140625 -0.578125 -0.421875 -0.984375q-0.28125 -0.421875 -0.734375 -0.640625q-0.4375 -0.234375 -1.03125 -0.234375q-0.75 0 -1.515625 0.546875q-0.765625 0.546875 -1.59375 1.59375l0 9.265625q0 0.15625 -0.09375 0.28125q-0.09375 0.109375 -0.328125 0.1875q-0.21875 0.078125 -0.59375 0.109375q-0.375 0.046875 -0.953125 0.046875q-0.578125 0 -0.953125 -0.046875q-0.375 -0.03125 -0.609375 -0.109375q-0.21875 -0.078125 -0.3125 -0.1875q-0.09375 -0.125 -0.09375 -0.28125l0 -20.546875q0 -0.15625 0.09375 -0.28125q0.09375 -0.125 0.3125 -0.203125q0.234375 -0.09375 0.609375 -0.140625q0.375 -0.046875 0.953125 -0.046875q0.578125 0 0.953125 0.046875q0.375 0.046875 0.59375 0.140625q0.234375 0.078125 0.328125 0.203125q0.09375 0.125 0.09375 0.28125l0 7.703125q1.015625 -1.0 2.0625 -1.484375q1.0625 -0.5 2.203125 -0.5q1.421875 0 2.390625 0.46875q0.984375 0.46875 1.578125 1.28125q0.609375 0.8125 0.875 1.90625q0.265625 1.078125 0.265625 2.625l0 8.546875z" fill-rule="nonzero"/><path fill="#000000" d="m444.42334 338.13303q0 1.015625 -0.390625 1.796875q-0.375 0.78125 -1.0625 1.3125q-0.6875 0.53125 -1.65625 0.8125q-0.953125 0.265625 -2.078125 0.265625q-0.6875 0 -1.296875 -0.09375q-0.609375 -0.09375 -1.078125 -0.234375q-0.453125 -0.15625 -0.765625 -0.3125q-0.296875 -0.15625 -0.390625 -0.234375q-0.09375 -0.09375 -0.140625 -0.1875q-0.046875 -0.109375 -0.078125 -0.25q-0.03125 -0.140625 -0.046875 -0.34375q-0.015625 -0.21875 -0.015625 -0.53125q0 -0.5 0.078125 -0.6875q0.078125 -0.1875 0.25 -0.1875q0.109375 0 0.359375 0.140625q0.25 0.140625 0.640625 0.296875q0.40625 0.15625 0.9375 0.296875q0.53125 0.140625 1.203125 0.140625q0.578125 0 1.015625 -0.125q0.4375 -0.140625 0.734375 -0.375q0.3125 -0.25 0.46875 -0.59375q0.15625 -0.359375 0.15625 -0.78125q0 -0.46875 -0.1875 -0.84375q-0.1875 -0.375 -0.546875 -0.640625q-0.359375 -0.265625 -0.90625 -0.40625q-0.546875 -0.15625 -1.28125 -0.15625l-1.171875 0q-0.125 0 -0.21875 -0.03125q-0.09375 -0.046875 -0.15625 -0.15625q-0.0625 -0.109375 -0.09375 -0.3125q-0.03125 -0.203125 -0.03125 -0.53125q0 -0.296875 0.03125 -0.484375q0.03125 -0.203125 0.078125 -0.296875q0.0625 -0.109375 0.140625 -0.15625q0.09375 -0.046875 0.21875 -0.046875l1.1875 0q0.59375 0 1.0625 -0.140625q0.46875 -0.140625 0.78125 -0.390625q0.328125 -0.265625 0.484375 -0.625q0.171875 -0.375 0.171875 -0.828125q0 -0.34375 -0.109375 -0.640625q-0.109375 -0.3125 -0.34375 -0.53125q-0.21875 -0.234375 -0.578125 -0.359375q-0.34375 -0.125 -0.828125 -0.125q-0.546875 0 -1.03125 0.15625q-0.46875 0.15625 -0.859375 0.359375q-0.375 0.1875 -0.640625 0.359375q-0.265625 0.15625 -0.390625 0.15625q-0.078125 0 -0.140625 -0.03125q-0.0625 -0.046875 -0.109375 -0.140625q-0.03125 -0.109375 -0.0625 -0.296875q-0.015625 -0.203125 -0.015625 -0.515625q0 -0.265625 0 -0.4375q0.015625 -0.171875 0.046875 -0.28125q0.03125 -0.109375 0.078125 -0.1875q0.046875 -0.09375 0.15625 -0.1875q0.109375 -0.109375 0.421875 -0.296875q0.328125 -0.203125 0.8125 -0.390625q0.5 -0.1875 1.140625 -0.3125q0.640625 -0.140625 1.390625 -0.140625q0.96875 0 1.71875 0.234375q0.765625 0.234375 1.28125 0.671875q0.515625 0.421875 0.78125 1.0625q0.265625 0.625 0.265625 1.40625q0 0.609375 -0.15625 1.140625q-0.15625 0.53125 -0.46875 0.953125q-0.296875 0.421875 -0.75 0.71875q-0.453125 0.28125 -1.046875 0.421875l0 0.03125q0.71875 0.09375 1.28125 0.375q0.5625 0.265625 0.953125 0.6875q0.390625 0.40625 0.59375 0.9375q0.203125 0.53125 0.203125 1.125z" fill-rule="nonzero"/><path fill="#000000" fill-opacity="0.0" d="m0 319.34253l25.732283 -0.9763794" fill-rule="evenodd"/><path stroke="#44546a" stroke-width="3.0" stroke-linejoin="round" stroke-linecap="butt" d="m0 319.34253l7.7452273 -0.29388428" fill-rule="evenodd"/><path fill="#44546a" stroke="#44546a" stroke-width="3.0" stroke-linecap="butt" d="m7.933111 324.00027l13.416618 -5.4678345l-13.792385 -4.435425z" fill-rule="evenodd"/><path fill="#000000" fill-opacity="0.0" d="m140.53543 318.36615l62.708664 0" fill-rule="evenodd"/><path stroke="#44546a" stroke-width="3.0" stroke-linejoin="round" stroke-linecap="butt" d="m140.53543 318.36615l44.708664 0" fill-rule="evenodd"/><path fill="#44546a" stroke="#44546a" stroke-width="3.0" stroke-linecap="butt" d="m185.2441 323.32135l13.614288 -4.9552l-13.614288 -4.9552z" fill-rule="evenodd"/><path fill="#000000" fill-opacity="0.0" d="m318.04987 318.36615l55.905518 0" fill-rule="evenodd"/><path stroke="#44546a" stroke-width="3.0" stroke-linejoin="round" stroke-linecap="butt" d="m318.04987 318.36615l37.905518 0" fill-rule="evenodd"/><path fill="#44546a" stroke="#44546a" stroke-width="3.0" stroke-linecap="butt" d="m355.95538 323.32135l13.614288 -4.9552l-13.614288 -4.9552z" fill-rule="evenodd"/><path fill="#e7e6e6" d="m28.64567 399.54742l0 0c0 -5.073578 4.1129513 -9.186523 9.186533 -9.186523l90.60332 0c2.4364166 0 4.773041 0.967865 6.4958496 2.6906738c1.7228241 1.7228088 2.6906738 4.0594177 2.6906738 6.4958496l0 36.745056c0 5.073578 -4.1129456 9.186523 -9.186523 9.186523l-90.60332 0c-5.0735817 0 -9.186533 -4.1129456 -9.186533 -9.186523z" fill-rule="evenodd"/><path stroke="#44546a" stroke-width="1.0" stroke-linejoin="round" stroke-linecap="butt" d="m28.64567 399.54742l0 0c0 -5.073578 4.1129513 -9.186523 9.186533 -9.186523l90.60332 0c2.4364166 0 4.773041 0.967865 6.4958496 2.6906738c1.7228241 1.7228088 2.6906738 4.0594177 2.6906738 6.4958496l0 36.745056c0 5.073578 -4.1129456 9.186523 -9.186523 9.186523l-90.60332 0c-5.0735817 0 -9.186533 -4.1129456 -9.186533 -9.186523z" fill-rule="evenodd"/><path fill="#000000" d="m84.45549 428.82745q0.125 0.265625 0.109375 0.4375q0 0.171875 -0.21875 0.28125q-0.21875 0.109375 -0.671875 0.140625q-0.453125 0.046875 -1.203125 0.046875q-0.703125 0 -1.140625 -0.03125q-0.421875 -0.015625 -0.671875 -0.078125q-0.234375 -0.078125 -0.359375 -0.171875q-0.109375 -0.109375 -0.171875 -0.265625l-2.578125 -4.953125l-2.578125 4.953125q-0.0625 0.15625 -0.171875 0.265625q-0.109375 0.09375 -0.34375 0.171875q-0.21875 0.0625 -0.625 0.078125q-0.40625 0.03125 -1.0625 0.03125q-0.6875 0 -1.09375 -0.046875q-0.40625 -0.03125 -0.59375 -0.140625q-0.1875 -0.109375 -0.203125 -0.28125q0 -0.171875 0.140625 -0.4375l3.859375 -6.859375l-3.5625 -6.4375q-0.140625 -0.28125 -0.15625 -0.46875q0 -0.203125 0.203125 -0.3125q0.203125 -0.109375 0.640625 -0.15625q0.453125 -0.046875 1.21875 -0.046875q0.6875 0 1.09375 0.03125q0.421875 0.015625 0.65625 0.0625q0.234375 0.046875 0.34375 0.15625q0.109375 0.09375 0.1875 0.25l2.484375 4.65625l2.46875 -4.65625q0.046875 -0.125 0.140625 -0.21875q0.09375 -0.09375 0.296875 -0.15625q0.203125 -0.0625 0.546875 -0.09375q0.359375 -0.03125 0.96875 -0.03125q0.6875 0 1.09375 0.03125q0.421875 0.03125 0.59375 0.140625q0.1875 0.109375 0.171875 0.3125q0 0.1875 -0.171875 0.5l-3.46875 6.328125l3.828125 6.96875z" fill-rule="nonzero"/><path fill="#000000" d="m94.908615 440.59308q0 0.296875 -0.03125 0.5q-0.03125 0.203125 -0.09375 0.328125q-0.046875 0.109375 -0.125 0.171875q-0.0625 0.046875 -0.15625 0.046875l-7.4375 0q-0.09375 0 -0.171875 -0.046875q-0.0625 -0.0625 -0.125 -0.171875q-0.046875 -0.125 -0.078125 -0.328125q-0.03125 -0.203125 -0.03125 -0.5q0 -0.296875 0.015625 -0.5q0.03125 -0.203125 0.078125 -0.328125q0.0625 -0.125 0.140625 -0.171875q0.078125 -0.0625 0.171875 -0.0625l2.5 0l0 -8.765625l-2.15625 1.1875q-0.25 0.109375 -0.40625 0.140625q-0.140625 0.03125 -0.234375 -0.0625q-0.078125 -0.09375 -0.109375 -0.3125q-0.03125 -0.21875 -0.03125 -0.609375q0 -0.25 0 -0.40625q0.015625 -0.15625 0.046875 -0.265625q0.046875 -0.125 0.125 -0.1875q0.078125 -0.078125 0.203125 -0.171875l2.890625 -1.875q0.046875 -0.03125 0.125 -0.0625q0.078125 -0.03125 0.203125 -0.046875q0.125 -0.015625 0.328125 -0.015625q0.203125 0 0.53125 0q0.390625 0 0.640625 0.015625q0.25 0.015625 0.375 0.046875q0.125 0.03125 0.15625 0.09375q0.046875 0.0625 0.046875 0.15625l0 11.140625l2.203125 0q0.09375 0 0.171875 0.0625q0.078125 0.046875 0.125 0.171875q0.0625 0.125 0.078125 0.328125q0.03125 0.203125 0.03125 0.5z" fill-rule="nonzero"/><path fill="#e7e6e6" d="m206.16011 399.54742l0 0c0 -5.073578 4.1129456 -9.186523 9.186523 -9.186523l90.60332 0c2.436432 0 4.773041 0.967865 6.4958496 2.6906738c1.7228088 1.7228088 2.6906738 4.0594177 2.6906738 6.4958496l0 36.745056c0 5.073578 -4.1129456 9.186523 -9.186523 9.186523l-90.60332 0c-5.073578 0 -9.186523 -4.1129456 -9.186523 -9.186523z" fill-rule="evenodd"/><path stroke="#44546a" stroke-width="1.0" stroke-linejoin="round" stroke-linecap="butt" d="m206.16011 399.54742l0 0c0 -5.073578 4.1129456 -9.186523 9.186523 -9.186523l90.60332 0c2.436432 0 4.773041 0.967865 6.4958496 2.6906738c1.7228088 1.7228088 2.6906738 4.0594177 2.6906738 6.4958496l0 36.745056c0 5.073578 -4.1129456 9.186523 -9.186523 9.186523l-90.60332 0c-5.073578 0 -9.186523 -4.1129456 -9.186523 -9.186523z" fill-rule="evenodd"/><path fill="#000000" d="m261.96994 428.82745q0.125 0.265625 0.109375 0.4375q0 0.171875 -0.21875 0.28125q-0.21875 0.109375 -0.671875 0.140625q-0.453125 0.046875 -1.203125 0.046875q-0.703125 0 -1.140625 -0.03125q-0.421875 -0.015625 -0.671875 -0.078125q-0.234375 -0.078125 -0.359375 -0.171875q-0.109375 -0.109375 -0.171875 -0.265625l-2.5781403 -4.953125l-2.578125 4.953125q-0.0625 0.15625 -0.171875 0.265625q-0.109375 0.09375 -0.34375 0.171875q-0.21875 0.0625 -0.625 0.078125q-0.40625 0.03125 -1.0625 0.03125q-0.6875 0 -1.09375 -0.046875q-0.40625 -0.03125 -0.59375 -0.140625q-0.1875 -0.109375 -0.203125 -0.28125q0 -0.171875 0.140625 -0.4375l3.859375 -6.859375l-3.5625 -6.4375q-0.140625 -0.28125 -0.15625 -0.46875q0 -0.203125 0.203125 -0.3125q0.203125 -0.109375 0.640625 -0.15625q0.453125 -0.046875 1.21875 -0.046875q0.6875 0 1.09375 0.03125q0.421875 0.015625 0.65625 0.0625q0.234375 0.046875 0.34375 0.15625q0.109375 0.09375 0.1875 0.25l2.484375 4.65625l2.4687653 -4.65625q0.046875 -0.125 0.140625 -0.21875q0.09375 -0.09375 0.296875 -0.15625q0.203125 -0.0625 0.546875 -0.09375q0.359375 -0.03125 0.96875 -0.03125q0.6875 0 1.09375 0.03125q0.421875 0.03125 0.59375 0.140625q0.1875 0.109375 0.171875 0.3125q0 0.1875 -0.171875 0.5l-3.46875 6.328125l3.828125 6.96875z" fill-rule="nonzero"/><path fill="#000000" d="m272.54807 440.53058q0 0.296875 -0.03125 0.515625q-0.015625 0.203125 -0.078125 0.34375q-0.046875 0.140625 -0.125 0.203125q-0.078125 0.046875 -0.1875 0.046875l-7.75 0q-0.234375 0 -0.40625 -0.03125q-0.15625 -0.046875 -0.265625 -0.171875q-0.09375 -0.125 -0.140625 -0.34375q-0.046875 -0.234375 -0.046875 -0.59375q0 -0.34375 0.03125 -0.59375q0.03125 -0.25 0.109375 -0.4375q0.078125 -0.1875 0.203125 -0.375q0.140625 -0.1875 0.34375 -0.40625l2.34375 -2.5q0.6875 -0.71875 1.109375 -1.3125q0.4375 -0.609375 0.671875 -1.09375q0.25 -0.5 0.328125 -0.921875q0.09375 -0.421875 0.09375 -0.796875q0 -0.34375 -0.109375 -0.640625q-0.109375 -0.3125 -0.328125 -0.53125q-0.203125 -0.234375 -0.53125 -0.359375q-0.328125 -0.140625 -0.765625 -0.140625q-0.609375 0 -1.09375 0.15625q-0.46875 0.15625 -0.828125 0.359375q-0.359375 0.1875 -0.59375 0.34375q-0.234375 0.15625 -0.375 0.15625q-0.09375 0 -0.171875 -0.0625q-0.0625 -0.0625 -0.109375 -0.203125q-0.03125 -0.140625 -0.0625 -0.375q-0.015625 -0.25 -0.015625 -0.609375q0 -0.234375 0.015625 -0.390625q0.015625 -0.171875 0.046875 -0.28125q0.03125 -0.125 0.078125 -0.21875q0.046875 -0.09375 0.171875 -0.21875q0.140625 -0.125 0.484375 -0.3125q0.359375 -0.1875 0.859375 -0.375q0.515625 -0.1875 1.125 -0.3125q0.625 -0.125 1.28125 -0.125q1.0625 0 1.84375 0.265625q0.78125 0.265625 1.296875 0.75q0.53125 0.46875 0.78125 1.125q0.265625 0.640625 0.265625 1.390625q0 0.65625 -0.125 1.296875q-0.125 0.625 -0.53125 1.359375q-0.390625 0.734375 -1.109375 1.625q-0.71875 0.890625 -1.90625 2.078125l-1.578125 1.609375l5.3125 0q0.109375 0 0.1875 0.0625q0.09375 0.0625 0.15625 0.203125q0.0625 0.125 0.09375 0.34375q0.03125 0.203125 0.03125 0.5z" fill-rule="nonzero"/><path fill="#e7e6e6" d="m376.86353 399.54742l0 0c0 -5.073578 4.1129456 -9.186523 9.186523 -9.186523l90.6033 0c2.436432 0 4.7730713 0.967865 6.49588 2.6906738c1.7228088 1.7228088 2.6906738 4.0594177 2.6906738 6.4958496l0 36.745056c0 5.073578 -4.112976 9.186523 -9.186554 9.186523l-90.6033 0c-5.073578 0 -9.186523 -4.1129456 -9.186523 -9.186523z" fill-rule="evenodd"/><path stroke="#44546a" stroke-width="1.0" stroke-linejoin="round" stroke-linecap="butt" d="m376.86353 399.54742l0 0c0 -5.073578 4.1129456 -9.186523 9.186523 -9.186523l90.6033 0c2.436432 0 4.7730713 0.967865 6.49588 2.6906738c1.7228088 1.7228088 2.6906738 4.0594177 2.6906738 6.4958496l0 36.745056c0 5.073578 -4.112976 9.186523 -9.186554 9.186523l-90.6033 0c-5.073578 0 -9.186523 -4.1129456 -9.186523 -9.186523z" fill-rule="evenodd"/><path fill="#000000" d="m432.67334 428.82745q0.125 0.265625 0.109375 0.4375q0 0.171875 -0.21875 0.28125q-0.21875 0.109375 -0.671875 0.140625q-0.453125 0.046875 -1.203125 0.046875q-0.703125 0 -1.140625 -0.03125q-0.421875 -0.015625 -0.671875 -0.078125q-0.234375 -0.078125 -0.359375 -0.171875q-0.109375 -0.109375 -0.171875 -0.265625l-2.578125 -4.953125l-2.578125 4.953125q-0.0625 0.15625 -0.171875 0.265625q-0.109375 0.09375 -0.34375 0.171875q-0.21875 0.0625 -0.625 0.078125q-0.40625 0.03125 -1.0625 0.03125q-0.6875 0 -1.09375 -0.046875q-0.40625 -0.03125 -0.59375 -0.140625q-0.1875 -0.109375 -0.203125 -0.28125q0 -0.171875 0.140625 -0.4375l3.859375 -6.859375l-3.5625 -6.4375q-0.140625 -0.28125 -0.15625 -0.46875q0 -0.203125 0.203125 -0.3125q0.203125 -0.109375 0.640625 -0.15625q0.453125 -0.046875 1.21875 -0.046875q0.6875 0 1.09375 0.03125q0.421875 0.015625 0.65625 0.0625q0.234375 0.046875 0.34375 0.15625q0.109375 0.09375 0.1875 0.25l2.484375 4.65625l2.46875 -4.65625q0.046875 -0.125 0.140625 -0.21875q0.09375 -0.09375 0.296875 -0.15625q0.203125 -0.0625 0.546875 -0.09375q0.359375 -0.03125 0.96875 -0.03125q0.6875 0 1.09375 0.03125q0.421875 0.03125 0.59375 0.140625q0.1875 0.109375 0.171875 0.3125q0 0.1875 -0.171875 0.5l-3.46875 6.328125l3.828125 6.96875z" fill-rule="nonzero"/><path fill="#000000" d="m443.18896 437.68683q0 1.015625 -0.390625 1.796875q-0.375 0.78125 -1.0625 1.3125q-0.6875 0.53125 -1.65625 0.8125q-0.953125 0.265625 -2.078125 0.265625q-0.6875 0 -1.296875 -0.09375q-0.609375 -0.09375 -1.078125 -0.234375q-0.453125 -0.15625 -0.765625 -0.3125q-0.296875 -0.15625 -0.390625 -0.234375q-0.09375 -0.09375 -0.140625 -0.1875q-0.046875 -0.109375 -0.078125 -0.25q-0.03125 -0.140625 -0.046875 -0.34375q-0.015625 -0.21875 -0.015625 -0.53125q0 -0.5 0.078125 -0.6875q0.078125 -0.1875 0.25 -0.1875q0.109375 0 0.359375 0.140625q0.25 0.140625 0.640625 0.296875q0.40625 0.15625 0.9375 0.296875q0.53125 0.140625 1.203125 0.140625q0.578125 0 1.015625 -0.125q0.4375 -0.140625 0.734375 -0.375q0.3125 -0.25 0.46875 -0.59375q0.15625 -0.359375 0.15625 -0.78125q0 -0.46875 -0.1875 -0.84375q-0.1875 -0.375 -0.546875 -0.640625q-0.359375 -0.265625 -0.90625 -0.40625q-0.546875 -0.15625 -1.28125 -0.15625l-1.171875 0q-0.125 0 -0.21875 -0.03125q-0.09375 -0.046875 -0.15625 -0.15625q-0.0625 -0.109375 -0.09375 -0.3125q-0.03125 -0.203125 -0.03125 -0.53125q0 -0.296875 0.03125 -0.484375q0.03125 -0.203125 0.078125 -0.296875q0.0625 -0.109375 0.140625 -0.15625q0.09375 -0.046875 0.21875 -0.046875l1.1875 0q0.59375 0 1.0625 -0.140625q0.46875 -0.140625 0.78125 -0.390625q0.328125 -0.265625 0.484375 -0.625q0.171875 -0.375 0.171875 -0.828125q0 -0.34375 -0.109375 -0.640625q-0.109375 -0.3125 -0.34375 -0.53125q-0.21875 -0.234375 -0.578125 -0.359375q-0.34375 -0.125 -0.828125 -0.125q-0.546875 0 -1.03125 0.15625q-0.46875 0.15625 -0.859375 0.359375q-0.375 0.1875 -0.640625 0.359375q-0.265625 0.15625 -0.390625 0.15625q-0.078125 0 -0.140625 -0.03125q-0.0625 -0.046875 -0.109375 -0.140625q-0.03125 -0.109375 -0.0625 -0.296875q-0.015625 -0.203125 -0.015625 -0.515625q0 -0.265625 0 -0.4375q0.015625 -0.171875 0.046875 -0.28125q0.03125 -0.109375 0.078125 -0.1875q0.046875 -0.09375 0.15625 -0.1875q0.109375 -0.109375 0.421875 -0.296875q0.328125 -0.203125 0.8125 -0.390625q0.5 -0.1875 1.140625 -0.3125q0.640625 -0.140625 1.390625 -0.140625q0.96875 0 1.71875 0.234375q0.765625 0.234375 1.28125 0.671875q0.515625 0.421875 0.78125 1.0625q0.265625 0.625 0.265625 1.40625q0 0.609375 -0.15625 1.140625q-0.15625 0.53125 -0.46875 0.953125q-0.296875 0.421875 -0.75 0.71875q-0.453125 0.28125 -1.046875 0.421875l0 0.03125q0.71875 0.09375 1.28125 0.375q0.5625 0.265625 0.953125 0.6875q0.390625 0.40625 0.59375 0.9375q0.203125 0.53125 0.203125 1.125z" fill-rule="nonzero"/><path fill="#000000" fill-opacity="0.0" d="m83.13386 390.3609l0 -38.897644" fill-rule="evenodd"/><path stroke="#44546a" stroke-width="3.0" stroke-linejoin="round" stroke-linecap="butt" d="m83.13386 390.3609l0 -20.897644" fill-rule="evenodd"/><path fill="#44546a" stroke="#44546a" stroke-width="3.0" stroke-linecap="butt" d="m88.08906 369.46326l-4.9552 -13.614288l-4.9552 13.614288z" fill-rule="evenodd"/><path fill="#000000" fill-opacity="0.0" d="m260.6483 390.3609l0 -38.897644" fill-rule="evenodd"/><path stroke="#44546a" stroke-width="3.0" stroke-linejoin="round" stroke-linecap="butt" d="m260.6483 390.3609l0 -20.897644" fill-rule="evenodd"/><path fill="#44546a" stroke="#44546a" stroke-width="3.0" stroke-linecap="butt" d="m265.6035 369.46326l-4.9552 -13.614288l-4.955185 13.614288z" fill-rule="evenodd"/><path fill="#000000" fill-opacity="0.0" d="m431.3517 390.3609l0 -38.897644" fill-rule="evenodd"/><path stroke="#44546a" stroke-width="3.0" stroke-linejoin="round" stroke-linecap="butt" d="m431.3517 390.3609l0 -20.897644" fill-rule="evenodd"/><path fill="#44546a" stroke="#44546a" stroke-width="3.0" stroke-linecap="butt" d="m436.30692 369.46326l-4.9552 -13.614288l-4.9552 13.614288z" fill-rule="evenodd"/><path fill="#e7e6e6" d="m28.64567 199.99887l0 0c0 -5.073578 4.1129513 -9.186539 9.186533 -9.186539l90.60332 0c2.4364166 0 4.773041 0.967865 6.4958496 2.6906738c1.7228241 1.7228088 2.6906738 4.0594482 2.6906738 6.495865l0 36.74504c0 5.073578 -4.1129456 9.186539 -9.186523 9.186539l-90.60332 0c-5.0735817 0 -9.186533 -4.112961 -9.186533 -9.186539z" fill-rule="evenodd"/><path stroke="#44546a" stroke-width="1.0" stroke-linejoin="round" stroke-linecap="butt" d="m28.64567 199.99887l0 0c0 -5.073578 4.1129513 -9.186539 9.186533 -9.186539l90.60332 0c2.4364166 0 4.773041 0.967865 6.4958496 2.6906738c1.7228241 1.7228088 2.6906738 4.0594482 2.6906738 6.495865l0 36.74504c0 5.073578 -4.1129456 9.186539 -9.186523 9.186539l-90.60332 0c-5.0735817 0 -9.186533 -4.112961 -9.186533 -9.186539z" fill-rule="evenodd"/><path fill="#000000" d="m80.19768 230.09138l-1.6875 4.9375q-0.140625 0.390625 -0.765625 0.5625q-0.625 0.171875 -1.828125 0.171875q-0.625 0 -1.0 -0.0625q-0.375 -0.046875 -0.5625 -0.171875q-0.1875 -0.125 -0.203125 -0.3125q-0.015625 -0.1875 0.09375 -0.453125l1.859375 -4.671875q-0.203125 -0.09375 -0.375 -0.28125q-0.15625 -0.203125 -0.234375 -0.421875l-4.796875 -12.8125q-0.203125 -0.546875 -0.203125 -0.828125q0 -0.296875 0.1875 -0.453125q0.1875 -0.171875 0.625 -0.234375q0.453125 -0.0625 1.1875 -0.0625q0.671875 0 1.0625 0.03125q0.390625 0.015625 0.609375 0.109375q0.21875 0.09375 0.328125 0.296875q0.109375 0.1875 0.21875 0.546875l3.28125 9.328125l0.046875 0l3.0 -9.515625q0.09375 -0.40625 0.234375 -0.53125q0.15625 -0.140625 0.5 -0.203125q0.34375 -0.0625 1.203125 -0.0625q0.671875 0 1.109375 0.0625q0.453125 0.0625 0.65625 0.234375q0.21875 0.171875 0.21875 0.46875q0 0.28125 -0.125 0.671875l-4.640625 13.65625z" fill-rule="nonzero"/><path fill="#000000" d="m95.13518 241.04451q0 0.296875 -0.03125 0.5q-0.03125 0.203125 -0.09375 0.328125q-0.046875 0.109375 -0.125 0.171875q-0.0625 0.046875 -0.15625 0.046875l-7.4375 0q-0.09375 0 -0.171875 -0.046875q-0.0625 -0.0625 -0.125 -0.171875q-0.046875 -0.125 -0.078125 -0.328125q-0.03125 -0.203125 -0.03125 -0.5q0 -0.296875 0.015625 -0.5q0.03125 -0.203125 0.078125 -0.328125q0.0625 -0.125 0.140625 -0.171875q0.078125 -0.0625 0.171875 -0.0625l2.5 0l0 -8.765625l-2.15625 1.1875q-0.25 0.109375 -0.40625 0.140625q-0.140625 0.03125 -0.234375 -0.0625q-0.078125 -0.09375 -0.109375 -0.3125q-0.03125 -0.21875 -0.03125 -0.609375q0 -0.25 0 -0.40625q0.015625 -0.15625 0.046875 -0.265625q0.046875 -0.125 0.125 -0.1875q0.078125 -0.078125 0.203125 -0.171875l2.890625 -1.875q0.046875 -0.03125 0.125 -0.0625q0.078125 -0.03125 0.203125 -0.046875q0.125 -0.015625 0.328125 -0.015625q0.203125 0 0.53125 0q0.390625 0 0.640625 0.015625q0.25 0.015625 0.375 0.046875q0.125 0.03125 0.15625 0.09375q0.046875 0.0625 0.046875 0.15625l0 11.140625l2.203125 0q0.09375 0 0.171875 0.0625q0.078125 0.046875 0.125 0.171875q0.0625 0.125 0.078125 0.328125q0.03125 0.203125 0.03125 0.5z" fill-rule="nonzero"/><path fill="#e7e6e6" d="m206.16011 199.99887l0 0c0 -5.073578 4.1129456 -9.186539 9.186523 -9.186539l90.60332 0c2.436432 0 4.773041 0.967865 6.4958496 2.6906738c1.7228088 1.7228088 2.6906738 4.0594482 2.6906738 6.495865l0 36.74504c0 5.073578 -4.1129456 9.186539 -9.186523 9.186539l-90.60332 0c-5.073578 0 -9.186523 -4.112961 -9.186523 -9.186539z" fill-rule="evenodd"/><path stroke="#44546a" stroke-width="1.0" stroke-linejoin="round" stroke-linecap="butt" d="m206.16011 199.99887l0 0c0 -5.073578 4.1129456 -9.186539 9.186523 -9.186539l90.60332 0c2.436432 0 4.773041 0.967865 6.4958496 2.6906738c1.7228088 1.7228088 2.6906738 4.0594482 2.6906738 6.495865l0 36.74504c0 5.073578 -4.1129456 9.186539 -9.186523 9.186539l-90.60332 0c-5.073578 0 -9.186523 -4.112961 -9.186523 -9.186539z" fill-rule="evenodd"/><path fill="#000000" d="m257.71213 230.09138l-1.6875 4.9375q-0.14064026 0.390625 -0.76564026 0.5625q-0.625 0.171875 -1.828125 0.171875q-0.625 0 -1.0 -0.0625q-0.375 -0.046875 -0.5625 -0.171875q-0.1875 -0.125 -0.203125 -0.3125q-0.015625 -0.1875 0.09375 -0.453125l1.859375 -4.671875q-0.203125 -0.09375 -0.375 -0.28125q-0.15625 -0.203125 -0.234375 -0.421875l-4.796875 -12.8125q-0.203125 -0.546875 -0.203125 -0.828125q0 -0.296875 0.1875 -0.453125q0.1875 -0.171875 0.625 -0.234375q0.453125 -0.0625 1.1875 -0.0625q0.671875 0 1.0625 0.03125q0.390625 0.015625 0.609375 0.109375q0.21875 0.09375 0.328125 0.296875q0.109375 0.1875 0.21875 0.546875l3.28125 9.328125l0.046875 0l3.0000153 -9.515625q0.09375 -0.40625 0.234375 -0.53125q0.15625 -0.140625 0.5 -0.203125q0.34375 -0.0625 1.203125 -0.0625q0.671875 0 1.109375 0.0625q0.453125 0.0625 0.65625 0.234375q0.21875 0.171875 0.21875 0.46875q0 0.28125 -0.125 0.671875l-4.640625 13.65625z" fill-rule="nonzero"/><path fill="#000000" d="m272.77463 240.98201q0 0.296875 -0.03125 0.515625q-0.015625 0.203125 -0.078125 0.34375q-0.046875 0.140625 -0.125 0.203125q-0.078125 0.046875 -0.1875 0.046875l-7.75 0q-0.234375 0 -0.40625 -0.03125q-0.15625 -0.046875 -0.265625 -0.171875q-0.09375 -0.125 -0.140625 -0.34375q-0.046875 -0.234375 -0.046875 -0.59375q0 -0.34375 0.03125 -0.59375q0.03125 -0.25 0.109375 -0.4375q0.078125 -0.1875 0.203125 -0.375q0.140625 -0.1875 0.34375 -0.40625l2.34375 -2.5q0.6875 -0.71875 1.109375 -1.3125q0.4375 -0.609375 0.671875 -1.09375q0.25 -0.5 0.328125 -0.921875q0.09375 -0.421875 0.09375 -0.796875q0 -0.34375 -0.109375 -0.640625q-0.109375 -0.3125 -0.328125 -0.53125q-0.203125 -0.234375 -0.53125 -0.359375q-0.328125 -0.140625 -0.765625 -0.140625q-0.609375 0 -1.09375 0.15625q-0.46875 0.15625 -0.828125 0.359375q-0.359375 0.1875 -0.59375 0.34375q-0.234375 0.15625 -0.375 0.15625q-0.09375 0 -0.171875 -0.0625q-0.0625 -0.0625 -0.109375 -0.203125q-0.03125 -0.140625 -0.0625 -0.375q-0.015625 -0.25 -0.015625 -0.609375q0 -0.234375 0.015625 -0.390625q0.015625 -0.171875 0.046875 -0.28125q0.03125 -0.125 0.078125 -0.21875q0.046875 -0.09375 0.171875 -0.21875q0.140625 -0.125 0.484375 -0.3125q0.359375 -0.1875 0.859375 -0.375q0.515625 -0.1875 1.125 -0.3125q0.625 -0.125 1.28125 -0.125q1.0625 0 1.84375 0.265625q0.78125 0.265625 1.296875 0.75q0.53125 0.46875 0.78125 1.125q0.265625 0.640625 0.265625 1.390625q0 0.65625 -0.125 1.296875q-0.125 0.625 -0.53125 1.359375q-0.390625 0.734375 -1.109375 1.625q-0.71875 0.890625 -1.90625 2.078125l-1.578125 1.609375l5.3125 0q0.109375 0 0.1875 0.0625q0.09375 0.0625 0.15625 0.203125q0.0625 0.125 0.09375 0.34375q0.03125 0.203125 0.03125 0.5z" fill-rule="nonzero"/><path fill="#e7e6e6" d="m376.86353 199.99887l0 0c0 -5.073578 4.1129456 -9.186539 9.186523 -9.186539l90.6033 0c2.436432 0 4.7730713 0.967865 6.49588 2.6906738c1.7228088 1.7228088 2.6906738 4.0594482 2.6906738 6.495865l0 36.74504c0 5.073578 -4.112976 9.186539 -9.186554 9.186539l-90.6033 0c-5.073578 0 -9.186523 -4.112961 -9.186523 -9.186539z" fill-rule="evenodd"/><path stroke="#44546a" stroke-width="1.0" stroke-linejoin="round" stroke-linecap="butt" d="m376.86353 199.99887l0 0c0 -5.073578 4.1129456 -9.186539 9.186523 -9.186539l90.6033 0c2.436432 0 4.7730713 0.967865 6.49588 2.6906738c1.7228088 1.7228088 2.6906738 4.0594482 2.6906738 6.495865l0 36.74504c0 5.073578 -4.112976 9.186539 -9.186554 9.186539l-90.6033 0c-5.073578 0 -9.186523 -4.112961 -9.186523 -9.186539z" fill-rule="evenodd"/><path fill="#000000" d="m428.41553 230.09138l-1.6875 4.9375q-0.140625 0.390625 -0.765625 0.5625q-0.625 0.171875 -1.828125 0.171875q-0.625 0 -1.0 -0.0625q-0.375 -0.046875 -0.5625 -0.171875q-0.1875 -0.125 -0.203125 -0.3125q-0.015625 -0.1875 0.09375 -0.453125l1.859375 -4.671875q-0.203125 -0.09375 -0.375 -0.28125q-0.15625 -0.203125 -0.234375 -0.421875l-4.796875 -12.8125q-0.203125 -0.546875 -0.203125 -0.828125q0 -0.296875 0.1875 -0.453125q0.1875 -0.171875 0.625 -0.234375q0.453125 -0.0625 1.1875 -0.0625q0.671875 0 1.0625 0.03125q0.390625 0.015625 0.609375 0.109375q0.21875 0.09375 0.328125 0.296875q0.109375 0.1875 0.21875 0.546875l3.28125 9.328125l0.046875 0l3.0 -9.515625q0.09375 -0.40625 0.234375 -0.53125q0.15625 -0.140625 0.5 -0.203125q0.34375 -0.0625 1.203125 -0.0625q0.671875 0 1.109375 0.0625q0.453125 0.0625 0.65625 0.234375q0.21875 0.171875 0.21875 0.46875q0 0.28125 -0.125 0.671875l-4.640625 13.65625z" fill-rule="nonzero"/><path fill="#000000" d="m443.41553 238.13826q0 1.015625 -0.390625 1.796875q-0.375 0.78125 -1.0625 1.3125q-0.6875 0.53125 -1.65625 0.8125q-0.953125 0.265625 -2.078125 0.265625q-0.6875 0 -1.296875 -0.09375q-0.609375 -0.09375 -1.078125 -0.234375q-0.453125 -0.15625 -0.765625 -0.3125q-0.296875 -0.15625 -0.390625 -0.234375q-0.09375 -0.09375 -0.140625 -0.1875q-0.046875 -0.109375 -0.078125 -0.25q-0.03125 -0.140625 -0.046875 -0.34375q-0.015625 -0.21875 -0.015625 -0.53125q0 -0.5 0.078125 -0.6875q0.078125 -0.1875 0.25 -0.1875q0.109375 0 0.359375 0.140625q0.25 0.140625 0.640625 0.296875q0.40625 0.15625 0.9375 0.296875q0.53125 0.140625 1.203125 0.140625q0.578125 0 1.015625 -0.125q0.4375 -0.140625 0.734375 -0.375q0.3125 -0.25 0.46875 -0.59375q0.15625 -0.359375 0.15625 -0.78125q0 -0.46875 -0.1875 -0.84375q-0.1875 -0.375 -0.546875 -0.640625q-0.359375 -0.265625 -0.90625 -0.40625q-0.546875 -0.15625 -1.28125 -0.15625l-1.171875 0q-0.125 0 -0.21875 -0.03125q-0.09375 -0.046875 -0.15625 -0.15625q-0.0625 -0.109375 -0.09375 -0.3125q-0.03125 -0.203125 -0.03125 -0.53125q0 -0.296875 0.03125 -0.484375q0.03125 -0.203125 0.078125 -0.296875q0.0625 -0.109375 0.140625 -0.15625q0.09375 -0.046875 0.21875 -0.046875l1.1875 0q0.59375 0 1.0625 -0.140625q0.46875 -0.140625 0.78125 -0.390625q0.328125 -0.265625 0.484375 -0.625q0.171875 -0.375 0.171875 -0.828125q0 -0.34375 -0.109375 -0.640625q-0.109375 -0.3125 -0.34375 -0.53125q-0.21875 -0.234375 -0.578125 -0.359375q-0.34375 -0.125 -0.828125 -0.125q-0.546875 0 -1.03125 0.15625q-0.46875 0.15625 -0.859375 0.359375q-0.375 0.1875 -0.640625 0.359375q-0.265625 0.15625 -0.390625 0.15625q-0.078125 0 -0.140625 -0.03125q-0.0625 -0.046875 -0.109375 -0.140625q-0.03125 -0.109375 -0.0625 -0.296875q-0.015625 -0.203125 -0.015625 -0.515625q0 -0.265625 0 -0.4375q0.015625 -0.171875 0.046875 -0.28125q0.03125 -0.109375 0.078125 -0.1875q0.046875 -0.09375 0.15625 -0.1875q0.109375 -0.109375 0.421875 -0.296875q0.328125 -0.203125 0.8125 -0.390625q0.5 -0.1875 1.140625 -0.3125q0.640625 -0.140625 1.390625 -0.140625q0.96875 0 1.71875 0.234375q0.765625 0.234375 1.28125 0.671875q0.515625 0.421875 0.78125 1.0625q0.265625 0.625 0.265625 1.40625q0 0.609375 -0.15625 1.140625q-0.15625 0.53125 -0.46875 0.953125q-0.296875 0.421875 -0.75 0.71875q-0.453125 0.28125 -1.046875 0.421875l0 0.03125q0.71875 0.09375 1.28125 0.375q0.5625 0.265625 0.953125 0.6875q0.390625 0.40625 0.59375 0.9375q0.203125 0.53125 0.203125 1.125z" fill-rule="nonzero"/><path fill="#000000" fill-opacity="0.0" d="m83.13386 285.27954l0 -39.338593" fill-rule="evenodd"/><path stroke="#44546a" stroke-width="3.0" stroke-linejoin="round" stroke-linecap="butt" d="m83.13386 285.27954l0 -21.338593" fill-rule="evenodd"/><path fill="#44546a" stroke="#44546a" stroke-width="3.0" stroke-linecap="butt" d="m88.08906 263.94095l-4.9552 -13.614304l-4.9552 13.614304z" fill-rule="evenodd"/><path fill="#000000" fill-opacity="0.0" d="m260.6483 285.27954l0 -39.338593" fill-rule="evenodd"/><path stroke="#44546a" stroke-width="3.0" stroke-linejoin="round" stroke-linecap="butt" d="m260.6483 285.27954l0 -21.338593" fill-rule="evenodd"/><path fill="#44546a" stroke="#44546a" stroke-width="3.0" stroke-linecap="butt" d="m265.6035 263.94095l-4.9552 -13.614304l-4.955185 13.614304z" fill-rule="evenodd"/><path fill="#000000" fill-opacity="0.0" d="m431.3517 285.27954l0 -39.338593" fill-rule="evenodd"/><path stroke="#44546a" stroke-width="3.0" stroke-linejoin="round" stroke-linecap="butt" d="m431.3517 285.27954l0 -21.338593" fill-rule="evenodd"/><path fill="#44546a" stroke="#44546a" stroke-width="3.0" stroke-linecap="butt" d="m436.30692 263.94095l-4.9552 -13.614304l-4.9552 13.614304z" fill-rule="evenodd"/><path fill="#e7e6e6" d="m192.42783 122.96457l0 0c0 -15.220451 30.543335 -27.55906 68.22046 -27.55906l0 0c37.677124 0 68.22049 12.338608 68.22049 27.55906l0 0c0 15.220444 -30.543365 27.559052 -68.22049 27.559052l0 0c-37.677124 0 -68.22046 -12.338608 -68.22046 -27.559052z" fill-rule="evenodd"/><path stroke="#44546a" stroke-width="1.0" stroke-linejoin="round" stroke-linecap="butt" d="m192.42783 122.96457l0 0c0 -15.220451 30.543335 -27.55906 68.22046 -27.55906l0 0c37.677124 0 68.22049 12.338608 68.22049 27.55906l0 0c0 15.220444 -30.543365 27.559052 -68.22049 27.559052l0 0c-37.677124 0 -68.22046 -12.338608 -68.22046 -27.559052z" fill-rule="evenodd"/><path fill="#000000" d="m233.49791 129.57082q0.078125 0.21875 0.078125 0.34375q0.015625 0.125 -0.0625 0.203125q-0.078125 0.0625 -0.265625 0.078125q-0.171875 0.03125 -0.484375 0.03125q-0.296875 0 -0.484375 -0.015625q-0.171875 -0.015625 -0.265625 -0.046875q-0.09375 -0.046875 -0.140625 -0.09375q-0.046875 -0.0625 -0.078125 -0.15625l-1.09375 -3.078125l-5.25 0l-1.03125 3.046875q-0.03125 0.078125 -0.078125 0.15625q-0.046875 0.0625 -0.140625 0.109375q-0.09375 0.03125 -0.265625 0.046875q-0.171875 0.03125 -0.4375 0.03125q-0.296875 0 -0.484375 -0.03125q-0.171875 -0.015625 -0.25 -0.078125q-0.0625 -0.078125 -0.0625 -0.203125q0.015625 -0.140625 0.09375 -0.359375l4.234375 -11.734375q0.03125 -0.109375 0.09375 -0.171875q0.0625 -0.078125 0.1875 -0.109375q0.125 -0.046875 0.3125 -0.0625q0.1875 -0.015625 0.484375 -0.015625q0.3125 0 0.515625 0.015625q0.203125 0.015625 0.328125 0.0625q0.140625 0.03125 0.203125 0.109375q0.0625 0.078125 0.109375 0.1875l4.234375 11.734375zm-5.4375 -10.359375l-0.015625 0l-2.171875 6.296875l4.390625 0l-2.203125 -6.296875zm11.423828 10.0625q0 0.28125 -0.046875 0.453125q-0.03125 0.15625 -0.109375 0.234375q-0.078125 0.078125 -0.234375 0.15625q-0.15625 0.0625 -0.359375 0.109375q-0.1875 0.046875 -0.421875 0.078125q-0.21875 0.03125 -0.453125 0.03125q-0.671875 0 -1.171875 -0.1875q-0.484375 -0.1875 -0.796875 -0.546875q-0.3125 -0.359375 -0.453125 -0.921875q-0.140625 -0.5625 -0.140625 -1.328125l0 -5.140625l-1.234375 0q-0.140625 0 -0.234375 -0.15625q-0.078125 -0.15625 -0.078125 -0.5q0 -0.1875 0.015625 -0.3125q0.03125 -0.125 0.0625 -0.203125q0.046875 -0.09375 0.109375 -0.125q0.0625 -0.03125 0.140625 -0.03125l1.21875 0l0 -2.09375q0 -0.078125 0.03125 -0.125q0.03125 -0.0625 0.125 -0.109375q0.09375 -0.046875 0.25 -0.0625q0.15625 -0.015625 0.390625 -0.015625q0.25 0 0.40625 0.015625q0.15625 0.015625 0.234375 0.0625q0.09375 0.046875 0.125 0.109375q0.046875 0.046875 0.046875 0.125l0 2.09375l2.265625 0q0.078125 0 0.125 0.03125q0.0625 0.03125 0.109375 0.125q0.046875 0.078125 0.0625 0.203125q0.015625 0.125 0.015625 0.3125q0 0.34375 -0.09375 0.5q-0.078125 0.15625 -0.21875 0.15625l-2.265625 0l0 4.90625q0 0.90625 0.265625 1.375q0.28125 0.453125 0.96875 0.453125q0.21875 0 0.390625 -0.03125q0.1875 -0.046875 0.3125 -0.09375q0.140625 -0.046875 0.234375 -0.09375q0.109375 -0.046875 0.1875 -0.046875q0.046875 0 0.09375 0.03125q0.046875 0.015625 0.0625 0.09375q0.03125 0.0625 0.046875 0.1875q0.015625 0.109375 0.015625 0.28125zm6.4160156 0q0 0.28125 -0.046875 0.453125q-0.03125 0.15625 -0.109375 0.234375q-0.078125 0.078125 -0.234375 0.15625q-0.15625 0.0625 -0.359375 0.109375q-0.1875 0.046875 -0.421875 0.078125q-0.21875 0.03125 -0.453125 0.03125q-0.671875 0 -1.171875 -0.1875q-0.484375 -0.1875 -0.796875 -0.546875q-0.3125 -0.359375 -0.453125 -0.921875q-0.140625 -0.5625 -0.140625 -1.328125l0 -5.140625l-1.234375 0q-0.140625 0 -0.234375 -0.15625q-0.078125 -0.15625 -0.078125 -0.5q0 -0.1875 0.015625 -0.3125q0.03125 -0.125 0.0625 -0.203125q0.046875 -0.09375 0.109375 -0.125q0.0625 -0.03125 0.140625 -0.03125l1.21875 0l0 -2.09375q0 -0.078125 0.03125 -0.125q0.03125 -0.0625 0.125 -0.109375q0.09375 -0.046875 0.25 -0.0625q0.15625 -0.015625 0.390625 -0.015625q0.25 0 0.40625 0.015625q0.15625 0.015625 0.234375 0.0625q0.09375 0.046875 0.125 0.109375q0.046875 0.046875 0.046875 0.125l0 2.09375l2.265625 0q0.078125 0 0.125 0.03125q0.0625 0.03125 0.109375 0.125q0.046875 0.078125 0.0625 0.203125q0.015625 0.125 0.015625 0.3125q0 0.34375 -0.09375 0.5q-0.078125 0.15625 -0.21875 0.15625l-2.265625 0l0 4.90625q0 0.90625 0.265625 1.375q0.28125 0.453125 0.96875 0.453125q0.21875 0 0.390625 -0.03125q0.1875 -0.046875 0.3125 -0.09375q0.140625 -0.046875 0.234375 -0.09375q0.109375 -0.046875 0.1875 -0.046875q0.046875 0 0.09375 0.03125q0.046875 0.015625 0.0625 0.09375q0.03125 0.0625 0.046875 0.1875q0.015625 0.109375 0.015625 0.28125zm9.421875 -4.125q0 0.375 -0.203125 0.546875q-0.1875 0.15625 -0.421875 0.15625l-5.765625 0q0 0.734375 0.140625 1.328125q0.15625 0.578125 0.484375 1.0q0.34375 0.40625 0.890625 0.640625q0.546875 0.21875 1.34375 0.21875q0.625 0 1.109375 -0.09375q0.5 -0.109375 0.84375 -0.234375q0.359375 -0.125 0.59375 -0.21875q0.234375 -0.109375 0.34375 -0.109375q0.0625 0 0.109375 0.03125q0.0625 0.03125 0.09375 0.109375q0.03125 0.0625 0.046875 0.1875q0.015625 0.109375 0.015625 0.296875q0 0.125 -0.015625 0.21875q0 0.09375 -0.015625 0.171875q-0.015625 0.0625 -0.0625 0.125q-0.03125 0.046875 -0.078125 0.109375q-0.046875 0.046875 -0.3125 0.171875q-0.265625 0.125 -0.6875 0.25q-0.421875 0.109375 -0.984375 0.203125q-0.546875 0.09375 -1.171875 0.09375q-1.078125 0 -1.890625 -0.296875q-0.8125 -0.3125 -1.375 -0.90625q-0.5625 -0.59375 -0.84375 -1.484375q-0.28125 -0.90625 -0.28125 -2.09375q0 -1.140625 0.296875 -2.046875q0.296875 -0.90625 0.84375 -1.53125q0.546875 -0.625 1.328125 -0.953125q0.78125 -0.34375 1.75 -0.34375q1.03125 0 1.765625 0.328125q0.734375 0.328125 1.203125 0.890625q0.46875 0.5625 0.6875 1.328125q0.21875 0.75 0.21875 1.609375l0 0.296875zm-1.625 -0.484375q0.03125 -1.265625 -0.5625 -1.984375q-0.59375 -0.734375 -1.75 -0.734375q-0.59375 0 -1.046875 0.234375q-0.453125 0.21875 -0.765625 0.59375q-0.296875 0.375 -0.46875 0.875q-0.15625 0.484375 -0.171875 1.015625l4.765625 0zm11.638657 5.25q0 0.078125 -0.046875 0.140625q-0.03125 0.046875 -0.125 0.09375q-0.078125 0.03125 -0.234375 0.046875q-0.15625 0.03125 -0.390625 0.03125q-0.25 0 -0.40625 -0.03125q-0.15625 -0.015625 -0.25 -0.046875q-0.078125 -0.046875 -0.125 -0.09375q-0.03125 -0.0625 -0.03125 -0.140625l0 -5.140625q0 -0.75 -0.125 -1.203125q-0.109375 -0.46875 -0.34375 -0.796875q-0.21875 -0.328125 -0.578125 -0.5q-0.34375 -0.1875 -0.8125 -0.1875q-0.609375 0 -1.21875 0.4375q-0.609375 0.421875 -1.265625 1.25l0 6.140625q0 0.078125 -0.046875 0.140625q-0.03125 0.046875 -0.125 0.09375q-0.078125 0.03125 -0.234375 0.046875q-0.15625 0.03125 -0.40625 0.03125q-0.234375 0 -0.390625 -0.03125q-0.15625 -0.015625 -0.25 -0.046875q-0.09375 -0.046875 -0.125 -0.09375q-0.03125 -0.0625 -0.03125 -0.140625l0 -8.78125q0 -0.078125 0.015625 -0.125q0.03125 -0.0625 0.125 -0.109375q0.09375 -0.046875 0.21875 -0.0625q0.140625 -0.015625 0.375 -0.015625q0.203125 0 0.34375 0.015625q0.140625 0.015625 0.21875 0.0625q0.078125 0.046875 0.109375 0.109375q0.046875 0.046875 0.046875 0.125l0 1.15625q0.734375 -0.828125 1.46875 -1.203125q0.75 -0.390625 1.5 -0.390625q0.875 0 1.46875 0.296875q0.609375 0.296875 0.96875 0.796875q0.375 0.5 0.53125 1.171875q0.171875 0.65625 0.171875 1.59375l0 5.359375zm7.3222656 -0.640625q0 0.28125 -0.046875 0.453125q-0.03125 0.15625 -0.109375 0.234375q-0.078125 0.078125 -0.234375 0.15625q-0.15625 0.0625 -0.359375 0.109375q-0.1875 0.046875 -0.421875 0.078125q-0.21875 0.03125 -0.453125 0.03125q-0.671875 0 -1.171875 -0.1875q-0.484375 -0.1875 -0.796875 -0.546875q-0.3125 -0.359375 -0.453125 -0.921875q-0.140625 -0.5625 -0.140625 -1.328125l0 -5.140625l-1.234375 0q-0.140625 0 -0.234375 -0.15625q-0.078125 -0.15625 -0.078125 -0.5q0 -0.1875 0.015625 -0.3125q0.03125 -0.125 0.0625 -0.203125q0.046875 -0.09375 0.109375 -0.125q0.0625 -0.03125 0.140625 -0.03125l1.21875 0l0 -2.09375q0 -0.078125 0.03125 -0.125q0.03125 -0.0625 0.125 -0.109375q0.09375 -0.046875 0.25 -0.0625q0.15625 -0.015625 0.390625 -0.015625q0.25 0 0.40625 0.015625q0.15625 0.015625 0.234375 0.0625q0.09375 0.046875 0.125 0.109375q0.046875 0.046875 0.046875 0.125l0 2.09375l2.265625 0q0.078125 0 0.125 0.03125q0.0625 0.03125 0.109375 0.125q0.046875 0.078125 0.0625 0.203125q0.015625 0.125 0.015625 0.3125q0 0.34375 -0.09375 0.5q-0.078125 0.15625 -0.21875 0.15625l-2.265625 0l0 4.90625q0 0.90625 0.265625 1.375q0.28125 0.453125 0.96875 0.453125q0.21875 0 0.390625 -0.03125q0.1875 -0.046875 0.3125 -0.09375q0.140625 -0.046875 0.234375 -0.09375q0.109375 -0.046875 0.1875 -0.046875q0.046875 0 0.09375 0.03125q0.046875 0.015625 0.0625 0.09375q0.03125 0.0625 0.046875 0.1875q0.015625 0.109375 0.015625 0.28125zm3.7460938 0.640625q0 0.078125 -0.046875 0.140625q-0.03125 0.046875 -0.125 0.09375q-0.078125 0.03125 -0.234375 0.046875q-0.15625 0.03125 -0.40625 0.03125q-0.234375 0 -0.390625 -0.03125q-0.15625 -0.015625 -0.25 -0.046875q-0.09375 -0.046875 -0.125 -0.09375q-0.03125 -0.0625 -0.03125 -0.140625l0 -8.78125q0 -0.078125 0.03125 -0.125q0.03125 -0.0625 0.125 -0.09375q0.09375 -0.046875 0.25 -0.0625q0.15625 -0.03125 0.390625 -0.03125q0.25 0 0.40625 0.03125q0.15625 0.015625 0.234375 0.0625q0.09375 0.03125 0.125 0.09375q0.046875 0.046875 0.046875 0.125l0 8.78125zm0.1875 -11.75q0 0.5625 -0.21875 0.765625q-0.21875 0.203125 -0.796875 0.203125q-0.5625 0 -0.78125 -0.1875q-0.203125 -0.203125 -0.203125 -0.765625q0 -0.5625 0.21875 -0.765625q0.21875 -0.203125 0.796875 -0.203125q0.5625 0 0.765625 0.203125q0.21875 0.1875 0.21875 0.75zm10.964844 7.265625q0 1.078125 -0.28125 1.984375q-0.28125 0.890625 -0.84375 1.546875q-0.5625 0.65625 -1.40625 1.03125q-0.84375 0.359375 -1.96875 0.359375q-1.078125 0 -1.890625 -0.3125q-0.796875 -0.328125 -1.34375 -0.9375q-0.53125 -0.625 -0.796875 -1.5q-0.265625 -0.890625 -0.265625 -2.0q0 -1.078125 0.28125 -1.96875q0.28125 -0.90625 0.84375 -1.5625q0.5625 -0.65625 1.390625 -1.015625q0.84375 -0.359375 1.96875 -0.359375q1.09375 0 1.890625 0.328125q0.8125 0.3125 1.34375 0.9375q0.53125 0.609375 0.796875 1.484375q0.28125 0.875 0.28125 1.984375zm-1.703125 0.109375q0 -0.71875 -0.140625 -1.34375q-0.125 -0.640625 -0.4375 -1.109375q-0.296875 -0.484375 -0.8125 -0.765625q-0.515625 -0.28125 -1.28125 -0.28125q-0.71875 0 -1.234375 0.25q-0.5 0.25 -0.84375 0.71875q-0.328125 0.46875 -0.5 1.109375q-0.15625 0.625 -0.15625 1.375q0 0.71875 0.125 1.359375q0.140625 0.640625 0.453125 1.109375q0.3125 0.46875 0.828125 0.75q0.515625 0.28125 1.28125 0.28125q0.703125 0 1.21875 -0.25q0.53125 -0.265625 0.859375 -0.71875q0.328125 -0.453125 0.484375 -1.09375q0.15625 -0.640625 0.15625 -1.390625zm11.640625 4.375q0 0.078125 -0.046875 0.140625q-0.03125 0.046875 -0.125 0.09375q-0.078125 0.03125 -0.234375 0.046875q-0.15625 0.03125 -0.390625 0.03125q-0.25 0 -0.40625 -0.03125q-0.15625 -0.015625 -0.25 -0.046875q-0.078125 -0.046875 -0.125 -0.09375q-0.03125 -0.0625 -0.03125 -0.140625l0 -5.140625q0 -0.75 -0.125 -1.203125q-0.109375 -0.46875 -0.34375 -0.796875q-0.21875 -0.328125 -0.578125 -0.5q-0.34375 -0.1875 -0.8125 -0.1875q-0.609375 0 -1.21875 0.4375q-0.609375 0.421875 -1.265625 1.25l0 6.140625q0 0.078125 -0.046875 0.140625q-0.03125 0.046875 -0.125 0.09375q-0.078125 0.03125 -0.234375 0.046875q-0.15625 0.03125 -0.40625 0.03125q-0.234375 0 -0.390625 -0.03125q-0.15625 -0.015625 -0.25 -0.046875q-0.09375 -0.046875 -0.125 -0.09375q-0.03125 -0.0625 -0.03125 -0.140625l0 -8.78125q0 -0.078125 0.015625 -0.125q0.03125 -0.0625 0.125 -0.109375q0.09375 -0.046875 0.21875 -0.0625q0.140625 -0.015625 0.375 -0.015625q0.203125 0 0.34375 0.015625q0.140625 0.015625 0.21875 0.0625q0.078125 0.046875 0.109375 0.109375q0.046875 0.046875 0.046875 0.125l0 1.15625q0.734375 -0.828125 1.46875 -1.203125q0.75 -0.390625 1.5 -0.390625q0.875 0 1.46875 0.296875q0.609375 0.296875 0.96875 0.796875q0.375 0.5 0.53125 1.171875q0.171875 0.65625 0.171875 1.59375l0 5.359375z" fill-rule="nonzero"/><path fill="#e7e6e6" d="m192.42783 27.557743l0 0c0 -15.220447 30.543335 -27.559055 68.22046 -27.559055l0 0c37.677124 0 68.22049 12.338609 68.22049 27.559055l0 0c0 15.220444 -30.543365 27.559055 -68.22049 27.559055l0 0c-37.677124 0 -68.22046 -12.338612 -68.22046 -27.559055z" fill-rule="evenodd"/><path stroke="#44546a" stroke-width="1.0" stroke-linejoin="round" stroke-linecap="butt" d="m192.42783 27.557743l0 0c0 -15.220447 30.543335 -27.559055 68.22046 -27.559055l0 0c37.677124 0 68.22049 12.338609 68.22049 27.559055l0 0c0 15.220444 -30.543365 27.559055 -68.22049 27.559055l0 0c-37.677124 0 -68.22046 -12.338612 -68.22046 -27.559055z" fill-rule="evenodd"/><path fill="#000000" d="m240.46861 28.332115q0 1.84375 -0.4375 3.328125q-0.421875 1.46875 -1.296875 2.515625q-0.859375 1.03125 -2.15625 1.59375q-1.296875 0.546875 -3.03125 0.546875q-1.71875 0 -2.96875 -0.5q-1.234375 -0.515625 -2.0625 -1.484375q-0.8125 -0.984375 -1.21875 -2.421875q-0.390625 -1.4375 -0.390625 -3.3125q0 -1.796875 0.4375 -3.25q0.4375 -1.46875 1.296875 -2.5q0.875 -1.03125 2.171875 -1.578125q1.296875 -0.5625 3.03125 -0.5625q1.6875 0 2.921875 0.515625q1.25 0.5 2.0625 1.46875q0.828125 0.953125 1.234375 2.390625q0.40625 1.421875 0.40625 3.25zm-2.125 0.140625q0 -1.28125 -0.234375 -2.390625q-0.21875 -1.109375 -0.75 -1.921875q-0.53125 -0.8125 -1.421875 -1.265625q-0.890625 -0.46875 -2.203125 -0.46875q-1.3125 0 -2.203125 0.5q-0.890625 0.484375 -1.453125 1.3125q-0.546875 0.8125 -0.796875 1.921875q-0.234375 1.09375 -0.234375 2.296875q0 1.328125 0.21875 2.453125q0.21875 1.125 0.75 1.953125q0.53125 0.8125 1.40625 1.265625q0.890625 0.4375 2.234375 0.4375q1.3125 0 2.21875 -0.484375q0.90625 -0.5 1.453125 -1.328125q0.546875 -0.84375 0.78125 -1.9375q0.234375 -1.109375 0.234375 -2.34375zm14.125 7.328125q0 0.09375 -0.046875 0.15625q-0.03125 0.0625 -0.140625 0.125q-0.109375 0.046875 -0.28125 0.0625q-0.15625 0.03125 -0.40625 0.03125q-0.265625 0 -0.4375 -0.03125q-0.171875 -0.015625 -0.28125 -0.0625q-0.09375 -0.0625 -0.125 -0.125q-0.03125 -0.0625 -0.03125 -0.15625l0 -1.390625q-0.90625 1.0 -1.796875 1.453125q-0.875 0.453125 -1.765625 0.453125q-1.0625 0 -1.78125 -0.34375q-0.71875 -0.359375 -1.171875 -0.953125q-0.4375 -0.609375 -0.640625 -1.40625q-0.1875 -0.8125 -0.1875 -1.953125l0 -6.40625q0 -0.09375 0.03125 -0.15625q0.046875 -0.0625 0.15625 -0.109375q0.125 -0.0625 0.3125 -0.078125q0.1875 -0.015625 0.46875 -0.015625q0.28125 0 0.46875 0.015625q0.1875 0.015625 0.296875 0.078125q0.125 0.046875 0.171875 0.109375q0.046875 0.0625 0.046875 0.15625l0 6.140625q0 0.921875 0.125 1.484375q0.140625 0.5625 0.40625 0.953125q0.28125 0.390625 0.703125 0.609375q0.421875 0.21875 0.984375 0.21875q0.734375 0 1.453125 -0.515625q0.71875 -0.515625 1.53125 -1.515625l0 -7.375q0 -0.09375 0.03125 -0.15625q0.046875 -0.0625 0.15625 -0.109375q0.125 -0.0625 0.296875 -0.078125q0.1875 -0.015625 0.484375 -0.015625q0.28125 0 0.46875 0.015625q0.1875 0.015625 0.28125 0.078125q0.109375 0.046875 0.15625 0.109375q0.0625 0.0625 0.0625 0.15625l0 10.546875zm9.062485 -0.765625q0 0.328125 -0.046875 0.53125q-0.046875 0.203125 -0.140625 0.296875q-0.09375 0.09375 -0.28125 0.1875q-0.1875 0.078125 -0.4375 0.125q-0.234375 0.046875 -0.5 0.078125q-0.265625 0.046875 -0.546875 0.046875q-0.8125 0 -1.40625 -0.21875q-0.578125 -0.21875 -0.953125 -0.65625q-0.375 -0.4375 -0.546875 -1.109375q-0.171875 -0.6875 -0.171875 -1.59375l0 -6.171875l-1.4687347 0q-0.1875 0 -0.296875 -0.1875q-0.09375 -0.1875 -0.09375 -0.609375q0 -0.21875 0.03125 -0.359375q0.03125 -0.15625 0.078125 -0.25q0.046875 -0.109375 0.109375 -0.140625q0.078125 -0.046875 0.171875 -0.046875l1.4687347 0l0 -2.515625q0 -0.078125 0.03125 -0.140625q0.046875 -0.078125 0.15625 -0.125q0.125 -0.0625 0.3125 -0.078125q0.1875 -0.03125 0.46875 -0.03125q0.28125 0 0.46875 0.03125q0.1875 0.015625 0.296875 0.078125q0.109375 0.046875 0.15625 0.125q0.046875 0.0625 0.046875 0.140625l0 2.515625l2.703125 0q0.09375 0 0.15625 0.046875q0.078125 0.03125 0.125 0.140625q0.0625 0.09375 0.078125 0.25q0.03125 0.140625 0.03125 0.359375q0 0.421875 -0.109375 0.609375q-0.109375 0.1875 -0.28125 0.1875l-2.703125 0l0 5.890625q0 1.09375 0.3125 1.65625q0.328125 0.546875 1.15625 0.546875q0.28125 0 0.484375 -0.046875q0.21875 -0.0625 0.375 -0.109375q0.171875 -0.0625 0.28125 -0.109375q0.125 -0.0625 0.21875 -0.0625q0.046875 0 0.09375 0.03125q0.0625 0.03125 0.09375 0.109375q0.03125 0.078125 0.046875 0.21875q0.03125 0.140625 0.03125 0.359375zm12.2578125 -4.671875q0 1.390625 -0.296875 2.5q-0.296875 1.09375 -0.890625 1.859375q-0.578125 0.765625 -1.4375 1.1875q-0.84375 0.40625 -1.953125 0.40625q-0.46875 0 -0.875 -0.09375q-0.390625 -0.09375 -0.765625 -0.28125q-0.375 -0.203125 -0.75 -0.5q-0.375 -0.3125 -0.796875 -0.734375l0 5.28125q0 0.09375 -0.046875 0.15625q-0.046875 0.078125 -0.15625 0.125q-0.109375 0.046875 -0.296875 0.0625q-0.1875 0.03125 -0.484375 0.03125q-0.28125 0 -0.46875 -0.03125q-0.1875 -0.015625 -0.296875 -0.0625q-0.109375 -0.046875 -0.15625 -0.125q-0.03125 -0.0625 -0.03125 -0.15625l0 -14.734375q0 -0.109375 0.03125 -0.171875q0.03125 -0.0625 0.140625 -0.109375q0.109375 -0.046875 0.265625 -0.0625q0.171875 -0.015625 0.40625 -0.015625q0.25 0 0.40625 0.015625q0.15625 0.015625 0.25 0.0625q0.109375 0.046875 0.15625 0.109375q0.046875 0.0625 0.046875 0.171875l0 1.421875q0.46875 -0.5 0.90625 -0.859375q0.453125 -0.359375 0.90625 -0.59375q0.453125 -0.25 0.921875 -0.375q0.484375 -0.125 1.015625 -0.125q1.140625 0 1.953125 0.453125q0.8125 0.4375 1.3125 1.21875q0.515625 0.765625 0.75 1.796875q0.234375 1.03125 0.234375 2.171875zm-2.046875 0.21875q0 -0.796875 -0.125 -1.546875q-0.109375 -0.765625 -0.421875 -1.34375q-0.296875 -0.59375 -0.796875 -0.9375q-0.5 -0.359375 -1.25 -0.359375q-0.375 0 -0.75 0.109375q-0.359375 0.109375 -0.734375 0.359375q-0.375 0.234375 -0.78125 0.625q-0.40625 0.390625 -0.859375 0.96875l0 4.1875q0.796875 0.984375 1.5 1.5q0.71875 0.515625 1.5 0.515625q0.734375 0 1.25 -0.34375q0.53125 -0.359375 0.84375 -0.9375q0.328125 -0.59375 0.46875 -1.3125q0.15625 -0.734375 0.15625 -1.484375zm13.984375 5.21875q0 0.09375 -0.046875 0.15625q-0.03125 0.0625 -0.140625 0.125q-0.109375 0.046875 -0.28125 0.0625q-0.15625 0.03125 -0.40625 0.03125q-0.265625 0 -0.4375 -0.03125q-0.171875 -0.015625 -0.28125 -0.0625q-0.09375 -0.0625 -0.125 -0.125q-0.03125 -0.0625 -0.03125 -0.15625l0 -1.390625q-0.90625 1.0 -1.796875 1.453125q-0.875 0.453125 -1.765625 0.453125q-1.0625 0 -1.78125 -0.34375q-0.71875 -0.359375 -1.171875 -0.953125q-0.4375 -0.609375 -0.640625 -1.40625q-0.1875 -0.8125 -0.1875 -1.953125l0 -6.40625q0 -0.09375 0.03125 -0.15625q0.046875 -0.0625 0.15625 -0.109375q0.125 -0.0625 0.3125 -0.078125q0.1875 -0.015625 0.46875 -0.015625q0.28125 0 0.46875 0.015625q0.1875 0.015625 0.296875 0.078125q0.125 0.046875 0.171875 0.109375q0.046875 0.0625 0.046875 0.15625l0 6.140625q0 0.921875 0.125 1.484375q0.140625 0.5625 0.40625 0.953125q0.28125 0.390625 0.703125 0.609375q0.421875 0.21875 0.984375 0.21875q0.734375 0 1.453125 -0.515625q0.71875 -0.515625 1.53125 -1.515625l0 -7.375q0 -0.09375 0.03125 -0.15625q0.046875 -0.0625 0.15625 -0.109375q0.125 -0.0625 0.296875 -0.078125q0.1875 -0.015625 0.484375 -0.015625q0.28125 0 0.46875 0.015625q0.1875 0.015625 0.28125 0.078125q0.109375 0.046875 0.15625 0.109375q0.0625 0.0625 0.0625 0.15625l0 10.546875zm9.0625 -0.765625q0 0.328125 -0.046875 0.53125q-0.046875 0.203125 -0.140625 0.296875q-0.09375 0.09375 -0.28125 0.1875q-0.1875 0.078125 -0.4375 0.125q-0.234375 0.046875 -0.5 0.078125q-0.265625 0.046875 -0.546875 0.046875q-0.8125 0 -1.40625 -0.21875q-0.578125 -0.21875 -0.953125 -0.65625q-0.375 -0.4375 -0.546875 -1.109375q-0.171875 -0.6875 -0.171875 -1.59375l0 -6.171875l-1.46875 0q-0.1875 0 -0.296875 -0.1875q-0.09375 -0.1875 -0.09375 -0.609375q0 -0.21875 0.03125 -0.359375q0.03125 -0.15625 0.078125 -0.25q0.046875 -0.109375 0.109375 -0.140625q0.078125 -0.046875 0.171875 -0.046875l1.46875 0l0 -2.515625q0 -0.078125 0.03125 -0.140625q0.046875 -0.078125 0.15625 -0.125q0.125 -0.0625 0.3125 -0.078125q0.1875 -0.03125 0.46875 -0.03125q0.28125 0 0.46875 0.03125q0.1875 0.015625 0.296875 0.078125q0.109375 0.046875 0.15625 0.125q0.046875 0.0625 0.046875 0.140625l0 2.515625l2.703125 0q0.09375 0 0.15625 0.046875q0.078125 0.03125 0.125 0.140625q0.0625 0.09375 0.078125 0.25q0.03125 0.140625 0.03125 0.359375q0 0.421875 -0.109375 0.609375q-0.109375 0.1875 -0.28125 0.1875l-2.703125 0l0 5.890625q0 1.09375 0.3125 1.65625q0.328125 0.546875 1.15625 0.546875q0.28125 0 0.484375 -0.046875q0.21875 -0.0625 0.375 -0.109375q0.171875 -0.0625 0.28125 -0.109375q0.125 -0.0625 0.21875 -0.0625q0.046875 0 0.09375 0.03125q0.0625 0.03125 0.09375 0.109375q0.03125 0.078125 0.046875 0.21875q0.03125 0.140625 0.03125 0.359375z" fill-rule="nonzero"/><path fill="#000000" fill-opacity="0.0" d="m83.13386 190.81233l177.51181 -40.283463" fill-rule="evenodd"/><path stroke="#44546a" stroke-width="3.0" stroke-linejoin="round" stroke-linecap="butt" d="m83.13386 190.81233l159.95813 -36.299942" fill-rule="evenodd"/><path fill="#44546a" stroke="#44546a" stroke-width="3.0" stroke-linecap="butt" d="m244.18861 159.34473l12.1800995 -7.8452606l-14.373337 -1.819397z" fill-rule="evenodd"/><path fill="#000000" fill-opacity="0.0" d="m431.3517 190.81233l-170.70868 -40.283463" fill-rule="evenodd"/><path stroke="#44546a" stroke-width="3.0" stroke-linejoin="round" stroke-linecap="butt" d="m431.3517 190.81233l-153.18985 -36.149414" fill-rule="evenodd"/><path fill="#44546a" stroke="#44546a" stroke-width="3.0" stroke-linecap="butt" d="m279.29993 149.8402l-14.388397 1.6959381l12.112305 7.949539z" fill-rule="evenodd"/><path fill="#000000" fill-opacity="0.0" d="m260.6483 190.81233l0 -40.283463" fill-rule="evenodd"/><path stroke="#44546a" stroke-width="3.0" stroke-linejoin="round" stroke-linecap="butt" d="m260.6483 190.81233l0 -22.283463" fill-rule="evenodd"/><path fill="#44546a" stroke="#44546a" stroke-width="3.0" stroke-linecap="butt" d="m265.6035 168.52887l-4.9552 -13.614288l-4.955185 13.614288z" fill-rule="evenodd"/><path fill="#000000" fill-opacity="0.0" d="m260.6483 95.40551l0 -40.283463" fill-rule="evenodd"/><path stroke="#44546a" stroke-width="3.0" stroke-linejoin="round" stroke-linecap="butt" d="m260.6483 95.40551l0 -22.283463" fill-rule="evenodd"/><path fill="#44546a" stroke="#44546a" stroke-width="3.0" stroke-linecap="butt" d="m265.6035 73.12205l-4.9552 -13.614292l-4.955185 13.614292z" fill-rule="evenodd"/></g></svg>