<svg version="1.1" viewBox="0.0 0.0 686.8320209973754 443.6089238845144" fill="none" stroke="none" stroke-linecap="square" stroke-miterlimit="10" xmlns:xlink="http://www.w3.org/1999/xlink" xmlns="http://www.w3.org/2000/svg"><clipPath id="p.0"><path d="m0 0l686.83203 0l0 443.60892l-686.83203 0l0 -443.60892z" clip-rule="nonzero"/></clipPath><g clip-path="url(#p.0)"><path fill="#000000" fill-opacity="0.0" d="m0 0l686.83203 0l0 443.60892l-686.83203 0z" fill-rule="evenodd"/><path fill="#b0dd46" fill-opacity="0.8039" d="m25.732283 256.4252l114.80315 0l0 66.17322l-114.80315 0z" fill-rule="evenodd"/><path stroke="#44546a" stroke-width="1.0" stroke-linejoin="round" stroke-linecap="butt" d="m25.732283 256.4252l114.80315 0l0 66.17322l-114.80315 0z" fill-rule="evenodd"/><path fill="#000000" d="m84.42424 300.70056q0 0.15625 -0.09375 0.28125q-0.09375 0.109375 -0.3125 0.1875q-0.21875 0.078125 -0.609375 0.109375q-0.375 0.046875 -0.9375 0.046875q-0.578125 0 -0.96875 -0.046875q-0.375 -0.03125 -0.59375 -0.109375q-0.21875 -0.078125 -0.3125 -0.1875q-0.09375 -0.125 -0.09375 -0.28125l0 -7.953125q0 -1.015625 -0.15625 -1.59375q-0.140625 -0.578125 -0.421875 -0.984375q-0.28125 -0.421875 -0.734375 -0.640625q-0.4375 -0.234375 -1.03125 -0.234375q-0.75 0 -1.515625 0.546875q-0.765625 0.546875 -1.59375 1.59375l0 9.265625q0 0.15625 -0.09375 0.28125q-0.09375 0.109375 -0.328125 0.1875q-0.21875 0.078125 -0.59375 0.109375q-0.375 0.046875 -0.953125 0.046875q-0.578125 0 -0.953125 -0.046875q-0.375 -0.03125 -0.609375 -0.109375q-0.21875 -0.078125 -0.3125 -0.1875q-0.09375 -0.125 -0.09375 -0.28125l0 -20.546875q0 -0.15625 0.09375 -0.28125q0.09375 -0.125 0.3125 -0.203125q0.234375 -0.09375 0.609375 -0.140625q0.375 -0.046875 0.953125 -0.046875q0.578125 0 0.953125 0.046875q0.375 0.046875 0.59375 0.140625q0.234375 0.078125 0.328125 0.203125q0.09375 0.125 0.09375 0.28125l0 7.703125q1.015625 -1.0 2.0625 -1.484375q1.0625 -0.5 2.203125 -0.5q1.421875 0 2.390625 0.46875q0.984375 0.46875 1.578125 1.28125q0.609375 0.8125 0.875 1.90625q0.265625 1.078125 0.265625 2.625l0 8.546875z" fill-rule="nonzero"/><path fill="#000000" d="m96.14299 312.18494q0 0.296875 -0.03125 0.5q-0.03125 0.203125 -0.09375 0.328125q-0.046875 0.109375 -0.125 0.171875q-0.0625 0.046875 -0.15625 0.046875l-7.4375 0q-0.09375 0 -0.171875 -0.046875q-0.0625 -0.0625 -0.125 -0.171875q-0.046875 -0.125 -0.078125 -0.328125q-0.03125 -0.203125 -0.03125 -0.5q0 -0.296875 0.015625 -0.5q0.03125 -0.203125 0.078125 -0.328125q0.0625 -0.125 0.140625 -0.171875q0.078125 -0.0625 0.171875 -0.0625l2.5 0l0 -8.765625l-2.15625 1.1875q-0.25 0.109375 -0.40625 0.140625q-0.140625 0.03125 -0.234375 -0.0625q-0.078125 -0.09375 -0.109375 -0.3125q-0.03125 -0.21875 -0.03125 -0.609375q0 -0.25 0 -0.40625q0.015625 -0.15625 0.046875 -0.265625q0.046875 -0.125 0.125 -0.1875q0.078125 -0.078125 0.203125 -0.171875l2.890625 -1.875q0.046875 -0.03125 0.125 -0.0625q0.078125 -0.03125 0.203125 -0.046875q0.125 -0.015625 0.328125 -0.015625q0.203125 0 0.53125 0q0.390625 0 0.640625 0.015625q0.25 0.015625 0.375 0.046875q0.125 0.03125 0.15625 0.09375q0.046875 0.0625 0.046875 0.15625l0 11.140625l2.203125 0q0.09375 0 0.171875 0.0625q0.078125 0.046875 0.125 0.171875q0.0625 0.125 0.078125 0.328125q0.03125 0.203125 0.03125 0.5z" fill-rule="nonzero"/><path fill="#b0dd46" fill-opacity="0.8039" d="m203.24672 256.4252l114.80315 0l0 66.17322l-114.80315 0z" fill-rule="evenodd"/><path stroke="#44546a" stroke-width="1.0" stroke-linejoin="round" stroke-linecap="butt" d="m203.24672 256.4252l114.80315 0l0 66.17322l-114.80315 0z" fill-rule="evenodd"/><path fill="#000000" d="m261.93866 300.70056q0 0.15625 -0.09375 0.28125q-0.09375 0.109375 -0.3125 0.1875q-0.21875 0.078125 -0.609375 0.109375q-0.375 0.046875 -0.9375 0.046875q-0.578125 0 -0.96875 -0.046875q-0.375 -0.03125 -0.59375 -0.109375q-0.21875 -0.078125 -0.3125 -0.1875q-0.09375 -0.125 -0.09375 -0.28125l0 -7.953125q0 -1.015625 -0.15625 -1.59375q-0.140625 -0.578125 -0.421875 -0.984375q-0.28125 -0.421875 -0.734375 -0.640625q-0.4375 -0.234375 -1.0312347 -0.234375q-0.75 0 -1.515625 0.546875q-0.765625 0.546875 -1.59375 1.59375l0 9.265625q0 0.15625 -0.09375 0.28125q-0.09375 0.109375 -0.328125 0.1875q-0.21875 0.078125 -0.59375 0.109375q-0.375 0.046875 -0.953125 0.046875q-0.578125 0 -0.953125 -0.046875q-0.375 -0.03125 -0.609375 -0.109375q-0.21875 -0.078125 -0.3125 -0.1875q-0.09375 -0.125 -0.09375 -0.28125l0 -20.546875q0 -0.15625 0.09375 -0.28125q0.09375 -0.125 0.3125 -0.203125q0.234375 -0.09375 0.609375 -0.140625q0.375 -0.046875 0.953125 -0.046875q0.578125 0 0.953125 0.046875q0.375 0.046875 0.59375 0.140625q0.234375 0.078125 0.328125 0.203125q0.09375 0.125 0.09375 0.28125l0 7.703125q1.015625 -1.0 2.0625 -1.484375q1.0625 -0.5 2.2031097 -0.5q1.421875 0 2.390625 0.46875q0.984375 0.46875 1.578125 1.28125q0.609375 0.8125 0.875 1.90625q0.265625 1.078125 0.265625 2.625l0 8.546875z" fill-rule="nonzero"/><path fill="#000000" d="m273.7824 312.12244q0 0.296875 -0.03125 0.515625q-0.015625 0.203125 -0.078125 0.34375q-0.046875 0.140625 -0.125 0.203125q-0.078125 0.046875 -0.1875 0.046875l-7.75 0q-0.234375 0 -0.40625 -0.03125q-0.15625 -0.046875 -0.265625 -0.171875q-0.09375 -0.125 -0.140625 -0.34375q-0.046875 -0.234375 -0.046875 -0.59375q0 -0.34375 0.03125 -0.59375q0.03125 -0.25 0.109375 -0.4375q0.078125 -0.1875 0.203125 -0.375q0.140625 -0.1875 0.34375 -0.40625l2.34375 -2.5q0.6875 -0.71875 1.109375 -1.3125q0.4375 -0.609375 0.671875 -1.09375q0.25 -0.5 0.328125 -0.921875q0.09375 -0.421875 0.09375 -0.796875q0 -0.34375 -0.109375 -0.640625q-0.109375 -0.3125 -0.328125 -0.53125q-0.203125 -0.234375 -0.53125 -0.359375q-0.328125 -0.140625 -0.765625 -0.140625q-0.609375 0 -1.09375 0.15625q-0.46875 0.15625 -0.828125 0.359375q-0.359375 0.1875 -0.59375 0.34375q-0.234375 0.15625 -0.375 0.15625q-0.09375 0 -0.171875 -0.0625q-0.0625 -0.0625 -0.109375 -0.203125q-0.03125 -0.140625 -0.0625 -0.375q-0.015625 -0.25 -0.015625 -0.609375q0 -0.234375 0.015625 -0.390625q0.015625 -0.171875 0.046875 -0.28125q0.03125 -0.125 0.078125 -0.21875q0.046875 -0.09375 0.171875 -0.21875q0.140625 -0.125 0.484375 -0.3125q0.359375 -0.1875 0.859375 -0.375q0.515625 -0.1875 1.125 -0.3125q0.625 -0.125 1.28125 -0.125q1.0625 0 1.84375 0.265625q0.78125 0.265625 1.296875 0.75q0.53125 0.46875 0.78125 1.125q0.265625 0.640625 0.265625 1.390625q0 0.65625 -0.125 1.296875q-0.125 0.625 -0.53125 1.359375q-0.390625 0.734375 -1.109375 1.625q-0.71875 0.890625 -1.90625 2.078125l-1.578125 1.609375l5.3125 0q0.109375 0 0.1875 0.0625q0.09375 0.0625 0.15625 0.203125q0.0625 0.125 0.09375 0.34375q0.03125 0.203125 0.03125 0.5z" fill-rule="nonzero"/><path fill="#b0dd46" fill-opacity="0.8039" d="m373.95013 256.4252l114.80316 0l0 66.17322l-114.80316 0z" fill-rule="evenodd"/><path stroke="#44546a" stroke-width="1.0" stroke-linejoin="round" stroke-linecap="butt" d="m373.95013 256.4252l114.80316 0l0 66.17322l-114.80316 0z" fill-rule="evenodd"/><path fill="#000000" d="m432.6421 300.70056q0 0.15625 -0.09375 0.28125q-0.09375 0.109375 -0.3125 0.1875q-0.21875 0.078125 -0.609375 0.109375q-0.375 0.046875 -0.9375 0.046875q-0.578125 0 -0.96875 -0.046875q-0.375 -0.03125 -0.59375 -0.109375q-0.21875 -0.078125 -0.3125 -0.1875q-0.09375 -0.125 -0.09375 -0.28125l0 -7.953125q0 -1.015625 -0.15625 -1.59375q-0.140625 -0.578125 -0.421875 -0.984375q-0.28125 -0.421875 -0.734375 -0.640625q-0.4375 -0.234375 -1.03125 -0.234375q-0.75 0 -1.515625 0.546875q-0.765625 0.546875 -1.59375 1.59375l0 9.265625q0 0.15625 -0.09375 0.28125q-0.09375 0.109375 -0.328125 0.1875q-0.21875 0.078125 -0.59375 0.109375q-0.375 0.046875 -0.953125 0.046875q-0.578125 0 -0.953125 -0.046875q-0.375 -0.03125 -0.609375 -0.109375q-0.21875 -0.078125 -0.3125 -0.1875q-0.09375 -0.125 -0.09375 -0.28125l0 -20.546875q0 -0.15625 0.09375 -0.28125q0.09375 -0.125 0.3125 -0.203125q0.234375 -0.09375 0.609375 -0.140625q0.375 -0.046875 0.953125 -0.046875q0.578125 0 0.953125 0.046875q0.375 0.046875 0.59375 0.140625q0.234375 0.078125 0.328125 0.203125q0.09375 0.125 0.09375 0.28125l0 7.703125q1.015625 -1.0 2.0625 -1.484375q1.0625 -0.5 2.203125 -0.5q1.421875 0 2.390625 0.46875q0.984375 0.46875 1.578125 1.28125q0.609375 0.8125 0.875 1.90625q0.265625 1.078125 0.265625 2.625l0 8.546875z" fill-rule="nonzero"/><path fill="#000000" d="m444.42334 309.2787q0 1.015625 -0.390625 1.796875q-0.375 0.78125 -1.0625 1.3125q-0.6875 0.53125 -1.65625 0.8125q-0.953125 0.265625 -2.078125 0.265625q-0.6875 0 -1.296875 -0.09375q-0.609375 -0.09375 -1.078125 -0.234375q-0.453125 -0.15625 -0.765625 -0.3125q-0.296875 -0.15625 -0.390625 -0.234375q-0.09375 -0.09375 -0.140625 -0.1875q-0.046875 -0.109375 -0.078125 -0.25q-0.03125 -0.140625 -0.046875 -0.34375q-0.015625 -0.21875 -0.015625 -0.53125q0 -0.5 0.078125 -0.6875q0.078125 -0.1875 0.25 -0.1875q0.109375 0 0.359375 0.140625q0.25 0.140625 0.640625 0.296875q0.40625 0.15625 0.9375 0.296875q0.53125 0.140625 1.203125 0.140625q0.578125 0 1.015625 -0.125q0.4375 -0.140625 0.734375 -0.375q0.3125 -0.25 0.46875 -0.59375q0.15625 -0.359375 0.15625 -0.78125q0 -0.46875 -0.1875 -0.84375q-0.1875 -0.375 -0.546875 -0.640625q-0.359375 -0.265625 -0.90625 -0.40625q-0.546875 -0.15625 -1.28125 -0.15625l-1.171875 0q-0.125 0 -0.21875 -0.03125q-0.09375 -0.046875 -0.15625 -0.15625q-0.0625 -0.109375 -0.09375 -0.3125q-0.03125 -0.203125 -0.03125 -0.53125q0 -0.296875 0.03125 -0.484375q0.03125 -0.203125 0.078125 -0.296875q0.0625 -0.109375 0.140625 -0.15625q0.09375 -0.046875 0.21875 -0.046875l1.1875 0q0.59375 0 1.0625 -0.140625q0.46875 -0.140625 0.78125 -0.390625q0.328125 -0.265625 0.484375 -0.625q0.171875 -0.375 0.171875 -0.828125q0 -0.34375 -0.109375 -0.640625q-0.109375 -0.3125 -0.34375 -0.53125q-0.21875 -0.234375 -0.578125 -0.359375q-0.34375 -0.125 -0.828125 -0.125q-0.546875 0 -1.03125 0.15625q-0.46875 0.15625 -0.859375 0.359375q-0.375 0.1875 -0.640625 0.359375q-0.265625 0.15625 -0.390625 0.15625q-0.078125 0 -0.140625 -0.03125q-0.0625 -0.046875 -0.109375 -0.140625q-0.03125 -0.109375 -0.0625 -0.296875q-0.015625 -0.203125 -0.015625 -0.515625q0 -0.265625 0 -0.4375q0.015625 -0.171875 0.046875 -0.28125q0.03125 -0.109375 0.078125 -0.1875q0.046875 -0.09375 0.15625 -0.1875q0.109375 -0.109375 0.421875 -0.296875q0.328125 -0.203125 0.8125 -0.390625q0.5 -0.1875 1.140625 -0.3125q0.640625 -0.140625 1.390625 -0.140625q0.96875 0 1.71875 0.234375q0.765625 0.234375 1.28125 0.671875q0.515625 0.421875 0.78125 1.0625q0.265625 0.625 0.265625 1.40625q0 0.609375 -0.15625 1.140625q-0.15625 0.53125 -0.46875 0.953125q-0.296875 0.421875 -0.75 0.71875q-0.453125 0.28125 -1.046875 0.421875l0 0.03125q0.71875 0.09375 1.28125 0.375q0.5625 0.265625 0.953125 0.6875q0.390625 0.40625 0.59375 0.9375q0.203125 0.53125 0.203125 1.125z" fill-rule="nonzero"/><path fill="#000000" fill-opacity="0.0" d="m0 290.4882l25.732283 -0.9763794" fill-rule="evenodd"/><path stroke="#44546a" stroke-width="3.0" stroke-linejoin="round" stroke-linecap="butt" d="m0 290.4882l7.7452273 -0.29388428" fill-rule="evenodd"/><path fill="#44546a" stroke="#44546a" stroke-width="3.0" stroke-linecap="butt" d="m7.933111 295.14594l13.416618 -5.4678345l-13.792385 -4.435425z" fill-rule="evenodd"/><path fill="#000000" fill-opacity="0.0" d="m140.53543 289.5118l62.708664 0" fill-rule="evenodd"/><path stroke="#44546a" stroke-width="3.0" stroke-linejoin="round" stroke-linecap="butt" d="m140.53543 289.5118l44.708664 0" fill-rule="evenodd"/><path fill="#44546a" stroke="#44546a" stroke-width="3.0" stroke-linecap="butt" d="m185.2441 294.467l13.614288 -4.9552l-13.614288 -4.9552z" fill-rule="evenodd"/><path fill="#000000" fill-opacity="0.0" d="m318.04987 289.5118l55.905518 0" fill-rule="evenodd"/><path stroke="#44546a" stroke-width="3.0" stroke-linejoin="round" stroke-linecap="butt" d="m318.04987 289.5118l37.905518 0" fill-rule="evenodd"/><path fill="#44546a" stroke="#44546a" stroke-width="3.0" stroke-linecap="butt" d="m355.95538 294.467l13.614288 -4.9552l-13.614288 -4.9552z" fill-rule="evenodd"/><path fill="#e7e6e6" d="m28.64567 370.69308l0 0c0 -5.073578 4.1129513 -9.186523 9.186533 -9.186523l90.60332 0c2.4364166 0 4.773041 0.967865 6.4958496 2.6906738c1.7228241 1.7228088 2.6906738 4.0594482 2.6906738 6.4958496l0 36.745056c0 5.073578 -4.1129456 9.186523 -9.186523 9.186523l-90.60332 0c-5.0735817 0 -9.186533 -4.1129456 -9.186533 -9.186523z" fill-rule="evenodd"/><path stroke="#44546a" stroke-width="1.0" stroke-linejoin="round" stroke-linecap="butt" d="m28.64567 370.69308l0 0c0 -5.073578 4.1129513 -9.186523 9.186533 -9.186523l90.60332 0c2.4364166 0 4.773041 0.967865 6.4958496 2.6906738c1.7228241 1.7228088 2.6906738 4.0594482 2.6906738 6.4958496l0 36.745056c0 5.073578 -4.1129456 9.186523 -9.186523 9.186523l-90.60332 0c-5.0735817 0 -9.186533 -4.1129456 -9.186533 -9.186523z" fill-rule="evenodd"/><path fill="#000000" d="m84.45549 399.9731q0.125 0.265625 0.109375 0.4375q0 0.171875 -0.21875 0.28125q-0.21875 0.109375 -0.671875 0.140625q-0.453125 0.046875 -1.203125 0.046875q-0.703125 0 -1.140625 -0.03125q-0.421875 -0.015625 -0.671875 -0.078125q-0.234375 -0.078125 -0.359375 -0.171875q-0.109375 -0.109375 -0.171875 -0.265625l-2.578125 -4.953125l-2.578125 4.953125q-0.0625 0.15625 -0.171875 0.265625q-0.109375 0.09375 -0.34375 0.171875q-0.21875 0.0625 -0.625 0.078125q-0.40625 0.03125 -1.0625 0.03125q-0.6875 0 -1.09375 -0.046875q-0.40625 -0.03125 -0.59375 -0.140625q-0.1875 -0.109375 -0.203125 -0.28125q0 -0.171875 0.140625 -0.4375l3.859375 -6.859375l-3.5625 -6.4375q-0.140625 -0.28125 -0.15625 -0.46875q0 -0.203125 0.203125 -0.3125q0.203125 -0.109375 0.640625 -0.15625q0.453125 -0.046875 1.21875 -0.046875q0.6875 0 1.09375 0.03125q0.421875 0.015625 0.65625 0.0625q0.234375 0.046875 0.34375 0.15625q0.109375 0.09375 0.1875 0.25l2.484375 4.65625l2.46875 -4.65625q0.046875 -0.125 0.140625 -0.21875q0.09375 -0.09375 0.296875 -0.15625q0.203125 -0.0625 0.546875 -0.09375q0.359375 -0.03125 0.96875 -0.03125q0.6875 0 1.09375 0.03125q0.421875 0.03125 0.59375 0.140625q0.1875 0.109375 0.171875 0.3125q0 0.1875 -0.171875 0.5l-3.46875 6.328125l3.828125 6.96875z" fill-rule="nonzero"/><path fill="#000000" d="m94.908615 411.73874q0 0.296875 -0.03125 0.5q-0.03125 0.203125 -0.09375 0.328125q-0.046875 0.109375 -0.125 0.171875q-0.0625 0.046875 -0.15625 0.046875l-7.4375 0q-0.09375 0 -0.171875 -0.046875q-0.0625 -0.0625 -0.125 -0.171875q-0.046875 -0.125 -0.078125 -0.328125q-0.03125 -0.203125 -0.03125 -0.5q0 -0.296875 0.015625 -0.5q0.03125 -0.203125 0.078125 -0.328125q0.0625 -0.125 0.140625 -0.171875q0.078125 -0.0625 0.171875 -0.0625l2.5 0l0 -8.765625l-2.15625 1.1875q-0.25 0.109375 -0.40625 0.140625q-0.140625 0.03125 -0.234375 -0.0625q-0.078125 -0.09375 -0.109375 -0.3125q-0.03125 -0.21875 -0.03125 -0.609375q0 -0.25 0 -0.40625q0.015625 -0.15625 0.046875 -0.265625q0.046875 -0.125 0.125 -0.1875q0.078125 -0.078125 0.203125 -0.171875l2.890625 -1.875q0.046875 -0.03125 0.125 -0.0625q0.078125 -0.03125 0.203125 -0.046875q0.125 -0.015625 0.328125 -0.015625q0.203125 0 0.53125 0q0.390625 0 0.640625 0.015625q0.25 0.015625 0.375 0.046875q0.125 0.03125 0.15625 0.09375q0.046875 0.0625 0.046875 0.15625l0 11.140625l2.203125 0q0.09375 0 0.171875 0.0625q0.078125 0.046875 0.125 0.171875q0.0625 0.125 0.078125 0.328125q0.03125 0.203125 0.03125 0.5z" fill-rule="nonzero"/><path fill="#e7e6e6" d="m206.16011 370.69308l0 0c0 -5.073578 4.1129456 -9.186523 9.186523 -9.186523l90.60332 0c2.436432 0 4.773041 0.967865 6.4958496 2.6906738c1.7228088 1.7228088 2.6906738 4.0594482 2.6906738 6.4958496l0 36.745056c0 5.073578 -4.1129456 9.186523 -9.186523 9.186523l-90.60332 0c-5.073578 0 -9.186523 -4.1129456 -9.186523 -9.186523z" fill-rule="evenodd"/><path stroke="#44546a" stroke-width="1.0" stroke-linejoin="round" stroke-linecap="butt" d="m206.16011 370.69308l0 0c0 -5.073578 4.1129456 -9.186523 9.186523 -9.186523l90.60332 0c2.436432 0 4.773041 0.967865 6.4958496 2.6906738c1.7228088 1.7228088 2.6906738 4.0594482 2.6906738 6.4958496l0 36.745056c0 5.073578 -4.1129456 9.186523 -9.186523 9.186523l-90.60332 0c-5.073578 0 -9.186523 -4.1129456 -9.186523 -9.186523z" fill-rule="evenodd"/><path fill="#000000" d="m261.96994 399.9731q0.125 0.265625 0.109375 0.4375q0 0.171875 -0.21875 0.28125q-0.21875 0.109375 -0.671875 0.140625q-0.453125 0.046875 -1.203125 0.046875q-0.703125 0 -1.140625 -0.03125q-0.421875 -0.015625 -0.671875 -0.078125q-0.234375 -0.078125 -0.359375 -0.171875q-0.109375 -0.109375 -0.171875 -0.265625l-2.5781403 -4.953125l-2.578125 4.953125q-0.0625 0.15625 -0.171875 0.265625q-0.109375 0.09375 -0.34375 0.171875q-0.21875 0.0625 -0.625 0.078125q-0.40625 0.03125 -1.0625 0.03125q-0.6875 0 -1.09375 -0.046875q-0.40625 -0.03125 -0.59375 -0.140625q-0.1875 -0.109375 -0.203125 -0.28125q0 -0.171875 0.140625 -0.4375l3.859375 -6.859375l-3.5625 -6.4375q-0.140625 -0.28125 -0.15625 -0.46875q0 -0.203125 0.203125 -0.3125q0.203125 -0.109375 0.640625 -0.15625q0.453125 -0.046875 1.21875 -0.046875q0.6875 0 1.09375 0.03125q0.421875 0.015625 0.65625 0.0625q0.234375 0.046875 0.34375 0.15625q0.109375 0.09375 0.1875 0.25l2.484375 4.65625l2.4687653 -4.65625q0.046875 -0.125 0.140625 -0.21875q0.09375 -0.09375 0.296875 -0.15625q0.203125 -0.0625 0.546875 -0.09375q0.359375 -0.03125 0.96875 -0.03125q0.6875 0 1.09375 0.03125q0.421875 0.03125 0.59375 0.140625q0.1875 0.109375 0.171875 0.3125q0 0.1875 -0.171875 0.5l-3.46875 6.328125l3.828125 6.96875z" fill-rule="nonzero"/><path fill="#000000" d="m272.54807 411.67624q0 0.296875 -0.03125 0.515625q-0.015625 0.203125 -0.078125 0.34375q-0.046875 0.140625 -0.125 0.203125q-0.078125 0.046875 -0.1875 0.046875l-7.75 0q-0.234375 0 -0.40625 -0.03125q-0.15625 -0.046875 -0.265625 -0.171875q-0.09375 -0.125 -0.140625 -0.34375q-0.046875 -0.234375 -0.046875 -0.59375q0 -0.34375 0.03125 -0.59375q0.03125 -0.25 0.109375 -0.4375q0.078125 -0.1875 0.203125 -0.375q0.140625 -0.1875 0.34375 -0.40625l2.34375 -2.5q0.6875 -0.71875 1.109375 -1.3125q0.4375 -0.609375 0.671875 -1.09375q0.25 -0.5 0.328125 -0.921875q0.09375 -0.421875 0.09375 -0.796875q0 -0.34375 -0.109375 -0.640625q-0.109375 -0.3125 -0.328125 -0.53125q-0.203125 -0.234375 -0.53125 -0.359375q-0.328125 -0.140625 -0.765625 -0.140625q-0.609375 0 -1.09375 0.15625q-0.46875 0.15625 -0.828125 0.359375q-0.359375 0.1875 -0.59375 0.34375q-0.234375 0.15625 -0.375 0.15625q-0.09375 0 -0.171875 -0.0625q-0.0625 -0.0625 -0.109375 -0.203125q-0.03125 -0.140625 -0.0625 -0.375q-0.015625 -0.25 -0.015625 -0.609375q0 -0.234375 0.015625 -0.390625q0.015625 -0.171875 0.046875 -0.28125q0.03125 -0.125 0.078125 -0.21875q0.046875 -0.09375 0.171875 -0.21875q0.140625 -0.125 0.484375 -0.3125q0.359375 -0.1875 0.859375 -0.375q0.515625 -0.1875 1.125 -0.3125q0.625 -0.125 1.28125 -0.125q1.0625 0 1.84375 0.265625q0.78125 0.265625 1.296875 0.75q0.53125 0.46875 0.78125 1.125q0.265625 0.640625 0.265625 1.390625q0 0.65625 -0.125 1.296875q-0.125 0.625 -0.53125 1.359375q-0.390625 0.734375 -1.109375 1.625q-0.71875 0.890625 -1.90625 2.078125l-1.578125 1.609375l5.3125 0q0.109375 0 0.1875 0.0625q0.09375 0.0625 0.15625 0.203125q0.0625 0.125 0.09375 0.34375q0.03125 0.203125 0.03125 0.5z" fill-rule="nonzero"/><path fill="#e7e6e6" d="m376.86353 370.69308l0 0c0 -5.073578 4.1129456 -9.186523 9.186523 -9.186523l90.6033 0c2.436432 0 4.7730713 0.967865 6.49588 2.6906738c1.7228088 1.7228088 2.6906738 4.0594482 2.6906738 6.4958496l0 36.745056c0 5.073578 -4.112976 9.186523 -9.186554 9.186523l-90.6033 0c-5.073578 0 -9.186523 -4.1129456 -9.186523 -9.186523z" fill-rule="evenodd"/><path stroke="#44546a" stroke-width="1.0" stroke-linejoin="round" stroke-linecap="butt" d="m376.86353 370.69308l0 0c0 -5.073578 4.1129456 -9.186523 9.186523 -9.186523l90.6033 0c2.436432 0 4.7730713 0.967865 6.49588 2.6906738c1.7228088 1.7228088 2.6906738 4.0594482 2.6906738 6.4958496l0 36.745056c0 5.073578 -4.112976 9.186523 -9.186554 9.186523l-90.6033 0c-5.073578 0 -9.186523 -4.1129456 -9.186523 -9.186523z" fill-rule="evenodd"/><path fill="#000000" d="m432.67334 399.9731q0.125 0.265625 0.109375 0.4375q0 0.171875 -0.21875 0.28125q-0.21875 0.109375 -0.671875 0.140625q-0.453125 0.046875 -1.203125 0.046875q-0.703125 0 -1.140625 -0.03125q-0.421875 -0.015625 -0.671875 -0.078125q-0.234375 -0.078125 -0.359375 -0.171875q-0.109375 -0.109375 -0.171875 -0.265625l-2.578125 -4.953125l-2.578125 4.953125q-0.0625 0.15625 -0.171875 0.265625q-0.109375 0.09375 -0.34375 0.171875q-0.21875 0.0625 -0.625 0.078125q-0.40625 0.03125 -1.0625 0.03125q-0.6875 0 -1.09375 -0.046875q-0.40625 -0.03125 -0.59375 -0.140625q-0.1875 -0.109375 -0.203125 -0.28125q0 -0.171875 0.140625 -0.4375l3.859375 -6.859375l-3.5625 -6.4375q-0.140625 -0.28125 -0.15625 -0.46875q0 -0.203125 0.203125 -0.3125q0.203125 -0.109375 0.640625 -0.15625q0.453125 -0.046875 1.21875 -0.046875q0.6875 0 1.09375 0.03125q0.421875 0.015625 0.65625 0.0625q0.234375 0.046875 0.34375 0.15625q0.109375 0.09375 0.1875 0.25l2.484375 4.65625l2.46875 -4.65625q0.046875 -0.125 0.140625 -0.21875q0.09375 -0.09375 0.296875 -0.15625q0.203125 -0.0625 0.546875 -0.09375q0.359375 -0.03125 0.96875 -0.03125q0.6875 0 1.09375 0.03125q0.421875 0.03125 0.59375 0.140625q0.1875 0.109375 0.171875 0.3125q0 0.1875 -0.171875 0.5l-3.46875 6.328125l3.828125 6.96875z" fill-rule="nonzero"/><path fill="#000000" d="m443.18896 408.8325q0 1.015625 -0.390625 1.796875q-0.375 0.78125 -1.0625 1.3125q-0.6875 0.53125 -1.65625 0.8125q-0.953125 0.265625 -2.078125 0.265625q-0.6875 0 -1.296875 -0.09375q-0.609375 -0.09375 -1.078125 -0.234375q-0.453125 -0.15625 -0.765625 -0.3125q-0.296875 -0.15625 -0.390625 -0.234375q-0.09375 -0.09375 -0.140625 -0.1875q-0.046875 -0.109375 -0.078125 -0.25q-0.03125 -0.140625 -0.046875 -0.34375q-0.015625 -0.21875 -0.015625 -0.53125q0 -0.5 0.078125 -0.6875q0.078125 -0.1875 0.25 -0.1875q0.109375 0 0.359375 0.140625q0.25 0.140625 0.640625 0.296875q0.40625 0.15625 0.9375 0.296875q0.53125 0.140625 1.203125 0.140625q0.578125 0 1.015625 -0.125q0.4375 -0.140625 0.734375 -0.375q0.3125 -0.25 0.46875 -0.59375q0.15625 -0.359375 0.15625 -0.78125q0 -0.46875 -0.1875 -0.84375q-0.1875 -0.375 -0.546875 -0.640625q-0.359375 -0.265625 -0.90625 -0.40625q-0.546875 -0.15625 -1.28125 -0.15625l-1.171875 0q-0.125 0 -0.21875 -0.03125q-0.09375 -0.046875 -0.15625 -0.15625q-0.0625 -0.109375 -0.09375 -0.3125q-0.03125 -0.203125 -0.03125 -0.53125q0 -0.296875 0.03125 -0.484375q0.03125 -0.203125 0.078125 -0.296875q0.0625 -0.109375 0.140625 -0.15625q0.09375 -0.046875 0.21875 -0.046875l1.1875 0q0.59375 0 1.0625 -0.140625q0.46875 -0.140625 0.78125 -0.390625q0.328125 -0.265625 0.484375 -0.625q0.171875 -0.375 0.171875 -0.828125q0 -0.34375 -0.109375 -0.640625q-0.109375 -0.3125 -0.34375 -0.53125q-0.21875 -0.234375 -0.578125 -0.359375q-0.34375 -0.125 -0.828125 -0.125q-0.546875 0 -1.03125 0.15625q-0.46875 0.15625 -0.859375 0.359375q-0.375 0.1875 -0.640625 0.359375q-0.265625 0.15625 -0.390625 0.15625q-0.078125 0 -0.140625 -0.03125q-0.0625 -0.046875 -0.109375 -0.140625q-0.03125 -0.109375 -0.0625 -0.296875q-0.015625 -0.203125 -0.015625 -0.515625q0 -0.265625 0 -0.4375q0.015625 -0.171875 0.046875 -0.28125q0.03125 -0.109375 0.078125 -0.1875q0.046875 -0.09375 0.15625 -0.1875q0.109375 -0.109375 0.421875 -0.296875q0.328125 -0.203125 0.8125 -0.390625q0.5 -0.1875 1.140625 -0.3125q0.640625 -0.140625 1.390625 -0.140625q0.96875 0 1.71875 0.234375q0.765625 0.234375 1.28125 0.671875q0.515625 0.421875 0.78125 1.0625q0.265625 0.625 0.265625 1.40625q0 0.609375 -0.15625 1.140625q-0.15625 0.53125 -0.46875 0.953125q-0.296875 0.421875 -0.75 0.71875q-0.453125 0.28125 -1.046875 0.421875l0 0.03125q0.71875 0.09375 1.28125 0.375q0.5625 0.265625 0.953125 0.6875q0.390625 0.40625 0.59375 0.9375q0.203125 0.53125 0.203125 1.125z" fill-rule="nonzero"/><path fill="#000000" fill-opacity="0.0" d="m83.13386 361.50656l0 -38.897644" fill-rule="evenodd"/><path stroke="#44546a" stroke-width="3.0" stroke-linejoin="round" stroke-linecap="butt" d="m83.13386 361.50656l0 -20.897644" fill-rule="evenodd"/><path fill="#44546a" stroke="#44546a" stroke-width="3.0" stroke-linecap="butt" d="m88.08906 340.60892l-4.9552 -13.614288l-4.9552 13.614288z" fill-rule="evenodd"/><path fill="#000000" fill-opacity="0.0" d="m260.6483 361.50656l0 -38.897644" fill-rule="evenodd"/><path stroke="#44546a" stroke-width="3.0" stroke-linejoin="round" stroke-linecap="butt" d="m260.6483 361.50656l0 -20.897644" fill-rule="evenodd"/><path fill="#44546a" stroke="#44546a" stroke-width="3.0" stroke-linecap="butt" d="m265.6035 340.60892l-4.9552 -13.614288l-4.955185 13.614288z" fill-rule="evenodd"/><path fill="#000000" fill-opacity="0.0" d="m431.3517 361.50656l0 -38.897644" fill-rule="evenodd"/><path stroke="#44546a" stroke-width="3.0" stroke-linejoin="round" stroke-linecap="butt" d="m431.3517 361.50656l0 -20.897644" fill-rule="evenodd"/><path fill="#44546a" stroke="#44546a" stroke-width="3.0" stroke-linecap="butt" d="m436.30692 340.60892l-4.9552 -13.614288l-4.9552 13.614288z" fill-rule="evenodd"/><path fill="#ffffff" d="m206.16011 171.14455l0 0c0 -5.073593 4.1129456 -9.186539 9.186523 -9.186539l90.60332 0c2.436432 0 4.773041 0.967865 6.4958496 2.6906738c1.7228088 1.7228088 2.6906738 4.059433 2.6906738 6.495865l0 36.74504c0 5.073578 -4.1129456 9.186523 -9.186523 9.186523l-90.60332 0c-5.073578 0 -9.186523 -4.1129456 -9.186523 -9.186523z" fill-rule="evenodd"/><path stroke="#44546a" stroke-width="1.0" stroke-linejoin="round" stroke-linecap="butt" stroke-dasharray="1.0,3.0" d="m206.16011 171.14455l0 0c0 -5.073593 4.1129456 -9.186539 9.186523 -9.186539l90.60332 0c2.436432 0 4.773041 0.967865 6.4958496 2.6906738c1.7228088 1.7228088 2.6906738 4.059433 2.6906738 6.495865l0 36.74504c0 5.073578 -4.1129456 9.186523 -9.186523 9.186523l-90.60332 0c-5.073578 0 -9.186523 -4.1129456 -9.186523 -9.186523z" fill-rule="evenodd"/><path fill="#000000" d="m236.48424 195.17393q0 0.0625 -0.03125 0.109375q-0.015625 0.046875 -0.09375 0.078125q-0.0625 0.03125 -0.171875 0.046875q-0.109375 0.015625 -0.265625 0.015625q-0.15625 0 -0.265625 -0.015625q-0.109375 -0.015625 -0.1875 -0.046875q-0.0625 -0.03125 -0.09375 -0.078125q-0.03125 -0.046875 -0.03125 -0.109375l0 -0.921875q-0.5625 0.59375 -1.15625 0.9375q-0.59375 0.34375 -1.3125 0.34375q-0.765625 0 -1.3125 -0.296875q-0.546875 -0.3125 -0.890625 -0.828125q-0.34375 -0.515625 -0.5 -1.203125q-0.15625 -0.6875 -0.15625 -1.453125q0 -0.90625 0.1875 -1.640625q0.203125 -0.734375 0.578125 -1.25q0.390625 -0.515625 0.953125 -0.78125q0.578125 -0.28125 1.3125 -0.28125q0.625 0 1.125 0.265625q0.515625 0.265625 1.015625 0.796875l0 -4.09375q0 -0.046875 0.03125 -0.09375q0.03125 -0.0625 0.109375 -0.078125q0.078125 -0.03125 0.1875 -0.046875q0.125 -0.03125 0.3125 -0.03125q0.203125 0 0.328125 0.03125q0.125 0.015625 0.1875 0.046875q0.078125 0.015625 0.109375 0.078125q0.03125 0.046875 0.03125 0.09375l0 10.40625zm-1.296875 -4.9375q-0.515625 -0.65625 -1.015625 -0.984375q-0.484375 -0.34375 -1.015625 -0.34375q-0.484375 0 -0.828125 0.234375q-0.34375 0.234375 -0.5625 0.625q-0.21875 0.375 -0.3125 0.859375q-0.09375 0.484375 -0.09375 0.984375q0 0.53125 0.078125 1.046875q0.078125 0.5 0.28125 0.890625q0.203125 0.390625 0.53125 0.640625q0.34375 0.234375 0.859375 0.234375q0.25 0 0.484375 -0.0625q0.25 -0.078125 0.5 -0.234375q0.25 -0.171875 0.515625 -0.4375q0.28125 -0.265625 0.578125 -0.640625l0 -2.8125zm4.96875 4.9375q0 0.0625 -0.03125 0.109375q-0.03125 0.046875 -0.109375 0.078125q-0.0625 0.03125 -0.1875 0.046875q-0.125 0.015625 -0.3125 0.015625q-0.1875 0 -0.3125 -0.015625q-0.125 -0.015625 -0.203125 -0.046875q-0.078125 -0.03125 -0.109375 -0.078125q-0.015625 -0.046875 -0.015625 -0.109375l0 -7.03125q0 -0.046875 0.015625 -0.09375q0.03125 -0.046875 0.109375 -0.078125q0.078125 -0.03125 0.203125 -0.046875q0.125 -0.015625 0.3125 -0.015625q0.1875 0 0.3125 0.015625q0.125 0.015625 0.1875 0.046875q0.078125 0.03125 0.109375 0.078125q0.03125 0.046875 0.03125 0.09375l0 7.03125zm0.15625 -9.40625q0 0.453125 -0.171875 0.625q-0.171875 0.15625 -0.640625 0.15625q-0.453125 0 -0.625 -0.15625q-0.15625 -0.15625 -0.15625 -0.609375q0 -0.453125 0.171875 -0.609375q0.171875 -0.171875 0.625 -0.171875q0.453125 0 0.625 0.171875q0.171875 0.15625 0.171875 0.59375zm6.640625 7.5q0 0.53125 -0.203125 0.953125q-0.1875 0.421875 -0.5625 0.71875q-0.359375 0.28125 -0.875 0.4375q-0.5 0.15625 -1.109375 0.15625q-0.375 0 -0.71875 -0.0625q-0.34375 -0.0625 -0.609375 -0.15625q-0.265625 -0.09375 -0.453125 -0.1875q-0.1875 -0.09375 -0.28125 -0.171875q-0.078125 -0.078125 -0.125 -0.21875q-0.03125 -0.140625 -0.03125 -0.390625q0 -0.140625 0.015625 -0.234375q0.015625 -0.109375 0.03125 -0.171875q0.03125 -0.0625 0.0625 -0.09375q0.046875 -0.03125 0.109375 -0.03125q0.078125 0 0.25 0.109375q0.171875 0.109375 0.40625 0.234375q0.25 0.125 0.578125 0.234375q0.34375 0.09375 0.78125 0.09375q0.328125 0 0.59375 -0.0625q0.265625 -0.078125 0.453125 -0.203125q0.203125 -0.140625 0.3125 -0.34375q0.109375 -0.21875 0.109375 -0.515625q0 -0.296875 -0.15625 -0.5q-0.15625 -0.203125 -0.40625 -0.359375q-0.25 -0.15625 -0.5625 -0.265625q-0.3125 -0.125 -0.640625 -0.25q-0.328125 -0.140625 -0.65625 -0.3125q-0.3125 -0.171875 -0.5625 -0.40625q-0.25 -0.25 -0.40625 -0.578125q-0.140625 -0.34375 -0.140625 -0.8125q0 -0.40625 0.15625 -0.78125q0.15625 -0.390625 0.46875 -0.671875q0.328125 -0.28125 0.8125 -0.453125q0.484375 -0.171875 1.125 -0.171875q0.28125 0 0.5625 0.046875q0.28125 0.046875 0.5 0.125q0.234375 0.0625 0.390625 0.140625q0.15625 0.078125 0.234375 0.140625q0.09375 0.0625 0.109375 0.109375q0.03125 0.046875 0.046875 0.109375q0.015625 0.0625 0.015625 0.15625q0.015625 0.078125 0.015625 0.203125q0 0.125 -0.015625 0.234375q0 0.09375 -0.03125 0.15625q-0.03125 0.0625 -0.078125 0.09375q-0.03125 0.015625 -0.078125 0.015625q-0.0625 0 -0.203125 -0.078125q-0.125 -0.09375 -0.34375 -0.1875q-0.203125 -0.09375 -0.5 -0.171875q-0.28125 -0.09375 -0.640625 -0.09375q-0.328125 0 -0.578125 0.078125q-0.25 0.0625 -0.421875 0.203125q-0.15625 0.140625 -0.234375 0.328125q-0.078125 0.1875 -0.078125 0.40625q0 0.296875 0.15625 0.515625q0.15625 0.203125 0.40625 0.359375q0.25 0.15625 0.5625 0.28125q0.328125 0.125 0.65625 0.265625q0.328125 0.125 0.65625 0.296875q0.328125 0.15625 0.578125 0.390625q0.25 0.234375 0.390625 0.5625q0.15625 0.328125 0.15625 0.78125zm6.8984375 0.84375q0 0.125 -0.015625 0.234375q0 0.09375 -0.015625 0.15625q-0.015625 0.0625 -0.046875 0.125q-0.03125 0.046875 -0.125 0.140625q-0.09375 0.09375 -0.328125 0.25q-0.234375 0.140625 -0.53125 0.265625q-0.296875 0.109375 -0.640625 0.171875q-0.34375 0.078125 -0.703125 0.078125q-0.765625 0 -1.359375 -0.25q-0.578125 -0.265625 -0.96875 -0.734375q-0.390625 -0.484375 -0.609375 -1.1875q-0.203125 -0.703125 -0.203125 -1.609375q0 -1.046875 0.25 -1.78125q0.265625 -0.75 0.703125 -1.21875q0.4375 -0.484375 1.03125 -0.71875q0.609375 -0.234375 1.296875 -0.234375q0.34375 0 0.65625 0.0625q0.3125 0.0625 0.578125 0.171875q0.265625 0.09375 0.46875 0.234375q0.21875 0.125 0.3125 0.21875q0.09375 0.09375 0.125 0.15625q0.03125 0.046875 0.046875 0.125q0.03125 0.078125 0.03125 0.171875q0.015625 0.09375 0.015625 0.234375q0 0.296875 -0.078125 0.421875q-0.0625 0.125 -0.15625 0.125q-0.125 0 -0.28125 -0.125q-0.140625 -0.140625 -0.375 -0.296875q-0.234375 -0.15625 -0.578125 -0.28125q-0.328125 -0.125 -0.78125 -0.125q-0.921875 0 -1.421875 0.71875q-0.5 0.703125 -0.5 2.0625q0 0.6875 0.125 1.203125q0.140625 0.5 0.390625 0.84375q0.25 0.34375 0.609375 0.515625q0.359375 0.171875 0.828125 0.171875q0.453125 0 0.78125 -0.140625q0.34375 -0.140625 0.578125 -0.3125q0.25 -0.171875 0.421875 -0.296875q0.171875 -0.140625 0.265625 -0.140625q0.046875 0 0.078125 0.03125q0.046875 0.03125 0.078125 0.109375q0.03125 0.0625 0.03125 0.1875q0.015625 0.109375 0.015625 0.265625zm6.8827972 1.078125q0 0.09375 -0.0625 0.140625q-0.0625 0.046875 -0.171875 0.0625q-0.109375 0.03125 -0.328125 0.03125q-0.203125 0 -0.328125 -0.03125q-0.109375 -0.015625 -0.171875 -0.0625q-0.046875 -0.046875 -0.046875 -0.140625l0 -0.703125q-0.46875 0.484375 -1.03125 0.765625q-0.5625 0.28125 -1.203125 0.28125q-0.546875 0 -1.0 -0.15625q-0.45310974 -0.140625 -0.76560974 -0.40625q-0.3125 -0.28125 -0.5 -0.671875q-0.171875 -0.40625 -0.171875 -0.921875q0 -0.59375 0.234375 -1.03125q0.25 -0.4375 0.703125 -0.71875q0.45310974 -0.296875 1.1093597 -0.4375q0.65625 -0.140625 1.484375 -0.140625l0.96875 0l0 -0.546875q0 -0.40625 -0.09375 -0.71875q-0.078125 -0.3125 -0.28125 -0.515625q-0.1875 -0.21875 -0.5 -0.3125q-0.296875 -0.109375 -0.734375 -0.109375q-0.484375 0 -0.859375 0.109375q-0.375 0.109375 -0.671875 0.25q-0.28125 0.140625 -0.46873474 0.25q-0.1875 0.109375 -0.28125 0.109375q-0.0625 0 -0.109375 -0.03125q-0.046875 -0.03125 -0.09375 -0.09375q-0.03125 -0.0625 -0.046875 -0.15625q-0.015625 -0.09375 -0.015625 -0.21875q0 -0.1875 0.03125 -0.296875q0.03125 -0.125 0.125 -0.21875q0.109375 -0.109375 0.359375 -0.234375q0.26560974 -0.140625 0.59373474 -0.25q0.34375 -0.125 0.734375 -0.1875q0.40625 -0.078125 0.8125 -0.078125q0.765625 0 1.296875 0.171875q0.53125 0.171875 0.859375 0.5q0.328125 0.328125 0.46875 0.828125q0.15625 0.484375 0.15625 1.140625l0 4.75zm-1.28125 -3.21875l-1.109375 0q-0.53125 0 -0.921875 0.09375q-0.390625 0.09375 -0.65625 0.265625q-0.25 0.171875 -0.375 0.421875q-0.109375 0.25 -0.109375 0.5625q0 0.546875 0.34375 0.875q0.34375 0.328125 0.96875 0.328125q0.515625 0 0.9375 -0.25q0.4375 -0.265625 0.921875 -0.796875l0 -1.5zm7.7578125 -3.359375q0 0.171875 -0.015625 0.296875q0 0.109375 -0.03125 0.171875q-0.015625 0.0625 -0.0625 0.109375q-0.03125 0.03125 -0.09375 0.03125q-0.0625 0 -0.15625 -0.03125q-0.078125 -0.046875 -0.203125 -0.078125q-0.109375 -0.03125 -0.25 -0.0625q-0.140625 -0.03125 -0.296875 -0.03125q-0.203125 0 -0.390625 0.078125q-0.1875 0.078125 -0.390625 0.265625q-0.203125 0.171875 -0.4375 0.46875q-0.21875 0.296875 -0.5 0.71875l0 4.625q0 0.0625 -0.03125 0.109375q-0.03125 0.046875 -0.109375 0.078125q-0.0625 0.03125 -0.1875 0.046875q-0.125 0.015625 -0.3125 0.015625q-0.1875 0 -0.3125 -0.015625q-0.125 -0.015625 -0.203125 -0.046875q-0.078125 -0.03125 -0.109375 -0.078125q-0.015625 -0.046875 -0.015625 -0.109375l0 -7.03125q0 -0.0625 0.015625 -0.09375q0.03125 -0.046875 0.09375 -0.078125q0.078125 -0.046875 0.1875 -0.046875q0.109375 -0.015625 0.28125 -0.015625q0.171875 0 0.28125 0.015625q0.125 0 0.1875 0.046875q0.0625 0.03125 0.078125 0.078125q0.03125 0.03125 0.03125 0.09375l0 1.03125q0.296875 -0.421875 0.546875 -0.6875q0.25 -0.265625 0.46875 -0.421875q0.234375 -0.15625 0.453125 -0.203125q0.234375 -0.0625 0.453125 -0.0625q0.109375 0 0.234375 0.015625q0.125 0 0.265625 0.03125q0.140625 0.03125 0.25 0.078125q0.125 0.03125 0.171875 0.078125q0.046875 0.03125 0.0625 0.078125q0.015625 0.03125 0.015625 0.09375q0.015625 0.046875 0.015625 0.15625q0.015625 0.09375 0.015625 0.28125zm7.265625 6.5625q0 0.0625 -0.03125 0.109375q-0.015625 0.046875 -0.09375 0.078125q-0.0625 0.03125 -0.171875 0.046875q-0.109375 0.015625 -0.265625 0.015625q-0.15625 0 -0.265625 -0.015625q-0.109375 -0.015625 -0.1875 -0.046875q-0.0625 -0.03125 -0.09375 -0.078125q-0.03125 -0.046875 -0.03125 -0.109375l0 -0.921875q-0.5625 0.59375 -1.15625 0.9375q-0.59375 0.34375 -1.3125 0.34375q-0.765625 0 -1.3125 -0.296875q-0.546875 -0.3125 -0.890625 -0.828125q-0.34375 -0.515625 -0.5 -1.203125q-0.15625 -0.6875 -0.15625 -1.453125q0 -0.90625 0.1875 -1.640625q0.203125 -0.734375 0.578125 -1.25q0.390625 -0.515625 0.953125 -0.78125q0.578125 -0.28125 1.3125 -0.28125q0.625 0 1.125 0.265625q0.515625 0.265625 1.015625 0.796875l0 -4.09375q0 -0.046875 0.03125 -0.09375q0.03125 -0.0625 0.109375 -0.078125q0.078125 -0.03125 0.1875 -0.046875q0.125 -0.03125 0.3125 -0.03125q0.203125 0 0.328125 0.03125q0.125 0.015625 0.1875 0.046875q0.078125 0.015625 0.109375 0.078125q0.03125 0.046875 0.03125 0.09375l0 10.40625zm-1.296875 -4.9375q-0.515625 -0.65625 -1.015625 -0.984375q-0.484375 -0.34375 -1.015625 -0.34375q-0.484375 0 -0.828125 0.234375q-0.34375 0.234375 -0.5625 0.625q-0.21875 0.375 -0.3125 0.859375q-0.09375 0.484375 -0.09375 0.984375q0 0.53125 0.078125 1.046875q0.078125 0.5 0.28125 0.890625q0.203125 0.390625 0.53125 0.640625q0.34375 0.234375 0.859375 0.234375q0.25 0 0.484375 -0.0625q0.25 -0.078125 0.5 -0.234375q0.25 -0.171875 0.515625 -0.4375q0.28125 -0.265625 0.578125 -0.640625l0 -2.8125zm9.6875 1.125q0 0.296875 -0.15625 0.4375q-0.15625 0.125 -0.34375 0.125l-4.609375 0q0 0.578125 0.109375 1.046875q0.125 0.46875 0.390625 0.8125q0.28125 0.328125 0.71875 0.515625q0.4375 0.171875 1.0625 0.171875q0.5 0 0.890625 -0.078125q0.390625 -0.078125 0.671875 -0.171875q0.296875 -0.109375 0.46875 -0.1875q0.1875 -0.09375 0.28125 -0.09375q0.0625 0 0.09375 0.03125q0.046875 0.03125 0.0625 0.09375q0.03125 0.046875 0.046875 0.140625q0.015625 0.09375 0.015625 0.234375q0 0.109375 -0.015625 0.1875q0 0.0625 -0.015625 0.125q-0.015625 0.0625 -0.046875 0.109375q-0.015625 0.046875 -0.0625 0.09375q-0.046875 0.03125 -0.265625 0.140625q-0.203125 0.09375 -0.546875 0.1875q-0.328125 0.09375 -0.765625 0.171875q-0.4375 0.078125 -0.9375 0.078125q-0.875 0 -1.53125 -0.25q-0.640625 -0.25 -1.09375 -0.71875q-0.4375 -0.484375 -0.671875 -1.203125q-0.21875 -0.71875 -0.21875 -1.671875q0 -0.90625 0.234375 -1.625q0.234375 -0.71875 0.671875 -1.21875q0.4375 -0.515625 1.0625 -0.78125q0.625 -0.265625 1.40625 -0.265625q0.828125 0 1.40625 0.265625q0.578125 0.265625 0.953125 0.71875q0.375 0.4375 0.546875 1.046875q0.1875 0.609375 0.1875 1.296875l0 0.234375zm-1.296875 -0.390625q0.015625 -1.015625 -0.453125 -1.59375q-0.46875 -0.578125 -1.40625 -0.578125q-0.46875 0 -0.828125 0.1875q-0.359375 0.171875 -0.609375 0.46875q-0.234375 0.296875 -0.375 0.703125q-0.125 0.390625 -0.140625 0.8125l3.8125 0zm9.2734375 4.203125q0 0.0625 -0.03125 0.109375q-0.015625 0.046875 -0.09375 0.078125q-0.0625 0.03125 -0.171875 0.046875q-0.109375 0.015625 -0.265625 0.015625q-0.15625 0 -0.265625 -0.015625q-0.109375 -0.015625 -0.1875 -0.046875q-0.0625 -0.03125 -0.09375 -0.078125q-0.03125 -0.046875 -0.03125 -0.109375l0 -0.921875q-0.5625 0.59375 -1.15625 0.9375q-0.59375 0.34375 -1.3125 0.34375q-0.765625 0 -1.3125 -0.296875q-0.546875 -0.3125 -0.890625 -0.828125q-0.34375 -0.515625 -0.5 -1.203125q-0.15625 -0.6875 -0.15625 -1.453125q0 -0.90625 0.1875 -1.640625q0.203125 -0.734375 0.578125 -1.25q0.390625 -0.515625 0.953125 -0.78125q0.578125 -0.28125 1.3125 -0.28125q0.625 0 1.125 0.265625q0.515625 0.265625 1.015625 0.796875l0 -4.09375q0 -0.046875 0.03125 -0.09375q0.03125 -0.0625 0.109375 -0.078125q0.078125 -0.03125 0.1875 -0.046875q0.125 -0.03125 0.3125 -0.03125q0.203125 0 0.328125 0.03125q0.125 0.015625 0.1875 0.046875q0.078125 0.015625 0.109375 0.078125q0.03125 0.046875 0.03125 0.09375l0 10.40625zm-1.296875 -4.9375q-0.515625 -0.65625 -1.015625 -0.984375q-0.484375 -0.34375 -1.015625 -0.34375q-0.484375 0 -0.828125 0.234375q-0.34375 0.234375 -0.5625 0.625q-0.21875 0.375 -0.3125 0.859375q-0.09375 0.484375 -0.09375 0.984375q0 0.53125 0.078125 1.046875q0.078125 0.5 0.28125 0.890625q0.203125 0.390625 0.53125 0.640625q0.34375 0.234375 0.859375 0.234375q0.25 0 0.484375 -0.0625q0.25 -0.078125 0.5 -0.234375q0.25 -0.171875 0.515625 -0.4375q0.28125 -0.265625 0.578125 -0.640625l0 -2.8125z" fill-rule="nonzero"/><path fill="#000000" fill-opacity="0.0" d="m83.13386 256.4252l0 -39.338593" fill-rule="evenodd"/><path stroke="#44546a" stroke-width="3.0" stroke-linejoin="round" stroke-linecap="butt" d="m83.13386 256.4252l0 -21.338593" fill-rule="evenodd"/><path fill="#44546a" stroke="#44546a" stroke-width="3.0" stroke-linecap="butt" d="m88.08906 235.08661l-4.9552 -13.614288l-4.9552 13.614288z" fill-rule="evenodd"/><path fill="#000000" fill-opacity="0.0" d="m260.6483 256.4252l0 -39.338593" fill-rule="evenodd"/><path stroke="#44546a" stroke-width="3.0" stroke-linejoin="round" stroke-linecap="butt" d="m260.6483 256.4252l0 -21.338593" fill-rule="evenodd"/><path fill="#44546a" stroke="#44546a" stroke-width="3.0" stroke-linecap="butt" d="m265.6035 235.08661l-4.9552 -13.614288l-4.955185 13.614288z" fill-rule="evenodd"/><path fill="#ffffff" d="m28.64567 171.58548l0 0c0 -5.073578 4.1129513 -9.186523 9.186533 -9.186523l90.60332 0c2.4364166 0 4.773041 0.967865 6.4958496 2.6906738c1.7228241 1.7228088 2.6906738 4.059433 2.6906738 6.4958496l0 36.74504c0 5.073593 -4.1129456 9.186539 -9.186523 9.186539l-90.60332 0c-5.0735817 0 -9.186533 -4.1129456 -9.186533 -9.186539z" fill-rule="evenodd"/><path stroke="#44546a" stroke-width="1.0" stroke-linejoin="round" stroke-linecap="butt" stroke-dasharray="1.0,3.0" d="m28.64567 171.58548l0 0c0 -5.073578 4.1129513 -9.186523 9.186533 -9.186523l90.60332 0c2.4364166 0 4.773041 0.967865 6.4958496 2.6906738c1.7228241 1.7228088 2.6906738 4.059433 2.6906738 6.4958496l0 36.74504c0 5.073593 -4.1129456 9.186539 -9.186523 9.186539l-90.60332 0c-5.0735817 0 -9.186533 -4.1129456 -9.186533 -9.186539z" fill-rule="evenodd"/><path fill="#000000" d="m58.9698 195.61488q0 0.0625 -0.03125 0.109375q-0.015625 0.046875 -0.09375 0.078125q-0.0625 0.03125 -0.171875 0.046875q-0.109375 0.015625 -0.265625 0.015625q-0.15625 0 -0.265625 -0.015625q-0.109375 -0.015625 -0.1875 -0.046875q-0.0625 -0.03125 -0.09375 -0.078125q-0.03125 -0.046875 -0.03125 -0.109375l0 -0.921875q-0.5625 0.59375 -1.15625 0.9375q-0.59375 0.34375 -1.3125 0.34375q-0.765625 0 -1.3125 -0.296875q-0.546875 -0.3125 -0.890625 -0.828125q-0.34375 -0.515625 -0.5 -1.203125q-0.15625 -0.6875 -0.15625 -1.453125q0 -0.90625 0.1875 -1.640625q0.203125 -0.734375 0.578125 -1.25q0.390625 -0.515625 0.953125 -0.78125q0.578125 -0.28125 1.3125 -0.28125q0.625 0 1.125 0.265625q0.515625 0.265625 1.015625 0.796875l0 -4.09375q0 -0.046875 0.03125 -0.09375q0.03125 -0.0625 0.109375 -0.078125q0.078125 -0.03125 0.1875 -0.046875q0.125 -0.03125 0.3125 -0.03125q0.203125 0 0.328125 0.03125q0.125 0.015625 0.1875 0.046875q0.078125 0.015625 0.109375 0.078125q0.03125 0.046875 0.03125 0.09375l0 10.40625zm-1.296875 -4.9375q-0.515625 -0.65625 -1.015625 -0.984375q-0.484375 -0.34375 -1.015625 -0.34375q-0.484375 0 -0.828125 0.234375q-0.34375 0.234375 -0.5625 0.625q-0.21875 0.375 -0.3125 0.859375q-0.09375 0.484375 -0.09375 0.984375q0 0.53125 0.078125 1.046875q0.078125 0.5 0.28125 0.890625q0.203125 0.390625 0.53125 0.640625q0.34375 0.234375 0.859375 0.234375q0.25 0 0.484375 -0.0625q0.25 -0.078125 0.5 -0.234375q0.25 -0.171875 0.515625 -0.4375q0.28125 -0.265625 0.578125 -0.640625l0 -2.8125zm4.96875 4.9375q0 0.0625 -0.03125 0.109375q-0.03125 0.046875 -0.109375 0.078125q-0.0625 0.03125 -0.1875 0.046875q-0.125 0.015625 -0.3125 0.015625q-0.1875 0 -0.3125 -0.015625q-0.125 -0.015625 -0.203125 -0.046875q-0.078125 -0.03125 -0.109375 -0.078125q-0.015625 -0.046875 -0.015625 -0.109375l0 -7.03125q0 -0.046875 0.015625 -0.09375q0.03125 -0.046875 0.109375 -0.078125q0.078125 -0.03125 0.203125 -0.046875q0.125 -0.015625 0.3125 -0.015625q0.1875 0 0.3125 0.015625q0.125 0.015625 0.1875 0.046875q0.078125 0.03125 0.109375 0.078125q0.03125 0.046875 0.03125 0.09375l0 7.03125zm0.15625 -9.40625q0 0.453125 -0.171875 0.625q-0.171875 0.15625 -0.640625 0.15625q-0.453125 0 -0.625 -0.15625q-0.15625 -0.15625 -0.15625 -0.609375q0 -0.453125 0.171875 -0.609375q0.171875 -0.171875 0.625 -0.171875q0.453125 0 0.625 0.171875q0.171875 0.15625 0.171875 0.59375zm6.640621 7.5q0 0.53125 -0.203125 0.953125q-0.1875 0.421875 -0.5625 0.71875q-0.359375 0.28125 -0.875 0.4375q-0.5 0.15625 -1.109375 0.15625q-0.375 0 -0.71875 -0.0625q-0.34375 -0.0625 -0.609375 -0.15625q-0.265625 -0.09375 -0.453125 -0.1875q-0.1875 -0.09375 -0.28125 -0.171875q-0.078125 -0.078125 -0.125 -0.21875q-0.03125 -0.140625 -0.03125 -0.390625q0 -0.140625 0.015625 -0.234375q0.015625 -0.109375 0.03125 -0.171875q0.03125 -0.0625 0.0625 -0.09375q0.046875 -0.03125 0.109375 -0.03125q0.078125 0 0.25 0.109375q0.171875 0.109375 0.40625 0.234375q0.25 0.125 0.578125 0.234375q0.34375 0.09375 0.78125 0.09375q0.328125 0 0.59375 -0.0625q0.265625 -0.078125 0.453125 -0.203125q0.203125 -0.140625 0.3125 -0.34375q0.109375 -0.21875 0.109375 -0.515625q0 -0.296875 -0.15625 -0.5q-0.15625 -0.203125 -0.40625 -0.359375q-0.25 -0.15625 -0.5625 -0.265625q-0.3125 -0.125 -0.640625 -0.25q-0.328125 -0.140625 -0.65625 -0.3125q-0.3125 -0.171875 -0.5625 -0.40625q-0.25 -0.25 -0.40625 -0.578125q-0.140625 -0.34375 -0.140625 -0.8125q0 -0.40625 0.15625 -0.78125q0.15625 -0.390625 0.46875 -0.671875q0.328125 -0.28125 0.8125 -0.453125q0.484375 -0.171875 1.125 -0.171875q0.28125 0 0.5625 0.046875q0.28125 0.046875 0.5 0.125q0.234375 0.0625 0.390625 0.140625q0.15625 0.078125 0.234375 0.140625q0.09375 0.0625 0.109375 0.109375q0.03125 0.046875 0.046875 0.109375q0.015625 0.0625 0.015625 0.15625q0.015625 0.078125 0.015625 0.203125q0 0.125 -0.015625 0.234375q0 0.09375 -0.03125 0.15625q-0.03125 0.0625 -0.078125 0.09375q-0.03125 0.015625 -0.078125 0.015625q-0.0625 0 -0.203125 -0.078125q-0.125 -0.09375 -0.34375 -0.1875q-0.203125 -0.09375 -0.5 -0.171875q-0.28125 -0.09375 -0.640625 -0.09375q-0.328125 0 -0.578125 0.078125q-0.25 0.0625 -0.421875 0.203125q-0.15625 0.140625 -0.234375 0.328125q-0.078125 0.1875 -0.078125 0.40625q0 0.296875 0.15625 0.515625q0.15625 0.203125 0.40625 0.359375q0.25 0.15625 0.5625 0.28125q0.328125 0.125 0.65625 0.265625q0.328125 0.125 0.65625 0.296875q0.328125 0.15625 0.578125 0.390625q0.25 0.234375 0.390625 0.5625q0.15625 0.328125 0.15625 0.78125zm6.8984375 0.84375q0 0.125 -0.015625 0.234375q0 0.09375 -0.015625 0.15625q-0.015625 0.0625 -0.046875 0.125q-0.03125 0.046875 -0.125 0.140625q-0.09375 0.09375 -0.328125 0.25q-0.234375 0.140625 -0.53125 0.265625q-0.296875 0.109375 -0.640625 0.171875q-0.34375 0.078125 -0.703125 0.078125q-0.765625 0 -1.359375 -0.25q-0.578125 -0.265625 -0.96875 -0.734375q-0.390625 -0.484375 -0.609375 -1.1875q-0.203125 -0.703125 -0.203125 -1.609375q0 -1.046875 0.25 -1.78125q0.265625 -0.75 0.703125 -1.21875q0.4375 -0.484375 1.03125 -0.71875q0.609375 -0.234375 1.296875 -0.234375q0.34375 0 0.65625 0.0625q0.3125 0.0625 0.578125 0.171875q0.265625 0.09375 0.46875 0.234375q0.21875 0.125 0.3125 0.21875q0.09375 0.09375 0.125 0.15625q0.03125 0.046875 0.046875 0.125q0.03125 0.078125 0.03125 0.171875q0.015625 0.09375 0.015625 0.234375q0 0.296875 -0.078125 0.421875q-0.0625 0.125 -0.15625 0.125q-0.125 0 -0.28125 -0.125q-0.140625 -0.140625 -0.375 -0.296875q-0.234375 -0.15625 -0.578125 -0.28125q-0.328125 -0.125 -0.78125 -0.125q-0.921875 0 -1.421875 0.71875q-0.5 0.703125 -0.5 2.0625q0 0.6875 0.125 1.203125q0.140625 0.5 0.390625 0.84375q0.25 0.34375 0.609375 0.515625q0.359375 0.171875 0.828125 0.171875q0.453125 0 0.78125 -0.140625q0.34375 -0.140625 0.578125 -0.3125q0.25 -0.171875 0.421875 -0.296875q0.171875 -0.140625 0.265625 -0.140625q0.046875 0 0.078125 0.03125q0.046875 0.03125 0.078125 0.109375q0.03125 0.0625 0.03125 0.1875q0.015625 0.109375 0.015625 0.265625zm6.8828125 1.078125q0 0.09375 -0.0625 0.140625q-0.0625 0.046875 -0.171875 0.0625q-0.109375 0.03125 -0.328125 0.03125q-0.203125 0 -0.328125 -0.03125q-0.109375 -0.015625 -0.171875 -0.0625q-0.046875 -0.046875 -0.046875 -0.140625l0 -0.703125q-0.46875 0.484375 -1.03125 0.765625q-0.5625 0.28125 -1.203125 0.28125q-0.546875 0 -1.0 -0.15625q-0.453125 -0.140625 -0.765625 -0.40625q-0.3125 -0.28125 -0.5 -0.671875q-0.171875 -0.40625 -0.171875 -0.921875q0 -0.59375 0.234375 -1.03125q0.25 -0.4375 0.703125 -0.71875q0.453125 -0.296875 1.109375 -0.4375q0.65625 -0.140625 1.484375 -0.140625l0.96875 0l0 -0.546875q0 -0.40625 -0.09375 -0.71875q-0.078125 -0.3125 -0.28125 -0.515625q-0.1875 -0.21875 -0.5 -0.3125q-0.296875 -0.109375 -0.734375 -0.109375q-0.484375 0 -0.859375 0.109375q-0.375 0.109375 -0.671875 0.25q-0.28125 0.140625 -0.46875 0.25q-0.1875 0.109375 -0.28125 0.109375q-0.0625 0 -0.109375 -0.03125q-0.046875 -0.03125 -0.09375 -0.09375q-0.03125 -0.0625 -0.046875 -0.15625q-0.015625 -0.09375 -0.015625 -0.21875q0 -0.1875 0.03125 -0.296875q0.03125 -0.125 0.125 -0.21875q0.109375 -0.109375 0.359375 -0.234375q0.265625 -0.140625 0.59375 -0.25q0.34375 -0.125 0.734375 -0.1875q0.40625 -0.078125 0.8125 -0.078125q0.765625 0 1.296875 0.171875q0.53125 0.171875 0.859375 0.5q0.328125 0.328125 0.46875 0.828125q0.15625 0.484375 0.15625 1.140625l0 4.75zm-1.28125 -3.21875l-1.109375 0q-0.53125 0 -0.921875 0.09375q-0.390625 0.09375 -0.65625 0.265625q-0.25 0.171875 -0.375 0.421875q-0.109375 0.25 -0.109375 0.5625q0 0.546875 0.34375 0.875q0.34375 0.328125 0.96875 0.328125q0.515625 0 0.9375 -0.25q0.4375 -0.265625 0.921875 -0.796875l0 -1.5zm7.7578125 -3.359375q0 0.171875 -0.015625 0.296875q0 0.109375 -0.03125 0.171875q-0.015625 0.0625 -0.0625 0.109375q-0.03125 0.03125 -0.09375 0.03125q-0.0625 0 -0.15625 -0.03125q-0.078125 -0.046875 -0.203125 -0.078125q-0.109375 -0.03125 -0.25 -0.0625q-0.140625 -0.03125 -0.296875 -0.03125q-0.203125 0 -0.390625 0.078125q-0.1875 0.078125 -0.390625 0.265625q-0.203125 0.171875 -0.4375 0.46875q-0.21875 0.296875 -0.5 0.71875l0 4.625q0 0.0625 -0.03125 0.109375q-0.03125 0.046875 -0.109375 0.078125q-0.0625 0.03125 -0.1875 0.046875q-0.125 0.015625 -0.3125 0.015625q-0.1875 0 -0.3125 -0.015625q-0.125 -0.015625 -0.203125 -0.046875q-0.078125 -0.03125 -0.109375 -0.078125q-0.015625 -0.046875 -0.015625 -0.109375l0 -7.03125q0 -0.0625 0.015625 -0.09375q0.03125 -0.046875 0.09375 -0.078125q0.078125 -0.046875 0.1875 -0.046875q0.109375 -0.015625 0.28125 -0.015625q0.171875 0 0.28125 0.015625q0.125 0 0.1875 0.046875q0.0625 0.03125 0.078125 0.078125q0.03125 0.03125 0.03125 0.09375l0 1.03125q0.296875 -0.421875 0.546875 -0.6875q0.25 -0.265625 0.46875 -0.421875q0.234375 -0.15625 0.453125 -0.203125q0.234375 -0.0625 0.453125 -0.0625q0.109375 0 0.234375 0.015625q0.125 0 0.265625 0.03125q0.140625 0.03125 0.25 0.078125q0.125 0.03125 0.171875 0.078125q0.046875 0.03125 0.0625 0.078125q0.015625 0.03125 0.015625 0.09375q0.015625 0.046875 0.015625 0.15625q0.015625 0.09375 0.015625 0.28125zm7.265625 6.5625q0 0.0625 -0.03125 0.109375q-0.015625 0.046875 -0.09375 0.078125q-0.0625 0.03125 -0.171875 0.046875q-0.109375 0.015625 -0.265625 0.015625q-0.15625 0 -0.265625 -0.015625q-0.109375 -0.015625 -0.1875 -0.046875q-0.0625 -0.03125 -0.09375 -0.078125q-0.03125 -0.046875 -0.03125 -0.109375l0 -0.921875q-0.5625 0.59375 -1.15625 0.9375q-0.59375 0.34375 -1.3125 0.34375q-0.765625 0 -1.3125 -0.296875q-0.546875 -0.3125 -0.890625 -0.828125q-0.34375 -0.515625 -0.5 -1.203125q-0.15625 -0.6875 -0.15625 -1.453125q0 -0.90625 0.1875 -1.640625q0.203125 -0.734375 0.578125 -1.25q0.390625 -0.515625 0.953125 -0.78125q0.578125 -0.28125 1.3125 -0.28125q0.625 0 1.125 0.265625q0.515625 0.265625 1.015625 0.796875l0 -4.09375q0 -0.046875 0.03125 -0.09375q0.03125 -0.0625 0.109375 -0.078125q0.078125 -0.03125 0.1875 -0.046875q0.125 -0.03125 0.3125 -0.03125q0.203125 0 0.328125 0.03125q0.125 0.015625 0.1875 0.046875q0.078125 0.015625 0.109375 0.078125q0.03125 0.046875 0.03125 0.09375l0 10.40625zm-1.296875 -4.9375q-0.515625 -0.65625 -1.015625 -0.984375q-0.484375 -0.34375 -1.015625 -0.34375q-0.484375 0 -0.828125 0.234375q-0.34375 0.234375 -0.5625 0.625q-0.21875 0.375 -0.3125 0.859375q-0.09375 0.484375 -0.09375 0.984375q0 0.53125 0.078125 1.046875q0.078125 0.5 0.28125 0.890625q0.203125 0.390625 0.53125 0.640625q0.34375 0.234375 0.859375 0.234375q0.25 0 0.484375 -0.0625q0.25 -0.078125 0.5 -0.234375q0.25 -0.171875 0.515625 -0.4375q0.28125 -0.265625 0.578125 -0.640625l0 -2.8125zm9.6875 1.125q0 0.296875 -0.15625 0.4375q-0.15625 0.125 -0.34375 0.125l-4.609375 0q0 0.578125 0.109375 1.046875q0.125 0.46875 0.390625 0.8125q0.28125 0.328125 0.71875 0.515625q0.4375 0.171875 1.0625 0.171875q0.5 0 0.890625 -0.078125q0.390625 -0.078125 0.671875 -0.171875q0.296875 -0.109375 0.46875 -0.1875q0.1875 -0.09375 0.28125 -0.09375q0.0625 0 0.09375 0.03125q0.046875 0.03125 0.0625 0.09375q0.03125 0.046875 0.046875 0.140625q0.015625 0.09375 0.015625 0.234375q0 0.109375 -0.015625 0.1875q0 0.0625 -0.015625 0.125q-0.015625 0.0625 -0.046875 0.109375q-0.015625 0.046875 -0.0625 0.09375q-0.046875 0.03125 -0.265625 0.140625q-0.203125 0.09375 -0.546875 0.1875q-0.328125 0.09375 -0.765625 0.171875q-0.4375 0.078125 -0.9375 0.078125q-0.875 0 -1.53125 -0.25q-0.640625 -0.25 -1.09375 -0.71875q-0.4375 -0.484375 -0.671875 -1.203125q-0.21875 -0.71875 -0.21875 -1.671875q0 -0.90625 0.234375 -1.625q0.234375 -0.71875 0.671875 -1.21875q0.4375 -0.515625 1.0625 -0.78125q0.625 -0.265625 1.40625 -0.265625q0.828125 0 1.40625 0.265625q0.578125 0.265625 0.953125 0.71875q0.375 0.4375 0.546875 1.046875q0.1875 0.609375 0.1875 1.296875l0 0.234375zm-1.296875 -0.390625q0.015625 -1.015625 -0.453125 -1.59375q-0.46875 -0.578125 -1.40625 -0.578125q-0.46875 0 -0.828125 0.1875q-0.359375 0.171875 -0.609375 0.46875q-0.234375 0.296875 -0.375 0.703125q-0.125 0.390625 -0.140625 0.8125l3.8125 0zm9.2734375 4.203125q0 0.0625 -0.03125 0.109375q-0.015625 0.046875 -0.09375 0.078125q-0.0625 0.03125 -0.171875 0.046875q-0.109375 0.015625 -0.265625 0.015625q-0.15625 0 -0.265625 -0.015625q-0.109375 -0.015625 -0.1875 -0.046875q-0.0625 -0.03125 -0.09375 -0.078125q-0.03125 -0.046875 -0.03125 -0.109375l0 -0.921875q-0.5625 0.59375 -1.15625 0.9375q-0.59375 0.34375 -1.3125 0.34375q-0.765625 0 -1.3125 -0.296875q-0.546875 -0.3125 -0.890625 -0.828125q-0.34375 -0.515625 -0.5 -1.203125q-0.15625 -0.6875 -0.15625 -1.453125q0 -0.90625 0.1875 -1.640625q0.203125 -0.734375 0.578125 -1.25q0.390625 -0.515625 0.953125 -0.78125q0.578125 -0.28125 1.3125 -0.28125q0.625 0 1.125 0.265625q0.515625 0.265625 1.015625 0.796875l0 -4.09375q0 -0.046875 0.03125 -0.09375q0.03125 -0.0625 0.109375 -0.078125q0.078125 -0.03125 0.1875 -0.046875q0.125 -0.03125 0.3125 -0.03125q0.203125 0 0.328125 0.03125q0.125 0.015625 0.1875 0.046875q0.078125 0.015625 0.109375 0.078125q0.03125 0.046875 0.03125 0.09375l0 10.40625zm-1.296875 -4.9375q-0.515625 -0.65625 -1.015625 -0.984375q-0.484375 -0.34375 -1.015625 -0.34375q-0.484375 0 -0.828125 0.234375q-0.34375 0.234375 -0.5625 0.625q-0.21875 0.375 -0.3125 0.859375q-0.09375 0.484375 -0.09375 0.984375q0 0.53125 0.078125 1.046875q0.078125 0.5 0.28125 0.890625q0.203125 0.390625 0.53125 0.640625q0.34375 0.234375 0.859375 0.234375q0.25 0 0.484375 -0.0625q0.25 -0.078125 0.5 -0.234375q0.25 -0.171875 0.515625 -0.4375q0.28125 -0.265625 0.578125 -0.640625l0 -2.8125z" fill-rule="nonzero"/><path fill="#e7e6e6" d="m426.29922 133.99213l0 0c0 -18.273232 50.334473 -33.086617 112.4252 -33.086617l0 0c62.0907 0 112.42517 14.813385 112.42517 33.086617l0 0c0 18.27324 -50.334473 33.08661 -112.42517 33.08661l0 0c-62.09073 0 -112.4252 -14.81337 -112.4252 -33.08661z" fill-rule="evenodd"/><path stroke="#44546a" stroke-width="1.0" stroke-linejoin="round" stroke-linecap="butt" d="m426.29922 133.99213l0 0c0 -18.273232 50.334473 -33.086617 112.4252 -33.086617l0 0c62.0907 0 112.42517 14.813385 112.42517 33.086617l0 0c0 18.27324 -50.334473 33.08661 -112.42517 33.08661l0 0c-62.09073 0 -112.4252 -14.81337 -112.4252 -33.08661z" fill-rule="evenodd"/><path fill="#000000" d="m489.82205 134.7665q0 1.84375 -0.4375 3.328125q-0.421875 1.46875 -1.296875 2.515625q-0.859375 1.03125 -2.15625 1.59375q-1.296875 0.546875 -3.03125 0.546875q-1.71875 0 -2.96875 -0.5q-1.234375 -0.515625 -2.0625 -1.484375q-0.8125 -0.984375 -1.21875 -2.421875q-0.390625 -1.4375 -0.390625 -3.3125q0 -1.796875 0.4375 -3.25q0.4375 -1.46875 1.296875 -2.5q0.875 -1.03125 2.171875 -1.5781174q1.296875 -0.5625 3.03125 -0.5625q1.6875 0 2.921875 0.515625q1.25 0.49999237 2.0625 1.4687424q0.828125 0.953125 1.234375 2.390625q0.40625 1.421875 0.40625 3.25zm-2.125 0.140625q0 -1.28125 -0.234375 -2.390625q-0.21875 -1.109375 -0.75 -1.921875q-0.53125 -0.8125 -1.421875 -1.265625q-0.890625 -0.46875 -2.203125 -0.46875q-1.3125 0 -2.203125 0.5q-0.890625 0.484375 -1.453125 1.3125q-0.546875 0.8125 -0.796875 1.921875q-0.234375 1.09375 -0.234375 2.296875q0 1.328125 0.21875 2.453125q0.21875 1.125 0.75 1.953125q0.53125 0.8125 1.40625 1.265625q0.890625 0.4375 2.234375 0.4375q1.3125 0 2.21875 -0.484375q0.90625 -0.5 1.453125 -1.328125q0.546875 -0.84375 0.78125 -1.9375q0.234375 -1.109375 0.234375 -2.34375zm14.125 7.328125q0 0.09375 -0.046875 0.15625q-0.03125 0.0625 -0.140625 0.125q-0.109375 0.046875 -0.28125 0.0625q-0.15625 0.03125 -0.40625 0.03125q-0.265625 0 -0.4375 -0.03125q-0.171875 -0.015625 -0.28125 -0.0625q-0.09375 -0.0625 -0.125 -0.125q-0.03125 -0.0625 -0.03125 -0.15625l0 -1.390625q-0.90625 1.0 -1.796875 1.453125q-0.875 0.453125 -1.765625 0.453125q-1.0625 0 -1.78125 -0.34375q-0.71875 -0.359375 -1.171875 -0.953125q-0.4375 -0.609375 -0.640625 -1.40625q-0.1875 -0.8125 -0.1875 -1.953125l0 -6.40625q0 -0.09375 0.03125 -0.15625q0.046875 -0.0625 0.15625 -0.109375q0.125 -0.0625 0.3125 -0.078125q0.1875 -0.015625 0.46875 -0.015625q0.28125 0 0.46875 0.015625q0.1875 0.015625 0.296875 0.078125q0.125 0.046875 0.171875 0.109375q0.046875 0.0625 0.046875 0.15625l0 6.140625q0 0.921875 0.125 1.484375q0.140625 0.5625 0.40625 0.953125q0.28125 0.390625 0.703125 0.609375q0.421875 0.21875 0.984375 0.21875q0.734375 0 1.453125 -0.515625q0.71875 -0.515625 1.53125 -1.515625l0 -7.375q0 -0.09375 0.03125 -0.15625q0.046875 -0.0625 0.15625 -0.109375q0.125 -0.0625 0.296875 -0.078125q0.1875 -0.015625 0.484375 -0.015625q0.28125 0 0.46875 0.015625q0.1875 0.015625 0.28125 0.078125q0.109375 0.046875 0.15625 0.109375q0.0625 0.0625 0.0625 0.15625l0 10.546875zm9.0625 -0.765625q0 0.328125 -0.046875 0.53125q-0.046875 0.203125 -0.140625 0.296875q-0.09375 0.09375 -0.28125 0.1875q-0.1875 0.078125 -0.4375 0.125q-0.234375 0.046875 -0.5 0.078125q-0.265625 0.046875 -0.546875 0.046875q-0.8125 0 -1.40625 -0.21875q-0.578125 -0.21875 -0.953125 -0.65625q-0.375 -0.4375 -0.546875 -1.109375q-0.171875 -0.6875 -0.171875 -1.59375l0 -6.171875l-1.46875 0q-0.1875 0 -0.296875 -0.1875q-0.09375 -0.1875 -0.09375 -0.609375q0 -0.21875 0.03125 -0.359375q0.03125 -0.15625 0.078125 -0.25q0.046875 -0.109375 0.109375 -0.140625q0.078125 -0.046875 0.171875 -0.046875l1.46875 0l0 -2.515625q0 -0.078125 0.03125 -0.140625q0.046875 -0.078125 0.15625 -0.125q0.125 -0.0625 0.3125 -0.078125q0.1875 -0.03125 0.46875 -0.03125q0.28125 0 0.46875 0.03125q0.1875 0.015625 0.296875 0.078125q0.109375 0.046875 0.15625 0.125q0.046875 0.0625 0.046875 0.140625l0 2.515625l2.703125 0q0.09375 0 0.15625 0.046875q0.078125 0.03125 0.125 0.140625q0.0625 0.09375 0.078125 0.25q0.03125 0.140625 0.03125 0.359375q0 0.421875 -0.109375 0.609375q-0.109375 0.1875 -0.28125 0.1875l-2.703125 0l0 5.890625q0 1.09375 0.3125 1.65625q0.328125 0.546875 1.15625 0.546875q0.28125 0 0.484375 -0.046875q0.21875 -0.0625 0.375 -0.109375q0.171875 -0.0625 0.28125 -0.109375q0.125 -0.0625 0.21875 -0.0625q0.046875 0 0.09375 0.03125q0.0625 0.03125 0.09375 0.109375q0.03125 0.078125 0.046875 0.21875q0.03125 0.140625 0.03125 0.359375zm12.257843 -4.671875q0 1.390625 -0.296875 2.5q-0.296875 1.09375 -0.890625 1.859375q-0.578125 0.765625 -1.4375 1.1875q-0.84375 0.40625 -1.953125 0.40625q-0.46875 0 -0.875 -0.09375q-0.390625 -0.09375 -0.765625 -0.28125q-0.375 -0.203125 -0.75 -0.5q-0.375 -0.3125 -0.796875 -0.734375l0 5.28125q0 0.09375 -0.046875 0.15625q-0.046875 0.078125 -0.15625 0.125q-0.109375 0.046875 -0.296875 0.0625q-0.1875 0.03125 -0.484375 0.03125q-0.28125 0 -0.46875 -0.03125q-0.1875 -0.015625 -0.296875 -0.0625q-0.109375 -0.046875 -0.15625 -0.125q-0.03125 -0.0625 -0.03125 -0.15625l0 -14.734375q0 -0.109375 0.03125 -0.171875q0.03125 -0.0625 0.140625 -0.109375q0.109375 -0.046875 0.265625 -0.0625q0.171875 -0.015625 0.40625 -0.015625q0.25 0 0.40625 0.015625q0.15625 0.015625 0.25 0.0625q0.109375 0.046875 0.15625 0.109375q0.046875 0.0625 0.046875 0.171875l0 1.421875q0.46875 -0.5 0.90625 -0.859375q0.453125 -0.359375 0.90625 -0.59375q0.453125 -0.25 0.921875 -0.375q0.484375 -0.125 1.015625 -0.125q1.140625 0 1.953125 0.453125q0.8125 0.4375 1.3125 1.21875q0.515625 0.765625 0.75 1.796875q0.234375 1.03125 0.234375 2.171875zm-2.046875 0.21875q0 -0.796875 -0.125 -1.546875q-0.109375 -0.765625 -0.421875 -1.34375q-0.296875 -0.59375 -0.796875 -0.9375q-0.5 -0.359375 -1.25 -0.359375q-0.375 0 -0.75 0.109375q-0.359375 0.109375 -0.734375 0.359375q-0.375 0.234375 -0.78125 0.625q-0.40625 0.390625 -0.859375 0.96875l0 4.1875q0.796875 0.984375 1.5 1.5q0.71875 0.515625 1.5 0.515625q0.734375 0 1.25 -0.34375q0.53125 -0.359375 0.84375 -0.9375q0.328125 -0.59375 0.46875 -1.3125q0.15625 -0.734375 0.15625 -1.484375zm13.984375 5.21875q0 0.09375 -0.046875 0.15625q-0.03125 0.0625 -0.140625 0.125q-0.109375 0.046875 -0.28125 0.0625q-0.15625 0.03125 -0.40625 0.03125q-0.265625 0 -0.4375 -0.03125q-0.171875 -0.015625 -0.28125 -0.0625q-0.09375 -0.0625 -0.125 -0.125q-0.03125 -0.0625 -0.03125 -0.15625l0 -1.390625q-0.90625 1.0 -1.796875 1.453125q-0.875 0.453125 -1.765625 0.453125q-1.0625 0 -1.78125 -0.34375q-0.71875 -0.359375 -1.171875 -0.953125q-0.4375 -0.609375 -0.640625 -1.40625q-0.1875 -0.8125 -0.1875 -1.953125l0 -6.40625q0 -0.09375 0.03125 -0.15625q0.046875 -0.0625 0.15625 -0.109375q0.125 -0.0625 0.3125 -0.078125q0.1875 -0.015625 0.46875 -0.015625q0.28125 0 0.46875 0.015625q0.1875 0.015625 0.296875 0.078125q0.125 0.046875 0.171875 0.109375q0.046875 0.0625 0.046875 0.15625l0 6.140625q0 0.921875 0.125 1.484375q0.140625 0.5625 0.40625 0.953125q0.28125 0.390625 0.703125 0.609375q0.421875 0.21875 0.984375 0.21875q0.734375 0 1.453125 -0.515625q0.71875 -0.515625 1.53125 -1.515625l0 -7.375q0 -0.09375 0.03125 -0.15625q0.046875 -0.0625 0.15625 -0.109375q0.125 -0.0625 0.296875 -0.078125q0.1875 -0.015625 0.484375 -0.015625q0.28125 0 0.46875 0.015625q0.1875 0.015625 0.28125 0.078125q0.109375 0.046875 0.15625 0.109375q0.0625 0.0625 0.0625 0.15625l0 10.546875zm9.0625 -0.765625q0 0.328125 -0.046875 0.53125q-0.046875 0.203125 -0.140625 0.296875q-0.09375 0.09375 -0.28125 0.1875q-0.1875 0.078125 -0.4375 0.125q-0.234375 0.046875 -0.5 0.078125q-0.265625 0.046875 -0.546875 0.046875q-0.8125 0 -1.40625 -0.21875q-0.578125 -0.21875 -0.953125 -0.65625q-0.375 -0.4375 -0.546875 -1.109375q-0.171875 -0.6875 -0.171875 -1.59375l0 -6.171875l-1.46875 0q-0.1875 0 -0.296875 -0.1875q-0.09375 -0.1875 -0.09375 -0.609375q0 -0.21875 0.03125 -0.359375q0.03125 -0.15625 0.078125 -0.25q0.046875 -0.109375 0.109375 -0.140625q0.078125 -0.046875 0.171875 -0.046875l1.46875 0l0 -2.515625q0 -0.078125 0.03125 -0.140625q0.046875 -0.078125 0.15625 -0.125q0.125 -0.0625 0.3125 -0.078125q0.1875 -0.03125 0.46875 -0.03125q0.28125 0 0.46875 0.03125q0.1875 0.015625 0.296875 0.078125q0.109375 0.046875 0.15625 0.125q0.046875 0.0625 0.046875 0.140625l0 2.515625l2.703125 0q0.09375 0 0.15625 0.046875q0.078125 0.03125 0.125 0.140625q0.0625 0.09375 0.078125 0.25q0.03125 0.140625 0.03125 0.359375q0 0.421875 -0.109375 0.609375q-0.109375 0.1875 -0.28125 0.1875l-2.703125 0l0 5.890625q0 1.09375 0.3125 1.65625q0.328125 0.546875 1.15625 0.546875q0.28125 0 0.484375 -0.046875q0.21875 -0.0625 0.375 -0.109375q0.171875 -0.0625 0.28125 -0.109375q0.125 -0.0625 0.21875 -0.0625q0.046875 0 0.09375 0.03125q0.0625 0.03125 0.09375 0.109375q0.03125 0.078125 0.046875 0.21875q0.03125 0.140625 0.03125 0.359375zm16.058594 0.1875q0 0.234375 -0.03125 0.390625q-0.015625 0.15625 -0.0625 0.265625q-0.046875 0.109375 -0.125 0.171875q-0.078125 0.046875 -0.1875 0.046875l-6.703125 0q-0.265625 0 -0.515625 -0.171875q-0.234375 -0.1875 -0.234375 -0.65625l0 -14.031242q0 -0.09375 0.046875 -0.15625q0.046875 -0.078125 0.15625 -0.109375q0.125 -0.046875 0.328125 -0.078125q0.203125 -0.03125 0.484375 -0.03125q0.28125 0 0.46875 0.03125q0.203125 0.03125 0.3125 0.078125q0.125 0.03125 0.171875 0.109375q0.046875 0.0625 0.046875 0.15625l0 13.109367l5.4375 0q0.109375 0 0.1875 0.0625q0.078125 0.046875 0.125 0.15625q0.046875 0.09375 0.0625 0.265625q0.03125 0.15625 0.03125 0.390625zm9.949219 0.59375q0 0.140625 -0.09375 0.21875q-0.09375 0.0625 -0.265625 0.09375q-0.15625 0.046875 -0.46875 0.046875q-0.296875 0 -0.484375 -0.046875q-0.1875 -0.03125 -0.265625 -0.09375q-0.078125 -0.078125 -0.078125 -0.21875l0 -1.0625q-0.6875 0.75 -1.546875 1.15625q-0.84375 0.40625 -1.796875 0.40625q-0.828125 0 -1.5 -0.21875q-0.671875 -0.21875 -1.15625 -0.625q-0.46875 -0.40625 -0.734375 -1.0q-0.265625 -0.609375 -0.265625 -1.359375q0 -0.890625 0.359375 -1.546875q0.375 -0.65625 1.046875 -1.09375q0.6875 -0.4375 1.671875 -0.65625q0.984375 -0.21875 2.203125 -0.21875l1.453125 0l0 -0.8125q0 -0.609375 -0.125 -1.078125q-0.125 -0.46875 -0.421875 -0.78125q-0.28125 -0.3125 -0.734375 -0.46875q-0.453125 -0.15625 -1.125 -0.15625q-0.71875 0 -1.296875 0.171875q-0.5625 0.171875 -0.984375 0.375q-0.421875 0.203125 -0.71875 0.375q-0.28125 0.171875 -0.421875 0.171875q-0.09375 0 -0.171875 -0.046875q-0.0625 -0.046875 -0.125 -0.140625q-0.046875 -0.09375 -0.078125 -0.234375q-0.015625 -0.15625 -0.015625 -0.328125q0 -0.296875 0.03125 -0.46875q0.046875 -0.171875 0.203125 -0.3125q0.171875 -0.15625 0.546875 -0.359375q0.390625 -0.21875 0.890625 -0.375q0.515625 -0.171875 1.109375 -0.28125q0.59375 -0.125 1.203125 -0.125q1.140625 0 1.9375 0.265625q0.796875 0.25 1.28125 0.75q0.5 0.5 0.71875 1.25q0.21875 0.734375 0.21875 1.71875l0 7.109375zm-1.921875 -4.8125l-1.640625 0q-0.796875 0 -1.390625 0.140625q-0.578125 0.125 -0.96875 0.390625q-0.390625 0.265625 -0.578125 0.640625q-0.171875 0.359375 -0.171875 0.84375q0 0.8125 0.515625 1.296875q0.53125 0.484375 1.46875 0.484375q0.75 0 1.40625 -0.375q0.65625 -0.390625 1.359375 -1.1875l0 -2.234375zm9.832031 5.09375l-1.40625 3.875q-0.0625 0.1875 -0.359375 0.28125q-0.28125 0.109375 -0.859375 0.109375q-0.3125 0 -0.5 -0.03125q-0.1875 -0.03125 -0.296875 -0.109375q-0.09375 -0.0625 -0.109375 -0.1875q0 -0.109375 0.0625 -0.265625l1.453125 -3.671875q-0.09375 -0.046875 -0.1875 -0.15625q-0.09375 -0.109375 -0.140625 -0.21875l-3.75 -10.078125q-0.09375 -0.25 -0.09375 -0.390625q0 -0.140625 0.09375 -0.21875q0.09375 -0.078125 0.296875 -0.109375q0.21875 -0.03125 0.5625 -0.03125q0.359375 0 0.546875 0.015625q0.203125 0.015625 0.3125 0.0625q0.125 0.046875 0.171875 0.140625q0.0625 0.078125 0.125 0.234375l3.0 8.46875l0.046875 0l2.90625 -8.515625q0.0625 -0.21875 0.15625 -0.28125q0.109375 -0.0625 0.296875 -0.09375q0.203125 -0.03125 0.578125 -0.03125q0.328125 0 0.53125 0.03125q0.21875 0.03125 0.3125 0.109375q0.109375 0.078125 0.109375 0.21875q0 0.140625 -0.0625 0.359375l-3.796875 10.484375zm14.7734375 -6.03125q0 0.46875 -0.234375 0.65625q-0.21875 0.1875 -0.515625 0.1875l-6.921875 0q0 0.890625 0.171875 1.59375q0.1875 0.703125 0.59375 1.203125q0.40625 0.5 1.0625 0.78125q0.65625 0.265625 1.609375 0.265625q0.75 0 1.328125 -0.125q0.59375 -0.125 1.015625 -0.28125q0.4375 -0.15625 0.703125 -0.265625q0.28125 -0.125 0.421875 -0.125q0.078125 0 0.140625 0.046875q0.078125 0.03125 0.109375 0.109375q0.03125 0.078125 0.046875 0.234375q0.015625 0.140625 0.015625 0.359375q0 0.140625 -0.015625 0.265625q0 0.109375 -0.015625 0.203125q-0.015625 0.078125 -0.0625 0.15625q-0.046875 0.0625 -0.109375 0.125q-0.0625 0.0625 -0.375 0.21875q-0.3125 0.140625 -0.828125 0.28125q-0.5 0.140625 -1.171875 0.25q-0.65625 0.109375 -1.40625 0.109375q-1.296875 0 -2.28125 -0.359375q-0.96875 -0.359375 -1.640625 -1.078125q-0.671875 -0.71875 -1.015625 -1.796875q-0.328125 -1.078125 -0.328125 -2.5q0 -1.359375 0.34375 -2.4375q0.359375 -1.09375 1.015625 -1.84375q0.671875 -0.765625 1.609375 -1.171875q0.9375 -0.40625 2.09375 -0.40625q1.234375 0 2.109375 0.40625q0.875 0.390625 1.4375 1.078125q0.5625 0.671875 0.828125 1.578125q0.265625 0.90625 0.265625 1.9375l0 0.34375zm-1.953125 -0.5625q0.046875 -1.53125 -0.671875 -2.390625q-0.703125 -0.875 -2.09375 -0.875q-0.71875 0 -1.265625 0.28125q-0.53125 0.265625 -0.90625 0.71875q-0.359375 0.4375 -0.5625 1.03125q-0.1875 0.578125 -0.21875 1.234375l5.71875 0zm11.050781 -3.5625q0 0.265625 -0.015625 0.4375q0 0.171875 -0.046875 0.28125q-0.03125 0.09375 -0.078125 0.15625q-0.046875 0.046875 -0.140625 0.046875q-0.09375 0 -0.234375 -0.046875q-0.140625 -0.0625 -0.3125 -0.109375q-0.15625 -0.0625 -0.375 -0.109375q-0.203125 -0.046875 -0.453125 -0.046875q-0.296875 0 -0.578125 0.125q-0.28125 0.109375 -0.59375 0.390625q-0.3125 0.265625 -0.65625 0.71875q-0.328125 0.4375 -0.734375 1.078125l0 6.9375q0 0.09375 -0.046875 0.15625q-0.046875 0.0625 -0.15625 0.125q-0.109375 0.046875 -0.296875 0.0625q-0.1875 0.03125 -0.484375 0.03125q-0.28125 0 -0.46875 -0.03125q-0.1875 -0.015625 -0.296875 -0.0625q-0.109375 -0.0625 -0.15625 -0.125q-0.03125 -0.0625 -0.03125 -0.15625l0 -10.546875q0 -0.09375 0.03125 -0.15625q0.03125 -0.0625 0.140625 -0.109375q0.109375 -0.0625 0.265625 -0.078125q0.171875 -0.015625 0.4375 -0.015625q0.265625 0 0.421875 0.015625q0.171875 0.015625 0.265625 0.078125q0.09375 0.046875 0.140625 0.109375q0.046875 0.0625 0.046875 0.15625l0 1.53125q0.421875 -0.625 0.796875 -1.015625q0.390625 -0.40625 0.734375 -0.625q0.34375 -0.234375 0.671875 -0.328125q0.328125 -0.09375 0.671875 -0.09375q0.15625 0 0.34375 0.03125q0.203125 0.015625 0.40625 0.0625q0.21875 0.046875 0.375 0.109375q0.171875 0.046875 0.234375 0.109375q0.078125 0.0625 0.09375 0.109375q0.03125 0.046875 0.046875 0.140625q0.03125 0.078125 0.03125 0.234375q0 0.15625 0 0.421875z" fill-rule="nonzero"/><path fill="#000000" fill-opacity="0.0" d="m431.3517 256.4252c0 -22.336807 26.842499 -33.504303 53.685028 -44.6736c26.84253 -11.169281 53.68506 -22.340363 53.68506 -44.68074" fill-rule="evenodd"/><path stroke="#44546a" stroke-width="3.0" stroke-linejoin="round" stroke-linecap="butt" d="m431.3517 256.4252c0 -22.336807 26.842499 -33.50432 53.685028 -44.6736c13.421265 -5.584656 26.84253 -11.169739 36.908447 -18.151215c2.5164795 -1.7453766 4.823242 -3.5780182 6.86792 -5.519745c1.0223389 -0.9708557 1.979126 -1.9689941 2.8638306 -2.9971313c0.2211914 -0.2570343 0.4378662 -0.51594543 0.64990234 -0.7767792l0.25323486 -0.3160553" fill-rule="evenodd"/><path fill="#44546a" stroke="#44546a" stroke-width="3.0" stroke-linecap="butt" d="m537.2379 185.6814l-0.012573242 -14.488022l-9.303101 11.106552z" fill-rule="evenodd"/><path fill="#000000" fill-opacity="0.0" d="m598.7953 0l107.370056 0l0 50.45669l-107.370056 0z" fill-rule="evenodd"/><path fill="#000000" d="m637.9725 38.548126q0 0.3125 -0.03125 0.53125q-0.03125 0.203125 -0.109375 0.359375q-0.0625 0.140625 -0.171875 0.21875q-0.09375 0.0625 -0.234375 0.0625l-8.9375 0q-0.359375 0 -0.6875 -0.234375q-0.3125 -0.25 -0.3125 -0.859375l0 -18.71875q0 -0.125 0.0625 -0.21875q0.0625 -0.09375 0.21875 -0.140625q0.15625 -0.0625 0.421875 -0.09375q0.265625 -0.046875 0.640625 -0.046875q0.390625 0 0.640625 0.046875q0.265625 0.03125 0.421875 0.09375q0.15625 0.046875 0.21875 0.140625q0.0625 0.09375 0.0625 0.21875l0 17.484375l7.25 0q0.140625 0 0.234375 0.078125q0.109375 0.0625 0.171875 0.203125q0.078125 0.125 0.109375 0.34375q0.03125 0.21875 0.03125 0.53125zm15.75 -6.40625q0 1.71875 -0.453125 3.171875q-0.453125 1.4375 -1.359375 2.484375q-0.890625 1.046875 -2.25 1.640625q-1.34375 0.578125 -3.125 0.578125q-1.734375 0 -3.03125 -0.515625q-1.28125 -0.515625 -2.140625 -1.5q-0.859375 -0.984375 -1.28125 -2.390625q-0.421875 -1.40625 -0.421875 -3.1875q0 -1.71875 0.4375 -3.15625q0.453125 -1.453125 1.34375 -2.5q0.90625 -1.046875 2.25 -1.625q1.34375 -0.578125 3.140625 -0.578125q1.734375 0 3.015625 0.515625q1.296875 0.515625 2.15625 1.5q0.859375 0.984375 1.28125 2.390625q0.4375 1.40625 0.4375 3.171875zm-2.71875 0.171875q0 -1.140625 -0.21875 -2.15625q-0.203125 -1.015625 -0.6875 -1.78125q-0.484375 -0.765625 -1.3125 -1.203125q-0.828125 -0.453125 -2.0625 -0.453125q-1.140625 0 -1.96875 0.40625q-0.8125 0.40625 -1.34375 1.15625q-0.53125 0.734375 -0.796875 1.75q-0.25 1.015625 -0.25 2.21875q0 1.15625 0.203125 2.171875q0.21875 1.015625 0.703125 1.78125q0.5 0.75 1.328125 1.203125q0.828125 0.4375 2.0625 0.4375q1.125 0 1.953125 -0.40625q0.828125 -0.40625 1.359375 -1.140625q0.53125 -0.734375 0.78125 -1.75q0.25 -1.015625 0.25 -2.234375zm15.343811 3.1875q0 1.078125 -0.40625 1.921875q-0.390625 0.84375 -1.125 1.421875q-0.734375 0.578125 -1.75 0.875q-1.015686 0.296875 -2.234436 0.296875q-0.75 0 -1.4375 -0.125q-0.671875 -0.109375 -1.21875 -0.28125q-0.53125 -0.1875 -0.90625 -0.375q-0.375 -0.203125 -0.546875 -0.359375q-0.171875 -0.15625 -0.25 -0.4375q-0.078125 -0.28125 -0.078125 -0.765625q0 -0.296875 0.03125 -0.5q0.03125 -0.203125 0.078125 -0.328125q0.046875 -0.125 0.125 -0.171875q0.09375 -0.0625 0.203125 -0.0625q0.171875 0 0.5 0.21875q0.34375 0.203125 0.828125 0.453125q0.5 0.25 1.171875 0.46875q0.671875 0.203125 1.546875 0.203125q0.65625 0 1.1875 -0.140625q0.53125 -0.140625 0.92193604 -0.40625q0.390625 -0.28125 0.59375 -0.703125q0.21875 -0.421875 0.21875 -1.0q0 -0.59375 -0.3125 -1.0q-0.296875 -0.40625 -0.79693604 -0.71875q-0.5 -0.3125 -1.125 -0.546875q-0.625 -0.25 -1.296875 -0.515625q-0.65625 -0.265625 -1.296875 -0.59375q-0.625 -0.34375 -1.125 -0.828125q-0.5 -0.484375 -0.8125 -1.15625q-0.296875 -0.671875 -0.296875 -1.609375q0 -0.828125 0.3125 -1.578125q0.328125 -0.765625 0.96875 -1.328125q0.640625 -0.578125 1.59375 -0.921875q0.96875 -0.34375 2.25 -0.34375q0.5625 0 1.125061 0.09375q0.5625 0.09375 1.015625 0.234375q0.453125 0.140625 0.765625 0.3125q0.328125 0.15625 0.484375 0.28125q0.171875 0.125 0.21875 0.21875q0.0625 0.09375 0.078125 0.21875q0.03125 0.109375 0.046875 0.28125q0.03125 0.171875 0.03125 0.421875q0 0.265625 -0.03125 0.46875q-0.015625 0.1875 -0.078125 0.3125q-0.046875 0.125 -0.125 0.1875q-0.078125 0.046875 -0.171875 0.046875q-0.140625 0 -0.40625 -0.171875q-0.265625 -0.171875 -0.6875 -0.359375q-0.421875 -0.203125 -1.0 -0.375q-0.56256104 -0.171875 -1.296936 -0.171875q-0.65625 0 -1.15625 0.15625q-0.5 0.140625 -0.828125 0.421875q-0.3125 0.265625 -0.484375 0.640625q-0.15625 0.375 -0.15625 0.8125q0 0.609375 0.3125 1.03125q0.3125 0.40625 0.8125 0.71875q0.5 0.3125 1.140625 0.5625q0.640625 0.25 1.296875 0.515625q0.67193604 0.265625 1.312561 0.59375q0.65625 0.328125 1.15625 0.796875q0.5 0.46875 0.796875 1.125q0.3125 0.65625 0.3125 1.5625zm12.515625 0q0 1.078125 -0.40625 1.921875q-0.390625 0.84375 -1.125 1.421875q-0.734375 0.578125 -1.75 0.875q-1.015625 0.296875 -2.234375 0.296875q-0.75 0 -1.4375 -0.125q-0.671875 -0.109375 -1.21875 -0.28125q-0.53125 -0.1875 -0.90625 -0.375q-0.375 -0.203125 -0.546875 -0.359375q-0.171875 -0.15625 -0.25 -0.4375q-0.078125 -0.28125 -0.078125 -0.765625q0 -0.296875 0.03125 -0.5q0.03125 -0.203125 0.078125 -0.328125q0.046875 -0.125 0.125 -0.171875q0.09375 -0.0625 0.203125 -0.0625q0.171875 0 0.5 0.21875q0.34375 0.203125 0.828125 0.453125q0.5 0.25 1.171875 0.46875q0.671875 0.203125 1.546875 0.203125q0.65625 0 1.1875 -0.140625q0.53125 -0.140625 0.921875 -0.40625q0.390625 -0.28125 0.59375 -0.703125q0.21875 -0.421875 0.21875 -1.0q0 -0.59375 -0.3125 -1.0q-0.296875 -0.40625 -0.796875 -0.71875q-0.5 -0.3125 -1.125 -0.546875q-0.625 -0.25 -1.296875 -0.515625q-0.65625 -0.265625 -1.296875 -0.59375q-0.625 -0.34375 -1.125 -0.828125q-0.5 -0.484375 -0.8125 -1.15625q-0.296875 -0.671875 -0.296875 -1.609375q0 -0.828125 0.3125 -1.578125q0.328125 -0.765625 0.96875 -1.328125q0.640625 -0.578125 1.59375 -0.921875q0.96875 -0.34375 2.25 -0.34375q0.5625 0 1.125 0.09375q0.5625 0.09375 1.015625 0.234375q0.453125 0.140625 0.765625 0.3125q0.328125 0.15625 0.484375 0.28125q0.171875 0.125 0.21875 0.21875q0.0625 0.09375 0.078125 0.21875q0.03125 0.109375 0.046875 0.28125q0.03125 0.171875 0.03125 0.421875q0 0.265625 -0.03125 0.46875q-0.015625 0.1875 -0.078125 0.3125q-0.046875 0.125 -0.125 0.1875q-0.078125 0.046875 -0.171875 0.046875q-0.140625 0 -0.40625 -0.171875q-0.265625 -0.171875 -0.6875 -0.359375q-0.421875 -0.203125 -1.0 -0.375q-0.5625 -0.171875 -1.296875 -0.171875q-0.65625 0 -1.15625 0.15625q-0.5 0.140625 -0.828125 0.421875q-0.3125 0.265625 -0.484375 0.640625q-0.15625 0.375 -0.15625 0.8125q0 0.609375 0.3125 1.03125q0.3125 0.40625 0.8125 0.71875q0.5 0.3125 1.140625 0.5625q0.640625 0.25 1.296875 0.515625q0.671875 0.265625 1.3125 0.59375q0.65625 0.328125 1.15625 0.796875q0.5 0.46875 0.796875 1.125q0.3125 0.65625 0.3125 1.5625z" fill-rule="nonzero"/><path fill="#000000" fill-opacity="0.0" d="m538.7244 100.90551c0 -12.612152 28.440918 -18.917221 56.881897 -25.224312c28.440918 -6.307083 56.881836 -12.616188 56.881836 -25.23238" fill-rule="evenodd"/><path stroke="#44546a" stroke-width="3.0" stroke-linejoin="round" stroke-linecap="butt" d="m538.7244 100.90551c0 -12.612152 28.440918 -18.917221 56.881897 -25.224312c14.220459 -3.1535416 28.440918 -6.3075867 39.106262 -10.250275c1.3331909 -0.492836 2.6108398 -0.99799347 3.8259277 -1.5170135c0.30377197 -0.12975311 0.60369873 -0.26037598 0.89953613 -0.39188766l0.46014404 -0.2088089" fill-rule="evenodd"/><path fill="#44546a" stroke="#44546a" stroke-width="3.0" stroke-linecap="butt" d="m643.43964 66.77909l5.981018 -13.195858l-13.063843 6.264103z" fill-rule="evenodd"/></g></svg>