<svg version="1.1" viewBox="0.0 0.0 536.1994750656168 281.9186351706037" fill="none" stroke="none" stroke-linecap="square" stroke-miterlimit="10" xmlns:xlink="http://www.w3.org/1999/xlink" xmlns="http://www.w3.org/2000/svg"><clipPath id="p.0"><path d="m0 0l536.19946 0l0 281.91864l-536.19946 0l0 -281.91864z" clip-rule="nonzero"/></clipPath><g clip-path="url(#p.0)"><path fill="#000000" fill-opacity="0.0" d="m0 0l536.19946 0l0 281.91864l-536.19946 0z" fill-rule="evenodd"/><path fill="#b0dd46" fill-opacity="0.8039" d="m25.732283 94.46719l114.80315 0l0 66.17323l-114.80315 0z" fill-rule="evenodd"/><path stroke="#44546a" stroke-width="1.0" stroke-linejoin="round" stroke-linecap="butt" d="m25.732283 94.46719l114.80315 0l0 66.17323l-114.80315 0z" fill-rule="evenodd"/><path fill="#000000" d="m84.42424 138.74255q0 0.15625 -0.09375 0.28125q-0.09375 0.109375 -0.3125 0.1875q-0.21875 0.078125 -0.609375 0.109375q-0.375 0.046875 -0.9375 0.046875q-0.578125 0 -0.96875 -0.046875q-0.375 -0.03125 -0.59375 -0.109375q-0.21875 -0.078125 -0.3125 -0.1875q-0.09375 -0.125 -0.09375 -0.28125l0 -7.953125q0 -1.015625 -0.15625 -1.59375q-0.140625 -0.578125 -0.421875 -0.984375q-0.28125 -0.421875 -0.734375 -0.640625q-0.4375 -0.234375 -1.03125 -0.234375q-0.75 0 -1.515625 0.546875q-0.765625 0.546875 -1.59375 1.59375l0 9.265625q0 0.15625 -0.09375 0.28125q-0.09375 0.109375 -0.328125 0.1875q-0.21875 0.078125 -0.59375 0.109375q-0.375 0.046875 -0.953125 0.046875q-0.578125 0 -0.953125 -0.046875q-0.375 -0.03125 -0.609375 -0.109375q-0.21875 -0.078125 -0.3125 -0.1875q-0.09375 -0.125 -0.09375 -0.28125l0 -20.546875q0 -0.15625 0.09375 -0.28125q0.09375 -0.125 0.3125 -0.203125q0.234375 -0.09375 0.609375 -0.140625q0.375 -0.046875 0.953125 -0.046875q0.578125 0 0.953125 0.046875q0.375 0.046875 0.59375 0.140625q0.234375 0.078125 0.328125 0.203125q0.09375 0.125 0.09375 0.28125l0 7.703125q1.015625 -1.0 2.0625 -1.484375q1.0625 -0.5 2.203125 -0.5q1.421875 0 2.390625 0.46875q0.984375 0.46875 1.578125 1.28125q0.609375 0.8125 0.875 1.90625q0.265625 1.078125 0.265625 2.625l0 8.546875z" fill-rule="nonzero"/><path fill="#000000" d="m96.14299 150.22693q0 0.296875 -0.03125 0.5q-0.03125 0.203125 -0.09375 0.328125q-0.046875 0.109375 -0.125 0.171875q-0.0625 0.046875 -0.15625 0.046875l-7.4375 0q-0.09375 0 -0.171875 -0.046875q-0.0625 -0.0625 -0.125 -0.171875q-0.046875 -0.125 -0.078125 -0.328125q-0.03125 -0.203125 -0.03125 -0.5q0 -0.296875 0.015625 -0.5q0.03125 -0.203125 0.078125 -0.328125q0.0625 -0.125 0.140625 -0.171875q0.078125 -0.0625 0.171875 -0.0625l2.5 0l0 -8.765625l-2.15625 1.1875q-0.25 0.109375 -0.40625 0.140625q-0.140625 0.03125 -0.234375 -0.0625q-0.078125 -0.09375 -0.109375 -0.3125q-0.03125 -0.21875 -0.03125 -0.609375q0 -0.25 0 -0.40625q0.015625 -0.15625 0.046875 -0.265625q0.046875 -0.125 0.125 -0.1875q0.078125 -0.078125 0.203125 -0.171875l2.890625 -1.875q0.046875 -0.03125 0.125 -0.0625q0.078125 -0.03125 0.203125 -0.046875q0.125 -0.015625 0.328125 -0.015625q0.203125 0 0.53125 0q0.390625 0 0.640625 0.015625q0.25 0.015625 0.375 0.046875q0.125 0.03125 0.15625 0.09375q0.046875 0.0625 0.046875 0.15625l0 11.140625l2.203125 0q0.09375 0 0.171875 0.0625q0.078125 0.046875 0.125 0.171875q0.0625 0.125 0.078125 0.328125q0.03125 0.203125 0.03125 0.5z" fill-rule="nonzero"/><path fill="#b0dd46" fill-opacity="0.8039" d="m203.24672 94.46719l114.80315 0l0 66.17323l-114.80315 0z" fill-rule="evenodd"/><path stroke="#44546a" stroke-width="1.0" stroke-linejoin="round" stroke-linecap="butt" d="m203.24672 94.46719l114.80315 0l0 66.17323l-114.80315 0z" fill-rule="evenodd"/><path fill="#000000" d="m261.93866 138.74255q0 0.15625 -0.09375 0.28125q-0.09375 0.109375 -0.3125 0.1875q-0.21875 0.078125 -0.609375 0.109375q-0.375 0.046875 -0.9375 0.046875q-0.578125 0 -0.96875 -0.046875q-0.375 -0.03125 -0.59375 -0.109375q-0.21875 -0.078125 -0.3125 -0.1875q-0.09375 -0.125 -0.09375 -0.28125l0 -7.953125q0 -1.015625 -0.15625 -1.59375q-0.140625 -0.578125 -0.421875 -0.984375q-0.28125 -0.421875 -0.734375 -0.640625q-0.4375 -0.234375 -1.0312347 -0.234375q-0.75 0 -1.515625 0.546875q-0.765625 0.546875 -1.59375 1.59375l0 9.265625q0 0.15625 -0.09375 0.28125q-0.09375 0.109375 -0.328125 0.1875q-0.21875 0.078125 -0.59375 0.109375q-0.375 0.046875 -0.953125 0.046875q-0.578125 0 -0.953125 -0.046875q-0.375 -0.03125 -0.609375 -0.109375q-0.21875 -0.078125 -0.3125 -0.1875q-0.09375 -0.125 -0.09375 -0.28125l0 -20.546875q0 -0.15625 0.09375 -0.28125q0.09375 -0.125 0.3125 -0.203125q0.234375 -0.09375 0.609375 -0.140625q0.375 -0.046875 0.953125 -0.046875q0.578125 0 0.953125 0.046875q0.375 0.046875 0.59375 0.140625q0.234375 0.078125 0.328125 0.203125q0.09375 0.125 0.09375 0.28125l0 7.703125q1.015625 -1.0 2.0625 -1.484375q1.0625 -0.5 2.2031097 -0.5q1.421875 0 2.390625 0.46875q0.984375 0.46875 1.578125 1.28125q0.609375 0.8125 0.875 1.90625q0.265625 1.078125 0.265625 2.625l0 8.546875z" fill-rule="nonzero"/><path fill="#000000" d="m273.7824 150.16443q0 0.296875 -0.03125 0.515625q-0.015625 0.203125 -0.078125 0.34375q-0.046875 0.140625 -0.125 0.203125q-0.078125 0.046875 -0.1875 0.046875l-7.75 0q-0.234375 0 -0.40625 -0.03125q-0.15625 -0.046875 -0.265625 -0.171875q-0.09375 -0.125 -0.140625 -0.34375q-0.046875 -0.234375 -0.046875 -0.59375q0 -0.34375 0.03125 -0.59375q0.03125 -0.25 0.109375 -0.4375q0.078125 -0.1875 0.203125 -0.375q0.140625 -0.1875 0.34375 -0.40625l2.34375 -2.5q0.6875 -0.71875 1.109375 -1.3125q0.4375 -0.609375 0.671875 -1.09375q0.25 -0.5 0.328125 -0.921875q0.09375 -0.421875 0.09375 -0.796875q0 -0.34375 -0.109375 -0.640625q-0.109375 -0.3125 -0.328125 -0.53125q-0.203125 -0.234375 -0.53125 -0.359375q-0.328125 -0.140625 -0.765625 -0.140625q-0.609375 0 -1.09375 0.15625q-0.46875 0.15625 -0.828125 0.359375q-0.359375 0.1875 -0.59375 0.34375q-0.234375 0.15625 -0.375 0.15625q-0.09375 0 -0.171875 -0.0625q-0.0625 -0.0625 -0.109375 -0.203125q-0.03125 -0.140625 -0.0625 -0.375q-0.015625 -0.25 -0.015625 -0.609375q0 -0.234375 0.015625 -0.390625q0.015625 -0.171875 0.046875 -0.28125q0.03125 -0.125 0.078125 -0.21875q0.046875 -0.09375 0.171875 -0.21875q0.140625 -0.125 0.484375 -0.3125q0.359375 -0.1875 0.859375 -0.375q0.515625 -0.1875 1.125 -0.3125q0.625 -0.125 1.28125 -0.125q1.0625 0 1.84375 0.265625q0.78125 0.265625 1.296875 0.75q0.53125 0.46875 0.78125 1.125q0.265625 0.640625 0.265625 1.390625q0 0.65625 -0.125 1.296875q-0.125 0.625 -0.53125 1.359375q-0.390625 0.734375 -1.109375 1.625q-0.71875 0.890625 -1.90625 2.078125l-1.578125 1.609375l5.3125 0q0.109375 0 0.1875 0.0625q0.09375 0.0625 0.15625 0.203125q0.0625 0.125 0.09375 0.34375q0.03125 0.203125 0.03125 0.5z" fill-rule="nonzero"/><path fill="#b0dd46" fill-opacity="0.8039" d="m373.95013 94.46719l114.80316 0l0 66.17323l-114.80316 0z" fill-rule="evenodd"/><path stroke="#44546a" stroke-width="1.0" stroke-linejoin="round" stroke-linecap="butt" d="m373.95013 94.46719l114.80316 0l0 66.17323l-114.80316 0z" fill-rule="evenodd"/><path fill="#000000" d="m432.6421 138.74255q0 0.15625 -0.09375 0.28125q-0.09375 0.109375 -0.3125 0.1875q-0.21875 0.078125 -0.609375 0.109375q-0.375 0.046875 -0.9375 0.046875q-0.578125 0 -0.96875 -0.046875q-0.375 -0.03125 -0.59375 -0.109375q-0.21875 -0.078125 -0.3125 -0.1875q-0.09375 -0.125 -0.09375 -0.28125l0 -7.953125q0 -1.015625 -0.15625 -1.59375q-0.140625 -0.578125 -0.421875 -0.984375q-0.28125 -0.421875 -0.734375 -0.640625q-0.4375 -0.234375 -1.03125 -0.234375q-0.75 0 -1.515625 0.546875q-0.765625 0.546875 -1.59375 1.59375l0 9.265625q0 0.15625 -0.09375 0.28125q-0.09375 0.109375 -0.328125 0.1875q-0.21875 0.078125 -0.59375 0.109375q-0.375 0.046875 -0.953125 0.046875q-0.578125 0 -0.953125 -0.046875q-0.375 -0.03125 -0.609375 -0.109375q-0.21875 -0.078125 -0.3125 -0.1875q-0.09375 -0.125 -0.09375 -0.28125l0 -20.546875q0 -0.15625 0.09375 -0.28125q0.09375 -0.125 0.3125 -0.203125q0.234375 -0.09375 0.609375 -0.140625q0.375 -0.046875 0.953125 -0.046875q0.578125 0 0.953125 0.046875q0.375 0.046875 0.59375 0.140625q0.234375 0.078125 0.328125 0.203125q0.09375 0.125 0.09375 0.28125l0 7.703125q1.015625 -1.0 2.0625 -1.484375q1.0625 -0.5 2.203125 -0.5q1.421875 0 2.390625 0.46875q0.984375 0.46875 1.578125 1.28125q0.609375 0.8125 0.875 1.90625q0.265625 1.078125 0.265625 2.625l0 8.546875z" fill-rule="nonzero"/><path fill="#000000" d="m444.42334 147.32068q0 1.015625 -0.390625 1.796875q-0.375 0.78125 -1.0625 1.3125q-0.6875 0.53125 -1.65625 0.8125q-0.953125 0.265625 -2.078125 0.265625q-0.6875 0 -1.296875 -0.09375q-0.609375 -0.09375 -1.078125 -0.234375q-0.453125 -0.15625 -0.765625 -0.3125q-0.296875 -0.15625 -0.390625 -0.234375q-0.09375 -0.09375 -0.140625 -0.1875q-0.046875 -0.109375 -0.078125 -0.25q-0.03125 -0.140625 -0.046875 -0.34375q-0.015625 -0.21875 -0.015625 -0.53125q0 -0.5 0.078125 -0.6875q0.078125 -0.1875 0.25 -0.1875q0.109375 0 0.359375 0.140625q0.25 0.140625 0.640625 0.296875q0.40625 0.15625 0.9375 0.296875q0.53125 0.140625 1.203125 0.140625q0.578125 0 1.015625 -0.125q0.4375 -0.140625 0.734375 -0.375q0.3125 -0.25 0.46875 -0.59375q0.15625 -0.359375 0.15625 -0.78125q0 -0.46875 -0.1875 -0.84375q-0.1875 -0.375 -0.546875 -0.640625q-0.359375 -0.265625 -0.90625 -0.40625q-0.546875 -0.15625 -1.28125 -0.15625l-1.171875 0q-0.125 0 -0.21875 -0.03125q-0.09375 -0.046875 -0.15625 -0.15625q-0.0625 -0.109375 -0.09375 -0.3125q-0.03125 -0.203125 -0.03125 -0.53125q0 -0.296875 0.03125 -0.484375q0.03125 -0.203125 0.078125 -0.296875q0.0625 -0.109375 0.140625 -0.15625q0.09375 -0.046875 0.21875 -0.046875l1.1875 0q0.59375 0 1.0625 -0.140625q0.46875 -0.140625 0.78125 -0.390625q0.328125 -0.265625 0.484375 -0.625q0.171875 -0.375 0.171875 -0.828125q0 -0.34375 -0.109375 -0.640625q-0.109375 -0.3125 -0.34375 -0.53125q-0.21875 -0.234375 -0.578125 -0.359375q-0.34375 -0.125 -0.828125 -0.125q-0.546875 0 -1.03125 0.15625q-0.46875 0.15625 -0.859375 0.359375q-0.375 0.1875 -0.640625 0.359375q-0.265625 0.15625 -0.390625 0.15625q-0.078125 0 -0.140625 -0.03125q-0.0625 -0.046875 -0.109375 -0.140625q-0.03125 -0.109375 -0.0625 -0.296875q-0.015625 -0.203125 -0.015625 -0.515625q0 -0.265625 0 -0.4375q0.015625 -0.171875 0.046875 -0.28125q0.03125 -0.109375 0.078125 -0.1875q0.046875 -0.09375 0.15625 -0.1875q0.109375 -0.109375 0.421875 -0.296875q0.328125 -0.203125 0.8125 -0.390625q0.5 -0.1875 1.140625 -0.3125q0.640625 -0.140625 1.390625 -0.140625q0.96875 0 1.71875 0.234375q0.765625 0.234375 1.28125 0.671875q0.515625 0.421875 0.78125 1.0625q0.265625 0.625 0.265625 1.40625q0 0.609375 -0.15625 1.140625q-0.15625 0.53125 -0.46875 0.953125q-0.296875 0.421875 -0.75 0.71875q-0.453125 0.28125 -1.046875 0.421875l0 0.03125q0.71875 0.09375 1.28125 0.375q0.5625 0.265625 0.953125 0.6875q0.390625 0.40625 0.59375 0.9375q0.203125 0.53125 0.203125 1.125z" fill-rule="nonzero"/><path fill="#000000" fill-opacity="0.0" d="m0 128.53018l25.732283 -0.9763794" fill-rule="evenodd"/><path stroke="#44546a" stroke-width="3.0" stroke-linejoin="round" stroke-linecap="butt" d="m0 128.53018l7.7452273 -0.29388428" fill-rule="evenodd"/><path fill="#44546a" stroke="#44546a" stroke-width="3.0" stroke-linecap="butt" d="m7.933111 133.18794l13.416618 -5.4678497l-13.792385 -4.435425z" fill-rule="evenodd"/><path fill="#000000" fill-opacity="0.0" d="m140.53543 127.5538l62.708664 0" fill-rule="evenodd"/><path stroke="#44546a" stroke-width="3.0" stroke-linejoin="round" stroke-linecap="butt" d="m140.53543 127.5538l44.708664 0" fill-rule="evenodd"/><path fill="#44546a" stroke="#44546a" stroke-width="3.0" stroke-linecap="butt" d="m185.2441 132.509l13.614288 -4.9552l-13.614288 -4.9551926z" fill-rule="evenodd"/><path fill="#000000" fill-opacity="0.0" d="m318.04987 127.5538l55.905518 0" fill-rule="evenodd"/><path stroke="#44546a" stroke-width="3.0" stroke-linejoin="round" stroke-linecap="butt" d="m318.04987 127.5538l37.905518 0" fill-rule="evenodd"/><path fill="#44546a" stroke="#44546a" stroke-width="3.0" stroke-linecap="butt" d="m355.95538 132.509l13.614288 -4.9552l-13.614288 -4.9551926z" fill-rule="evenodd"/><path fill="#000000" fill-opacity="0.0" d="m488.7533 127.5538l37.637756 0.9763794" fill-rule="evenodd"/><path stroke="#44546a" stroke-width="3.0" stroke-linejoin="round" stroke-linecap="butt" d="m488.7533 127.5538l19.64386 0.5095825" fill-rule="evenodd"/><path fill="#44546a" stroke="#44546a" stroke-width="3.0" stroke-linecap="butt" d="m508.26862 133.01692l13.73822 -4.600464l-13.481201 -5.306595z" fill-rule="evenodd"/><path fill="#e7e6e6" d="m28.64567 208.73509l0 0c0 -5.073578 4.1129513 -9.186539 9.186533 -9.186539l90.60332 0c2.4364166 0 4.773041 0.967865 6.4958496 2.6906738c1.7228241 1.7228088 2.6906738 4.0594482 2.6906738 6.495865l0 36.74504c0 5.073578 -4.1129456 9.186539 -9.186523 9.186539l-90.60332 0c-5.0735817 0 -9.186533 -4.112961 -9.186533 -9.186539z" fill-rule="evenodd"/><path stroke="#44546a" stroke-width="1.0" stroke-linejoin="round" stroke-linecap="butt" d="m28.64567 208.73509l0 0c0 -5.073578 4.1129513 -9.186539 9.186533 -9.186539l90.60332 0c2.4364166 0 4.773041 0.967865 6.4958496 2.6906738c1.7228241 1.7228088 2.6906738 4.0594482 2.6906738 6.495865l0 36.74504c0 5.073578 -4.1129456 9.186539 -9.186523 9.186539l-90.60332 0c-5.0735817 0 -9.186533 -4.112961 -9.186533 -9.186539z" fill-rule="evenodd"/><path fill="#000000" d="m68.907295 236.92136q0 0.6875 -0.09375 1.0625q-0.078125 0.359375 -0.21875 0.515625q-0.140625 0.140625 -0.421875 0.265625q-0.265625 0.109375 -0.640625 0.1875q-0.359375 0.09375 -0.796875 0.140625q-0.421875 0.046875 -0.859375 0.046875q-1.171875 0 -2.0312462 -0.296875q-0.859375 -0.296875 -1.421875 -0.90625q-0.5625 -0.625 -0.828125 -1.5625q-0.265625 -0.9375 -0.265625 -2.21875l0 -7.140625l-1.671875 0q-0.296875 0 -0.453125 -0.359375q-0.15625 -0.375 -0.15625 -1.234375q0 -0.453125 0.03125 -0.765625q0.046875 -0.3125 0.125 -0.484375q0.078125 -0.1875 0.1875 -0.265625q0.125 -0.078125 0.28125 -0.078125l1.65625 0l0 -3.109375q0 -0.15625 0.078125 -0.28125q0.09375 -0.125 0.3125 -0.203125q0.234375 -0.09375 0.609375 -0.125q0.390625 -0.046875 0.953125 -0.046875q0.578125 0 0.9531212 0.046875q0.390625 0.03125 0.609375 0.125q0.21875 0.078125 0.3125 0.203125q0.09375 0.125 0.09375 0.28125l0 3.109375l3.03125 0q0.15625 0 0.265625 0.078125q0.125 0.078125 0.203125 0.265625q0.078125 0.171875 0.109375 0.484375q0.046875 0.3125 0.046875 0.765625q0 0.859375 -0.15625 1.234375q-0.15625 0.359375 -0.453125 0.359375l-3.046875 0l0 6.546875q0 1.140625 0.359375 1.71875q0.359375 0.5625 1.28125 0.5625q0.3125 0 0.5625 -0.046875q0.25 -0.0625 0.4375 -0.125q0.203125 -0.078125 0.328125 -0.125q0.140625 -0.0625 0.25 -0.0625q0.09375 0 0.171875 0.0625q0.09375 0.046875 0.140625 0.21875q0.046875 0.15625 0.078125 0.4375q0.046875 0.28125 0.046875 0.71875zm16.15625 1.375q0 0.15625 -0.09375 0.28125q-0.09375 0.109375 -0.3125 0.1875q-0.21875 0.078125 -0.609375 0.109375q-0.375 0.046875 -0.9375 0.046875q-0.578125 0 -0.96875 -0.046875q-0.375 -0.03125 -0.59375 -0.109375q-0.21875 -0.078125 -0.3125 -0.1875q-0.09375 -0.125 -0.09375 -0.28125l0 -7.953125q0 -1.015625 -0.15625 -1.59375q-0.140625 -0.578125 -0.421875 -0.984375q-0.28125 -0.421875 -0.734375 -0.640625q-0.4375 -0.234375 -1.03125 -0.234375q-0.75 0 -1.515625 0.546875q-0.765625 0.546875 -1.59375 1.59375l0 9.265625q0 0.15625 -0.09375 0.28125q-0.09375 0.109375 -0.328125 0.1875q-0.21875 0.078125 -0.59375 0.109375q-0.375 0.046875 -0.953125 0.046875q-0.578125 0 -0.953125 -0.046875q-0.375 -0.03125 -0.609375 -0.109375q-0.21875 -0.078125 -0.3125 -0.1875q-0.09375 -0.125 -0.09375 -0.28125l0 -20.546875q0 -0.15625 0.09375 -0.28125q0.09375 -0.125 0.3125 -0.203125q0.234375 -0.09375 0.609375 -0.140625q0.375 -0.046875 0.953125 -0.046875q0.578125 0 0.953125 0.046875q0.375 0.046875 0.59375 0.140625q0.234375 0.078125 0.328125 0.203125q0.09375 0.125 0.09375 0.28125l0 7.703125q1.015625 -1.0 2.0625 -1.484375q1.0625 -0.5 2.203125 -0.5q1.421875 0 2.390625 0.46875q0.984375 0.46875 1.578125 1.28125q0.609375 0.8125 0.875 1.90625q0.265625 1.078125 0.265625 2.625l0 8.546875zm7.796875 0q0 0.15625 -0.09375 0.28125q-0.09375 0.109375 -0.328125 0.1875q-0.21875 0.078125 -0.59375 0.109375q-0.375 0.046875 -0.953125 0.046875q-0.578125 0 -0.953125 -0.046875q-0.375 -0.03125 -0.609375 -0.109375q-0.21875 -0.078125 -0.3125 -0.1875q-0.09375 -0.125 -0.09375 -0.28125l0 -13.90625q0 -0.15625 0.09375 -0.265625q0.09375 -0.125 0.3125 -0.203125q0.234375 -0.09375 0.609375 -0.140625q0.375 -0.046875 0.953125 -0.046875q0.578125 0 0.953125 0.046875q0.375 0.046875 0.59375 0.140625q0.234375 0.078125 0.328125 0.203125q0.09375 0.109375 0.09375 0.265625l0 13.90625zm0.296875 -18.65625q0 1.1875 -0.484375 1.640625q-0.484375 0.453125 -1.796875 0.453125q-1.328125 0 -1.796875 -0.4375q-0.453125 -0.4375 -0.453125 -1.578125q0 -1.1875 0.46875 -1.640625q0.484375 -0.46875 1.8125 -0.46875q1.3125 0 1.78125 0.453125q0.46875 0.4375 0.46875 1.578125zm13.4375 14.71875q0 1.1875 -0.453125 2.09375q-0.4375 0.90625 -1.25 1.515625q-0.8125 0.609375 -1.921875 0.90625q-1.109375 0.3125 -2.40625 0.3125q-0.78125 0 -1.5 -0.125q-0.703125 -0.109375 -1.265625 -0.28125q-0.5625 -0.1875 -0.9375 -0.375q-0.375 -0.1875 -0.546875 -0.34375q-0.171875 -0.171875 -0.265625 -0.515625q-0.09375 -0.359375 -0.09375 -1.046875q0 -0.453125 0.03125 -0.71875q0.03125 -0.28125 0.09375 -0.4375q0.0625 -0.171875 0.15625 -0.21875q0.09375 -0.0625 0.234375 -0.0625q0.171875 0 0.5 0.203125q0.34375 0.1875 0.84375 0.421875q0.5 0.234375 1.15625 0.4375q0.671875 0.203125 1.515625 0.203125q0.53125 0 0.9375 -0.109375q0.421875 -0.109375 0.71875 -0.3125q0.3125 -0.203125 0.46875 -0.515625q0.15625 -0.3125 0.15625 -0.71875q0 -0.46875 -0.296875 -0.796875q-0.28125 -0.34375 -0.765625 -0.59375q-0.46875 -0.25 -1.078125 -0.46875q-0.59375 -0.21875 -1.234375 -0.484375q-0.625 -0.265625 -1.234375 -0.609375q-0.59375 -0.34375 -1.078125 -0.84375q-0.46875 -0.5 -0.765625 -1.203125q-0.28125 -0.703125 -0.28125 -1.6875q0 -1.0 0.390625 -1.828125q0.390625 -0.84375 1.125 -1.4375q0.734375 -0.59375 1.78125 -0.921875q1.0625 -0.328125 2.375 -0.328125q0.65625 0 1.265625 0.09375q0.625 0.09375 1.125 0.234375q0.5 0.140625 0.84375 0.3125q0.34375 0.15625 0.484375 0.28125q0.15625 0.109375 0.21875 0.234375q0.0625 0.109375 0.09375 0.28125q0.03125 0.15625 0.046875 0.40625q0.03125 0.234375 0.03125 0.59375q0 0.421875 -0.03125 0.6875q-0.015625 0.265625 -0.078125 0.421875q-0.046875 0.15625 -0.140625 0.21875q-0.09375 0.046875 -0.21875 0.046875q-0.140625 0 -0.4375 -0.15625q-0.296875 -0.171875 -0.75 -0.359375q-0.4375 -0.1875 -1.03125 -0.34375q-0.578125 -0.171875 -1.328125 -0.171875q-0.53125 0 -0.921875 0.109375q-0.390625 0.109375 -0.640625 0.3125q-0.25 0.203125 -0.375 0.484375q-0.125 0.265625 -0.125 0.578125q0 0.484375 0.296875 0.8125q0.296875 0.328125 0.78125 0.578125q0.484375 0.25 1.09375 0.46875q0.625 0.21875 1.25 0.484375q0.640625 0.25 1.25 0.59375q0.625 0.34375 1.109375 0.84375q0.484375 0.5 0.78125 1.203125q0.296875 0.6875 0.296875 1.640625z" fill-rule="nonzero"/><path fill="#e7e6e6" d="m206.16011 208.73509l0 0c0 -5.073578 4.1129456 -9.186539 9.186523 -9.186539l90.60332 0c2.436432 0 4.773041 0.967865 6.4958496 2.6906738c1.7228088 1.7228088 2.6906738 4.0594482 2.6906738 6.495865l0 36.74504c0 5.073578 -4.1129456 9.186539 -9.186523 9.186539l-90.60332 0c-5.073578 0 -9.186523 -4.112961 -9.186523 -9.186539z" fill-rule="evenodd"/><path stroke="#44546a" stroke-width="1.0" stroke-linejoin="round" stroke-linecap="butt" d="m206.16011 208.73509l0 0c0 -5.073578 4.1129456 -9.186539 9.186523 -9.186539l90.60332 0c2.436432 0 4.773041 0.967865 6.4958496 2.6906738c1.7228088 1.7228088 2.6906738 4.0594482 2.6906738 6.495865l0 36.74504c0 5.073578 -4.1129456 9.186539 -9.186523 9.186539l-90.60332 0c-5.073578 0 -9.186523 -4.112961 -9.186523 -9.186539z" fill-rule="evenodd"/><path fill="#000000" d="m256.24203 238.29636q0 0.15625 -0.09375 0.28125q-0.09375 0.109375 -0.32810974 0.1875q-0.21875 0.078125 -0.59375 0.109375q-0.375 0.046875 -0.953125 0.046875q-0.578125 0 -0.953125 -0.046875q-0.375 -0.03125 -0.609375 -0.109375q-0.21875 -0.078125 -0.3125 -0.1875q-0.09375 -0.125 -0.09375 -0.28125l0 -13.90625q0 -0.15625 0.09375 -0.265625q0.09375 -0.125 0.3125 -0.203125q0.234375 -0.09375 0.609375 -0.140625q0.375 -0.046875 0.953125 -0.046875q0.578125 0 0.953125 0.046875q0.375 0.046875 0.59375 0.140625q0.23435974 0.078125 0.32810974 0.203125q0.09375 0.109375 0.09375 0.265625l0 13.90625zm0.296875 -18.65625q0 1.1875 -0.484375 1.640625q-0.48435974 0.453125 -1.7968597 0.453125q-1.328125 0 -1.796875 -0.4375q-0.453125 -0.4375 -0.453125 -1.578125q0 -1.1875 0.46875 -1.640625q0.484375 -0.46875 1.8125 -0.46875q1.3125 0 1.7812347 0.453125q0.46875 0.4375 0.46875 1.578125zm13.4375 14.71875q0 1.1875 -0.453125 2.09375q-0.4375 0.90625 -1.25 1.515625q-0.8125 0.609375 -1.921875 0.90625q-1.109375 0.3125 -2.40625 0.3125q-0.78125 0 -1.5 -0.125q-0.703125 -0.109375 -1.265625 -0.28125q-0.5625 -0.1875 -0.9375 -0.375q-0.375 -0.1875 -0.546875 -0.34375q-0.171875 -0.171875 -0.265625 -0.515625q-0.09375 -0.359375 -0.09375 -1.046875q0 -0.453125 0.03125 -0.71875q0.03125 -0.28125 0.09375 -0.4375q0.0625 -0.171875 0.15625 -0.21875q0.09375 -0.0625 0.234375 -0.0625q0.171875 0 0.5 0.203125q0.34375 0.1875 0.84375 0.421875q0.5 0.234375 1.15625 0.4375q0.671875 0.203125 1.515625 0.203125q0.53125 0 0.9375 -0.109375q0.421875 -0.109375 0.71875 -0.3125q0.3125 -0.203125 0.46875 -0.515625q0.15625 -0.3125 0.15625 -0.71875q0 -0.46875 -0.296875 -0.796875q-0.28125 -0.34375 -0.765625 -0.59375q-0.46875 -0.25 -1.078125 -0.46875q-0.59375 -0.21875 -1.234375 -0.484375q-0.625 -0.265625 -1.234375 -0.609375q-0.59375 -0.34375 -1.078125 -0.84375q-0.46875 -0.5 -0.765625 -1.203125q-0.28125 -0.703125 -0.28125 -1.6875q0 -1.0 0.390625 -1.828125q0.390625 -0.84375 1.125 -1.4375q0.734375 -0.59375 1.78125 -0.921875q1.0625 -0.328125 2.375 -0.328125q0.65625 0 1.265625 0.09375q0.625 0.09375 1.125 0.234375q0.5 0.140625 0.84375 0.3125q0.34375 0.15625 0.484375 0.28125q0.15625 0.109375 0.21875 0.234375q0.0625 0.109375 0.09375 0.28125q0.03125 0.15625 0.046875 0.40625q0.03125 0.234375 0.03125 0.59375q0 0.421875 -0.03125 0.6875q-0.015625 0.265625 -0.078125 0.421875q-0.046875 0.15625 -0.140625 0.21875q-0.09375 0.046875 -0.21875 0.046875q-0.140625 0 -0.4375 -0.15625q-0.296875 -0.171875 -0.75 -0.359375q-0.4375 -0.1875 -1.03125 -0.34375q-0.578125 -0.171875 -1.328125 -0.171875q-0.53125 0 -0.921875 0.109375q-0.390625 0.109375 -0.640625 0.3125q-0.25 0.203125 -0.375 0.484375q-0.125 0.265625 -0.125 0.578125q0 0.484375 0.296875 0.8125q0.296875 0.328125 0.78125 0.578125q0.484375 0.25 1.09375 0.46875q0.625 0.21875 1.25 0.484375q0.640625 0.25 1.25 0.59375q0.625 0.34375 1.109375 0.84375q0.484375 0.5 0.78125 1.203125q0.296875 0.6875 0.296875 1.640625z" fill-rule="nonzero"/><path fill="#e7e6e6" d="m376.86353 208.73509l0 0c0 -5.073578 4.1129456 -9.186539 9.186523 -9.186539l90.6033 0c2.436432 0 4.7730713 0.967865 6.49588 2.6906738c1.7228088 1.7228088 2.6906738 4.0594482 2.6906738 6.495865l0 36.74504c0 5.073578 -4.112976 9.186539 -9.186554 9.186539l-90.6033 0c-5.073578 0 -9.186523 -4.112961 -9.186523 -9.186539z" fill-rule="evenodd"/><path stroke="#44546a" stroke-width="1.0" stroke-linejoin="round" stroke-linecap="butt" d="m376.86353 208.73509l0 0c0 -5.073578 4.1129456 -9.186539 9.186523 -9.186539l90.6033 0c2.436432 0 4.7730713 0.967865 6.49588 2.6906738c1.7228088 1.7228088 2.6906738 4.0594482 2.6906738 6.495865l0 36.74504c0 5.073578 -4.112976 9.186539 -9.186554 9.186539l-90.6033 0c-5.073578 0 -9.186523 -4.112961 -9.186523 -9.186539z" fill-rule="evenodd"/><path fill="#000000" d="m437.29703 238.34323q0 0.21875 -0.15625 0.34375q-0.15625 0.125 -0.5 0.171875q-0.328125 0.0625 -0.984375 0.0625q-0.703125 0 -1.03125 -0.0625q-0.3125 -0.046875 -0.453125 -0.171875q-0.125 -0.125 -0.125 -0.34375l0 -1.109375q-0.859375 0.921875 -1.96875 1.4375q-1.09375 0.515625 -2.4375 0.515625q-1.109375 0 -2.046875 -0.296875q-0.921875 -0.28125 -1.609375 -0.84375q-0.671875 -0.578125 -1.046875 -1.421875q-0.375 -0.84375 -0.375 -1.96875q0 -1.21875 0.46875 -2.109375q0.484375 -0.90625 1.421875 -1.484375q0.953125 -0.59375 2.359375 -0.875q1.40625 -0.28125 3.265625 -0.28125l1.359375 0l0 -0.84375q0 -0.65625 -0.140625 -1.140625q-0.125 -0.5 -0.4375 -0.828125q-0.296875 -0.328125 -0.8125 -0.484375q-0.5 -0.15625 -1.25 -0.15625q-0.984375 0 -1.765625 0.21875q-0.765625 0.21875 -1.359375 0.484375q-0.59375 0.265625 -1.0 0.484375q-0.390625 0.21875 -0.640625 0.21875q-0.171875 0 -0.3125 -0.109375q-0.125 -0.109375 -0.21875 -0.3125q-0.078125 -0.203125 -0.125 -0.5q-0.046875 -0.296875 -0.046875 -0.65625q0 -0.484375 0.078125 -0.765625q0.078125 -0.28125 0.296875 -0.5q0.21875 -0.234375 0.765625 -0.5q0.546875 -0.28125 1.28125 -0.515625q0.734375 -0.234375 1.59375 -0.375q0.875 -0.15625 1.796875 -0.15625q1.640625 0 2.796875 0.328125q1.171875 0.3125 1.921875 0.984375q0.75 0.65625 1.09375 1.703125q0.34375 1.046875 0.34375 2.484375l0 9.375zm-3.859375 -5.96875l-1.5 0q-0.953125 0 -1.625 0.140625q-0.671875 0.140625 -1.09375 0.421875q-0.421875 0.28125 -0.625 0.6875q-0.1875 0.390625 -0.1875 0.90625q0 0.875 0.546875 1.375q0.5625 0.5 1.546875 0.5q0.828125 0 1.515625 -0.421875q0.703125 -0.421875 1.421875 -1.234375l0 -2.375z" fill-rule="nonzero"/><path fill="#000000" fill-opacity="0.0" d="m83.13386 199.54855l0 -38.89763" fill-rule="evenodd"/><path stroke="#44546a" stroke-width="3.0" stroke-linejoin="round" stroke-linecap="butt" d="m83.13386 199.54855l0 -20.897629" fill-rule="evenodd"/><path fill="#44546a" stroke="#44546a" stroke-width="3.0" stroke-linecap="butt" d="m88.08906 178.65092l-4.9552 -13.614304l-4.9552 13.614304z" fill-rule="evenodd"/><path fill="#000000" fill-opacity="0.0" d="m260.6483 199.54855l0 -38.89763" fill-rule="evenodd"/><path stroke="#44546a" stroke-width="3.0" stroke-linejoin="round" stroke-linecap="butt" d="m260.6483 199.54855l0 -20.897629" fill-rule="evenodd"/><path fill="#44546a" stroke="#44546a" stroke-width="3.0" stroke-linecap="butt" d="m265.6035 178.65092l-4.9552 -13.614304l-4.955185 13.614304z" fill-rule="evenodd"/><path fill="#000000" fill-opacity="0.0" d="m431.3517 199.54855l0 -38.89763" fill-rule="evenodd"/><path stroke="#44546a" stroke-width="3.0" stroke-linejoin="round" stroke-linecap="butt" d="m431.3517 199.54855l0 -20.897629" fill-rule="evenodd"/><path fill="#44546a" stroke="#44546a" stroke-width="3.0" stroke-linecap="butt" d="m436.30692 178.65092l-4.9552 -13.614304l-4.9552 13.614304z" fill-rule="evenodd"/><path fill="#e7e6e6" d="m28.64567 9.186536l0 0c0 -5.0735836 4.1129513 -9.186536 9.186533 -9.186536l90.60332 0c2.4364166 0 4.773041 0.96786433 6.4958496 2.6906738c1.7228241 1.7228098 2.6906738 4.059441 2.6906738 6.495862l0 36.74504c0 5.0735817 -4.1129456 9.186535 -9.186523 9.186535l-90.60332 0c-5.0735817 0 -9.186533 -4.112953 -9.186533 -9.186535z" fill-rule="evenodd"/><path stroke="#44546a" stroke-width="1.0" stroke-linejoin="round" stroke-linecap="butt" d="m28.64567 9.186536l0 0c0 -5.0735836 4.1129513 -9.186536 9.186533 -9.186536l90.60332 0c2.4364166 0 4.773041 0.96786433 6.4958496 2.6906738c1.7228241 1.7228098 2.6906738 4.059441 2.6906738 6.495862l0 36.74504c0 5.0735817 -4.1129456 9.186535 -9.186523 9.186535l-90.60332 0c-5.0735817 0 -9.186533 -4.112953 -9.186533 -9.186535z" fill-rule="evenodd"/><path fill="#000000" d="m80.93073 37.841553q0 0.359375 -0.125 0.640625q-0.125 0.28125 -0.34375 0.46875q-0.203125 0.1875 -0.5 0.28125q-0.28125 0.078125 -0.578125 0.078125l-1.75 0q-0.546875 0 -0.953125 -0.109375q-0.390625 -0.109375 -0.734375 -0.390625q-0.328125 -0.296875 -0.640625 -0.78125q-0.3125 -0.5 -0.703125 -1.28125l-5.03125 -9.453123q-0.4375 -0.84375 -0.890625 -1.8125q-0.453125 -0.984375 -0.8125 -1.90625l-0.03125 0q0.0625 1.125 0.09375 2.25q0.03125 1.109375 0.03125 2.296875l0 10.578123q0 0.15625 -0.09375 0.28125q-0.078125 0.125 -0.296875 0.21875q-0.203125 0.078125 -0.5625 0.125q-0.359375 0.046875 -0.921875 0.046875q-0.546875 0 -0.90625 -0.046875q-0.359375 -0.046875 -0.5625 -0.125q-0.203125 -0.09375 -0.28125 -0.21875q-0.078125 -0.125 -0.078125 -0.28125l0 -18.171873q0 -0.734375 0.421875 -1.09375q0.4375 -0.375 1.0625 -0.375l2.203125 0q0.59375 0 1.0 0.109375q0.40625 0.09375 0.71875 0.328125q0.328125 0.234375 0.609375 0.65625q0.28125 0.40625 0.578125 1.015625l3.9375 7.390625q0.34375 0.671875 0.671875 1.328125q0.34375 0.640625 0.65625 1.296875q0.3125 0.640625 0.609375 1.2656231q0.296875 0.625 0.578125 1.25l0.015625 0q-0.046875 -1.09375 -0.078125 -2.281248q-0.015625 -1.1875 -0.015625 -2.265625l0 -9.484375q0 -0.15625 0.09375 -0.28125q0.09375 -0.125 0.3125 -0.21875q0.21875 -0.09375 0.578125 -0.125q0.359375 -0.046875 0.921875 -0.046875q0.53125 0 0.890625 0.046875q0.359375 0.03125 0.546875 0.125q0.203125 0.09375 0.28125 0.21875q0.078125 0.125 0.078125 0.28125l0 18.171873zm21.078125 0q0 0.359375 -0.125 0.640625q-0.125 0.28125 -0.34375 0.46875q-0.203125 0.1875 -0.5 0.28125q-0.28125 0.078125 -0.578125 0.078125l-1.75 0q-0.546875 0 -0.953125 -0.109375q-0.390625 -0.109375 -0.734375 -0.390625q-0.328125 -0.296875 -0.640625 -0.78125q-0.3125 -0.5 -0.703125 -1.28125l-5.03125 -9.453123q-0.4375 -0.84375 -0.890625 -1.8125q-0.453125 -0.984375 -0.8125 -1.90625l-0.03125 0q0.0625 1.125 0.09375 2.25q0.03125 1.109375 0.03125 2.296875l0 10.578123q0 0.15625 -0.09375 0.28125q-0.078125 0.125 -0.296875 0.21875q-0.203125 0.078125 -0.5625 0.125q-0.359375 0.046875 -0.921875 0.046875q-0.546875 0 -0.90625 -0.046875q-0.359375 -0.046875 -0.5625 -0.125q-0.203125 -0.09375 -0.28125 -0.21875q-0.078125 -0.125 -0.078125 -0.28125l0 -18.171873q0 -0.734375 0.421875 -1.09375q0.4375 -0.375 1.0625 -0.375l2.203125 0q0.59375 0 1.0 0.109375q0.40625 0.09375 0.71875 0.328125q0.328125 0.234375 0.609375 0.65625q0.28125 0.40625 0.578125 1.015625l3.9375 7.390625q0.34375 0.671875 0.671875 1.328125q0.34375 0.640625 0.65625 1.296875q0.3125 0.640625 0.609375 1.2656231q0.296875 0.625 0.578125 1.25l0.015625 0q-0.046875 -1.09375 -0.078125 -2.281248q-0.015625 -1.1875 -0.015625 -2.265625l0 -9.484375q0 -0.15625 0.09375 -0.28125q0.09375 -0.125 0.3125 -0.21875q0.21875 -0.09375 0.578125 -0.125q0.359375 -0.046875 0.921875 -0.046875q0.53125 0 0.890625 0.046875q0.359375 0.03125 0.546875 0.125q0.203125 0.09375 0.28125 0.21875q0.078125 0.125 0.078125 0.28125l0 18.171873z" fill-rule="nonzero"/><path fill="#e7e6e6" d="m206.16011 9.186536l0 0c0 -5.0735836 4.1129456 -9.186536 9.186523 -9.186536l90.60332 0c2.436432 0 4.773041 0.96786433 6.4958496 2.6906738c1.7228088 1.7228098 2.6906738 4.059441 2.6906738 6.495862l0 36.74504c0 5.0735817 -4.1129456 9.186535 -9.186523 9.186535l-90.60332 0c-5.073578 0 -9.186523 -4.112953 -9.186523 -9.186535z" fill-rule="evenodd"/><path stroke="#44546a" stroke-width="1.0" stroke-linejoin="round" stroke-linecap="butt" d="m206.16011 9.186536l0 0c0 -5.0735836 4.1129456 -9.186536 9.186523 -9.186536l90.60332 0c2.436432 0 4.773041 0.96786433 6.4958496 2.6906738c1.7228088 1.7228098 2.6906738 4.059441 2.6906738 6.495862l0 36.74504c0 5.0735817 -4.1129456 9.186535 -9.186523 9.186535l-90.60332 0c-5.073578 0 -9.186523 -4.112953 -9.186523 -9.186535z" fill-rule="evenodd"/><path fill="#000000" d="m246.99205 38.560303q-0.078125 0.265625 -0.203125 0.4375q-0.125 0.15625 -0.40625 0.25q-0.28125 0.078125 -0.765625 0.09375q-0.484375 0.03125 -1.265625 0.03125q-0.625 0 -1.078125 -0.015625q-0.4375 0 -0.75 -0.03125q-0.3125 -0.03125 -0.515625 -0.09375q-0.1875 -0.0625 -0.328125 -0.15625q-0.125 -0.09375 -0.203125 -0.21875q-0.0625 -0.140625 -0.125 -0.34375l-6.015625 -17.921873q-0.1875 -0.5625 -0.234375 -0.890625q-0.03125 -0.328125 0.15625 -0.484375q0.203125 -0.171875 0.671875 -0.203125q0.46875 -0.046875 1.3125 -0.046875q0.71875 0 1.125 0.03125q0.40625 0.03125 0.625 0.109375q0.21875 0.078125 0.296875 0.234375q0.09375 0.15625 0.171875 0.390625l4.921875 15.593748l0.015625 0l4.828125 -15.515623q0.0625 -0.265625 0.15625 -0.421875q0.09375 -0.171875 0.3125 -0.265625q0.234375 -0.09375 0.65625 -0.125q0.421875 -0.03125 1.15625 -0.03125q0.71875 0 1.109375 0.046875q0.40625 0.046875 0.546875 0.234375q0.15625 0.171875 0.09375 0.5q-0.046875 0.328125 -0.234375 0.875l-6.03125 17.937498zm23.499985 -5.34375q0 1.078125 -0.296875 1.953125q-0.296875 0.875 -0.828125 1.546875q-0.515625 0.671875 -1.25 1.15625q-0.71875 0.484375 -1.59375 0.796875q-0.875 0.3125 -1.875 0.46875q-0.984375 0.140625 -2.203125 0.140625l-5.375 0q-0.515625 0 -0.875 -0.296875q-0.34373474 -0.3125 -0.34373474 -1.0l0 -17.624998q0 -0.6875 0.34373474 -0.984375q0.359375 -0.3125 0.875 -0.3125l5.078125 0q1.859375 0 3.140625 0.3125q1.296875 0.3125 2.171875 0.953125q0.890625 0.625 1.359375 1.59375q0.46875 0.96875 0.46875 2.28125q0 0.734375 -0.1875 1.390625q-0.1875 0.640625 -0.546875 1.171875q-0.359375 0.53125 -0.890625 0.9375q-0.515625 0.40625 -1.1875 0.65625q0.859375 0.15625 1.578125 0.546875q0.734375 0.390625 1.265625 1.015625q0.546875 0.609375 0.859375 1.4375q0.3125 0.8281231 0.3125 1.8593731zm-5.3125 -8.515623q0 -0.609375 -0.1875 -1.09375q-0.1875 -0.484375 -0.5625 -0.796875q-0.375 -0.328125 -0.953125 -0.5q-0.5625 -0.171875 -1.515625 -0.171875l-2.078125 0l0 5.25l2.296875 0q0.890625 0 1.421875 -0.203125q0.53125 -0.21875 0.875 -0.578125q0.359375 -0.375 0.53125 -0.859375q0.171875 -0.5 0.171875 -1.046875zm1.046875 8.656248q0 -0.703125 -0.234375 -1.25q-0.234375 -0.5624981 -0.6875 -0.9374981q-0.453125 -0.375 -1.15625 -0.578125q-0.703125 -0.203125 -1.828125 -0.203125l-2.4375 0l0 5.749998l2.96875 0q0.859375 0 1.4375 -0.171875q0.59375 -0.1875 1.015625 -0.53125q0.4375 -0.359375 0.671875 -0.875q0.25 -0.53125 0.25 -1.203125zm19.671875 4.296875q0 0.453125 -0.046875 0.765625q-0.03125 0.3125 -0.109375 0.515625q-0.078125 0.1875 -0.203125 0.265625q-0.109375 0.078125 -0.25 0.078125l-11.921875 0q-0.625 0 -0.96875 -0.359375q-0.328125 -0.359375 -0.328125 -1.046875l0 -0.6875q0 -0.3125 0.03125 -0.5625q0.046875 -0.265625 0.140625 -0.53125q0.09375 -0.265625 0.265625 -0.578125q0.1875 -0.3125 0.453125 -0.75l7.84375 -12.437498l-7.78125 0q-0.1875 0 -0.328125 -0.078125q-0.125 -0.09375 -0.21875 -0.28125q-0.078125 -0.1875 -0.125 -0.5q-0.03125 -0.3125 -0.03125 -0.75q0 -0.46875 0.03125 -0.78125q0.046875 -0.328125 0.125 -0.515625q0.09375 -0.203125 0.21875 -0.28125q0.140625 -0.078125 0.328125 -0.078125l11.171875 0q0.640625 0 0.9375 0.328125q0.3125 0.328125 0.3125 0.921875l0 0.765625q0 0.421875 -0.046875 0.734375q-0.03125 0.296875 -0.140625 0.59375q-0.09375 0.28125 -0.265625 0.59375q-0.171875 0.296875 -0.4375 0.71875l-7.71875 12.265623l8.453125 0q0.296875 0 0.453125 0.375q0.15625 0.375 0.15625 1.296875z" fill-rule="nonzero"/><path fill="#e7e6e6" d="m376.86353 9.186536l0 0c0 -5.0735836 4.1129456 -9.186536 9.186523 -9.186536l90.6033 0c2.436432 0 4.7730713 0.96786433 6.49588 2.6906738c1.7228088 1.7228098 2.6906738 4.059441 2.6906738 6.495862l0 36.74504c0 5.0735817 -4.112976 9.186535 -9.186554 9.186535l-90.6033 0c-5.073578 0 -9.186523 -4.112953 -9.186523 -9.186535z" fill-rule="evenodd"/><path stroke="#44546a" stroke-width="1.0" stroke-linejoin="round" stroke-linecap="butt" d="m376.86353 9.186536l0 0c0 -5.0735836 4.1129456 -9.186536 9.186523 -9.186536l90.6033 0c2.436432 0 4.7730713 0.96786433 6.49588 2.6906738c1.7228088 1.7228098 2.6906738 4.059441 2.6906738 6.495862l0 36.74504c0 5.0735817 -4.112976 9.186535 -9.186554 9.186535l-90.6033 0c-5.073578 0 -9.186523 -4.112953 -9.186523 -9.186535z" fill-rule="evenodd"/><path fill="#000000" d="m424.5392 28.872805q0 2.78125 -0.734375 4.765623q-0.71875 1.96875 -2.078125 3.21875q-1.359375 1.25 -3.3125 1.84375q-1.9375 0.578125 -4.625 0.578125l-4.828125 0q-0.515625 0 -0.875 -0.296875q-0.34375 -0.3125 -0.34375 -1.0l0 -17.624998q0 -0.6875 0.34375 -0.984375q0.359375 -0.3125 0.875 -0.3125l5.1875 0q2.703125 0 4.578125 0.640625q1.890625 0.625 3.171875 1.875q1.296875 1.234375 1.96875 3.0625q0.671875 1.828125 0.671875 4.234375zm-4.25 0.140625q0 -1.4375 -0.34375 -2.671875q-0.328125 -1.234375 -1.078125 -2.140625q-0.734375 -0.90625 -1.90625 -1.40625q-1.15625 -0.515625 -3.046875 -0.515625l-2.078125 0l0 13.749998l2.140625 0q1.6875 0 2.84375 -0.4375q1.15625 -0.4375 1.921875 -1.3125q0.78125 -0.890625 1.15625 -2.203125q0.390625 -1.3124981 0.390625 -3.062498zm19.609375 8.656248q0 0.453125 -0.046875 0.765625q-0.03125 0.296875 -0.109375 0.484375q-0.078125 0.1875 -0.203125 0.28125q-0.109375 0.078125 -0.25 0.078125l-10.15625 0q-0.515625 0 -0.875 -0.296875q-0.34375 -0.3125 -0.34375 -1.0l0 -17.624998q0 -0.6875 0.34375 -0.984375q0.359375 -0.3125 0.875 -0.3125l10.09375 0q0.140625 0 0.25 0.078125q0.109375 0.078125 0.1875 0.28125q0.078125 0.1875 0.109375 0.5q0.046875 0.296875 0.046875 0.765625q0 0.4375 -0.046875 0.75q-0.03125 0.296875 -0.109375 0.484375q-0.078125 0.1875 -0.1875 0.28125q-0.109375 0.078125 -0.25 0.078125l-7.21875 0l0 4.9375l6.109375 0q0.140625 0 0.25 0.09375q0.125 0.078125 0.203125 0.265625q0.078125 0.171875 0.109375 0.484375q0.046875 0.296875 0.046875 0.734375q0 0.453125 -0.046875 0.75q-0.03125 0.296875 -0.109375 0.484375q-0.078125 0.171875 -0.203125 0.25q-0.109375 0.078125 -0.25 0.078125l-6.109375 0l0 5.703123l7.28125 0q0.140625 0 0.25 0.09375q0.125 0.078125 0.203125 0.265625q0.078125 0.1875 0.109375 0.5q0.046875 0.296875 0.046875 0.75zm17.078125 -16.921873q0 0.453125 -0.046875 0.78125q-0.03125 0.3125 -0.109375 0.515625q-0.078125 0.1875 -0.203125 0.28125q-0.109375 0.09375 -0.25 0.09375l-5.0625 0l0 16.296873q0 0.15625 -0.109375 0.28125q-0.09375 0.125 -0.328125 0.203125q-0.234375 0.078125 -0.640625 0.125q-0.390625 0.046875 -0.984375 0.046875q-0.59375 0 -1.0 -0.046875q-0.390625 -0.046875 -0.625 -0.125q-0.234375 -0.078125 -0.34375 -0.203125q-0.09375 -0.125 -0.09375 -0.28125l0 -16.296873l-5.0625 0q-0.15625 0 -0.265625 -0.09375q-0.109375 -0.09375 -0.1875 -0.28125q-0.078125 -0.203125 -0.125 -0.515625q-0.03125 -0.328125 -0.03125 -0.78125q0 -0.46875 0.03125 -0.796875q0.046875 -0.328125 0.125 -0.515625q0.078125 -0.203125 0.1875 -0.28125q0.109375 -0.09375 0.265625 -0.09375l14.25 0q0.140625 0 0.25 0.09375q0.125 0.078125 0.203125 0.28125q0.078125 0.1875 0.109375 0.515625q0.046875 0.328125 0.046875 0.796875z" fill-rule="nonzero"/><path fill="#000000" fill-opacity="0.0" d="m83.13386 94.46719l0 -39.338585" fill-rule="evenodd"/><path stroke="#44546a" stroke-width="3.0" stroke-linejoin="round" stroke-linecap="butt" d="m83.13386 94.46719l0 -21.338585" fill-rule="evenodd"/><path fill="#44546a" stroke="#44546a" stroke-width="3.0" stroke-linecap="butt" d="m88.08906 73.12861l-4.9552 -13.614292l-4.9552 13.614292z" fill-rule="evenodd"/><path fill="#000000" fill-opacity="0.0" d="m260.6483 94.46719l0 -39.338585" fill-rule="evenodd"/><path stroke="#44546a" stroke-width="3.0" stroke-linejoin="round" stroke-linecap="butt" d="m260.6483 94.46719l0 -21.338585" fill-rule="evenodd"/><path fill="#44546a" stroke="#44546a" stroke-width="3.0" stroke-linecap="butt" d="m265.6035 73.12861l-4.9552 -13.614292l-4.955185 13.614292z" fill-rule="evenodd"/><path fill="#000000" fill-opacity="0.0" d="m431.3517 94.46719l0 -39.338585" fill-rule="evenodd"/><path stroke="#44546a" stroke-width="3.0" stroke-linejoin="round" stroke-linecap="butt" d="m431.3517 94.46719l0 -21.338585" fill-rule="evenodd"/><path fill="#44546a" stroke="#44546a" stroke-width="3.0" stroke-linecap="butt" d="m436.30692 73.12861l-4.9552 -13.614292l-4.9552 13.614292z" fill-rule="evenodd"/></g></svg>