<svg version="1.1" viewBox="0.0 0.0 509.9422572178478 270.8635170603674" fill="none" stroke="none" stroke-linecap="square" stroke-miterlimit="10" xmlns:xlink="http://www.w3.org/1999/xlink" xmlns="http://www.w3.org/2000/svg"><clipPath id="p.0"><path d="m0 0l509.94226 0l0 270.86353l-509.94226 0l0 -270.86353z" clip-rule="nonzero"/></clipPath><g clip-path="url(#p.0)"><path fill="#000000" fill-opacity="0.0" d="m0 0l509.94226 0l0 270.86353l-509.94226 0z" fill-rule="evenodd"/><path fill="#b0dd46" fill-opacity="0.8039" d="m0 94.46719l114.80315 0l0 66.17323l-114.80315 0z" fill-rule="evenodd"/><path stroke="#44546a" stroke-width="1.0" stroke-linejoin="round" stroke-linecap="butt" d="m0 94.46719l114.80315 0l0 66.17323l-114.80315 0z" fill-rule="evenodd"/><path fill="#000000" d="m58.691956 138.74255q0 0.15625 -0.09375 0.28125q-0.09375 0.109375 -0.3125 0.1875q-0.21875 0.078125 -0.609375 0.109375q-0.375 0.046875 -0.9375 0.046875q-0.578125 0 -0.96875 -0.046875q-0.375 -0.03125 -0.59375 -0.109375q-0.21875 -0.078125 -0.3125 -0.1875q-0.09375 -0.125 -0.09375 -0.28125l0 -7.953125q0 -1.015625 -0.15625 -1.59375q-0.140625 -0.578125 -0.421875 -0.984375q-0.28125 -0.421875 -0.734375 -0.640625q-0.4375 -0.234375 -1.03125 -0.234375q-0.75 0 -1.515625 0.546875q-0.765625 0.546875 -1.59375 1.59375l0 9.265625q0 0.15625 -0.09375 0.28125q-0.09375 0.109375 -0.328125 0.1875q-0.21875 0.078125 -0.59375 0.109375q-0.375 0.046875 -0.953125 0.046875q-0.578125 0 -0.953125 -0.046875q-0.375 -0.03125 -0.609375 -0.109375q-0.21875 -0.078125 -0.3125 -0.1875q-0.09375 -0.125 -0.09375 -0.28125l0 -20.546875q0 -0.15625 0.09375 -0.28125q0.09375 -0.125 0.3125 -0.203125q0.234375 -0.09375 0.609375 -0.140625q0.375 -0.046875 0.953125 -0.046875q0.578125 0 0.953125 0.046875q0.375 0.046875 0.59375 0.140625q0.234375 0.078125 0.328125 0.203125q0.09375 0.125 0.09375 0.28125l0 7.703125q1.015625 -1.0 2.0625 -1.484375q1.0625 -0.5 2.203125 -0.5q1.421875 0 2.390625 0.46875q0.984375 0.46875 1.578125 1.28125q0.609375 0.8125 0.875 1.90625q0.265625 1.078125 0.265625 2.625l0 8.546875z" fill-rule="nonzero"/><path fill="#000000" d="m70.410706 150.22693q0 0.296875 -0.03125 0.5q-0.03125 0.203125 -0.09375 0.328125q-0.046875 0.109375 -0.125 0.171875q-0.0625 0.046875 -0.15625 0.046875l-7.4375 0q-0.09375 0 -0.171875 -0.046875q-0.0625 -0.0625 -0.125 -0.171875q-0.046875 -0.125 -0.078125 -0.328125q-0.03125 -0.203125 -0.03125 -0.5q0 -0.296875 0.015625 -0.5q0.03125 -0.203125 0.078125 -0.328125q0.0625 -0.125 0.140625 -0.171875q0.078125 -0.0625 0.171875 -0.0625l2.5 0l0 -8.765625l-2.15625 1.1875q-0.25 0.109375 -0.40625 0.140625q-0.140625 0.03125 -0.234375 -0.0625q-0.078125 -0.09375 -0.109375 -0.3125q-0.03125 -0.21875 -0.03125 -0.609375q0 -0.25 0 -0.40625q0.015625 -0.15625 0.046875 -0.265625q0.046875 -0.125 0.125 -0.1875q0.078125 -0.078125 0.203125 -0.171875l2.890625 -1.875q0.046875 -0.03125 0.125 -0.0625q0.078125 -0.03125 0.203125 -0.046875q0.125 -0.015625 0.328125 -0.015625q0.203125 0 0.53125 0q0.390625 0 0.640625 0.015625q0.25 0.015625 0.375 0.046875q0.125 0.03125 0.15625 0.09375q0.046875 0.0625 0.046875 0.15625l0 11.140625l2.203125 0q0.09375 0 0.171875 0.0625q0.078125 0.046875 0.125 0.171875q0.0625 0.125 0.078125 0.328125q0.03125 0.203125 0.03125 0.5z" fill-rule="nonzero"/><path fill="#b0dd46" fill-opacity="0.8039" d="m177.51443 94.46719l114.80316 0l0 66.17323l-114.80316 0z" fill-rule="evenodd"/><path stroke="#44546a" stroke-width="1.0" stroke-linejoin="round" stroke-linecap="butt" d="m177.51443 94.46719l114.80316 0l0 66.17323l-114.80316 0z" fill-rule="evenodd"/><path fill="#000000" d="m236.20639 138.74255q0 0.15625 -0.09375 0.28125q-0.09375 0.109375 -0.3125 0.1875q-0.21875 0.078125 -0.609375 0.109375q-0.375 0.046875 -0.9375 0.046875q-0.578125 0 -0.96875 -0.046875q-0.375 -0.03125 -0.59375 -0.109375q-0.21875 -0.078125 -0.3125 -0.1875q-0.09375 -0.125 -0.09375 -0.28125l0 -7.953125q0 -1.015625 -0.15625 -1.59375q-0.140625 -0.578125 -0.421875 -0.984375q-0.28125 -0.421875 -0.734375 -0.640625q-0.4375 -0.234375 -1.03125 -0.234375q-0.75 0 -1.515625 0.546875q-0.765625 0.546875 -1.59375 1.59375l0 9.265625q0 0.15625 -0.09375 0.28125q-0.09375 0.109375 -0.328125 0.1875q-0.21875 0.078125 -0.59375 0.109375q-0.375 0.046875 -0.953125 0.046875q-0.578125 0 -0.953125 -0.046875q-0.375 -0.03125 -0.609375 -0.109375q-0.21875 -0.078125 -0.3125 -0.1875q-0.09375 -0.125 -0.09375 -0.28125l0 -20.546875q0 -0.15625 0.09375 -0.28125q0.09375 -0.125 0.3125 -0.203125q0.234375 -0.09375 0.609375 -0.140625q0.375 -0.046875 0.953125 -0.046875q0.578125 0 0.953125 0.046875q0.375 0.046875 0.59375 0.140625q0.234375 0.078125 0.328125 0.203125q0.09375 0.125 0.09375 0.28125l0 7.703125q1.015625 -1.0 2.0625 -1.484375q1.0625 -0.5 2.203125 -0.5q1.421875 0 2.390625 0.46875q0.984375 0.46875 1.578125 1.28125q0.609375 0.8125 0.875 1.90625q0.265625 1.078125 0.265625 2.625l0 8.546875z" fill-rule="nonzero"/><path fill="#000000" d="m248.05014 150.16443q0 0.296875 -0.03125 0.515625q-0.015625 0.203125 -0.078125 0.34375q-0.046875 0.140625 -0.125 0.203125q-0.078125 0.046875 -0.1875 0.046875l-7.75 0q-0.234375 0 -0.40625 -0.03125q-0.15625 -0.046875 -0.265625 -0.171875q-0.09375 -0.125 -0.140625 -0.34375q-0.046875 -0.234375 -0.046875 -0.59375q0 -0.34375 0.03125 -0.59375q0.03125 -0.25 0.109375 -0.4375q0.078125 -0.1875 0.203125 -0.375q0.140625 -0.1875 0.34375 -0.40625l2.34375 -2.5q0.6875 -0.71875 1.109375 -1.3125q0.4375 -0.609375 0.671875 -1.09375q0.25 -0.5 0.328125 -0.921875q0.09375 -0.421875 0.09375 -0.796875q0 -0.34375 -0.109375 -0.640625q-0.109375 -0.3125 -0.328125 -0.53125q-0.203125 -0.234375 -0.53125 -0.359375q-0.328125 -0.140625 -0.765625 -0.140625q-0.609375 0 -1.09375 0.15625q-0.46875 0.15625 -0.828125 0.359375q-0.359375 0.1875 -0.59375 0.34375q-0.234375 0.15625 -0.375 0.15625q-0.09375 0 -0.171875 -0.0625q-0.0625 -0.0625 -0.109375 -0.203125q-0.03125 -0.140625 -0.0625 -0.375q-0.015625 -0.25 -0.015625 -0.609375q0 -0.234375 0.015625 -0.390625q0.015625 -0.171875 0.046875 -0.28125q0.03125 -0.125 0.078125 -0.21875q0.046875 -0.09375 0.171875 -0.21875q0.140625 -0.125 0.484375 -0.3125q0.359375 -0.1875 0.859375 -0.375q0.515625 -0.1875 1.125 -0.3125q0.625 -0.125 1.28125 -0.125q1.0625 0 1.84375 0.265625q0.78125 0.265625 1.296875 0.75q0.53125 0.46875 0.78125 1.125q0.265625 0.640625 0.265625 1.390625q0 0.65625 -0.125 1.296875q-0.125 0.625 -0.53125 1.359375q-0.390625 0.734375 -1.109375 1.625q-0.71875 0.890625 -1.90625 2.078125l-1.578125 1.609375l5.3125 0q0.109375 0 0.1875 0.0625q0.09375 0.0625 0.15625 0.203125q0.0625 0.125 0.09375 0.34375q0.03125 0.203125 0.03125 0.5z" fill-rule="nonzero"/><path fill="#b0dd46" fill-opacity="0.8039" d="m348.21783 94.46719l114.80316 0l0 66.17323l-114.80316 0z" fill-rule="evenodd"/><path stroke="#44546a" stroke-width="1.0" stroke-linejoin="round" stroke-linecap="butt" d="m348.21783 94.46719l114.80316 0l0 66.17323l-114.80316 0z" fill-rule="evenodd"/><path fill="#000000" d="m406.9098 138.74255q0 0.15625 -0.09375 0.28125q-0.09375 0.109375 -0.3125 0.1875q-0.21875 0.078125 -0.609375 0.109375q-0.375 0.046875 -0.9375 0.046875q-0.578125 0 -0.96875 -0.046875q-0.375 -0.03125 -0.59375 -0.109375q-0.21875 -0.078125 -0.3125 -0.1875q-0.09375 -0.125 -0.09375 -0.28125l0 -7.953125q0 -1.015625 -0.15625 -1.59375q-0.140625 -0.578125 -0.421875 -0.984375q-0.28125 -0.421875 -0.734375 -0.640625q-0.4375 -0.234375 -1.03125 -0.234375q-0.75 0 -1.515625 0.546875q-0.765625 0.546875 -1.59375 1.59375l0 9.265625q0 0.15625 -0.09375 0.28125q-0.09375 0.109375 -0.328125 0.1875q-0.21875 0.078125 -0.59375 0.109375q-0.375 0.046875 -0.953125 0.046875q-0.578125 0 -0.953125 -0.046875q-0.375 -0.03125 -0.609375 -0.109375q-0.21875 -0.078125 -0.3125 -0.1875q-0.09375 -0.125 -0.09375 -0.28125l0 -20.546875q0 -0.15625 0.09375 -0.28125q0.09375 -0.125 0.3125 -0.203125q0.234375 -0.09375 0.609375 -0.140625q0.375 -0.046875 0.953125 -0.046875q0.578125 0 0.953125 0.046875q0.375 0.046875 0.59375 0.140625q0.234375 0.078125 0.328125 0.203125q0.09375 0.125 0.09375 0.28125l0 7.703125q1.015625 -1.0 2.0625 -1.484375q1.0625 -0.5 2.203125 -0.5q1.421875 0 2.390625 0.46875q0.984375 0.46875 1.578125 1.28125q0.609375 0.8125 0.875 1.90625q0.265625 1.078125 0.265625 2.625l0 8.546875z" fill-rule="nonzero"/><path fill="#000000" d="m418.69104 147.32068q0 1.015625 -0.390625 1.796875q-0.375 0.78125 -1.0625 1.3125q-0.6875 0.53125 -1.65625 0.8125q-0.953125 0.265625 -2.078125 0.265625q-0.6875 0 -1.296875 -0.09375q-0.609375 -0.09375 -1.078125 -0.234375q-0.453125 -0.15625 -0.765625 -0.3125q-0.296875 -0.15625 -0.390625 -0.234375q-0.09375 -0.09375 -0.140625 -0.1875q-0.046875 -0.109375 -0.078125 -0.25q-0.03125 -0.140625 -0.046875 -0.34375q-0.015625 -0.21875 -0.015625 -0.53125q0 -0.5 0.078125 -0.6875q0.078125 -0.1875 0.25 -0.1875q0.109375 0 0.359375 0.140625q0.25 0.140625 0.640625 0.296875q0.40625 0.15625 0.9375 0.296875q0.53125 0.140625 1.203125 0.140625q0.578125 0 1.015625 -0.125q0.4375 -0.140625 0.734375 -0.375q0.3125 -0.25 0.46875 -0.59375q0.15625 -0.359375 0.15625 -0.78125q0 -0.46875 -0.1875 -0.84375q-0.1875 -0.375 -0.546875 -0.640625q-0.359375 -0.265625 -0.90625 -0.40625q-0.546875 -0.15625 -1.28125 -0.15625l-1.171875 0q-0.125 0 -0.21875 -0.03125q-0.09375 -0.046875 -0.15625 -0.15625q-0.0625 -0.109375 -0.09375 -0.3125q-0.03125 -0.203125 -0.03125 -0.53125q0 -0.296875 0.03125 -0.484375q0.03125 -0.203125 0.078125 -0.296875q0.0625 -0.109375 0.140625 -0.15625q0.09375 -0.046875 0.21875 -0.046875l1.1875 0q0.59375 0 1.0625 -0.140625q0.46875 -0.140625 0.78125 -0.390625q0.328125 -0.265625 0.484375 -0.625q0.171875 -0.375 0.171875 -0.828125q0 -0.34375 -0.109375 -0.640625q-0.109375 -0.3125 -0.34375 -0.53125q-0.21875 -0.234375 -0.578125 -0.359375q-0.34375 -0.125 -0.828125 -0.125q-0.546875 0 -1.03125 0.15625q-0.46875 0.15625 -0.859375 0.359375q-0.375 0.1875 -0.640625 0.359375q-0.265625 0.15625 -0.390625 0.15625q-0.078125 0 -0.140625 -0.03125q-0.0625 -0.046875 -0.109375 -0.140625q-0.03125 -0.109375 -0.0625 -0.296875q-0.015625 -0.203125 -0.015625 -0.515625q0 -0.265625 0 -0.4375q0.015625 -0.171875 0.046875 -0.28125q0.03125 -0.109375 0.078125 -0.1875q0.046875 -0.09375 0.15625 -0.1875q0.109375 -0.109375 0.421875 -0.296875q0.328125 -0.203125 0.8125 -0.390625q0.5 -0.1875 1.140625 -0.3125q0.640625 -0.140625 1.390625 -0.140625q0.96875 0 1.71875 0.234375q0.765625 0.234375 1.28125 0.671875q0.515625 0.421875 0.78125 1.0625q0.265625 0.625 0.265625 1.40625q0 0.609375 -0.15625 1.140625q-0.15625 0.53125 -0.46875 0.953125q-0.296875 0.421875 -0.75 0.71875q-0.453125 0.28125 -1.046875 0.421875l0 0.03125q0.71875 0.09375 1.28125 0.375q0.5625 0.265625 0.953125 0.6875q0.390625 0.40625 0.59375 0.9375q0.203125 0.53125 0.203125 1.125z" fill-rule="nonzero"/><path fill="#000000" fill-opacity="0.0" d="m114.80315 127.5538l62.708664 0" fill-rule="evenodd"/><path stroke="#44546a" stroke-width="3.0" stroke-linejoin="round" stroke-linecap="butt" d="m114.80315 127.5538l44.708664 0" fill-rule="evenodd"/><path fill="#44546a" stroke="#44546a" stroke-width="3.0" stroke-linecap="butt" d="m159.51181 132.509l13.614288 -4.9552l-13.614288 -4.9551926z" fill-rule="evenodd"/><path fill="#000000" fill-opacity="0.0" d="m292.3176 127.5538l55.905487 0" fill-rule="evenodd"/><path stroke="#44546a" stroke-width="3.0" stroke-linejoin="round" stroke-linecap="butt" d="m292.3176 127.5538l37.905487 0" fill-rule="evenodd"/><path fill="#44546a" stroke="#44546a" stroke-width="3.0" stroke-linecap="butt" d="m330.22308 132.509l13.614319 -4.9552l-13.614319 -4.9551926z" fill-rule="evenodd"/><path fill="#000000" fill-opacity="0.0" d="m463.021 127.5538l37.637787 0.9763794" fill-rule="evenodd"/><path stroke="#44546a" stroke-width="3.0" stroke-linejoin="round" stroke-linecap="butt" d="m463.021 127.5538l19.64386 0.5095825" fill-rule="evenodd"/><path fill="#44546a" stroke="#44546a" stroke-width="3.0" stroke-linecap="butt" d="m482.53635 133.01692l13.73822 -4.600464l-13.481232 -5.306595z" fill-rule="evenodd"/><path fill="#e7e6e6" d="m2.9133859 208.73509l0 0c0 -5.073578 4.1129518 -9.186539 9.186535 -9.186539l90.60331 0c2.4364166 0 4.7730484 0.967865 6.4958572 2.6906738c1.7228088 1.7228088 2.6906738 4.0594482 2.6906738 6.495865l0 36.74504c0 5.073578 -4.112953 9.186539 -9.186531 9.186539l-90.60331 0c-5.0735836 0 -9.186535 -4.112961 -9.186535 -9.186539z" fill-rule="evenodd"/><path stroke="#44546a" stroke-width="1.0" stroke-linejoin="round" stroke-linecap="butt" d="m2.9133859 208.73509l0 0c0 -5.073578 4.1129518 -9.186539 9.186535 -9.186539l90.60331 0c2.4364166 0 4.7730484 0.967865 6.4958572 2.6906738c1.7228088 1.7228088 2.6906738 4.0594482 2.6906738 6.495865l0 36.74504c0 5.073578 -4.112953 9.186539 -9.186531 9.186539l-90.60331 0c-5.0735836 0 -9.186535 -4.112961 -9.186535 -9.186539z" fill-rule="evenodd"/><path fill="#000000" d="m42.932827 236.10886q0 0.578125 -0.046875 0.90625q-0.046875 0.328125 -0.15625 0.46875q-0.09375 0.140625 -0.25 0.125q-0.140625 -0.015625 -0.375 -0.125l-11.984375 -5.96875q-0.21875 -0.125 -0.328125 -0.515625q-0.09375 -0.40625 -0.09375 -1.203125q0 -0.40625 0.03125 -0.703125q0.03125 -0.3125 0.078125 -0.5q0.046875 -0.203125 0.125 -0.3125q0.09375 -0.125 0.203125 -0.1875l11.96875 -5.9375q0.453125 -0.21875 0.640625 0.09375q0.1875 0.296875 0.1875 1.234375q0 0.640625 -0.03125 1.015625q-0.015625 0.375 -0.078125 0.59375q-0.0625 0.21875 -0.171875 0.3125q-0.109375 0.09375 -0.296875 0.1875l-9.0 4.21875l8.828125 4.09375q0.234375 0.109375 0.375 0.21875q0.15625 0.109375 0.234375 0.34375q0.078125 0.21875 0.109375 0.609375q0.03125 0.375 0.03125 1.03125zm5.578125 6.765625q-0.078125 0.203125 -0.203125 0.328125q-0.125 0.125 -0.359375 0.203125q-0.21875 0.078125 -0.5625 0.109375q-0.328125 0.046875 -0.84375 0.046875q-0.640625 0 -1.046875 -0.0625q-0.40625 -0.0625 -0.625 -0.1875q-0.203125 -0.125 -0.234375 -0.328125q-0.03125 -0.1875 0.0625 -0.453125l9.34375 -26.234375q0.0625 -0.203125 0.1875 -0.328125q0.125 -0.140625 0.34375 -0.21875q0.21875 -0.078125 0.5625 -0.109375q0.359375 -0.046875 0.859375 -0.046875q0.65625 0 1.046875 0.0625q0.40625 0.0625 0.609375 0.1875q0.203125 0.125 0.234375 0.328125q0.03125 0.1875 -0.046875 0.453125l-9.328125 26.25zm20.734371 -8.515625q0 1.1875 -0.453125 2.09375q-0.4375 0.90625 -1.25 1.515625q-0.8125 0.609375 -1.921875 0.90625q-1.109375 0.3125 -2.4062462 0.3125q-0.78125 0 -1.5 -0.125q-0.703125 -0.109375 -1.265625 -0.28125q-0.5625 -0.1875 -0.9375 -0.375q-0.375 -0.1875 -0.546875 -0.34375q-0.171875 -0.171875 -0.265625 -0.515625q-0.09375 -0.359375 -0.09375 -1.046875q0 -0.453125 0.03125 -0.71875q0.03125 -0.28125 0.09375 -0.4375q0.0625 -0.171875 0.15625 -0.21875q0.09375 -0.0625 0.234375 -0.0625q0.171875 0 0.5 0.203125q0.34375 0.1875 0.84375 0.421875q0.5 0.234375 1.15625 0.4375q0.671875 0.203125 1.515625 0.203125q0.53125 0 0.9374962 -0.109375q0.421875 -0.109375 0.71875 -0.3125q0.3125 -0.203125 0.46875 -0.515625q0.15625 -0.3125 0.15625 -0.71875q0 -0.46875 -0.296875 -0.796875q-0.28125 -0.34375 -0.765625 -0.59375q-0.4687462 -0.25 -1.0781212 -0.46875q-0.59375 -0.21875 -1.234375 -0.484375q-0.625 -0.265625 -1.234375 -0.609375q-0.59375 -0.34375 -1.078125 -0.84375q-0.46875 -0.5 -0.765625 -1.203125q-0.28125 -0.703125 -0.28125 -1.6875q0 -1.0 0.390625 -1.828125q0.390625 -0.84375 1.125 -1.4375q0.734375 -0.59375 1.78125 -0.921875q1.0625 -0.328125 2.3749962 -0.328125q0.65625 0 1.265625 0.09375q0.625 0.09375 1.125 0.234375q0.5 0.140625 0.84375 0.3125q0.34375 0.15625 0.484375 0.28125q0.15625 0.109375 0.21875 0.234375q0.0625 0.109375 0.09375 0.28125q0.03125 0.15625 0.046875 0.40625q0.03125 0.234375 0.03125 0.59375q0 0.421875 -0.03125 0.6875q-0.015625 0.265625 -0.078125 0.421875q-0.046875 0.15625 -0.140625 0.21875q-0.09375 0.046875 -0.21875 0.046875q-0.140625 0 -0.4375 -0.15625q-0.296875 -0.171875 -0.75 -0.359375q-0.4375 -0.1875 -1.03125 -0.34375q-0.578125 -0.171875 -1.328125 -0.171875q-0.5312462 0 -0.9218712 0.109375q-0.390625 0.109375 -0.640625 0.3125q-0.25 0.203125 -0.375 0.484375q-0.125 0.265625 -0.125 0.578125q0 0.484375 0.296875 0.8125q0.296875 0.328125 0.78125 0.578125q0.484375 0.25 1.0937462 0.46875q0.625 0.21875 1.25 0.484375q0.640625 0.25 1.25 0.59375q0.625 0.34375 1.109375 0.84375q0.484375 0.5 0.78125 1.203125q0.296875 0.6875 0.296875 1.640625zm15.828125 -4.515625q0 0.40625 -0.03125 0.703125q-0.03125 0.296875 -0.09375 0.5q-0.046875 0.203125 -0.140625 0.328125q-0.078125 0.109375 -0.1875 0.15625l-11.984375 5.9375q-0.21875 0.109375 -0.375 0.09375q-0.15625 -0.015625 -0.265625 -0.171875q-0.09375 -0.15625 -0.140625 -0.453125q-0.03125 -0.3125 -0.03125 -0.78125q0 -0.640625 0.015625 -1.015625q0.03125 -0.375 0.09375 -0.59375q0.0625 -0.21875 0.171875 -0.3125q0.109375 -0.109375 0.296875 -0.1875l9.0 -4.21875l-8.828125 -4.09375q-0.25 -0.109375 -0.40625 -0.21875q-0.140625 -0.109375 -0.21875 -0.328125q-0.078125 -0.234375 -0.109375 -0.609375q-0.015625 -0.390625 -0.015625 -1.046875q0 -0.578125 0.03125 -0.90625q0.046875 -0.328125 0.140625 -0.46875q0.109375 -0.140625 0.265625 -0.125q0.15625 0.015625 0.375 0.125l12.0 5.984375q0.203125 0.09375 0.3125 0.5q0.125 0.40625 0.125 1.203125z" fill-rule="nonzero"/><path fill="#e7e6e6" d="m180.42783 208.73509l0 0c0 -5.073578 4.1129456 -9.186539 9.186523 -9.186539l90.6033 0c2.436432 0 4.7730713 0.967865 6.49588 2.6906738c1.7228088 1.7228088 2.6906738 4.0594482 2.6906738 6.495865l0 36.74504c0 5.073578 -4.1129456 9.186539 -9.186554 9.186539l-90.6033 0c-5.073578 0 -9.186523 -4.112961 -9.186523 -9.186539z" fill-rule="evenodd"/><path stroke="#44546a" stroke-width="1.0" stroke-linejoin="round" stroke-linecap="butt" d="m180.42783 208.73509l0 0c0 -5.073578 4.1129456 -9.186539 9.186523 -9.186539l90.6033 0c2.436432 0 4.7730713 0.967865 6.49588 2.6906738c1.7228088 1.7228088 2.6906738 4.0594482 2.6906738 6.495865l0 36.74504c0 5.073578 -4.1129456 9.186539 -9.186554 9.186539l-90.6033 0c-5.073578 0 -9.186523 -4.112961 -9.186523 -9.186539z" fill-rule="evenodd"/><path fill="#000000" d="m220.68945 236.92136q0 0.6875 -0.09375 1.0625q-0.078125 0.359375 -0.21875 0.515625q-0.140625 0.140625 -0.421875 0.265625q-0.265625 0.109375 -0.640625 0.1875q-0.359375 0.09375 -0.796875 0.140625q-0.421875 0.046875 -0.859375 0.046875q-1.171875 0 -2.03125 -0.296875q-0.859375 -0.296875 -1.421875 -0.90625q-0.5625 -0.625 -0.828125 -1.5625q-0.265625 -0.9375 -0.265625 -2.21875l0 -7.140625l-1.671875 0q-0.296875 0 -0.453125 -0.359375q-0.15625 -0.375 -0.15625 -1.234375q0 -0.453125 0.03125 -0.765625q0.046875 -0.3125 0.125 -0.484375q0.078125 -0.1875 0.1875 -0.265625q0.125 -0.078125 0.28125 -0.078125l1.65625 0l0 -3.109375q0 -0.15625 0.078125 -0.28125q0.09375 -0.125 0.3125 -0.203125q0.234375 -0.09375 0.609375 -0.125q0.390625 -0.046875 0.953125 -0.046875q0.578125 0 0.953125 0.046875q0.390625 0.03125 0.609375 0.125q0.21875 0.078125 0.3125 0.203125q0.09375 0.125 0.09375 0.28125l0 3.109375l3.03125 0q0.15625 0 0.265625 0.078125q0.125 0.078125 0.203125 0.265625q0.078125 0.171875 0.109375 0.484375q0.046875 0.3125 0.046875 0.765625q0 0.859375 -0.15625 1.234375q-0.15625 0.359375 -0.453125 0.359375l-3.046875 0l0 6.546875q0 1.140625 0.359375 1.71875q0.359375 0.5625 1.28125 0.5625q0.3125 0 0.5625 -0.046875q0.25 -0.0625 0.4375 -0.125q0.203125 -0.078125 0.328125 -0.125q0.140625 -0.0625 0.25 -0.0625q0.09375 0 0.171875 0.0625q0.09375 0.046875 0.140625 0.21875q0.046875 0.15625 0.078125 0.4375q0.046875 0.28125 0.046875 0.71875zm16.15625 1.375q0 0.15625 -0.09375 0.28125q-0.09375 0.109375 -0.3125 0.1875q-0.21875 0.078125 -0.609375 0.109375q-0.375 0.046875 -0.9375 0.046875q-0.578125 0 -0.96875 -0.046875q-0.375 -0.03125 -0.59375 -0.109375q-0.21875 -0.078125 -0.3125 -0.1875q-0.09375 -0.125 -0.09375 -0.28125l0 -7.953125q0 -1.015625 -0.15625 -1.59375q-0.140625 -0.578125 -0.421875 -0.984375q-0.28125 -0.421875 -0.734375 -0.640625q-0.4375 -0.234375 -1.03125 -0.234375q-0.75 0 -1.515625 0.546875q-0.765625 0.546875 -1.59375 1.59375l0 9.265625q0 0.15625 -0.09375 0.28125q-0.09375 0.109375 -0.328125 0.1875q-0.21875 0.078125 -0.59375 0.109375q-0.375 0.046875 -0.953125 0.046875q-0.578125 0 -0.953125 -0.046875q-0.375 -0.03125 -0.609375 -0.109375q-0.21875 -0.078125 -0.3125 -0.1875q-0.09375 -0.125 -0.09375 -0.28125l0 -20.546875q0 -0.15625 0.09375 -0.28125q0.09375 -0.125 0.3125 -0.203125q0.234375 -0.09375 0.609375 -0.140625q0.375 -0.046875 0.953125 -0.046875q0.578125 0 0.953125 0.046875q0.375 0.046875 0.59375 0.140625q0.234375 0.078125 0.328125 0.203125q0.09375 0.125 0.09375 0.28125l0 7.703125q1.015625 -1.0 2.0625 -1.484375q1.0625 -0.5 2.203125 -0.5q1.421875 0 2.390625 0.46875q0.984375 0.46875 1.578125 1.28125q0.609375 0.8125 0.875 1.90625q0.265625 1.078125 0.265625 2.625l0 8.546875zm7.796875 0q0 0.15625 -0.09375 0.28125q-0.09375 0.109375 -0.328125 0.1875q-0.21875 0.078125 -0.59375 0.109375q-0.375 0.046875 -0.953125 0.046875q-0.578125 0 -0.953125 -0.046875q-0.375 -0.03125 -0.609375 -0.109375q-0.21875 -0.078125 -0.3125 -0.1875q-0.09375 -0.125 -0.09375 -0.28125l0 -13.90625q0 -0.15625 0.09375 -0.265625q0.09375 -0.125 0.3125 -0.203125q0.234375 -0.09375 0.609375 -0.140625q0.375 -0.046875 0.953125 -0.046875q0.578125 0 0.953125 0.046875q0.375 0.046875 0.59375 0.140625q0.234375 0.078125 0.328125 0.203125q0.09375 0.109375 0.09375 0.265625l0 13.90625zm0.296875 -18.65625q0 1.1875 -0.484375 1.640625q-0.484375 0.453125 -1.796875 0.453125q-1.328125 0 -1.796875 -0.4375q-0.453125 -0.4375 -0.453125 -1.578125q0 -1.1875 0.46875 -1.640625q0.484375 -0.46875 1.8125 -0.46875q1.3125 0 1.78125 0.453125q0.46875 0.4375 0.46875 1.578125zm13.4375 14.71875q0 1.1875 -0.453125 2.09375q-0.4375 0.90625 -1.25 1.515625q-0.8125 0.609375 -1.921875 0.90625q-1.109375 0.3125 -2.40625 0.3125q-0.78125 0 -1.5 -0.125q-0.703125 -0.109375 -1.265625 -0.28125q-0.5625 -0.1875 -0.9375 -0.375q-0.375 -0.1875 -0.546875 -0.34375q-0.171875 -0.171875 -0.265625 -0.515625q-0.09375 -0.359375 -0.09375 -1.046875q0 -0.453125 0.03125 -0.71875q0.03125 -0.28125 0.09375 -0.4375q0.0625 -0.171875 0.15625 -0.21875q0.09375 -0.0625 0.234375 -0.0625q0.171875 0 0.5 0.203125q0.34375 0.1875 0.84375 0.421875q0.5 0.234375 1.15625 0.4375q0.671875 0.203125 1.515625 0.203125q0.53125 0 0.9375 -0.109375q0.421875 -0.109375 0.71875 -0.3125q0.3125 -0.203125 0.46875 -0.515625q0.15625 -0.3125 0.15625 -0.71875q0 -0.46875 -0.296875 -0.796875q-0.28125 -0.34375 -0.765625 -0.59375q-0.46875 -0.25 -1.078125 -0.46875q-0.59375 -0.21875 -1.234375 -0.484375q-0.625 -0.265625 -1.234375 -0.609375q-0.59375 -0.34375 -1.078125 -0.84375q-0.46875 -0.5 -0.765625 -1.203125q-0.28125 -0.703125 -0.28125 -1.6875q0 -1.0 0.390625 -1.828125q0.390625 -0.84375 1.125 -1.4375q0.734375 -0.59375 1.78125 -0.921875q1.0625 -0.328125 2.375 -0.328125q0.65625 0 1.265625 0.09375q0.625 0.09375 1.125 0.234375q0.5 0.140625 0.84375 0.3125q0.34375 0.15625 0.484375 0.28125q0.15625 0.109375 0.21875 0.234375q0.0625 0.109375 0.09375 0.28125q0.03125 0.15625 0.046875 0.40625q0.03125 0.234375 0.03125 0.59375q0 0.421875 -0.03125 0.6875q-0.015625 0.265625 -0.078125 0.421875q-0.046875 0.15625 -0.140625 0.21875q-0.09375 0.046875 -0.21875 0.046875q-0.140625 0 -0.4375 -0.15625q-0.296875 -0.171875 -0.75 -0.359375q-0.4375 -0.1875 -1.03125 -0.34375q-0.578125 -0.171875 -1.328125 -0.171875q-0.53125 0 -0.921875 0.109375q-0.390625 0.109375 -0.640625 0.3125q-0.25 0.203125 -0.375 0.484375q-0.125 0.265625 -0.125 0.578125q0 0.484375 0.296875 0.8125q0.296875 0.328125 0.78125 0.578125q0.484375 0.25 1.09375 0.46875q0.625 0.21875 1.25 0.484375q0.640625 0.25 1.25 0.59375q0.625 0.34375 1.109375 0.84375q0.484375 0.5 0.78125 1.203125q0.296875 0.6875 0.296875 1.640625z" fill-rule="nonzero"/><path fill="#e7e6e6" d="m351.13123 208.73509l0 0c0 -5.073578 4.1129456 -9.186539 9.186554 -9.186539l90.6033 0c2.4364014 0 4.773041 0.967865 6.4958496 2.6906738c1.7228088 1.7228088 2.6906738 4.0594482 2.6906738 6.495865l0 36.74504c0 5.073578 -4.1129456 9.186539 -9.186523 9.186539l-90.6033 0c-5.0736084 0 -9.186554 -4.112961 -9.186554 -9.186539z" fill-rule="evenodd"/><path stroke="#44546a" stroke-width="1.0" stroke-linejoin="round" stroke-linecap="butt" d="m351.13123 208.73509l0 0c0 -5.073578 4.1129456 -9.186539 9.186554 -9.186539l90.6033 0c2.4364014 0 4.773041 0.967865 6.4958496 2.6906738c1.7228088 1.7228088 2.6906738 4.0594482 2.6906738 6.495865l0 36.74504c0 5.073578 -4.1129456 9.186539 -9.186523 9.186539l-90.6033 0c-5.0736084 0 -9.186554 -4.112961 -9.186554 -9.186539z" fill-rule="evenodd"/><path fill="#000000" d="m401.21317 238.29636q0 0.15625 -0.09375 0.28125q-0.09375 0.109375 -0.328125 0.1875q-0.21875 0.078125 -0.59375 0.109375q-0.375 0.046875 -0.953125 0.046875q-0.578125 0 -0.953125 -0.046875q-0.375 -0.03125 -0.609375 -0.109375q-0.21875 -0.078125 -0.3125 -0.1875q-0.09375 -0.125 -0.09375 -0.28125l0 -13.90625q0 -0.15625 0.09375 -0.265625q0.09375 -0.125 0.3125 -0.203125q0.234375 -0.09375 0.609375 -0.140625q0.375 -0.046875 0.953125 -0.046875q0.578125 0 0.953125 0.046875q0.375 0.046875 0.59375 0.140625q0.234375 0.078125 0.328125 0.203125q0.09375 0.109375 0.09375 0.265625l0 13.90625zm0.296875 -18.65625q0 1.1875 -0.484375 1.640625q-0.484375 0.453125 -1.796875 0.453125q-1.328125 0 -1.796875 -0.4375q-0.453125 -0.4375 -0.453125 -1.578125q0 -1.1875 0.46875 -1.640625q0.484375 -0.46875 1.8125 -0.46875q1.3125 0 1.78125 0.453125q0.46875 0.4375 0.46875 1.578125zm13.4375 14.71875q0 1.1875 -0.453125 2.09375q-0.4375 0.90625 -1.25 1.515625q-0.8125 0.609375 -1.921875 0.90625q-1.109375 0.3125 -2.40625 0.3125q-0.78125 0 -1.5 -0.125q-0.703125 -0.109375 -1.265625 -0.28125q-0.5625 -0.1875 -0.9375 -0.375q-0.375 -0.1875 -0.546875 -0.34375q-0.171875 -0.171875 -0.265625 -0.515625q-0.09375 -0.359375 -0.09375 -1.046875q0 -0.453125 0.03125 -0.71875q0.03125 -0.28125 0.09375 -0.4375q0.0625 -0.171875 0.15625 -0.21875q0.09375 -0.0625 0.234375 -0.0625q0.171875 0 0.5 0.203125q0.34375 0.1875 0.84375 0.421875q0.5 0.234375 1.15625 0.4375q0.671875 0.203125 1.515625 0.203125q0.53125 0 0.9375 -0.109375q0.421875 -0.109375 0.71875 -0.3125q0.3125 -0.203125 0.46875 -0.515625q0.15625 -0.3125 0.15625 -0.71875q0 -0.46875 -0.296875 -0.796875q-0.28125 -0.34375 -0.765625 -0.59375q-0.46875 -0.25 -1.078125 -0.46875q-0.59375 -0.21875 -1.234375 -0.484375q-0.625 -0.265625 -1.234375 -0.609375q-0.59375 -0.34375 -1.078125 -0.84375q-0.46875 -0.5 -0.765625 -1.203125q-0.28125 -0.703125 -0.28125 -1.6875q0 -1.0 0.390625 -1.828125q0.390625 -0.84375 1.125 -1.4375q0.734375 -0.59375 1.78125 -0.921875q1.0625 -0.328125 2.375 -0.328125q0.65625 0 1.265625 0.09375q0.625 0.09375 1.125 0.234375q0.5 0.140625 0.84375 0.3125q0.34375 0.15625 0.484375 0.28125q0.15625 0.109375 0.21875 0.234375q0.0625 0.109375 0.09375 0.28125q0.03125 0.15625 0.046875 0.40625q0.03125 0.234375 0.03125 0.59375q0 0.421875 -0.03125 0.6875q-0.015625 0.265625 -0.078125 0.421875q-0.046875 0.15625 -0.140625 0.21875q-0.09375 0.046875 -0.21875 0.046875q-0.140625 0 -0.4375 -0.15625q-0.296875 -0.171875 -0.75 -0.359375q-0.4375 -0.1875 -1.03125 -0.34375q-0.578125 -0.171875 -1.328125 -0.171875q-0.53125 0 -0.921875 0.109375q-0.390625 0.109375 -0.640625 0.3125q-0.25 0.203125 -0.375 0.484375q-0.125 0.265625 -0.125 0.578125q0 0.484375 0.296875 0.8125q0.296875 0.328125 0.78125 0.578125q0.484375 0.25 1.09375 0.46875q0.625 0.21875 1.25 0.484375q0.640625 0.25 1.25 0.59375q0.625 0.34375 1.109375 0.84375q0.484375 0.5 0.78125 1.203125q0.296875 0.6875 0.296875 1.640625z" fill-rule="nonzero"/><path fill="#000000" fill-opacity="0.0" d="m57.401573 199.54855l0 -38.89763" fill-rule="evenodd"/><path stroke="#44546a" stroke-width="3.0" stroke-linejoin="round" stroke-linecap="butt" d="m57.401573 199.54855l0 -20.897629" fill-rule="evenodd"/><path fill="#44546a" stroke="#44546a" stroke-width="3.0" stroke-linecap="butt" d="m62.356773 178.65092l-4.9552 -13.614304l-4.9551964 13.614304z" fill-rule="evenodd"/><path fill="#000000" fill-opacity="0.0" d="m234.91602 199.54855l0 -38.89763" fill-rule="evenodd"/><path stroke="#44546a" stroke-width="3.0" stroke-linejoin="round" stroke-linecap="butt" d="m234.91602 199.54855l0 -20.897629" fill-rule="evenodd"/><path fill="#44546a" stroke="#44546a" stroke-width="3.0" stroke-linecap="butt" d="m239.8712 178.65092l-4.955185 -13.614304l-4.9552 13.614304z" fill-rule="evenodd"/><path fill="#000000" fill-opacity="0.0" d="m405.61942 199.54855l0 -38.89763" fill-rule="evenodd"/><path stroke="#44546a" stroke-width="3.0" stroke-linejoin="round" stroke-linecap="butt" d="m405.61942 199.54855l0 -20.897629" fill-rule="evenodd"/><path fill="#44546a" stroke="#44546a" stroke-width="3.0" stroke-linecap="butt" d="m410.57462 178.65092l-4.9552 -13.614304l-4.9552 13.614304z" fill-rule="evenodd"/><path fill="#e7e6e6" d="m2.9133859 9.186536l0 0c0 -5.0735836 4.1129518 -9.186536 9.186535 -9.186536l90.60331 0c2.4364166 0 4.7730484 0.96786433 6.4958572 2.6906738c1.7228088 1.7228098 2.6906738 4.059441 2.6906738 6.495862l0 36.74504c0 5.0735817 -4.112953 9.186535 -9.186531 9.186535l-90.60331 0c-5.0735836 0 -9.186535 -4.112953 -9.186535 -9.186535z" fill-rule="evenodd"/><path stroke="#44546a" stroke-width="1.0" stroke-linejoin="round" stroke-linecap="butt" d="m2.9133859 9.186536l0 0c0 -5.0735836 4.1129518 -9.186536 9.186535 -9.186536l90.60331 0c2.4364166 0 4.7730484 0.96786433 6.4958572 2.6906738c1.7228088 1.7228098 2.6906738 4.059441 2.6906738 6.495862l0 36.74504c0 5.0735817 -4.112953 9.186535 -9.186531 9.186535l-90.60331 0c-5.0735836 0 -9.186535 -4.112953 -9.186535 -9.186535z" fill-rule="evenodd"/><path fill="#000000" d="m43.175014 37.372803q0 0.6875 -0.09375 1.0625q-0.078125 0.359375 -0.21875 0.515625q-0.140625 0.140625 -0.421875 0.265625q-0.265625 0.109375 -0.640625 0.1875q-0.359375 0.09375 -0.796875 0.140625q-0.421875 0.046875 -0.859375 0.046875q-1.171875 0 -2.03125 -0.296875q-0.859375 -0.296875 -1.421875 -0.90625q-0.5625 -0.625 -0.828125 -1.5625q-0.265625 -0.9375 -0.265625 -2.21875l0 -7.140623l-1.671875 0q-0.296875 0 -0.453125 -0.359375q-0.15625 -0.375 -0.15625 -1.234375q0 -0.453125 0.03125 -0.765625q0.046875 -0.3125 0.125 -0.484375q0.078125 -0.1875 0.1875 -0.265625q0.125 -0.078125 0.28125 -0.078125l1.65625 0l0 -3.109375q0 -0.15625 0.078125 -0.28125q0.09375 -0.125 0.3125 -0.203125q0.234375 -0.09375 0.609375 -0.125q0.390625 -0.046875 0.953125 -0.046875q0.578125 0 0.953125 0.046875q0.390625 0.03125 0.609375 0.125q0.21875 0.078125 0.3125 0.203125q0.09375 0.125 0.09375 0.28125l0 3.109375l3.03125 0q0.15625 0 0.265625 0.078125q0.125 0.078125 0.203125 0.265625q0.078125 0.171875 0.109375 0.484375q0.046875 0.3125 0.046875 0.765625q0 0.859375 -0.15625 1.234375q-0.15625 0.359375 -0.453125 0.359375l-3.046875 0l0 6.546873q0 1.140625 0.359375 1.71875q0.359375 0.5625 1.28125 0.5625q0.3125 0 0.5625 -0.046875q0.25 -0.0625 0.4375 -0.125q0.203125 -0.078125 0.328125 -0.125q0.140625 -0.0625 0.25 -0.0625q0.09375 0 0.171875 0.0625q0.09375 0.046875 0.140625 0.21875q0.046875 0.15625 0.078125 0.4375q0.046875 0.28125 0.046875 0.71875zm16.15625 1.375q0 0.15625 -0.09375 0.28125q-0.09375 0.109375 -0.3125 0.1875q-0.21875 0.078125 -0.609375 0.109375q-0.375 0.046875 -0.9375 0.046875q-0.578125 0 -0.96875 -0.046875q-0.375 -0.03125 -0.59375 -0.109375q-0.21875 -0.078125 -0.3125 -0.1875q-0.09375 -0.125 -0.09375 -0.28125l0 -7.953123q0 -1.015625 -0.15625 -1.59375q-0.140625 -0.578125 -0.421875 -0.984375q-0.28125 -0.421875 -0.734375 -0.640625q-0.4375 -0.234375 -1.03125 -0.234375q-0.75 0 -1.515625 0.546875q-0.765625 0.546875 -1.59375 1.59375l0 9.265623q0 0.15625 -0.09375 0.28125q-0.09375 0.109375 -0.328125 0.1875q-0.21875 0.078125 -0.59375 0.109375q-0.375 0.046875 -0.953125 0.046875q-0.578125 0 -0.953125 -0.046875q-0.375 -0.03125 -0.609375 -0.109375q-0.21875 -0.078125 -0.3125 -0.1875q-0.09375 -0.125 -0.09375 -0.28125l0 -20.546873q0 -0.15625 0.09375 -0.28125q0.09375 -0.125 0.3125 -0.203125q0.234375 -0.09375 0.609375 -0.140625q0.375 -0.046875 0.953125 -0.046875q0.578125 0 0.953125 0.046875q0.375 0.046875 0.59375 0.140625q0.234375 0.078125 0.328125 0.203125q0.09375 0.125 0.09375 0.28125l0 7.703125q1.015625 -1.0 2.0625 -1.484375q1.0625 -0.5 2.203125 -0.5q1.421875 0 2.390625 0.46875q0.984375 0.46875 1.578125 1.28125q0.609375 0.8125 0.875 1.90625q0.265625 1.078125 0.265625 2.625l0 8.546873zm7.796871 0q0 0.15625 -0.09375 0.28125q-0.09375 0.109375 -0.328125 0.1875q-0.21875 0.078125 -0.59375 0.109375q-0.375 0.046875 -0.953125 0.046875q-0.578125 0 -0.953125 -0.046875q-0.3749962 -0.03125 -0.6093712 -0.109375q-0.21875 -0.078125 -0.3125 -0.1875q-0.09375 -0.125 -0.09375 -0.28125l0 -13.906248q0 -0.15625 0.09375 -0.265625q0.09375 -0.125 0.3125 -0.203125q0.234375 -0.09375 0.6093712 -0.140625q0.375 -0.046875 0.953125 -0.046875q0.578125 0 0.953125 0.046875q0.375 0.046875 0.59375 0.140625q0.234375 0.078125 0.328125 0.203125q0.09375 0.109375 0.09375 0.265625l0 13.906248zm0.296875 -18.656248q0 1.1875 -0.484375 1.640625q-0.484375 0.453125 -1.796875 0.453125q-1.3281212 0 -1.7968712 -0.4375q-0.453125 -0.4375 -0.453125 -1.578125q0 -1.1875 0.46875 -1.640625q0.484375 -0.46875 1.8124962 -0.46875q1.3125 0 1.78125 0.453125q0.46875 0.4375 0.46875 1.578125zm13.4375 14.718748q0 1.1875 -0.453125 2.09375q-0.4375 0.90625 -1.25 1.515625q-0.8125 0.609375 -1.921875 0.90625q-1.109375 0.3125 -2.40625 0.3125q-0.78125 0 -1.5 -0.125q-0.703125 -0.109375 -1.265625 -0.28125q-0.5625 -0.1875 -0.9375 -0.375q-0.375 -0.1875 -0.546875 -0.34375q-0.171875 -0.171875 -0.265625 -0.515625q-0.09375 -0.359375 -0.09375 -1.046875q0 -0.453125 0.03125 -0.71875q0.03125 -0.28125 0.09375 -0.4375q0.0625 -0.171875 0.15625 -0.21875q0.09375 -0.0625 0.234375 -0.0625q0.171875 0 0.5 0.203125q0.34375 0.1875 0.84375 0.421875q0.5 0.234375 1.15625 0.4375q0.671875 0.203125 1.515625 0.203125q0.53125 0 0.9375 -0.109375q0.421875 -0.109375 0.71875 -0.3125q0.3125 -0.203125 0.46875 -0.515625q0.15625 -0.3125 0.15625 -0.71875q0 -0.46875 -0.296875 -0.796875q-0.28125 -0.34375 -0.765625 -0.59375q-0.46875 -0.25 -1.078125 -0.46875q-0.59375 -0.21875 -1.234375 -0.484375q-0.625 -0.265625 -1.234375 -0.609375q-0.59375 -0.3437481 -1.078125 -0.8437481q-0.46875 -0.5 -0.765625 -1.203125q-0.28125 -0.703125 -0.28125 -1.6875q0 -1.0 0.390625 -1.828125q0.390625 -0.84375 1.125 -1.4375q0.734375 -0.59375 1.78125 -0.921875q1.0625 -0.328125 2.375 -0.328125q0.65625 0 1.265625 0.09375q0.625 0.09375 1.125 0.234375q0.5 0.140625 0.84375 0.3125q0.34375 0.15625 0.484375 0.28125q0.15625 0.109375 0.21875 0.234375q0.0625 0.109375 0.09375 0.28125q0.03125 0.15625 0.046875 0.40625q0.03125 0.234375 0.03125 0.59375q0 0.421875 -0.03125 0.6875q-0.015625 0.265625 -0.078125 0.421875q-0.046875 0.15625 -0.140625 0.21875q-0.09375 0.046875 -0.21875 0.046875q-0.140625 0 -0.4375 -0.15625q-0.296875 -0.171875 -0.75 -0.359375q-0.4375 -0.1875 -1.03125 -0.34375q-0.578125 -0.171875 -1.328125 -0.171875q-0.53125 0 -0.921875 0.109375q-0.390625 0.109375 -0.640625 0.3125q-0.25 0.203125 -0.375 0.484375q-0.125 0.265625 -0.125 0.578125q0 0.484375 0.296875 0.8125q0.296875 0.328125 0.78125 0.578125q0.484375 0.25 1.09375 0.46875q0.625 0.21875 1.25 0.484375q0.640625 0.25 1.25 0.59375q0.625 0.34375 1.109375 0.84375q0.484375 0.4999981 0.78125 1.2031231q0.296875 0.6875 0.296875 1.640625z" fill-rule="nonzero"/><path fill="#e7e6e6" d="m180.42783 9.186536l0 0c0 -5.0735836 4.1129456 -9.186536 9.186523 -9.186536l90.6033 0c2.436432 0 4.7730713 0.96786433 6.49588 2.6906738c1.7228088 1.7228098 2.6906738 4.059441 2.6906738 6.495862l0 36.74504c0 5.0735817 -4.1129456 9.186535 -9.186554 9.186535l-90.6033 0c-5.073578 0 -9.186523 -4.112953 -9.186523 -9.186535z" fill-rule="evenodd"/><path stroke="#44546a" stroke-width="1.0" stroke-linejoin="round" stroke-linecap="butt" d="m180.42783 9.186536l0 0c0 -5.0735836 4.1129456 -9.186536 9.186523 -9.186536l90.6033 0c2.436432 0 4.7730713 0.96786433 6.49588 2.6906738c1.7228088 1.7228098 2.6906738 4.059441 2.6906738 6.495862l0 36.74504c0 5.0735817 -4.1129456 9.186535 -9.186554 9.186535l-90.6033 0c-5.073578 0 -9.186523 -4.112953 -9.186523 -9.186535z" fill-rule="evenodd"/><path fill="#000000" d="m230.50977 38.747803q0 0.15625 -0.09375 0.28125q-0.09375 0.109375 -0.328125 0.1875q-0.21875 0.078125 -0.59375 0.109375q-0.375 0.046875 -0.953125 0.046875q-0.578125 0 -0.953125 -0.046875q-0.375 -0.03125 -0.609375 -0.109375q-0.21875 -0.078125 -0.3125 -0.1875q-0.09375 -0.125 -0.09375 -0.28125l0 -13.906248q0 -0.15625 0.09375 -0.265625q0.09375 -0.125 0.3125 -0.203125q0.234375 -0.09375 0.609375 -0.140625q0.375 -0.046875 0.953125 -0.046875q0.578125 0 0.953125 0.046875q0.375 0.046875 0.59375 0.140625q0.234375 0.078125 0.328125 0.203125q0.09375 0.109375 0.09375 0.265625l0 13.906248zm0.296875 -18.656248q0 1.1875 -0.484375 1.640625q-0.484375 0.453125 -1.796875 0.453125q-1.328125 0 -1.796875 -0.4375q-0.453125 -0.4375 -0.453125 -1.578125q0 -1.1875 0.46875 -1.640625q0.484375 -0.46875 1.8125 -0.46875q1.3125 0 1.78125 0.453125q0.46875 0.4375 0.46875 1.578125zm13.4375 14.718748q0 1.1875 -0.453125 2.09375q-0.4375 0.90625 -1.25 1.515625q-0.8125 0.609375 -1.921875 0.90625q-1.109375 0.3125 -2.40625 0.3125q-0.78125 0 -1.5 -0.125q-0.703125 -0.109375 -1.265625 -0.28125q-0.5625 -0.1875 -0.9375 -0.375q-0.375 -0.1875 -0.546875 -0.34375q-0.171875 -0.171875 -0.265625 -0.515625q-0.09375 -0.359375 -0.09375 -1.046875q0 -0.453125 0.03125 -0.71875q0.03125 -0.28125 0.09375 -0.4375q0.0625 -0.171875 0.15625 -0.21875q0.09375 -0.0625 0.234375 -0.0625q0.171875 0 0.5 0.203125q0.34375 0.1875 0.84375 0.421875q0.5 0.234375 1.15625 0.4375q0.671875 0.203125 1.515625 0.203125q0.53125 0 0.9375 -0.109375q0.421875 -0.109375 0.71875 -0.3125q0.3125 -0.203125 0.46875 -0.515625q0.15625 -0.3125 0.15625 -0.71875q0 -0.46875 -0.296875 -0.796875q-0.28125 -0.34375 -0.765625 -0.59375q-0.46875 -0.25 -1.078125 -0.46875q-0.59375 -0.21875 -1.234375 -0.484375q-0.625 -0.265625 -1.234375 -0.609375q-0.59375 -0.3437481 -1.078125 -0.8437481q-0.46875 -0.5 -0.765625 -1.203125q-0.28125 -0.703125 -0.28125 -1.6875q0 -1.0 0.390625 -1.828125q0.390625 -0.84375 1.125 -1.4375q0.734375 -0.59375 1.78125 -0.921875q1.0625 -0.328125 2.375 -0.328125q0.65625 0 1.265625 0.09375q0.625 0.09375 1.125 0.234375q0.5 0.140625 0.84375 0.3125q0.34375 0.15625 0.484375 0.28125q0.15625 0.109375 0.21875 0.234375q0.0625 0.109375 0.09375 0.28125q0.03125 0.15625 0.046875 0.40625q0.03125 0.234375 0.03125 0.59375q0 0.421875 -0.03125 0.6875q-0.015625 0.265625 -0.078125 0.421875q-0.046875 0.15625 -0.140625 0.21875q-0.09375 0.046875 -0.21875 0.046875q-0.140625 0 -0.4375 -0.15625q-0.296875 -0.171875 -0.75 -0.359375q-0.4375 -0.1875 -1.03125 -0.34375q-0.578125 -0.171875 -1.328125 -0.171875q-0.53125 0 -0.921875 0.109375q-0.390625 0.109375 -0.640625 0.3125q-0.25 0.203125 -0.375 0.484375q-0.125 0.265625 -0.125 0.578125q0 0.484375 0.296875 0.8125q0.296875 0.328125 0.78125 0.578125q0.484375 0.25 1.09375 0.46875q0.625 0.21875 1.25 0.484375q0.640625 0.25 1.25 0.59375q0.625 0.34375 1.109375 0.84375q0.484375 0.4999981 0.78125 1.2031231q0.296875 0.6875 0.296875 1.640625z" fill-rule="nonzero"/><path fill="#e7e6e6" d="m351.13123 9.186536l0 0c0 -5.0735836 4.1129456 -9.186536 9.186554 -9.186536l90.6033 0c2.4364014 0 4.773041 0.96786433 6.4958496 2.6906738c1.7228088 1.7228098 2.6906738 4.059441 2.6906738 6.495862l0 36.74504c0 5.0735817 -4.1129456 9.186535 -9.186523 9.186535l-90.6033 0c-5.0736084 0 -9.186554 -4.112953 -9.186554 -9.186535z" fill-rule="evenodd"/><path stroke="#44546a" stroke-width="1.0" stroke-linejoin="round" stroke-linecap="butt" d="m351.13123 9.186536l0 0c0 -5.0735836 4.1129456 -9.186536 9.186554 -9.186536l90.6033 0c2.4364014 0 4.773041 0.96786433 6.4958496 2.6906738c1.7228088 1.7228098 2.6906738 4.059441 2.6906738 6.495862l0 36.74504c0 5.0735817 -4.1129456 9.186535 -9.186523 9.186535l-90.6033 0c-5.0736084 0 -9.186554 -4.112953 -9.186554 -9.186535z" fill-rule="evenodd"/><path fill="#000000" d="m411.56473 38.794678q0 0.21875 -0.15625 0.34375q-0.15625 0.125 -0.5 0.171875q-0.328125 0.0625 -0.984375 0.0625q-0.703125 0 -1.03125 -0.0625q-0.3125 -0.046875 -0.453125 -0.171875q-0.125 -0.125 -0.125 -0.34375l0 -1.109375q-0.859375 0.921875 -1.96875 1.4375q-1.09375 0.515625 -2.4375 0.515625q-1.109375 0 -2.046875 -0.296875q-0.921875 -0.28125 -1.609375 -0.84375q-0.671875 -0.578125 -1.046875 -1.421875q-0.375 -0.84375 -0.375 -1.96875q0 -1.21875 0.46875 -2.109375q0.484375 -0.90625 1.421875 -1.4843731q0.953125 -0.59375 2.359375 -0.875q1.40625 -0.28125 3.265625 -0.28125l1.359375 0l0 -0.84375q0 -0.65625 -0.140625 -1.140625q-0.125 -0.5 -0.4375 -0.828125q-0.296875 -0.328125 -0.8125 -0.484375q-0.5 -0.15625 -1.25 -0.15625q-0.984375 0 -1.765625 0.21875q-0.765625 0.21875 -1.359375 0.484375q-0.59375 0.265625 -1.0 0.484375q-0.390625 0.21875 -0.640625 0.21875q-0.171875 0 -0.3125 -0.109375q-0.125 -0.109375 -0.21875 -0.3125q-0.078125 -0.203125 -0.125 -0.5q-0.046875 -0.296875 -0.046875 -0.65625q0 -0.484375 0.078125 -0.765625q0.078125 -0.28125 0.296875 -0.5q0.21875 -0.234375 0.765625 -0.5q0.546875 -0.28125 1.28125 -0.515625q0.734375 -0.234375 1.59375 -0.375q0.875 -0.15625 1.796875 -0.15625q1.640625 0 2.796875 0.328125q1.171875 0.3125 1.921875 0.984375q0.75 0.65625 1.09375 1.703125q0.34375 1.046875 0.34375 2.484375l0 9.374998zm-3.859375 -5.96875l-1.5 0q-0.953125 0 -1.625 0.140625q-0.671875 0.140625 -1.09375 0.421875q-0.421875 0.28125 -0.625 0.6875q-0.1875 0.390625 -0.1875 0.90625q0 0.875 0.546875 1.375q0.5625 0.5 1.546875 0.5q0.828125 0 1.515625 -0.421875q0.703125 -0.421875 1.421875 -1.234375l0 -2.375z" fill-rule="nonzero"/><path fill="#000000" fill-opacity="0.0" d="m57.401573 94.46719l0 -39.338585" fill-rule="evenodd"/><path stroke="#44546a" stroke-width="3.0" stroke-linejoin="round" stroke-linecap="butt" d="m57.401573 94.46719l0 -21.338585" fill-rule="evenodd"/><path fill="#44546a" stroke="#44546a" stroke-width="3.0" stroke-linecap="butt" d="m62.356773 73.12861l-4.9552 -13.614292l-4.9551964 13.614292z" fill-rule="evenodd"/><path fill="#000000" fill-opacity="0.0" d="m234.91602 94.46719l0 -39.338585" fill-rule="evenodd"/><path stroke="#44546a" stroke-width="3.0" stroke-linejoin="round" stroke-linecap="butt" d="m234.91602 94.46719l0 -21.338585" fill-rule="evenodd"/><path fill="#44546a" stroke="#44546a" stroke-width="3.0" stroke-linecap="butt" d="m239.8712 73.12861l-4.955185 -13.614292l-4.9552 13.614292z" fill-rule="evenodd"/><path fill="#000000" fill-opacity="0.0" d="m405.61942 94.46719l0 -39.338585" fill-rule="evenodd"/><path stroke="#44546a" stroke-width="3.0" stroke-linejoin="round" stroke-linecap="butt" d="m405.61942 94.46719l0 -21.338585" fill-rule="evenodd"/><path fill="#44546a" stroke="#44546a" stroke-width="3.0" stroke-linecap="butt" d="m410.57462 73.12861l-4.9552 -13.614292l-4.9552 13.614292z" fill-rule="evenodd"/></g></svg>