<svg version="1.1" viewBox="0.0 0.0 566.6036745406824 344.1076115485564" fill="none" stroke="none" stroke-linecap="square" stroke-miterlimit="10" xmlns:xlink="http://www.w3.org/1999/xlink" xmlns="http://www.w3.org/2000/svg"><clipPath id="p.0"><path d="m0 0l566.6037 0l0 344.1076l-566.6037 0l0 -344.1076z" clip-rule="nonzero"/></clipPath><g clip-path="url(#p.0)"><path fill="#000000" fill-opacity="0.0" d="m0 0l566.6037 0l0 344.1076l-566.6037 0z" fill-rule="evenodd"/><path fill="#b0dd46" fill-opacity="0.8039" d="m52.0 94.46719l114.80315 0l0 66.17323l-114.80315 0z" fill-rule="evenodd"/><path stroke="#44546a" stroke-width="1.0" stroke-linejoin="round" stroke-linecap="butt" d="m52.0 94.46719l114.80315 0l0 66.17323l-114.80315 0z" fill-rule="evenodd"/><path fill="#000000" d="m110.691956 138.74255q0 0.15625 -0.09375 0.28125q-0.09375 0.109375 -0.3125 0.1875q-0.21875 0.078125 -0.609375 0.109375q-0.375 0.046875 -0.9375 0.046875q-0.578125 0 -0.96875 -0.046875q-0.375 -0.03125 -0.59375 -0.109375q-0.21875 -0.078125 -0.3125 -0.1875q-0.09375 -0.125 -0.09375 -0.28125l0 -7.953125q0 -1.015625 -0.15625 -1.59375q-0.140625 -0.578125 -0.421875 -0.984375q-0.28125 -0.421875 -0.734375 -0.640625q-0.4375 -0.234375 -1.03125 -0.234375q-0.75 0 -1.515625 0.546875q-0.765625 0.546875 -1.59375 1.59375l0 9.265625q0 0.15625 -0.09375 0.28125q-0.09375 0.109375 -0.328125 0.1875q-0.21875 0.078125 -0.59375 0.109375q-0.375 0.046875 -0.953125 0.046875q-0.578125 0 -0.953125 -0.046875q-0.375 -0.03125 -0.609375 -0.109375q-0.21875 -0.078125 -0.3125 -0.1875q-0.09375 -0.125 -0.09375 -0.28125l0 -20.546875q0 -0.15625 0.09375 -0.28125q0.09375 -0.125 0.3125 -0.203125q0.234375 -0.09375 0.609375 -0.140625q0.375 -0.046875 0.953125 -0.046875q0.578125 0 0.953125 0.046875q0.375 0.046875 0.59375 0.140625q0.234375 0.078125 0.328125 0.203125q0.09375 0.125 0.09375 0.28125l0 7.703125q1.015625 -1.0 2.0625 -1.484375q1.0625 -0.5 2.203125 -0.5q1.421875 0 2.390625 0.46875q0.984375 0.46875 1.578125 1.28125q0.609375 0.8125 0.875 1.90625q0.265625 1.078125 0.265625 2.625l0 8.546875z" fill-rule="nonzero"/><path fill="#000000" d="m122.410706 150.22693q0 0.296875 -0.03125 0.5q-0.03125 0.203125 -0.09375 0.328125q-0.046875 0.109375 -0.125 0.171875q-0.0625 0.046875 -0.15625 0.046875l-7.4375 0q-0.09375 0 -0.171875 -0.046875q-0.0625 -0.0625 -0.125 -0.171875q-0.046875 -0.125 -0.078125 -0.328125q-0.03125 -0.203125 -0.03125 -0.5q0 -0.296875 0.015625 -0.5q0.03125 -0.203125 0.078125 -0.328125q0.0625 -0.125 0.140625 -0.171875q0.078125 -0.0625 0.171875 -0.0625l2.5 0l0 -8.765625l-2.15625 1.1875q-0.25 0.109375 -0.40625 0.140625q-0.140625 0.03125 -0.234375 -0.0625q-0.078125 -0.09375 -0.109375 -0.3125q-0.03125 -0.21875 -0.03125 -0.609375q0 -0.25 0 -0.40625q0.015625 -0.15625 0.046875 -0.265625q0.046875 -0.125 0.125 -0.1875q0.078125 -0.078125 0.203125 -0.171875l2.890625 -1.875q0.046875 -0.03125 0.125 -0.0625q0.078125 -0.03125 0.203125 -0.046875q0.125 -0.015625 0.328125 -0.015625q0.203125 0 0.53125 0q0.390625 0 0.640625 0.015625q0.25 0.015625 0.375 0.046875q0.125 0.03125 0.15625 0.09375q0.046875 0.0625 0.046875 0.15625l0 11.140625l2.203125 0q0.09375 0 0.171875 0.0625q0.078125 0.046875 0.125 0.171875q0.0625 0.125 0.078125 0.328125q0.03125 0.203125 0.03125 0.5z" fill-rule="nonzero"/><path fill="#b0dd46" fill-opacity="0.8039" d="m229.51443 94.46719l114.80316 0l0 66.17323l-114.80316 0z" fill-rule="evenodd"/><path stroke="#44546a" stroke-width="1.0" stroke-linejoin="round" stroke-linecap="butt" d="m229.51443 94.46719l114.80316 0l0 66.17323l-114.80316 0z" fill-rule="evenodd"/><path fill="#000000" d="m288.2064 138.74255q0 0.15625 -0.09375 0.28125q-0.09375 0.109375 -0.3125 0.1875q-0.21875 0.078125 -0.609375 0.109375q-0.375 0.046875 -0.9375 0.046875q-0.578125 0 -0.96875 -0.046875q-0.375 -0.03125 -0.59375 -0.109375q-0.21875 -0.078125 -0.3125 -0.1875q-0.09375 -0.125 -0.09375 -0.28125l0 -7.953125q0 -1.015625 -0.15625 -1.59375q-0.140625 -0.578125 -0.421875 -0.984375q-0.28125 -0.421875 -0.734375 -0.640625q-0.4375 -0.234375 -1.03125 -0.234375q-0.75 0 -1.515625 0.546875q-0.765625 0.546875 -1.59375 1.59375l0 9.265625q0 0.15625 -0.09375 0.28125q-0.09375 0.109375 -0.328125 0.1875q-0.21875 0.078125 -0.59375 0.109375q-0.375 0.046875 -0.953125 0.046875q-0.578125 0 -0.953125 -0.046875q-0.375 -0.03125 -0.609375 -0.109375q-0.21875 -0.078125 -0.3125 -0.1875q-0.09375 -0.125 -0.09375 -0.28125l0 -20.546875q0 -0.15625 0.09375 -0.28125q0.09375 -0.125 0.3125 -0.203125q0.234375 -0.09375 0.609375 -0.140625q0.375 -0.046875 0.953125 -0.046875q0.578125 0 0.953125 0.046875q0.375 0.046875 0.59375 0.140625q0.234375 0.078125 0.328125 0.203125q0.09375 0.125 0.09375 0.28125l0 7.703125q1.015625 -1.0 2.0625 -1.484375q1.0625 -0.5 2.203125 -0.5q1.421875 0 2.390625 0.46875q0.984375 0.46875 1.578125 1.28125q0.609375 0.8125 0.875 1.90625q0.265625 1.078125 0.265625 2.625l0 8.546875z" fill-rule="nonzero"/><path fill="#000000" d="m300.05014 150.16443q0 0.296875 -0.03125 0.515625q-0.015625 0.203125 -0.078125 0.34375q-0.046875 0.140625 -0.125 0.203125q-0.078125 0.046875 -0.1875 0.046875l-7.75 0q-0.234375 0 -0.40625 -0.03125q-0.15625 -0.046875 -0.265625 -0.171875q-0.09375 -0.125 -0.140625 -0.34375q-0.046875 -0.234375 -0.046875 -0.59375q0 -0.34375 0.03125 -0.59375q0.03125 -0.25 0.109375 -0.4375q0.078125 -0.1875 0.203125 -0.375q0.140625 -0.1875 0.34375 -0.40625l2.34375 -2.5q0.6875 -0.71875 1.109375 -1.3125q0.4375 -0.609375 0.671875 -1.09375q0.25 -0.5 0.328125 -0.921875q0.09375 -0.421875 0.09375 -0.796875q0 -0.34375 -0.109375 -0.640625q-0.109375 -0.3125 -0.328125 -0.53125q-0.203125 -0.234375 -0.53125 -0.359375q-0.328125 -0.140625 -0.765625 -0.140625q-0.609375 0 -1.09375 0.15625q-0.46875 0.15625 -0.828125 0.359375q-0.359375 0.1875 -0.59375 0.34375q-0.234375 0.15625 -0.375 0.15625q-0.09375 0 -0.171875 -0.0625q-0.0625 -0.0625 -0.109375 -0.203125q-0.03125 -0.140625 -0.0625 -0.375q-0.015625 -0.25 -0.015625 -0.609375q0 -0.234375 0.015625 -0.390625q0.015625 -0.171875 0.046875 -0.28125q0.03125 -0.125 0.078125 -0.21875q0.046875 -0.09375 0.171875 -0.21875q0.140625 -0.125 0.484375 -0.3125q0.359375 -0.1875 0.859375 -0.375q0.515625 -0.1875 1.125 -0.3125q0.625 -0.125 1.28125 -0.125q1.0625 0 1.84375 0.265625q0.78125 0.265625 1.296875 0.75q0.53125 0.46875 0.78125 1.125q0.265625 0.640625 0.265625 1.390625q0 0.65625 -0.125 1.296875q-0.125 0.625 -0.53125 1.359375q-0.390625 0.734375 -1.109375 1.625q-0.71875 0.890625 -1.90625 2.078125l-1.578125 1.609375l5.3125 0q0.109375 0 0.1875 0.0625q0.09375 0.0625 0.15625 0.203125q0.0625 0.125 0.09375 0.34375q0.03125 0.203125 0.03125 0.5z" fill-rule="nonzero"/><path fill="#b0dd46" fill-opacity="0.8039" d="m400.21783 94.46719l114.80316 0l0 66.17323l-114.80316 0z" fill-rule="evenodd"/><path stroke="#44546a" stroke-width="1.0" stroke-linejoin="round" stroke-linecap="butt" d="m400.21783 94.46719l114.80316 0l0 66.17323l-114.80316 0z" fill-rule="evenodd"/><path fill="#000000" d="m458.9098 138.74255q0 0.15625 -0.09375 0.28125q-0.09375 0.109375 -0.3125 0.1875q-0.21875 0.078125 -0.609375 0.109375q-0.375 0.046875 -0.9375 0.046875q-0.578125 0 -0.96875 -0.046875q-0.375 -0.03125 -0.59375 -0.109375q-0.21875 -0.078125 -0.3125 -0.1875q-0.09375 -0.125 -0.09375 -0.28125l0 -7.953125q0 -1.015625 -0.15625 -1.59375q-0.140625 -0.578125 -0.421875 -0.984375q-0.28125 -0.421875 -0.734375 -0.640625q-0.4375 -0.234375 -1.03125 -0.234375q-0.75 0 -1.515625 0.546875q-0.765625 0.546875 -1.59375 1.59375l0 9.265625q0 0.15625 -0.09375 0.28125q-0.09375 0.109375 -0.328125 0.1875q-0.21875 0.078125 -0.59375 0.109375q-0.375 0.046875 -0.953125 0.046875q-0.578125 0 -0.953125 -0.046875q-0.375 -0.03125 -0.609375 -0.109375q-0.21875 -0.078125 -0.3125 -0.1875q-0.09375 -0.125 -0.09375 -0.28125l0 -20.546875q0 -0.15625 0.09375 -0.28125q0.09375 -0.125 0.3125 -0.203125q0.234375 -0.09375 0.609375 -0.140625q0.375 -0.046875 0.953125 -0.046875q0.578125 0 0.953125 0.046875q0.375 0.046875 0.59375 0.140625q0.234375 0.078125 0.328125 0.203125q0.09375 0.125 0.09375 0.28125l0 7.703125q1.015625 -1.0 2.0625 -1.484375q1.0625 -0.5 2.203125 -0.5q1.421875 0 2.390625 0.46875q0.984375 0.46875 1.578125 1.28125q0.609375 0.8125 0.875 1.90625q0.265625 1.078125 0.265625 2.625l0 8.546875z" fill-rule="nonzero"/><path fill="#000000" d="m470.69104 147.32068q0 1.015625 -0.390625 1.796875q-0.375 0.78125 -1.0625 1.3125q-0.6875 0.53125 -1.65625 0.8125q-0.953125 0.265625 -2.078125 0.265625q-0.6875 0 -1.296875 -0.09375q-0.609375 -0.09375 -1.078125 -0.234375q-0.453125 -0.15625 -0.765625 -0.3125q-0.296875 -0.15625 -0.390625 -0.234375q-0.09375 -0.09375 -0.140625 -0.1875q-0.046875 -0.109375 -0.078125 -0.25q-0.03125 -0.140625 -0.046875 -0.34375q-0.015625 -0.21875 -0.015625 -0.53125q0 -0.5 0.078125 -0.6875q0.078125 -0.1875 0.25 -0.1875q0.109375 0 0.359375 0.140625q0.25 0.140625 0.640625 0.296875q0.40625 0.15625 0.9375 0.296875q0.53125 0.140625 1.203125 0.140625q0.578125 0 1.015625 -0.125q0.4375 -0.140625 0.734375 -0.375q0.3125 -0.25 0.46875 -0.59375q0.15625 -0.359375 0.15625 -0.78125q0 -0.46875 -0.1875 -0.84375q-0.1875 -0.375 -0.546875 -0.640625q-0.359375 -0.265625 -0.90625 -0.40625q-0.546875 -0.15625 -1.28125 -0.15625l-1.171875 0q-0.125 0 -0.21875 -0.03125q-0.09375 -0.046875 -0.15625 -0.15625q-0.0625 -0.109375 -0.09375 -0.3125q-0.03125 -0.203125 -0.03125 -0.53125q0 -0.296875 0.03125 -0.484375q0.03125 -0.203125 0.078125 -0.296875q0.0625 -0.109375 0.140625 -0.15625q0.09375 -0.046875 0.21875 -0.046875l1.1875 0q0.59375 0 1.0625 -0.140625q0.46875 -0.140625 0.78125 -0.390625q0.328125 -0.265625 0.484375 -0.625q0.171875 -0.375 0.171875 -0.828125q0 -0.34375 -0.109375 -0.640625q-0.109375 -0.3125 -0.34375 -0.53125q-0.21875 -0.234375 -0.578125 -0.359375q-0.34375 -0.125 -0.828125 -0.125q-0.546875 0 -1.03125 0.15625q-0.46875 0.15625 -0.859375 0.359375q-0.375 0.1875 -0.640625 0.359375q-0.265625 0.15625 -0.390625 0.15625q-0.078125 0 -0.140625 -0.03125q-0.0625 -0.046875 -0.109375 -0.140625q-0.03125 -0.109375 -0.0625 -0.296875q-0.015625 -0.203125 -0.015625 -0.515625q0 -0.265625 0 -0.4375q0.015625 -0.171875 0.046875 -0.28125q0.03125 -0.109375 0.078125 -0.1875q0.046875 -0.09375 0.15625 -0.1875q0.109375 -0.109375 0.421875 -0.296875q0.328125 -0.203125 0.8125 -0.390625q0.5 -0.1875 1.140625 -0.3125q0.640625 -0.140625 1.390625 -0.140625q0.96875 0 1.71875 0.234375q0.765625 0.234375 1.28125 0.671875q0.515625 0.421875 0.78125 1.0625q0.265625 0.625 0.265625 1.40625q0 0.609375 -0.15625 1.140625q-0.15625 0.53125 -0.46875 0.953125q-0.296875 0.421875 -0.75 0.71875q-0.453125 0.28125 -1.046875 0.421875l0 0.03125q0.71875 0.09375 1.28125 0.375q0.5625 0.265625 0.953125 0.6875q0.390625 0.40625 0.59375 0.9375q0.203125 0.53125 0.203125 1.125z" fill-rule="nonzero"/><path fill="#000000" fill-opacity="0.0" d="m0 128.53018l52.0 -0.9763794" fill-rule="evenodd"/><path stroke="#44546a" stroke-width="3.0" stroke-linejoin="round" stroke-linecap="butt" d="m0 128.53018l34.003174 -0.63845825" fill-rule="evenodd"/><path fill="#44546a" stroke="#44546a" stroke-width="3.0" stroke-linecap="butt" d="m34.0962 132.84605l13.5188675 -5.209915l-13.704918 -4.698738z" fill-rule="evenodd"/><path fill="#000000" fill-opacity="0.0" d="m166.80315 127.5538l62.708664 0" fill-rule="evenodd"/><path stroke="#44546a" stroke-width="3.0" stroke-linejoin="round" stroke-linecap="butt" d="m166.80315 127.5538l44.708664 0" fill-rule="evenodd"/><path fill="#44546a" stroke="#44546a" stroke-width="3.0" stroke-linecap="butt" d="m211.51181 132.509l13.614288 -4.9552l-13.614288 -4.9551926z" fill-rule="evenodd"/><path fill="#000000" fill-opacity="0.0" d="m344.3176 127.5538l55.905487 0" fill-rule="evenodd"/><path stroke="#44546a" stroke-width="3.0" stroke-linejoin="round" stroke-linecap="butt" d="m344.3176 127.5538l37.905487 0" fill-rule="evenodd"/><path fill="#44546a" stroke="#44546a" stroke-width="3.0" stroke-linecap="butt" d="m382.22308 132.509l13.614319 -4.9552l-13.614319 -4.9551926z" fill-rule="evenodd"/><path fill="#000000" fill-opacity="0.0" d="m515.021 127.5538l37.637817 0.9763794" fill-rule="evenodd"/><path stroke="#44546a" stroke-width="3.0" stroke-linejoin="round" stroke-linecap="butt" d="m515.021 127.5538l19.64386 0.5095825" fill-rule="evenodd"/><path fill="#44546a" stroke="#44546a" stroke-width="3.0" stroke-linecap="butt" d="m534.5363 133.01692l13.73822 -4.600464l-13.481201 -5.306595z" fill-rule="evenodd"/><path fill="#e7e6e6" d="m54.913387 275.8637l0 0c0 -5.073578 4.1129494 -9.186554 9.186535 -9.186554l90.60331 0c2.4364166 0 4.773056 0.967865 6.495865 2.6906738c1.7228088 1.7228088 2.6906738 4.0594482 2.6906738 6.49588l0 36.745026c0 5.073578 -4.112961 9.186554 -9.186539 9.186554l-90.60331 0c-5.0735855 0 -9.186535 -4.112976 -9.186535 -9.186554z" fill-rule="evenodd"/><path stroke="#44546a" stroke-width="1.0" stroke-linejoin="round" stroke-linecap="butt" d="m54.913387 275.8637l0 0c0 -5.073578 4.1129494 -9.186554 9.186535 -9.186554l90.60331 0c2.4364166 0 4.773056 0.967865 6.495865 2.6906738c1.7228088 1.7228088 2.6906738 4.0594482 2.6906738 6.49588l0 36.745026c0 5.073578 -4.112961 9.186554 -9.186539 9.186554l-90.60331 0c-5.0735855 0 -9.186535 -4.112976 -9.186535 -9.186554z" fill-rule="evenodd"/><path fill="#000000" d="m110.723206 305.1437q0.125 0.265625 0.109375 0.4375q0 0.171875 -0.21875 0.28125q-0.21875 0.109375 -0.671875 0.140625q-0.453125 0.046875 -1.203125 0.046875q-0.703125 0 -1.140625 -0.03125q-0.421875 -0.015625 -0.671875 -0.078125q-0.234375 -0.078125 -0.359375 -0.171875q-0.109375 -0.109375 -0.171875 -0.265625l-2.578125 -4.953125l-2.578125 4.953125q-0.0625 0.15625 -0.171875 0.265625q-0.109375 0.09375 -0.34375 0.171875q-0.21875 0.0625 -0.625 0.078125q-0.40625 0.03125 -1.0625 0.03125q-0.6875 0 -1.09375 -0.046875q-0.40625 -0.03125 -0.59375 -0.140625q-0.1875 -0.109375 -0.203125 -0.28125q0 -0.171875 0.140625 -0.4375l3.859375 -6.859375l-3.5625 -6.4375q-0.140625 -0.28125 -0.15625 -0.46875q0 -0.203125 0.203125 -0.3125q0.203125 -0.109375 0.640625 -0.15625q0.453125 -0.046875 1.21875 -0.046875q0.6875 0 1.09375 0.03125q0.421875 0.015625 0.65625 0.0625q0.234375 0.046875 0.34375 0.15625q0.109375 0.09375 0.1875 0.25l2.484375 4.65625l2.46875 -4.65625q0.046875 -0.125 0.140625 -0.21875q0.09375 -0.09375 0.296875 -0.15625q0.203125 -0.0625 0.546875 -0.09375q0.359375 -0.03125 0.96875 -0.03125q0.6875 0 1.09375 0.03125q0.421875 0.03125 0.59375 0.140625q0.1875 0.109375 0.171875 0.3125q0 0.1875 -0.171875 0.5l-3.46875 6.328125l3.828125 6.96875z" fill-rule="nonzero"/><path fill="#000000" d="m121.17633 316.90933q0 0.296875 -0.03125 0.5q-0.03125 0.203125 -0.09375 0.328125q-0.046875 0.109375 -0.125 0.171875q-0.0625 0.046875 -0.15625 0.046875l-7.4375 0q-0.09375 0 -0.171875 -0.046875q-0.0625 -0.0625 -0.125 -0.171875q-0.046875 -0.125 -0.078125 -0.328125q-0.03125 -0.203125 -0.03125 -0.5q0 -0.296875 0.015625 -0.5q0.03125 -0.203125 0.078125 -0.328125q0.0625 -0.125 0.140625 -0.171875q0.078125 -0.0625 0.171875 -0.0625l2.5 0l0 -8.765625l-2.15625 1.1875q-0.25 0.109375 -0.40625 0.140625q-0.140625 0.03125 -0.234375 -0.0625q-0.078125 -0.09375 -0.109375 -0.3125q-0.03125 -0.21875 -0.03125 -0.609375q0 -0.25 0 -0.40625q0.015625 -0.15625 0.046875 -0.265625q0.046875 -0.125 0.125 -0.1875q0.078125 -0.078125 0.203125 -0.171875l2.890625 -1.875q0.046875 -0.03125 0.125 -0.0625q0.078125 -0.03125 0.203125 -0.046875q0.125 -0.015625 0.328125 -0.015625q0.203125 0 0.53125 0q0.390625 0 0.640625 0.015625q0.25 0.015625 0.375 0.046875q0.125 0.03125 0.15625 0.09375q0.046875 0.0625 0.046875 0.15625l0 11.140625l2.203125 0q0.09375 0 0.171875 0.0625q0.078125 0.046875 0.125 0.171875q0.0625 0.125 0.078125 0.328125q0.03125 0.203125 0.03125 0.5z" fill-rule="nonzero"/><path fill="#e7e6e6" d="m234.38321 275.8637l0 0c0 -5.073578 4.1129456 -9.186554 9.186523 -9.186554l90.6033 0c2.436432 0 4.7730713 0.967865 6.49588 2.6906738c1.7228088 1.7228088 2.6906738 4.0594482 2.6906738 6.49588l0 36.745026c0 5.073578 -4.1129456 9.186554 -9.186554 9.186554l-90.6033 0c-5.073578 0 -9.186523 -4.112976 -9.186523 -9.186554z" fill-rule="evenodd"/><path stroke="#44546a" stroke-width="1.0" stroke-linejoin="round" stroke-linecap="butt" d="m234.38321 275.8637l0 0c0 -5.073578 4.1129456 -9.186554 9.186523 -9.186554l90.6033 0c2.436432 0 4.7730713 0.967865 6.49588 2.6906738c1.7228088 1.7228088 2.6906738 4.0594482 2.6906738 6.49588l0 36.745026c0 5.073578 -4.1129456 9.186554 -9.186554 9.186554l-90.6033 0c-5.073578 0 -9.186523 -4.112976 -9.186523 -9.186554z" fill-rule="evenodd"/><path fill="#000000" d="m290.19302 305.1437q0.125 0.265625 0.109375 0.4375q0 0.171875 -0.21875 0.28125q-0.21875 0.109375 -0.671875 0.140625q-0.453125 0.046875 -1.203125 0.046875q-0.703125 0 -1.140625 -0.03125q-0.421875 -0.015625 -0.671875 -0.078125q-0.234375 -0.078125 -0.359375 -0.171875q-0.109375 -0.109375 -0.171875 -0.265625l-2.578125 -4.953125l-2.578125 4.953125q-0.0625 0.15625 -0.171875 0.265625q-0.109375 0.09375 -0.34375 0.171875q-0.21875 0.0625 -0.625 0.078125q-0.40625 0.03125 -1.0625 0.03125q-0.6875 0 -1.09375 -0.046875q-0.40625 -0.03125 -0.59375 -0.140625q-0.1875 -0.109375 -0.203125 -0.28125q0 -0.171875 0.140625 -0.4375l3.859375 -6.859375l-3.5625 -6.4375q-0.140625 -0.28125 -0.15625 -0.46875q0 -0.203125 0.203125 -0.3125q0.203125 -0.109375 0.640625 -0.15625q0.453125 -0.046875 1.21875 -0.046875q0.6875 0 1.09375 0.03125q0.421875 0.015625 0.65625 0.0625q0.234375 0.046875 0.34375 0.15625q0.109375 0.09375 0.1875 0.25l2.484375 4.65625l2.46875 -4.65625q0.046875 -0.125 0.140625 -0.21875q0.09375 -0.09375 0.296875 -0.15625q0.203125 -0.0625 0.546875 -0.09375q0.359375 -0.03125 0.96875 -0.03125q0.6875 0 1.09375 0.03125q0.421875 0.03125 0.59375 0.140625q0.1875 0.109375 0.171875 0.3125q0 0.1875 -0.171875 0.5l-3.46875 6.328125l3.828125 6.96875z" fill-rule="nonzero"/><path fill="#000000" d="m300.77115 316.84683q0 0.296875 -0.03125 0.515625q-0.015625 0.203125 -0.078125 0.34375q-0.046875 0.140625 -0.125 0.203125q-0.078125 0.046875 -0.1875 0.046875l-7.75 0q-0.234375 0 -0.40625 -0.03125q-0.15625 -0.046875 -0.265625 -0.171875q-0.09375 -0.125 -0.140625 -0.34375q-0.046875 -0.234375 -0.046875 -0.59375q0 -0.34375 0.03125 -0.59375q0.03125 -0.25 0.109375 -0.4375q0.078125 -0.1875 0.203125 -0.375q0.140625 -0.1875 0.34375 -0.40625l2.34375 -2.5q0.6875 -0.71875 1.109375 -1.3125q0.4375 -0.609375 0.671875 -1.09375q0.25 -0.5 0.328125 -0.921875q0.09375 -0.421875 0.09375 -0.796875q0 -0.34375 -0.109375 -0.640625q-0.109375 -0.3125 -0.328125 -0.53125q-0.203125 -0.234375 -0.53125 -0.359375q-0.328125 -0.140625 -0.765625 -0.140625q-0.609375 0 -1.09375 0.15625q-0.46875 0.15625 -0.828125 0.359375q-0.359375 0.1875 -0.59375 0.34375q-0.234375 0.15625 -0.375 0.15625q-0.09375 0 -0.171875 -0.0625q-0.0625 -0.0625 -0.109375 -0.203125q-0.03125 -0.140625 -0.0625 -0.375q-0.015625 -0.25 -0.015625 -0.609375q0 -0.234375 0.015625 -0.390625q0.015625 -0.171875 0.046875 -0.28125q0.03125 -0.125 0.078125 -0.21875q0.046875 -0.09375 0.171875 -0.21875q0.140625 -0.125 0.484375 -0.3125q0.359375 -0.1875 0.859375 -0.375q0.515625 -0.1875 1.125 -0.3125q0.625 -0.125 1.28125 -0.125q1.0625 0 1.84375 0.265625q0.78125 0.265625 1.296875 0.75q0.53125 0.46875 0.78125 1.125q0.265625 0.640625 0.265625 1.390625q0 0.65625 -0.125 1.296875q-0.125 0.625 -0.53125 1.359375q-0.390625 0.734375 -1.109375 1.625q-0.71875 0.890625 -1.90625 2.078125l-1.578125 1.609375l5.3125 0q0.109375 0 0.1875 0.0625q0.09375 0.0625 0.15625 0.203125q0.0625 0.125 0.09375 0.34375q0.03125 0.203125 0.03125 0.5z" fill-rule="nonzero"/><path fill="#e7e6e6" d="m403.13123 275.8742l0 0c0 -5.073578 4.1129456 -9.186554 9.186554 -9.186554l90.6033 0c2.4364014 0 4.773041 0.967865 6.4958496 2.6906738c1.7228088 1.7228088 2.6906738 4.0594482 2.6906738 6.49588l0 36.745026c0 5.073578 -4.1129456 9.186554 -9.186523 9.186554l-90.6033 0c-5.0736084 0 -9.186554 -4.112976 -9.186554 -9.186554z" fill-rule="evenodd"/><path stroke="#44546a" stroke-width="1.0" stroke-linejoin="round" stroke-linecap="butt" d="m403.13123 275.8742l0 0c0 -5.073578 4.1129456 -9.186554 9.186554 -9.186554l90.6033 0c2.4364014 0 4.773041 0.967865 6.4958496 2.6906738c1.7228088 1.7228088 2.6906738 4.0594482 2.6906738 6.49588l0 36.745026c0 5.073578 -4.1129456 9.186554 -9.186523 9.186554l-90.6033 0c-5.0736084 0 -9.186554 -4.112976 -9.186554 -9.186554z" fill-rule="evenodd"/><path fill="#000000" d="m458.94107 305.1542q0.125 0.265625 0.109375 0.4375q0 0.171875 -0.21875 0.28125q-0.21875 0.109375 -0.671875 0.140625q-0.453125 0.046875 -1.203125 0.046875q-0.703125 0 -1.140625 -0.03125q-0.421875 -0.015625 -0.671875 -0.078125q-0.234375 -0.078125 -0.359375 -0.171875q-0.109375 -0.109375 -0.171875 -0.265625l-2.578125 -4.953125l-2.578125 4.953125q-0.0625 0.15625 -0.171875 0.265625q-0.109375 0.09375 -0.34375 0.171875q-0.21875 0.0625 -0.625 0.078125q-0.40625 0.03125 -1.0625 0.03125q-0.6875 0 -1.09375 -0.046875q-0.40625 -0.03125 -0.59375 -0.140625q-0.1875 -0.109375 -0.203125 -0.28125q0 -0.171875 0.140625 -0.4375l3.859375 -6.859375l-3.5625 -6.4375q-0.140625 -0.28125 -0.15625 -0.46875q0 -0.203125 0.203125 -0.3125q0.203125 -0.109375 0.640625 -0.15625q0.453125 -0.046875 1.21875 -0.046875q0.6875 0 1.09375 0.03125q0.421875 0.015625 0.65625 0.0625q0.234375 0.046875 0.34375 0.15625q0.109375 0.09375 0.1875 0.25l2.484375 4.65625l2.46875 -4.65625q0.046875 -0.125 0.140625 -0.21875q0.09375 -0.09375 0.296875 -0.15625q0.203125 -0.0625 0.546875 -0.09375q0.359375 -0.03125 0.96875 -0.03125q0.6875 0 1.09375 0.03125q0.421875 0.03125 0.59375 0.140625q0.1875 0.109375 0.171875 0.3125q0 0.1875 -0.171875 0.5l-3.46875 6.328125l3.828125 6.96875z" fill-rule="nonzero"/><path fill="#000000" d="m469.4567 314.01358q0 1.015625 -0.390625 1.796875q-0.375 0.78125 -1.0625 1.3125q-0.6875 0.53125 -1.65625 0.8125q-0.953125 0.265625 -2.078125 0.265625q-0.6875 0 -1.296875 -0.09375q-0.609375 -0.09375 -1.078125 -0.234375q-0.453125 -0.15625 -0.765625 -0.3125q-0.296875 -0.15625 -0.390625 -0.234375q-0.09375 -0.09375 -0.140625 -0.1875q-0.046875 -0.109375 -0.078125 -0.25q-0.03125 -0.140625 -0.046875 -0.34375q-0.015625 -0.21875 -0.015625 -0.53125q0 -0.5 0.078125 -0.6875q0.078125 -0.1875 0.25 -0.1875q0.109375 0 0.359375 0.140625q0.25 0.140625 0.640625 0.296875q0.40625 0.15625 0.9375 0.296875q0.53125 0.140625 1.203125 0.140625q0.578125 0 1.015625 -0.125q0.4375 -0.140625 0.734375 -0.375q0.3125 -0.25 0.46875 -0.59375q0.15625 -0.359375 0.15625 -0.78125q0 -0.46875 -0.1875 -0.84375q-0.1875 -0.375 -0.546875 -0.640625q-0.359375 -0.265625 -0.90625 -0.40625q-0.546875 -0.15625 -1.28125 -0.15625l-1.171875 0q-0.125 0 -0.21875 -0.03125q-0.09375 -0.046875 -0.15625 -0.15625q-0.0625 -0.109375 -0.09375 -0.3125q-0.03125 -0.203125 -0.03125 -0.53125q0 -0.296875 0.03125 -0.484375q0.03125 -0.203125 0.078125 -0.296875q0.0625 -0.109375 0.140625 -0.15625q0.09375 -0.046875 0.21875 -0.046875l1.1875 0q0.59375 0 1.0625 -0.140625q0.46875 -0.140625 0.78125 -0.390625q0.328125 -0.265625 0.484375 -0.625q0.171875 -0.375 0.171875 -0.828125q0 -0.34375 -0.109375 -0.640625q-0.109375 -0.3125 -0.34375 -0.53125q-0.21875 -0.234375 -0.578125 -0.359375q-0.34375 -0.125 -0.828125 -0.125q-0.546875 0 -1.03125 0.15625q-0.46875 0.15625 -0.859375 0.359375q-0.375 0.1875 -0.640625 0.359375q-0.265625 0.15625 -0.390625 0.15625q-0.078125 0 -0.140625 -0.03125q-0.0625 -0.046875 -0.109375 -0.140625q-0.03125 -0.109375 -0.0625 -0.296875q-0.015625 -0.203125 -0.015625 -0.515625q0 -0.265625 0 -0.4375q0.015625 -0.171875 0.046875 -0.28125q0.03125 -0.109375 0.078125 -0.1875q0.046875 -0.09375 0.15625 -0.1875q0.109375 -0.109375 0.421875 -0.296875q0.328125 -0.203125 0.8125 -0.390625q0.5 -0.1875 1.140625 -0.3125q0.640625 -0.140625 1.390625 -0.140625q0.96875 0 1.71875 0.234375q0.765625 0.234375 1.28125 0.671875q0.515625 0.421875 0.78125 1.0625q0.265625 0.625 0.265625 1.40625q0 0.609375 -0.15625 1.140625q-0.15625 0.53125 -0.46875 0.953125q-0.296875 0.421875 -0.75 0.71875q-0.453125 0.28125 -1.046875 0.421875l0 0.03125q0.71875 0.09375 1.28125 0.375q0.5625 0.265625 0.953125 0.6875q0.390625 0.40625 0.59375 0.9375q0.203125 0.53125 0.203125 1.125z" fill-rule="nonzero"/><path fill="#000000" fill-opacity="0.0" d="m109.40157 266.67715l0 -39.842514" fill-rule="evenodd"/><path stroke="#44546a" stroke-width="3.0" stroke-linejoin="round" stroke-linecap="butt" d="m109.40157 266.67715l0 -21.842514" fill-rule="evenodd"/><path fill="#44546a" stroke="#44546a" stroke-width="3.0" stroke-linecap="butt" d="m114.35677 244.83464l-4.9552 -13.614288l-4.9551926 13.614288z" fill-rule="evenodd"/><path fill="#000000" fill-opacity="0.0" d="m288.8714 266.67715l-1.9527588 -39.842514" fill-rule="evenodd"/><path stroke="#44546a" stroke-width="3.0" stroke-linejoin="round" stroke-linecap="butt" d="m288.8714 266.67715l-1.0716248 -21.864075" fill-rule="evenodd"/><path fill="#44546a" stroke="#44546a" stroke-width="3.0" stroke-linecap="butt" d="m292.74905 244.5705l-5.6157227 -13.355408l-4.2828064 13.840546z" fill-rule="evenodd"/><path fill="#000000" fill-opacity="0.0" d="m457.61942 266.68765l0 -39.87401" fill-rule="evenodd"/><path stroke="#44546a" stroke-width="3.0" stroke-linejoin="round" stroke-linecap="butt" d="m457.61942 266.68765l0 -21.874008" fill-rule="evenodd"/><path fill="#44546a" stroke="#44546a" stroke-width="3.0" stroke-linecap="butt" d="m462.57462 244.81364l-4.9552 -13.614288l-4.9552 13.614288z" fill-rule="evenodd"/><path fill="#e7e6e6" d="m54.913387 9.186536l0 0c0 -5.0735836 4.1129494 -9.186536 9.186535 -9.186536l90.60331 0c2.4364166 0 4.773056 0.96786433 6.495865 2.6906738c1.7228088 1.7228098 2.6906738 4.059441 2.6906738 6.495862l0 36.74504c0 5.0735817 -4.112961 9.186535 -9.186539 9.186535l-90.60331 0c-5.0735855 0 -9.186535 -4.112953 -9.186535 -9.186535z" fill-rule="evenodd"/><path stroke="#44546a" stroke-width="1.0" stroke-linejoin="round" stroke-linecap="butt" d="m54.913387 9.186536l0 0c0 -5.0735836 4.1129494 -9.186536 9.186535 -9.186536l90.60331 0c2.4364166 0 4.773056 0.96786433 6.495865 2.6906738c1.7228088 1.7228098 2.6906738 4.059441 2.6906738 6.495862l0 36.74504c0 5.0735817 -4.112961 9.186535 -9.186539 9.186535l-90.60331 0c-5.0735855 0 -9.186535 -4.112953 -9.186535 -9.186535z" fill-rule="evenodd"/><path fill="#000000" d="m106.46539 39.279053l-1.6875 4.9375q-0.140625 0.390625 -0.765625 0.5625q-0.625 0.171875 -1.828125 0.171875q-0.625 0 -1.0 -0.0625q-0.375 -0.046875 -0.5625 -0.171875q-0.1875 -0.125 -0.203125 -0.3125q-0.015625 -0.1875 0.09375 -0.453125l1.859375 -4.671875q-0.203125 -0.09375 -0.375 -0.28125q-0.15625 -0.203125 -0.234375 -0.421875l-4.796875 -12.812498q-0.203125 -0.546875 -0.203125 -0.828125q0 -0.296875 0.1875 -0.453125q0.1875 -0.171875 0.625 -0.234375q0.453125 -0.0625 1.1875 -0.0625q0.671875 0 1.0625 0.03125q0.390625 0.015625 0.609375 0.109375q0.21875 0.09375 0.328125 0.296875q0.109375 0.1875 0.21875 0.546875l3.28125 9.328123l0.046875 0l3.0 -9.515623q0.09375 -0.40625 0.234375 -0.53125q0.15625 -0.140625 0.5 -0.203125q0.34375 -0.0625 1.203125 -0.0625q0.671875 0 1.109375 0.0625q0.453125 0.0625 0.65625 0.234375q0.21875 0.171875 0.21875 0.46875q0 0.28125 -0.125 0.671875l-4.640625 13.656248z" fill-rule="nonzero"/><path fill="#000000" d="m121.40289 50.232178q0 0.296875 -0.03125 0.5q-0.03125 0.203125 -0.09375 0.328125q-0.046875 0.109375 -0.125 0.171875q-0.0625 0.046875 -0.15625 0.046875l-7.4375 0q-0.09375 0 -0.171875 -0.046875q-0.0625 -0.0625 -0.125 -0.171875q-0.046875 -0.125 -0.078125 -0.328125q-0.03125 -0.203125 -0.03125 -0.5q0 -0.296875 0.015625 -0.5q0.03125 -0.203125 0.078125 -0.328125q0.0625 -0.125 0.140625 -0.171875q0.078125 -0.0625 0.171875 -0.0625l2.5 0l0 -8.765625l-2.15625 1.1875q-0.25 0.109375 -0.40625 0.140625q-0.140625 0.03125 -0.234375 -0.0625q-0.078125 -0.09375 -0.109375 -0.3125q-0.03125 -0.21875 -0.03125 -0.609375q0 -0.25 0 -0.40625q0.015625 -0.15625 0.046875 -0.265625q0.046875 -0.125 0.125 -0.1875q0.078125 -0.078125 0.203125 -0.171875l2.890625 -1.875q0.046875 -0.03125 0.125 -0.0625q0.078125 -0.03125 0.203125 -0.046875q0.125 -0.015625 0.328125 -0.015625q0.203125 0 0.53125 0q0.390625 0 0.640625 0.015625q0.25 0.015625 0.375 0.046875q0.125 0.03125 0.15625 0.09375q0.046875 0.0625 0.046875 0.15625l0 11.140625l2.203125 0q0.09375 0 0.171875 0.0625q0.078125 0.046875 0.125 0.171875q0.0625 0.125 0.078125 0.328125q0.03125 0.203125 0.03125 0.5z" fill-rule="nonzero"/><path fill="#e7e6e6" d="m232.42783 9.186536l0 0c0 -5.0735836 4.1129456 -9.186536 9.186523 -9.186536l90.6033 0c2.436432 0 4.7730713 0.96786433 6.49588 2.6906738c1.7228088 1.7228098 2.6906738 4.059441 2.6906738 6.495862l0 36.74504c0 5.0735817 -4.1129456 9.186535 -9.186554 9.186535l-90.6033 0c-5.073578 0 -9.186523 -4.112953 -9.186523 -9.186535z" fill-rule="evenodd"/><path stroke="#44546a" stroke-width="1.0" stroke-linejoin="round" stroke-linecap="butt" d="m232.42783 9.186536l0 0c0 -5.0735836 4.1129456 -9.186536 9.186523 -9.186536l90.6033 0c2.436432 0 4.7730713 0.96786433 6.49588 2.6906738c1.7228088 1.7228098 2.6906738 4.059441 2.6906738 6.495862l0 36.74504c0 5.0735817 -4.1129456 9.186535 -9.186554 9.186535l-90.6033 0c-5.073578 0 -9.186523 -4.112953 -9.186523 -9.186535z" fill-rule="evenodd"/><path fill="#000000" d="m283.97983 39.279053l-1.6875 4.9375q-0.140625 0.390625 -0.765625 0.5625q-0.625 0.171875 -1.828125 0.171875q-0.625 0 -1.0 -0.0625q-0.375 -0.046875 -0.5625 -0.171875q-0.1875 -0.125 -0.203125 -0.3125q-0.015625 -0.1875 0.09375 -0.453125l1.859375 -4.671875q-0.203125 -0.09375 -0.375 -0.28125q-0.15625 -0.203125 -0.234375 -0.421875l-4.796875 -12.812498q-0.203125 -0.546875 -0.203125 -0.828125q0 -0.296875 0.1875 -0.453125q0.1875 -0.171875 0.625 -0.234375q0.453125 -0.0625 1.1875 -0.0625q0.671875 0 1.0625 0.03125q0.390625 0.015625 0.609375 0.109375q0.21875 0.09375 0.328125 0.296875q0.109375 0.1875 0.21875 0.546875l3.28125 9.328123l0.046875 0l3.0 -9.515623q0.09375 -0.40625 0.234375 -0.53125q0.15625 -0.140625 0.5 -0.203125q0.34375 -0.0625 1.203125 -0.0625q0.671875 0 1.109375 0.0625q0.453125 0.0625 0.65625 0.234375q0.21875 0.171875 0.21875 0.46875q0 0.28125 -0.125 0.671875l-4.640625 13.656248z" fill-rule="nonzero"/><path fill="#000000" d="m299.04233 50.169678q0 0.296875 -0.03125 0.515625q-0.015625 0.203125 -0.078125 0.34375q-0.046875 0.140625 -0.125 0.203125q-0.078125 0.046875 -0.1875 0.046875l-7.75 0q-0.234375 0 -0.40625 -0.03125q-0.15625 -0.046875 -0.265625 -0.171875q-0.09375 -0.125 -0.140625 -0.34375q-0.046875 -0.234375 -0.046875 -0.59375q0 -0.34375 0.03125 -0.59375q0.03125 -0.25 0.109375 -0.4375q0.078125 -0.1875 0.203125 -0.375q0.140625 -0.1875 0.34375 -0.40625l2.34375 -2.5q0.6875 -0.71875 1.109375 -1.3125q0.4375 -0.609375 0.671875 -1.09375q0.25 -0.5 0.328125 -0.921875q0.09375 -0.421875 0.09375 -0.796875q0 -0.34375 -0.109375 -0.640625q-0.109375 -0.3125 -0.328125 -0.53125q-0.203125 -0.234375 -0.53125 -0.359375q-0.328125 -0.140625 -0.765625 -0.140625q-0.609375 0 -1.09375 0.15625q-0.46875 0.15625 -0.828125 0.359375q-0.359375 0.1875 -0.59375 0.34375q-0.234375 0.15625 -0.375 0.15625q-0.09375 0 -0.171875 -0.0625q-0.0625 -0.0625 -0.109375 -0.203125q-0.03125 -0.140625 -0.0625 -0.375q-0.015625 -0.25 -0.015625 -0.609375q0 -0.234375 0.015625 -0.390625q0.015625 -0.171875 0.046875 -0.28125q0.03125 -0.125 0.078125 -0.21875q0.046875 -0.09375 0.171875 -0.21875q0.140625 -0.125 0.484375 -0.3125q0.359375 -0.1875 0.859375 -0.375q0.515625 -0.1875 1.125 -0.3125q0.625 -0.125 1.28125 -0.125q1.0625 0 1.84375 0.265625q0.78125 0.265625 1.296875 0.75q0.53125 0.46875 0.78125 1.125q0.265625 0.640625 0.265625 1.390625q0 0.65625 -0.125 1.296875q-0.125 0.625 -0.53125 1.359375q-0.390625 0.734375 -1.109375 1.625q-0.71875 0.890625 -1.90625 2.078125l-1.578125 1.609375l5.3125 0q0.109375 0 0.1875 0.0625q0.09375 0.0625 0.15625 0.203125q0.0625 0.125 0.09375 0.34375q0.03125 0.203125 0.03125 0.5z" fill-rule="nonzero"/><path fill="#e7e6e6" d="m403.13123 9.186536l0 0c0 -5.0735836 4.1129456 -9.186536 9.186554 -9.186536l90.6033 0c2.4364014 0 4.773041 0.96786433 6.4958496 2.6906738c1.7228088 1.7228098 2.6906738 4.059441 2.6906738 6.495862l0 36.74504c0 5.0735817 -4.1129456 9.186535 -9.186523 9.186535l-90.6033 0c-5.0736084 0 -9.186554 -4.112953 -9.186554 -9.186535z" fill-rule="evenodd"/><path stroke="#44546a" stroke-width="1.0" stroke-linejoin="round" stroke-linecap="butt" d="m403.13123 9.186536l0 0c0 -5.0735836 4.1129456 -9.186536 9.186554 -9.186536l90.6033 0c2.4364014 0 4.773041 0.96786433 6.4958496 2.6906738c1.7228088 1.7228098 2.6906738 4.059441 2.6906738 6.495862l0 36.74504c0 5.0735817 -4.1129456 9.186535 -9.186523 9.186535l-90.6033 0c-5.0736084 0 -9.186554 -4.112953 -9.186554 -9.186535z" fill-rule="evenodd"/><path fill="#000000" d="m454.68326 39.279053l-1.6875 4.9375q-0.140625 0.390625 -0.765625 0.5625q-0.625 0.171875 -1.828125 0.171875q-0.625 0 -1.0 -0.0625q-0.375 -0.046875 -0.5625 -0.171875q-0.1875 -0.125 -0.203125 -0.3125q-0.015625 -0.1875 0.09375 -0.453125l1.859375 -4.671875q-0.203125 -0.09375 -0.375 -0.28125q-0.15625 -0.203125 -0.234375 -0.421875l-4.796875 -12.812498q-0.203125 -0.546875 -0.203125 -0.828125q0 -0.296875 0.1875 -0.453125q0.1875 -0.171875 0.625 -0.234375q0.453125 -0.0625 1.1875 -0.0625q0.671875 0 1.0625 0.03125q0.390625 0.015625 0.609375 0.109375q0.21875 0.09375 0.328125 0.296875q0.109375 0.1875 0.21875 0.546875l3.28125 9.328123l0.046875 0l3.0 -9.515623q0.09375 -0.40625 0.234375 -0.53125q0.15625 -0.140625 0.5 -0.203125q0.34375 -0.0625 1.203125 -0.0625q0.671875 0 1.109375 0.0625q0.453125 0.0625 0.65625 0.234375q0.21875 0.171875 0.21875 0.46875q0 0.28125 -0.125 0.671875l-4.640625 13.656248z" fill-rule="nonzero"/><path fill="#000000" d="m469.68326 47.325928q0 1.015625 -0.390625 1.796875q-0.375 0.78125 -1.0625 1.3125q-0.6875 0.53125 -1.65625 0.8125q-0.953125 0.265625 -2.078125 0.265625q-0.6875 0 -1.296875 -0.09375q-0.609375 -0.09375 -1.078125 -0.234375q-0.453125 -0.15625 -0.765625 -0.3125q-0.296875 -0.15625 -0.390625 -0.234375q-0.09375 -0.09375 -0.140625 -0.1875q-0.046875 -0.109375 -0.078125 -0.25q-0.03125 -0.140625 -0.046875 -0.34375q-0.015625 -0.21875 -0.015625 -0.53125q0 -0.5 0.078125 -0.6875q0.078125 -0.1875 0.25 -0.1875q0.109375 0 0.359375 0.140625q0.25 0.140625 0.640625 0.296875q0.40625 0.15625 0.9375 0.296875q0.53125 0.140625 1.203125 0.140625q0.578125 0 1.015625 -0.125q0.4375 -0.140625 0.734375 -0.375q0.3125 -0.25 0.46875 -0.59375q0.15625 -0.359375 0.15625 -0.78125q0 -0.46875 -0.1875 -0.84375q-0.1875 -0.375 -0.546875 -0.640625q-0.359375 -0.265625 -0.90625 -0.40625q-0.546875 -0.15625 -1.28125 -0.15625l-1.171875 0q-0.125 0 -0.21875 -0.03125q-0.09375 -0.046875 -0.15625 -0.15625q-0.0625 -0.109375 -0.09375 -0.3125q-0.03125 -0.203125 -0.03125 -0.53125q0 -0.296875 0.03125 -0.484375q0.03125 -0.203125 0.078125 -0.296875q0.0625 -0.109375 0.140625 -0.15625q0.09375 -0.046875 0.21875 -0.046875l1.1875 0q0.59375 0 1.0625 -0.140625q0.46875 -0.140625 0.78125 -0.390625q0.328125 -0.265625 0.484375 -0.625q0.171875 -0.375 0.171875 -0.828125q0 -0.34375 -0.109375 -0.640625q-0.109375 -0.3125 -0.34375 -0.53125q-0.21875 -0.234375 -0.578125 -0.359375q-0.34375 -0.125 -0.828125 -0.125q-0.546875 0 -1.03125 0.15625q-0.46875 0.15625 -0.859375 0.359375q-0.375 0.1875 -0.640625 0.359375q-0.265625 0.15625 -0.390625 0.15625q-0.078125 0 -0.140625 -0.03125q-0.0625 -0.046875 -0.109375 -0.140625q-0.03125 -0.109375 -0.0625 -0.296875q-0.015625 -0.203125 -0.015625 -0.515625q0 -0.265625 0 -0.4375q0.015625 -0.171875 0.046875 -0.28125q0.03125 -0.109375 0.078125 -0.1875q0.046875 -0.09375 0.15625 -0.1875q0.109375 -0.109375 0.421875 -0.296875q0.328125 -0.203125 0.8125 -0.390625q0.5 -0.1875 1.140625 -0.3125q0.640625 -0.140625 1.390625 -0.140625q0.96875 0 1.71875 0.234375q0.765625 0.234375 1.28125 0.671875q0.515625 0.421875 0.78125 1.0625q0.265625 0.625 0.265625 1.40625q0 0.609375 -0.15625 1.140625q-0.15625 0.53125 -0.46875 0.953125q-0.296875 0.421875 -0.75 0.71875q-0.453125 0.28125 -1.046875 0.421875l0 0.03125q0.71875 0.09375 1.28125 0.375q0.5625 0.265625 0.953125 0.6875q0.390625 0.40625 0.59375 0.9375q0.203125 0.53125 0.203125 1.125z" fill-rule="nonzero"/><path fill="#000000" fill-opacity="0.0" d="m109.40157 94.46719l0 -39.338585" fill-rule="evenodd"/><path stroke="#44546a" stroke-width="3.0" stroke-linejoin="round" stroke-linecap="butt" d="m109.40157 94.46719l0 -21.338585" fill-rule="evenodd"/><path fill="#44546a" stroke="#44546a" stroke-width="3.0" stroke-linecap="butt" d="m114.35677 73.12861l-4.9552 -13.614292l-4.9551926 13.614292z" fill-rule="evenodd"/><path fill="#000000" fill-opacity="0.0" d="m286.91602 94.46719l0 -39.338585" fill-rule="evenodd"/><path stroke="#44546a" stroke-width="3.0" stroke-linejoin="round" stroke-linecap="butt" d="m286.91602 94.46719l0 -21.338585" fill-rule="evenodd"/><path fill="#44546a" stroke="#44546a" stroke-width="3.0" stroke-linecap="butt" d="m291.87122 73.12861l-4.9552 -13.614292l-4.9552 13.614292z" fill-rule="evenodd"/><path fill="#000000" fill-opacity="0.0" d="m457.61942 94.46719l0 -39.338585" fill-rule="evenodd"/><path stroke="#44546a" stroke-width="3.0" stroke-linejoin="round" stroke-linecap="butt" d="m457.61942 94.46719l0 -21.338585" fill-rule="evenodd"/><path fill="#44546a" stroke="#44546a" stroke-width="3.0" stroke-linecap="butt" d="m462.57462 73.12861l-4.9552 -13.614292l-4.9552 13.614292z" fill-rule="evenodd"/><path fill="#b0dd46" fill-opacity="0.8039" d="m52.0 160.65092l114.80315 0l0 66.17322l-114.80315 0z" fill-rule="evenodd"/><path stroke="#44546a" stroke-width="1.0" stroke-linejoin="round" stroke-linecap="butt" d="m52.0 160.65092l114.80315 0l0 66.17322l-114.80315 0z" fill-rule="evenodd"/><path fill="#000000" d="m106.566956 204.92628q0 0.15625 -0.09375 0.28125q-0.09375 0.109375 -0.3125 0.1875q-0.21875 0.078125 -0.609375 0.109375q-0.375 0.046875 -0.9375 0.046875q-0.578125 0 -0.96875 -0.046875q-0.375 -0.03125 -0.59375 -0.109375q-0.21875 -0.078125 -0.3125 -0.1875q-0.09375 -0.125 -0.09375 -0.28125l0 -7.953125q0 -1.015625 -0.15625 -1.59375q-0.140625 -0.578125 -0.421875 -0.984375q-0.28125 -0.421875 -0.734375 -0.640625q-0.4375 -0.234375 -1.03125 -0.234375q-0.75 0 -1.515625 0.546875q-0.765625 0.546875 -1.59375 1.59375l0 9.265625q0 0.15625 -0.09375 0.28125q-0.09375 0.109375 -0.328125 0.1875q-0.21875 0.078125 -0.59375 0.109375q-0.375 0.046875 -0.953125 0.046875q-0.578125 0 -0.953125 -0.046875q-0.375 -0.03125 -0.609375 -0.109375q-0.21875 -0.078125 -0.3125 -0.1875q-0.09375 -0.125 -0.09375 -0.28125l0 -20.546875q0 -0.15625 0.09375 -0.28125q0.09375 -0.125 0.3125 -0.203125q0.234375 -0.09375 0.609375 -0.140625q0.375 -0.046875 0.953125 -0.046875q0.578125 0 0.953125 0.046875q0.375 0.046875 0.59375 0.140625q0.234375 0.078125 0.328125 0.203125q0.09375 0.125 0.09375 0.28125l0 7.703125q1.015625 -1.0 2.0625 -1.484375q1.0625 -0.5 2.203125 -0.5q1.421875 0 2.390625 0.46875q0.984375 0.46875 1.578125 1.28125q0.609375 0.8125 0.875 1.90625q0.265625 1.078125 0.265625 2.625l0 8.546875zm8.484375 -19.6875q0 0.609375 -0.0625 1.125q-0.0625 0.5 -0.203125 0.953125q-0.140625 0.453125 -0.359375 0.890625q-0.21875 0.421875 -0.546875 0.875l-2.09375 3.0q-0.109375 0.15625 -0.25 0.265625q-0.125 0.109375 -0.3125 0.1875q-0.1875 0.0625 -0.453125 0.09375q-0.265625 0.03125 -0.671875 0.03125q-0.453125 0 -0.734375 -0.03125q-0.28125 -0.03125 -0.40625 -0.109375q-0.125 -0.078125 -0.140625 -0.203125q0 -0.140625 0.078125 -0.3125l1.90625 -4.3125l0 -2.453125q0 -0.53125 0.125 -0.859375q0.125 -0.328125 0.390625 -0.5q0.265625 -0.1875 0.671875 -0.234375q0.40625 -0.0625 0.984375 -0.0625q0.546875 0 0.9375 0.0625q0.390625 0.046875 0.640625 0.234375q0.265625 0.171875 0.375 0.5q0.125 0.328125 0.125 0.859375z" fill-rule="nonzero"/><path fill="#000000" d="m126.535706 216.41066q0 0.296875 -0.03125 0.5q-0.03125 0.203125 -0.09375 0.328125q-0.046875 0.109375 -0.125 0.171875q-0.0625 0.046875 -0.15625 0.046875l-7.4375 0q-0.09375 0 -0.171875 -0.046875q-0.0625 -0.0625 -0.125 -0.171875q-0.046875 -0.125 -0.078125 -0.328125q-0.03125 -0.203125 -0.03125 -0.5q0 -0.296875 0.015625 -0.5q0.03125 -0.203125 0.078125 -0.328125q0.0625 -0.125 0.140625 -0.171875q0.078125 -0.0625 0.171875 -0.0625l2.5 0l0 -8.765625l-2.15625 1.1875q-0.25 0.109375 -0.40625 0.140625q-0.140625 0.03125 -0.234375 -0.0625q-0.078125 -0.09375 -0.109375 -0.3125q-0.03125 -0.21875 -0.03125 -0.609375q0 -0.25 0 -0.40625q0.015625 -0.15625 0.046875 -0.265625q0.046875 -0.125 0.125 -0.1875q0.078125 -0.078125 0.203125 -0.171875l2.890625 -1.875q0.046875 -0.03125 0.125 -0.0625q0.078125 -0.03125 0.203125 -0.046875q0.125 -0.015625 0.328125 -0.015625q0.203125 0 0.53125 0q0.390625 0 0.640625 0.015625q0.25 0.015625 0.375 0.046875q0.125 0.03125 0.15625 0.09375q0.046875 0.0625 0.046875 0.15625l0 11.140625l2.203125 0q0.09375 0 0.171875 0.0625q0.078125 0.046875 0.125 0.171875q0.0625 0.125 0.078125 0.328125q0.03125 0.203125 0.03125 0.5z" fill-rule="nonzero"/><path fill="#b0dd46" fill-opacity="0.8039" d="m229.51443 160.65092l114.80316 0l0 66.17322l-114.80316 0z" fill-rule="evenodd"/><path stroke="#44546a" stroke-width="1.0" stroke-linejoin="round" stroke-linecap="butt" d="m229.51443 160.65092l114.80316 0l0 66.17322l-114.80316 0z" fill-rule="evenodd"/><path fill="#000000" d="m284.0814 204.92628q0 0.15625 -0.09375 0.28125q-0.09375 0.109375 -0.3125 0.1875q-0.21875 0.078125 -0.609375 0.109375q-0.375 0.046875 -0.9375 0.046875q-0.578125 0 -0.96875 -0.046875q-0.375 -0.03125 -0.59375 -0.109375q-0.21875 -0.078125 -0.3125 -0.1875q-0.09375 -0.125 -0.09375 -0.28125l0 -7.953125q0 -1.015625 -0.15625 -1.59375q-0.140625 -0.578125 -0.421875 -0.984375q-0.28125 -0.421875 -0.734375 -0.640625q-0.4375 -0.234375 -1.03125 -0.234375q-0.75 0 -1.515625 0.546875q-0.765625 0.546875 -1.59375 1.59375l0 9.265625q0 0.15625 -0.09375 0.28125q-0.09375 0.109375 -0.328125 0.1875q-0.21875 0.078125 -0.59375 0.109375q-0.375 0.046875 -0.953125 0.046875q-0.578125 0 -0.953125 -0.046875q-0.375 -0.03125 -0.609375 -0.109375q-0.21875 -0.078125 -0.3125 -0.1875q-0.09375 -0.125 -0.09375 -0.28125l0 -20.546875q0 -0.15625 0.09375 -0.28125q0.09375 -0.125 0.3125 -0.203125q0.234375 -0.09375 0.609375 -0.140625q0.375 -0.046875 0.953125 -0.046875q0.578125 0 0.953125 0.046875q0.375 0.046875 0.59375 0.140625q0.234375 0.078125 0.328125 0.203125q0.09375 0.125 0.09375 0.28125l0 7.703125q1.015625 -1.0 2.0625 -1.484375q1.0625 -0.5 2.203125 -0.5q1.421875 0 2.390625 0.46875q0.984375 0.46875 1.578125 1.28125q0.609375 0.8125 0.875 1.90625q0.265625 1.078125 0.265625 2.625l0 8.546875zm8.484375 -19.6875q0 0.609375 -0.0625 1.125q-0.0625 0.5 -0.203125 0.953125q-0.140625 0.453125 -0.359375 0.890625q-0.21875 0.421875 -0.546875 0.875l-2.09375 3.0q-0.109375 0.15625 -0.25 0.265625q-0.125 0.109375 -0.3125 0.1875q-0.1875 0.0625 -0.453125 0.09375q-0.265625 0.03125 -0.671875 0.03125q-0.453125 0 -0.734375 -0.03125q-0.28125 -0.03125 -0.40625 -0.109375q-0.125 -0.078125 -0.140625 -0.203125q0 -0.140625 0.078125 -0.3125l1.90625 -4.3125l0 -2.453125q0 -0.53125 0.125 -0.859375q0.125 -0.328125 0.390625 -0.5q0.265625 -0.1875 0.671875 -0.234375q0.40625 -0.0625 0.984375 -0.0625q0.546875 0 0.9375 0.0625q0.390625 0.046875 0.640625 0.234375q0.265625 0.171875 0.375 0.5q0.125 0.328125 0.125 0.859375z" fill-rule="nonzero"/><path fill="#000000" d="m304.17514 216.34816q0 0.296875 -0.03125 0.515625q-0.015625 0.203125 -0.078125 0.34375q-0.046875 0.140625 -0.125 0.203125q-0.078125 0.046875 -0.1875 0.046875l-7.75 0q-0.234375 0 -0.40625 -0.03125q-0.15625 -0.046875 -0.265625 -0.171875q-0.09375 -0.125 -0.140625 -0.34375q-0.046875 -0.234375 -0.046875 -0.59375q0 -0.34375 0.03125 -0.59375q0.03125 -0.25 0.109375 -0.4375q0.078125 -0.1875 0.203125 -0.375q0.140625 -0.1875 0.34375 -0.40625l2.34375 -2.5q0.6875 -0.71875 1.109375 -1.3125q0.4375 -0.609375 0.671875 -1.09375q0.25 -0.5 0.328125 -0.921875q0.09375 -0.421875 0.09375 -0.796875q0 -0.34375 -0.109375 -0.640625q-0.109375 -0.3125 -0.328125 -0.53125q-0.203125 -0.234375 -0.53125 -0.359375q-0.328125 -0.140625 -0.765625 -0.140625q-0.609375 0 -1.09375 0.15625q-0.46875 0.15625 -0.828125 0.359375q-0.359375 0.1875 -0.59375 0.34375q-0.234375 0.15625 -0.375 0.15625q-0.09375 0 -0.171875 -0.0625q-0.0625 -0.0625 -0.109375 -0.203125q-0.03125 -0.140625 -0.0625 -0.375q-0.015625 -0.25 -0.015625 -0.609375q0 -0.234375 0.015625 -0.390625q0.015625 -0.171875 0.046875 -0.28125q0.03125 -0.125 0.078125 -0.21875q0.046875 -0.09375 0.171875 -0.21875q0.140625 -0.125 0.484375 -0.3125q0.359375 -0.1875 0.859375 -0.375q0.515625 -0.1875 1.125 -0.3125q0.625 -0.125 1.28125 -0.125q1.0625 0 1.84375 0.265625q0.78125 0.265625 1.296875 0.75q0.53125 0.46875 0.78125 1.125q0.265625 0.640625 0.265625 1.390625q0 0.65625 -0.125 1.296875q-0.125 0.625 -0.53125 1.359375q-0.390625 0.734375 -1.109375 1.625q-0.71875 0.890625 -1.90625 2.078125l-1.578125 1.609375l5.3125 0q0.109375 0 0.1875 0.0625q0.09375 0.0625 0.15625 0.203125q0.0625 0.125 0.09375 0.34375q0.03125 0.203125 0.03125 0.5z" fill-rule="nonzero"/><path fill="#b0dd46" fill-opacity="0.8039" d="m400.21783 160.65092l114.80316 0l0 66.17322l-114.80316 0z" fill-rule="evenodd"/><path stroke="#44546a" stroke-width="1.0" stroke-linejoin="round" stroke-linecap="butt" d="m400.21783 160.65092l114.80316 0l0 66.17322l-114.80316 0z" fill-rule="evenodd"/><path fill="#000000" d="m454.7848 204.92628q0 0.15625 -0.09375 0.28125q-0.09375 0.109375 -0.3125 0.1875q-0.21875 0.078125 -0.609375 0.109375q-0.375 0.046875 -0.9375 0.046875q-0.578125 0 -0.96875 -0.046875q-0.375 -0.03125 -0.59375 -0.109375q-0.21875 -0.078125 -0.3125 -0.1875q-0.09375 -0.125 -0.09375 -0.28125l0 -7.953125q0 -1.015625 -0.15625 -1.59375q-0.140625 -0.578125 -0.421875 -0.984375q-0.28125 -0.421875 -0.734375 -0.640625q-0.4375 -0.234375 -1.03125 -0.234375q-0.75 0 -1.515625 0.546875q-0.765625 0.546875 -1.59375 1.59375l0 9.265625q0 0.15625 -0.09375 0.28125q-0.09375 0.109375 -0.328125 0.1875q-0.21875 0.078125 -0.59375 0.109375q-0.375 0.046875 -0.953125 0.046875q-0.578125 0 -0.953125 -0.046875q-0.375 -0.03125 -0.609375 -0.109375q-0.21875 -0.078125 -0.3125 -0.1875q-0.09375 -0.125 -0.09375 -0.28125l0 -20.546875q0 -0.15625 0.09375 -0.28125q0.09375 -0.125 0.3125 -0.203125q0.234375 -0.09375 0.609375 -0.140625q0.375 -0.046875 0.953125 -0.046875q0.578125 0 0.953125 0.046875q0.375 0.046875 0.59375 0.140625q0.234375 0.078125 0.328125 0.203125q0.09375 0.125 0.09375 0.28125l0 7.703125q1.015625 -1.0 2.0625 -1.484375q1.0625 -0.5 2.203125 -0.5q1.421875 0 2.390625 0.46875q0.984375 0.46875 1.578125 1.28125q0.609375 0.8125 0.875 1.90625q0.265625 1.078125 0.265625 2.625l0 8.546875zm8.484375 -19.6875q0 0.609375 -0.0625 1.125q-0.0625 0.5 -0.203125 0.953125q-0.140625 0.453125 -0.359375 0.890625q-0.21875 0.421875 -0.546875 0.875l-2.09375 3.0q-0.109375 0.15625 -0.25 0.265625q-0.125 0.109375 -0.3125 0.1875q-0.1875 0.0625 -0.453125 0.09375q-0.265625 0.03125 -0.671875 0.03125q-0.453125 0 -0.734375 -0.03125q-0.28125 -0.03125 -0.40625 -0.109375q-0.125 -0.078125 -0.140625 -0.203125q0 -0.140625 0.078125 -0.3125l1.90625 -4.3125l0 -2.453125q0 -0.53125 0.125 -0.859375q0.125 -0.328125 0.390625 -0.5q0.265625 -0.1875 0.671875 -0.234375q0.40625 -0.0625 0.984375 -0.0625q0.546875 0 0.9375 0.0625q0.390625 0.046875 0.640625 0.234375q0.265625 0.171875 0.375 0.5q0.125 0.328125 0.125 0.859375z" fill-rule="nonzero"/><path fill="#000000" d="m474.81604 213.50441q0 1.015625 -0.390625 1.796875q-0.375 0.78125 -1.0625 1.3125q-0.6875 0.53125 -1.65625 0.8125q-0.953125 0.265625 -2.078125 0.265625q-0.6875 0 -1.296875 -0.09375q-0.609375 -0.09375 -1.078125 -0.234375q-0.453125 -0.15625 -0.765625 -0.3125q-0.296875 -0.15625 -0.390625 -0.234375q-0.09375 -0.09375 -0.140625 -0.1875q-0.046875 -0.109375 -0.078125 -0.25q-0.03125 -0.140625 -0.046875 -0.34375q-0.015625 -0.21875 -0.015625 -0.53125q0 -0.5 0.078125 -0.6875q0.078125 -0.1875 0.25 -0.1875q0.109375 0 0.359375 0.140625q0.25 0.140625 0.640625 0.296875q0.40625 0.15625 0.9375 0.296875q0.53125 0.140625 1.203125 0.140625q0.578125 0 1.015625 -0.125q0.4375 -0.140625 0.734375 -0.375q0.3125 -0.25 0.46875 -0.59375q0.15625 -0.359375 0.15625 -0.78125q0 -0.46875 -0.1875 -0.84375q-0.1875 -0.375 -0.546875 -0.640625q-0.359375 -0.265625 -0.90625 -0.40625q-0.546875 -0.15625 -1.28125 -0.15625l-1.171875 0q-0.125 0 -0.21875 -0.03125q-0.09375 -0.046875 -0.15625 -0.15625q-0.0625 -0.109375 -0.09375 -0.3125q-0.03125 -0.203125 -0.03125 -0.53125q0 -0.296875 0.03125 -0.484375q0.03125 -0.203125 0.078125 -0.296875q0.0625 -0.109375 0.140625 -0.15625q0.09375 -0.046875 0.21875 -0.046875l1.1875 0q0.59375 0 1.0625 -0.140625q0.46875 -0.140625 0.78125 -0.390625q0.328125 -0.265625 0.484375 -0.625q0.171875 -0.375 0.171875 -0.828125q0 -0.34375 -0.109375 -0.640625q-0.109375 -0.3125 -0.34375 -0.53125q-0.21875 -0.234375 -0.578125 -0.359375q-0.34375 -0.125 -0.828125 -0.125q-0.546875 0 -1.03125 0.15625q-0.46875 0.15625 -0.859375 0.359375q-0.375 0.1875 -0.640625 0.359375q-0.265625 0.15625 -0.390625 0.15625q-0.078125 0 -0.140625 -0.03125q-0.0625 -0.046875 -0.109375 -0.140625q-0.03125 -0.109375 -0.0625 -0.296875q-0.015625 -0.203125 -0.015625 -0.515625q0 -0.265625 0 -0.4375q0.015625 -0.171875 0.046875 -0.28125q0.03125 -0.109375 0.078125 -0.1875q0.046875 -0.09375 0.15625 -0.1875q0.109375 -0.109375 0.421875 -0.296875q0.328125 -0.203125 0.8125 -0.390625q0.5 -0.1875 1.140625 -0.3125q0.640625 -0.140625 1.390625 -0.140625q0.96875 0 1.71875 0.234375q0.765625 0.234375 1.28125 0.671875q0.515625 0.421875 0.78125 1.0625q0.265625 0.625 0.265625 1.40625q0 0.609375 -0.15625 1.140625q-0.15625 0.53125 -0.46875 0.953125q-0.296875 0.421875 -0.75 0.71875q-0.453125 0.28125 -1.046875 0.421875l0 0.03125q0.71875 0.09375 1.28125 0.375q0.5625 0.265625 0.953125 0.6875q0.390625 0.40625 0.59375 0.9375q0.203125 0.53125 0.203125 1.125z" fill-rule="nonzero"/><path fill="#000000" fill-opacity="0.0" d="m229.51443 193.73753l-62.708664 0" fill-rule="evenodd"/><path stroke="#44546a" stroke-width="3.0" stroke-linejoin="round" stroke-linecap="butt" d="m229.51443 193.73753l-44.708664 0" fill-rule="evenodd"/><path fill="#44546a" stroke="#44546a" stroke-width="3.0" stroke-linecap="butt" d="m184.80577 188.78233l-13.614288 4.9552l13.614288 4.9552z" fill-rule="evenodd"/><path fill="#000000" fill-opacity="0.0" d="m400.21783 193.73753l-55.905487 0" fill-rule="evenodd"/><path stroke="#44546a" stroke-width="3.0" stroke-linejoin="round" stroke-linecap="butt" d="m400.21783 193.73753l-37.905487 0" fill-rule="evenodd"/><path fill="#44546a" stroke="#44546a" stroke-width="3.0" stroke-linecap="butt" d="m362.31235 188.78233l-13.614319 4.9552l13.614319 4.9552z" fill-rule="evenodd"/><path fill="#000000" fill-opacity="0.0" d="m52.0 193.73753l-49.070866 0.94488525" fill-rule="evenodd"/><path stroke="#44546a" stroke-width="3.0" stroke-linejoin="round" stroke-linecap="butt" d="m52.0 193.73753l-31.074203 0.5983429" fill-rule="evenodd"/><path fill="#44546a" stroke="#44546a" stroke-width="3.0" stroke-linecap="butt" d="m20.8304 189.3816l-13.516373 5.2163696l13.707167 4.6921844z" fill-rule="evenodd"/><path fill="#000000" fill-opacity="0.0" d="m515.021 193.73753l34.70868 0.94488525" fill-rule="evenodd"/><path stroke="#44546a" stroke-width="3.0" stroke-linejoin="round" stroke-linecap="butt" d="m533.0143 194.22736l16.715393 0.45506287" fill-rule="evenodd"/><path fill="#44546a" stroke="#44546a" stroke-width="3.0" stroke-linecap="butt" d="m533.1492 189.274l-13.74408 4.5828857l13.474365 5.3238373z" fill-rule="evenodd"/></g></svg>