<svg version="1.1" viewBox="0.0 0.0 1169.1364829396325 431.1706036745407" fill="none" stroke="none" stroke-linecap="square" stroke-miterlimit="10" xmlns:xlink="http://www.w3.org/1999/xlink" xmlns="http://www.w3.org/2000/svg"><clipPath id="p.0"><path d="m0 0l1169.1365 0l0 431.1706l-1169.1365 0l0 -431.1706z" clip-rule="nonzero"/></clipPath><g clip-path="url(#p.0)"><path fill="#000000" fill-opacity="0.0" d="m0 0l1169.1365 0l0 431.1706l-1169.1365 0z" fill-rule="evenodd"/><path fill="#000000" fill-opacity="0.0" d="m719.6099 210.74803l229.48035 0" fill-rule="evenodd"/><path stroke="#000000" stroke-width="1.0" stroke-linejoin="round" stroke-linecap="butt" d="m719.6099 210.74803l223.48029 0" fill-rule="evenodd"/><path fill="#000000" stroke="#000000" stroke-width="1.0" stroke-linecap="butt" d="m943.0902 212.39977l4.538086 -1.6517334l-4.538086 -1.6517334z" fill-rule="evenodd"/><path fill="#ffffff" d="m8.440945 0l194.86613 0l0 80.15748l-194.86613 0z" fill-rule="evenodd"/><path stroke="#000000" stroke-width="1.0" stroke-linejoin="round" stroke-linecap="butt" d="m8.440945 0l194.86613 0l0 80.15748l-194.86613 0z" fill-rule="evenodd"/><path fill="#000000" d="m72.99259 42.764366l1.796875 0l1.515625 1.984375l0.390625 0.53125l2.25 2.984375l-1.796875 0l-1.484375 -1.984375l-0.375 -0.5l-2.296875 -3.015625zm6.515625 -2.546875q0 2.140625 -0.78125 3.703125q-0.765625 1.5625 -2.125 2.421875q-1.34375 0.84375 -3.078125 0.84375q-1.75 0 -3.109375 -0.84375q-1.34375 -0.859375 -2.125 -2.421875q-0.765625 -1.5625 -0.765625 -3.703125q0 -2.15625 0.765625 -3.71875q0.78125 -1.5625 2.125 -2.40625q1.359375 -0.84375 3.109375 -0.84375q1.734375 0 3.078125 0.84375q1.359375 0.84375 2.125 2.40625q0.78125 1.5625 0.78125 3.71875zm-1.59375 0q0 -1.765625 -0.59375 -2.96875q-0.578125 -1.21875 -1.578125 -1.84375q-1.0 -0.625 -2.21875 -0.625q-1.234375 0 -2.234375 0.625q-1.0 0.625 -1.59375 1.84375q-0.578125 1.203125 -0.578125 2.96875q0 1.765625 0.578125 2.984375q0.59375 1.203125 1.59375 1.828125q1.0 0.625 2.234375 0.625q1.21875 0 2.21875 -0.625q1.0 -0.625 1.578125 -1.828125q0.59375 -1.21875 0.59375 -2.984375zm10.548126 2.625l0 -6.015625l1.5625 0l0 10.171875l-1.5625 0l0 -1.71875l-0.109375 0q-0.359375 0.765625 -1.109375 1.3125q-0.75 0.53125 -1.90625 0.53125q-0.953125 0 -1.703125 -0.40625q-0.734375 -0.421875 -1.15625 -1.265625q-0.421875 -0.859375 -0.421875 -2.15625l0 -6.46875l1.5625 0l0 6.359375q0 1.109375 0.625 1.78125q0.625 0.65625 1.59375 0.65625q0.578125 0 1.1875 -0.296875q0.609375 -0.296875 1.015625 -0.90625q0.421875 -0.625 0.421875 -1.578125zm8.698166 4.375q-1.46875 0 -2.546875 -0.65625q-1.0625 -0.65625 -1.640625 -1.828125q-0.5625 -1.171875 -0.5625 -2.75q0 -1.5625 0.5625 -2.75q0.578125 -1.203125 1.609375 -1.875q1.03125 -0.671875 2.40625 -0.671875q0.796875 0 1.578125 0.265625q0.78125 0.265625 1.40625 0.859375q0.640625 0.59375 1.015625 1.578125q0.375 0.96875 0.375 2.390625l0 0.65625l-7.84375 0l0 -1.34375l6.265625 0q0 -0.859375 -0.34375 -1.53125q-0.34375 -0.6875 -0.96875 -1.078125q-0.625 -0.390625 -1.484375 -0.390625q-0.921875 0 -1.609375 0.46875q-0.671875 0.453125 -1.046875 1.1875q-0.359375 0.734375 -0.359375 1.578125l0 0.90625q0 1.140625 0.390625 1.953125q0.40625 0.796875 1.125 1.21875q0.71875 0.40625 1.671875 0.40625q0.609375 0 1.109375 -0.171875q0.5 -0.1875 0.859375 -0.53125q0.375 -0.359375 0.5625 -0.890625l1.515625 0.421875q-0.234375 0.765625 -0.796875 1.34375q-0.5625 0.578125 -1.390625 0.90625q-0.828125 0.328125 -1.859375 0.328125zm13.802795 -8.109375l-1.40625 0.390625q-0.125 -0.34375 -0.390625 -0.671875q-0.25 -0.34375 -0.6875 -0.5625q-0.4375 -0.21875 -1.125 -0.21875q-0.9375 0 -1.5625 0.421875q-0.609375 0.421875 -0.609375 1.078125q0 0.59375 0.421875 0.9375q0.421875 0.328125 1.328125 0.546875l1.515625 0.375q1.359375 0.328125 2.03125 1.015625q0.671875 0.671875 0.671875 1.75q0 0.859375 -0.5 1.5625q-0.5 0.6875 -1.40625 1.09375q-0.890625 0.390625 -2.078125 0.390625q-1.546875 0 -2.578125 -0.671875q-1.015625 -0.6875 -1.28125 -1.984375l1.484375 -0.375q0.203125 0.828125 0.796875 1.234375q0.59375 0.40625 1.5625 0.40625q1.09375 0 1.734375 -0.453125q0.640625 -0.46875 0.640625 -1.125q0 -0.53125 -0.375 -0.890625q-0.359375 -0.375 -1.125 -0.546875l-1.703125 -0.390625q-1.390625 -0.34375 -2.046875 -1.03125q-0.65625 -0.703125 -0.65625 -1.765625q0 -0.859375 0.484375 -1.515625q0.484375 -0.65625 1.328125 -1.03125q0.859375 -0.390625 1.921875 -0.390625q1.515625 0 2.375 0.671875q0.875 0.65625 1.234375 1.75zm6.9710083 -2.28125l0 1.328125l-5.28125 0l0 -1.328125l5.28125 0zm-3.734375 -2.4375l1.5625 0l0 9.6875q0 0.671875 0.1875 1.0q0.203125 0.328125 0.5 0.4375q0.3125 0.109375 0.65625 0.109375q0.265625 0 0.421875 -0.03125q0.171875 -0.03125 0.265625 -0.046875l0.328125 1.40625q-0.15625 0.046875 -0.453125 0.109375q-0.28125 0.0625 -0.71875 0.0625q-0.65625 0 -1.296875 -0.28125q-0.625 -0.28125 -1.046875 -0.859375q-0.40625 -0.59375 -0.40625 -1.46875l0 -10.125zm6.0966797 12.609375l0 -10.171875l1.5625 0l0 10.171875l-1.5625 0zm0.78125 -11.875q-0.453125 0 -0.78125 -0.3125q-0.328125 -0.3125 -0.328125 -0.75q0 -0.4375 0.328125 -0.75q0.328125 -0.3125 0.78125 -0.3125q0.46875 0 0.796875 0.3125q0.328125 0.3125 0.328125 0.75q0 0.4375 -0.328125 0.75q-0.328125 0.3125 -0.796875 0.3125zm7.769356 12.09375q-1.3749924 0 -2.4218674 -0.65625q-1.03125 -0.65625 -1.609375 -1.828125q-0.578125 -1.1875 -0.578125 -2.765625q0 -1.59375 0.578125 -2.78125q0.578125 -1.1875 1.609375 -1.84375q1.046875 -0.65625 2.4218674 -0.65625q1.375 0 2.40625 0.65625q1.046875 0.65625 1.625 1.84375q0.578125 1.1875 0.578125 2.78125q0 1.578125 -0.578125 2.765625q-0.578125 1.171875 -1.625 1.828125q-1.03125 0.65625 -2.40625 0.65625zm0 -1.40625q1.046875 0 1.71875 -0.53125q0.6875 -0.546875 1.0 -1.421875q0.328125 -0.875 0.328125 -1.890625q0 -1.03125 -0.328125 -1.90625q-0.3125 -0.875 -1.0 -1.421875q-0.671875 -0.546875 -1.71875 -0.546875q-1.0468674 0 -1.7187424 0.546875q-0.671875 0.546875 -1.0 1.421875q-0.328125 0.875 -0.328125 1.90625q0 1.015625 0.328125 1.890625q0.328125 0.875 1.0 1.421875q0.671875 0.53125 1.7187424 0.53125zm8.56781 -4.9375l0 6.125l-1.5625153 0l0 -10.171875l1.5000153 0l0 1.578125l0.140625 0q0.359375 -0.765625 1.078125 -1.234375q0.734375 -0.484375 1.890625 -0.484375q1.03125 0 1.796875 0.421875q0.78125 0.421875 1.203125 1.28125q0.4375 0.84375 0.4375 2.140625l0 6.46875l-1.5625 0l0 -6.359375q0 -1.203125 -0.625 -1.875q-0.625 -0.671875 -1.703125 -0.671875q-0.75 0 -1.34375 0.328125q-0.578125 0.328125 -0.921875 0.953125q-0.328125 0.609375 -0.328125 1.5z" fill-rule="nonzero"/><path fill="#ffffff" d="m0 177.58301l0 0c0 -9.158539 7.424466 -16.583008 16.58301 -16.583008l178.58202 0c4.3980865 0 8.616043 1.7471313 11.725952 4.8570557c3.1099243 3.109909 4.8570557 7.3278656 4.8570557 11.725952l0 66.33005c0 9.158539 -7.424469 16.583008 -16.583008 16.583008l-178.58202 0c-9.158544 0 -16.58301 -7.424469 -16.58301 -16.583008z" fill-rule="evenodd"/><path stroke="#000000" stroke-width="1.0" stroke-linejoin="round" stroke-linecap="butt" d="m0 177.58301l0 0c0 -9.158539 7.424466 -16.583008 16.58301 -16.583008l178.58202 0c4.3980865 0 8.616043 1.7471313 11.725952 4.8570557c3.1099243 3.109909 4.8570557 7.3278656 4.8570557 11.725952l0 66.33005c0 9.158539 -7.424469 16.583008 -16.583008 16.583008l-178.58202 0c-9.158544 0 -16.58301 -7.424469 -16.58301 -16.583008z" fill-rule="evenodd"/><path fill="#000000" d="m33.97031 213.43365l1.796875 0l1.515625 1.984375l0.390625 0.53125l2.25 2.984375l-1.796875 0l-1.484375 -1.984375l-0.375 -0.5l-2.296875 -3.015625zm6.515625 -2.546875q0 2.140625 -0.78125 3.703125q-0.765625 1.5625 -2.125 2.421875q-1.34375 0.84375 -3.078125 0.84375q-1.75 0 -3.109377 -0.84375q-1.34375 -0.859375 -2.125 -2.421875q-0.765625 -1.5625 -0.765625 -3.703125q0 -2.15625 0.765625 -3.71875q0.78125 -1.5625 2.125 -2.40625q1.3593769 -0.84375 3.109377 -0.84375q1.734375 0 3.078125 0.84375q1.359375 0.84375 2.125 2.40625q0.78125 1.5625 0.78125 3.71875zm-1.59375 0q0 -1.765625 -0.59375 -2.96875q-0.578125 -1.21875 -1.578125 -1.84375q-1.0 -0.625 -2.21875 -0.625q-1.234375 0 -2.234375 0.625q-1.0000019 0.625 -1.5937519 1.84375q-0.578125 1.203125 -0.578125 2.96875q0 1.765625 0.578125 2.984375q0.59375 1.203125 1.5937519 1.828125q1.0 0.625 2.234375 0.625q1.21875 0 2.21875 -0.625q1.0 -0.625 1.578125 -1.828125q0.59375 -1.21875 0.59375 -2.984375zm10.548126 2.625l0 -6.015625l1.5625 0l0 10.171875l-1.5625 0l0 -1.71875l-0.109375 0q-0.359375 0.765625 -1.109375 1.3125q-0.75 0.53125 -1.90625 0.53125q-0.953125 0 -1.703125 -0.40625q-0.734375 -0.421875 -1.15625 -1.265625q-0.421875 -0.859375 -0.421875 -2.15625l0 -6.46875l1.5625 0l0 6.359375q0 1.109375 0.625 1.78125q0.625 0.65625 1.59375 0.65625q0.578125 0 1.1875 -0.296875q0.609375 -0.296875 1.015625 -0.90625q0.421875 -0.625 0.421875 -1.578125zm8.698166 4.375q-1.46875 0 -2.546875 -0.65625q-1.0625 -0.65625 -1.640625 -1.828125q-0.5625 -1.171875 -0.5625 -2.75q0 -1.5625 0.5625 -2.75q0.578125 -1.203125 1.609375 -1.875q1.03125 -0.671875 2.40625 -0.671875q0.796875 0 1.578125 0.265625q0.78125 0.265625 1.40625 0.859375q0.640625 0.59375 1.015625 1.578125q0.375 0.96875 0.375 2.390625l0 0.65625l-7.84375 0l0 -1.34375l6.265625 0q0 -0.859375 -0.34375 -1.53125q-0.34375 -0.6875 -0.96875 -1.078125q-0.625 -0.390625 -1.484375 -0.390625q-0.921875 0 -1.609375 0.46875q-0.671875 0.453125 -1.046875 1.1875q-0.359375 0.734375 -0.359375 1.578125l0 0.90625q0 1.140625 0.390625 1.953125q0.40625 0.796875 1.125 1.21875q0.71875 0.40625 1.671875 0.40625q0.609375 0 1.109375 -0.171875q0.5 -0.1875 0.859375 -0.53125q0.375 -0.359375 0.5625 -0.890625l1.515625 0.421875q-0.234375 0.765625 -0.796875 1.34375q-0.5625 0.578125 -1.390625 0.90625q-0.828125 0.328125 -1.859375 0.328125zm13.802792 -8.109375l-1.40625 0.390625q-0.125 -0.34375 -0.390625 -0.671875q-0.25 -0.34375 -0.6875 -0.5625q-0.4375 -0.21875 -1.125 -0.21875q-0.9375 0 -1.5625 0.421875q-0.609375 0.421875 -0.609375 1.078125q0 0.59375 0.421875 0.9375q0.421875 0.328125 1.328125 0.546875l1.515625 0.375q1.359375 0.328125 2.03125 1.015625q0.671875 0.671875 0.671875 1.75q0 0.859375 -0.5 1.5625q-0.5 0.6875 -1.40625 1.09375q-0.890625 0.390625 -2.078125 0.390625q-1.546875 0 -2.578125 -0.671875q-1.015625 -0.6875 -1.28125 -1.984375l1.484375 -0.375q0.203125 0.828125 0.796875 1.234375q0.59375 0.40625 1.5625 0.40625q1.09375 0 1.734375 -0.453125q0.640625 -0.46875 0.640625 -1.125q0 -0.53125 -0.375 -0.890625q-0.359375 -0.375 -1.125 -0.546875l-1.703125 -0.390625q-1.390625 -0.34375 -2.046875 -1.03125q-0.65625 -0.703125 -0.65625 -1.765625q0 -0.859375 0.484375 -1.515625q0.484375 -0.65625 1.328125 -1.03125q0.859375 -0.390625 1.921875 -0.390625q1.515625 0 2.375 0.671875q0.875 0.65625 1.234375 1.75zm6.9710083 -2.28125l0 1.328125l-5.28125 0l0 -1.328125l5.28125 0zm-3.734375 -2.4375l1.5625 0l0 9.6875q0 0.671875 0.1875 1.0q0.203125 0.328125 0.5 0.4375q0.3125 0.109375 0.65625 0.109375q0.265625 0 0.421875 -0.03125q0.171875 -0.03125 0.265625 -0.046875l0.328125 1.40625q-0.15625 0.046875 -0.453125 0.109375q-0.28125 0.0625 -0.71875 0.0625q-0.65625 0 -1.296875 -0.28125q-0.625 -0.28125 -1.046875 -0.859375q-0.40625 -0.59375 -0.40625 -1.46875l0 -10.125zm6.0966797 12.609375l0 -10.171875l1.5625 0l0 10.171875l-1.5625 0zm0.78125 -11.875q-0.453125 0 -0.78125 -0.3125q-0.328125 -0.3125 -0.328125 -0.75q0 -0.4375 0.328125 -0.75q0.328125 -0.3125 0.78125 -0.3125q0.46875 0 0.796875 0.3125q0.328125 0.3125 0.328125 0.75q0 0.4375 -0.328125 0.75q-0.328125 0.3125 -0.796875 0.3125zm7.7693634 12.09375q-1.375 0 -2.421875 -0.65625q-1.03125 -0.65625 -1.609375 -1.828125q-0.578125 -1.1875 -0.578125 -2.765625q0 -1.59375 0.578125 -2.78125q0.578125 -1.1875 1.609375 -1.84375q1.046875 -0.65625 2.421875 -0.65625q1.375 0 2.40625 0.65625q1.046875 0.65625 1.625 1.84375q0.578125 1.1875 0.578125 2.78125q0 1.578125 -0.578125 2.765625q-0.578125 1.171875 -1.625 1.828125q-1.03125 0.65625 -2.40625 0.65625zm0 -1.40625q1.046875 0 1.71875 -0.53125q0.6875 -0.546875 1.0 -1.421875q0.328125 -0.875 0.328125 -1.890625q0 -1.03125 -0.328125 -1.90625q-0.3125 -0.875 -1.0 -1.421875q-0.671875 -0.546875 -1.71875 -0.546875q-1.046875 0 -1.71875 0.546875q-0.671875 0.546875 -1.0 1.421875q-0.328125 0.875 -0.328125 1.90625q0 1.015625 0.328125 1.890625q0.328125 0.875 1.0 1.421875q0.671875 0.53125 1.71875 0.53125zm8.567795 -4.9375l0 6.125l-1.5625 0l0 -10.171875l1.5 0l0 1.578125l0.140625 0q0.359375 -0.765625 1.078125 -1.234375q0.734375 -0.484375 1.890625 -0.484375q1.03125 0 1.796875 0.421875q0.78125 0.421875 1.203125 1.28125q0.4375 0.84375 0.4375 2.140625l0 6.46875l-1.5625 0l0 -6.359375q0 -1.203125 -0.625 -1.875q-0.625 -0.671875 -1.703125 -0.671875q-0.75 0 -1.34375 0.328125q-0.578125 0.328125 -0.921875 0.953125q-0.328125 0.609375 -0.328125 1.5zm15.368561 6.125l-1.71875 0l4.96875 -13.5625l1.703125 0l4.984375 13.5625l-1.71875 0l-4.0625 -11.421875l-0.109375 0l-4.046875 11.421875zm0.625 -5.296875l6.953125 0l0 1.453125l-6.953125 0l0 -1.453125zm12.786209 -0.828125l0 6.125l-1.5625 0l0 -10.171875l1.5 0l0 1.578125l0.140625 0q0.359375 -0.765625 1.078125 -1.234375q0.734375 -0.484375 1.890625 -0.484375q1.03125 0 1.796875 0.421875q0.78125 0.421875 1.203125 1.28125q0.4375 0.84375 0.4375 2.140625l0 6.46875l-1.5625 0l0 -6.359375q0 -1.203125 -0.625 -1.875q-0.625 -0.671875 -1.703125 -0.671875q-0.75 0 -1.34375 0.328125q-0.578125 0.328125 -0.921875 0.953125q-0.328125 0.609375 -0.328125 1.5zm12.340164 6.359375q-0.96875 0 -1.765625 -0.359375q-0.78125 -0.375 -1.25 -1.0625q-0.453125 -0.703125 -0.453125 -1.703125q0 -0.875 0.34375 -1.421875q0.34375 -0.546875 0.921875 -0.859375q0.578125 -0.3125 1.265625 -0.46875q0.703125 -0.15625 1.421875 -0.25q0.921875 -0.109375 1.5 -0.171875q0.578125 -0.0625 0.84375 -0.21875q0.28125 -0.15625 0.28125 -0.53125l0 -0.046875q0 -0.984375 -0.546875 -1.53125q-0.53125 -0.546875 -1.609375 -0.546875q-1.109375 0 -1.75 0.5q-0.640625 0.484375 -0.890625 1.046875l-1.484375 -0.53125q0.390625 -0.921875 1.046875 -1.4375q0.671875 -0.53125 1.46875 -0.734375q0.796875 -0.21875 1.5625 -0.21875q0.484375 0 1.125 0.125q0.640625 0.109375 1.234375 0.46875q0.609375 0.359375 1.0 1.078125q0.40625 0.71875 0.40625 1.9375l0 6.703125l-1.5625 0l0 -1.375l-0.078125 0q-0.171875 0.328125 -0.546875 0.703125q-0.359375 0.375 -0.984375 0.640625q-0.609375 0.265625 -1.5 0.265625zm0.25 -1.40625q0.921875 0 1.5625 -0.359375q0.640625 -0.359375 0.96875 -0.9375q0.328125 -0.578125 0.328125 -1.21875l0 -1.421875q-0.109375 0.109375 -0.453125 0.21875q-0.328125 0.09375 -0.765625 0.15625q-0.421875 0.0625 -0.828125 0.125q-0.40625 0.046875 -0.65625 0.078125q-0.609375 0.078125 -1.140625 0.265625q-0.53125 0.171875 -0.859375 0.515625q-0.3125 0.34375 -0.3125 0.9375q0 0.8125 0.609375 1.234375q0.609375 0.40625 1.546875 0.40625zm8.848907 -12.390625l0 13.5625l-1.5625 0l0 -13.5625l1.5625 0zm3.8631134 17.375q-0.390625 0 -0.703125 -0.0625q-0.3125 -0.0625 -0.4375 -0.125l0.40625 -1.375q0.5625 0.140625 1.0 0.09375q0.4375 -0.03125 0.78125 -0.375q0.34375 -0.34375 0.625 -1.125l0.296875 -0.796875l-3.765625 -10.21875l1.6875 0l2.8125 8.109375l0.109375 0l2.8125 -8.109375l1.6875 0l-4.3125 11.65625q-0.296875 0.78125 -0.734375 1.296875q-0.421875 0.53125 -1.0 0.78125q-0.5625 0.25 -1.265625 0.25zm16.5914 -11.703125l-1.40625 0.390625q-0.125 -0.34375 -0.390625 -0.671875q-0.25 -0.34375 -0.6875 -0.5625q-0.4375 -0.21875 -1.125 -0.21875q-0.9375 0 -1.5625 0.421875q-0.609375 0.421875 -0.609375 1.078125q0 0.59375 0.421875 0.9375q0.421875 0.328125 1.328125 0.546875l1.515625 0.375q1.359375 0.328125 2.03125 1.015625q0.671875 0.671875 0.671875 1.75q0 0.859375 -0.5 1.5625q-0.5 0.6875 -1.40625 1.09375q-0.890625 0.390625 -2.078125 0.390625q-1.546875 0 -2.578125 -0.671875q-1.015625 -0.6875 -1.28125 -1.984375l1.484375 -0.375q0.203125 0.828125 0.796875 1.234375q0.59375 0.40625 1.5625 0.40625q1.09375 0 1.734375 -0.453125q0.640625 -0.46875 0.640625 -1.125q0 -0.53125 -0.375 -0.890625q-0.359375 -0.375 -1.125 -0.546875l-1.703125 -0.390625q-1.390625 -0.34375 -2.046875 -1.03125q-0.65625 -0.703125 -0.65625 -1.765625q0 -0.859375 0.484375 -1.515625q0.484375 -0.65625 1.328125 -1.03125q0.859375 -0.390625 1.921875 -0.390625q1.515625 0 2.375 0.671875q0.875 0.65625 1.234375 1.75zm2.5491333 7.890625l0 -10.171875l1.5625 0l0 10.171875l-1.5625 0zm0.78125 -11.875q-0.453125 0 -0.78125 -0.3125q-0.328125 -0.3125 -0.328125 -0.75q0 -0.4375 0.328125 -0.75q0.328125 -0.3125 0.78125 -0.3125q0.46875 0 0.796875 0.3125q0.328125 0.3125 0.328125 0.75q0 0.4375 -0.328125 0.75q-0.328125 0.3125 -0.796875 0.3125zm10.847488 3.984375l-1.40625 0.390625q-0.125 -0.34375 -0.390625 -0.671875q-0.25 -0.34375 -0.6875 -0.5625q-0.4375 -0.21875 -1.125 -0.21875q-0.9375 0 -1.5625 0.421875q-0.609375 0.421875 -0.609375 1.078125q0 0.59375 0.421875 0.9375q0.421875 0.328125 1.328125 0.546875l1.515625 0.375q1.359375 0.328125 2.03125 1.015625q0.671875 0.671875 0.671875 1.75q0 0.859375 -0.5 1.5625q-0.5 0.6875 -1.40625 1.09375q-0.890625 0.390625 -2.078125 0.390625q-1.546875 0 -2.578125 -0.671875q-1.015625 -0.6875 -1.28125 -1.984375l1.484375 -0.375q0.203125 0.828125 0.796875 1.234375q0.59375 0.40625 1.5625 0.40625q1.09375 0 1.734375 -0.453125q0.640625 -0.46875 0.640625 -1.125q0 -0.53125 -0.375 -0.890625q-0.359375 -0.375 -1.125 -0.546875l-1.703125 -0.390625q-1.390625 -0.34375 -2.046875 -1.03125q-0.65625 -0.703125 -0.65625 -1.765625q0 -0.859375 0.484375 -1.515625q0.484375 -0.65625 1.328125 -1.03125q0.859375 -0.390625 1.921875 -0.390625q1.515625 0 2.375 0.671875q0.875 0.65625 1.234375 1.75z" fill-rule="nonzero"/><path fill="#ffffff" d="m262.3719 170.6693l194.86615 0l0 80.15747l-194.86615 0z" fill-rule="evenodd"/><path stroke="#000000" stroke-width="1.0" stroke-linejoin="round" stroke-linecap="butt" d="m262.3719 170.6693l194.86615 0l0 80.15747l-194.86615 0z" fill-rule="evenodd"/><path fill="#000000" d="m324.17838 197.3399q-0.21875 -0.671875 -0.578125 -1.203125q-0.359375 -0.53125 -0.84375 -0.90625q-0.484375 -0.375 -1.109375 -0.578125q-0.609375 -0.203125 -1.34375 -0.203125q-1.203125 0 -2.1875 0.625q-0.984375 0.625 -1.578125 1.84375q-0.578125 1.203125 -0.578125 2.96875q0 1.765625 0.578125 2.984375q0.59375 1.203125 1.59375 1.828125q1.015625 0.625 2.28125 0.625q1.171875 0 2.0625 -0.5q0.890625 -0.515625 1.390625 -1.421875q0.5 -0.921875 0.5 -2.171875l0.5 0.109375l-4.078125 0l0 -1.453125l5.15625 0l0 1.453125q0 1.671875 -0.71875 2.921875q-0.703125 1.234375 -1.953125 1.921875q-1.25 0.671875 -2.859375 0.671875q-1.796875 0 -3.171875 -0.84375q-1.359375 -0.859375 -2.125 -2.421875q-0.75 -1.5625 -0.75 -3.703125q0 -1.609375 0.4375 -2.890625q0.4375 -1.296875 1.234375 -2.203125q0.796875 -0.90625 1.875 -1.390625q1.09375 -0.484375 2.390625 -0.484375q1.078125 0 2.0 0.328125q0.9375 0.3125 1.671875 0.90625q0.734375 0.578125 1.21875 1.390625q0.484375 0.8125 0.671875 1.796875l-1.6875 0zm8.641113 9.546875q-1.46875 0 -2.546875 -0.65625q-1.0625 -0.65625 -1.640625 -1.828125q-0.5625 -1.171875 -0.5625 -2.75q0 -1.5625 0.5625 -2.75q0.578125 -1.203125 1.609375 -1.875q1.03125 -0.671875 2.40625 -0.671875q0.796875 0 1.578125 0.265625q0.78125 0.265625 1.40625 0.859375q0.640625 0.59375 1.015625 1.578125q0.375 0.96875 0.375 2.390625l0 0.65625l-7.84375 0l0 -1.34375l6.265625 0q0 -0.859375 -0.34375 -1.53125q-0.34375 -0.6875 -0.96875 -1.078125q-0.625 -0.390625 -1.484375 -0.390625q-0.921875 0 -1.609375 0.46875q-0.671875 0.453125 -1.046875 1.1875q-0.359375 0.734375 -0.359375 1.578125l0 0.90625q0 1.140625 0.390625 1.953125q0.40625 0.796875 1.125 1.21875q0.71875 0.40625 1.671875 0.40625q0.609375 0 1.109375 -0.171875q0.5 -0.1875 0.859375 -0.53125q0.375 -0.359375 0.5625 -0.890625l1.515625 0.421875q-0.234375 0.765625 -0.796875 1.34375q-0.5625 0.578125 -1.390625 0.90625q-0.828125 0.328125 -1.859375 0.328125zm8.16217 -6.34375l0 6.125l-1.5625 0l0 -10.171875l1.5 0l0 1.578125l0.140625 0q0.359375 -0.765625 1.078125 -1.234375q0.734375 -0.484375 1.890625 -0.484375q1.03125 0 1.796875 0.421875q0.78125 0.421875 1.203125 1.28125q0.4375 0.84375 0.4375 2.140625l0 6.46875l-1.5625 0l0 -6.359375q0 -1.203125 -0.625 -1.875q-0.625 -0.671875 -1.703125 -0.671875q-0.75 0 -1.34375 0.328125q-0.578125 0.328125 -0.921875 0.953125q-0.328125 0.609375 -0.328125 1.5zm13.621399 6.34375q-1.46875 0 -2.546875 -0.65625q-1.0625 -0.65625 -1.640625 -1.828125q-0.5625 -1.171875 -0.5625 -2.75q0 -1.5625 0.5625 -2.75q0.578125 -1.203125 1.609375 -1.875q1.03125 -0.671875 2.40625 -0.671875q0.796875 0 1.578125 0.265625q0.78125 0.265625 1.40625 0.859375q0.640625 0.59375 1.015625 1.578125q0.375 0.96875 0.375 2.390625l0 0.65625l-7.84375 0l0 -1.34375l6.265625 0q0 -0.859375 -0.34375 -1.53125q-0.34375 -0.6875 -0.96875 -1.078125q-0.625 -0.390625 -1.484375 -0.390625q-0.921875 0 -1.609375 0.46875q-0.671875 0.453125 -1.046875 1.1875q-0.359375 0.734375 -0.359375 1.578125l0 0.90625q0 1.140625 0.390625 1.953125q0.40625 0.796875 1.125 1.21875q0.71875 0.40625 1.671875 0.40625q0.609375 0 1.109375 -0.171875q0.5 -0.1875 0.859375 -0.53125q0.375 -0.359375 0.5625 -0.890625l1.515625 0.421875q-0.234375 0.765625 -0.796875 1.34375q-0.5625 0.578125 -1.390625 0.90625q-0.828125 0.328125 -1.859375 0.328125zm6.5996704 -0.21875l0 -10.171875l1.5 0l0 1.53125l0.109375 0q0.28125 -0.75 1.0 -1.21875q0.734375 -0.46875 1.65625 -0.46875q0.171875 0 0.421875 0q0.265625 0 0.390625 0.015625l0 1.59375q-0.078125 -0.015625 -0.359375 -0.0625q-0.28125 -0.046875 -0.59375 -0.046875q-0.734375 0 -1.328125 0.3125q-0.578125 0.3125 -0.90625 0.859375q-0.328125 0.53125 -0.328125 1.21875l0 6.4375l-1.5625 0zm9.927582 0.234375q-0.96875 0 -1.765625 -0.359375q-0.78125 -0.375 -1.25 -1.0625q-0.453125 -0.703125 -0.453125 -1.703125q0 -0.875 0.34375 -1.421875q0.34375 -0.546875 0.921875 -0.859375q0.578125 -0.3125 1.265625 -0.46875q0.703125 -0.15625 1.421875 -0.25q0.921875 -0.109375 1.5 -0.171875q0.578125 -0.0625 0.84375 -0.21875q0.28125 -0.15625 0.28125 -0.53125l0 -0.046875q0 -0.984375 -0.546875 -1.53125q-0.53125 -0.546875 -1.609375 -0.546875q-1.109375 0 -1.75 0.5q-0.640625 0.484375 -0.890625 1.046875l-1.484375 -0.53125q0.390625 -0.921875 1.046875 -1.4375q0.671875 -0.53125 1.46875 -0.734375q0.796875 -0.21875 1.5625 -0.21875q0.484375 0 1.125 0.125q0.640625 0.109375 1.234375 0.46875q0.609375 0.359375 1.0 1.078125q0.40625 0.71875 0.40625 1.9375l0 6.703125l-1.5625 0l0 -1.375l-0.078125 0q-0.171875 0.328125 -0.546875 0.703125q-0.359375 0.375 -0.984375 0.640625q-0.609375 0.265625 -1.5 0.265625zm0.25 -1.40625q0.921875 0 1.5625 -0.359375q0.640625 -0.359375 0.96875 -0.9375q0.328125 -0.578125 0.328125 -1.21875l0 -1.421875q-0.109375 0.109375 -0.453125 0.21875q-0.328125 0.09375 -0.765625 0.15625q-0.421875 0.0625 -0.828125 0.125q-0.40625 0.046875 -0.65625 0.078125q-0.609375 0.078125 -1.140625 0.265625q-0.53125 0.171875 -0.859375 0.515625q-0.3125 0.34375 -0.3125 0.9375q0 0.8125 0.609375 1.234375q0.609375 0.40625 1.546875 0.40625zm11.708282 -9.0l0 1.328125l-5.28125 0l0 -1.328125l5.28125 0zm-3.734375 -2.4375l1.5625 0l0 9.6875q0 0.671875 0.1875 1.0q0.203125 0.328125 0.5 0.4375q0.3125 0.109375 0.65625 0.109375q0.265625 0 0.421875 -0.03125q0.171875 -0.03125 0.265625 -0.046875l0.328125 1.40625q-0.15625 0.046875 -0.453125 0.109375q-0.28125 0.0625 -0.71875 0.0625q-0.65625 0 -1.296875 -0.28125q-0.625 -0.28125 -1.046875 -0.859375q-0.40625 -0.59375 -0.40625 -1.46875l0 -10.125zm10.256226 12.828125q-1.46875 0 -2.546875 -0.65625q-1.0625 -0.65625 -1.640625 -1.828125q-0.5625 -1.171875 -0.5625 -2.75q0 -1.5625 0.5625 -2.75q0.578125 -1.203125 1.609375 -1.875q1.03125 -0.671875 2.40625 -0.671875q0.796875 0 1.578125 0.265625q0.78125 0.265625 1.40625 0.859375q0.640625 0.59375 1.015625 1.578125q0.375 0.96875 0.375 2.390625l0 0.65625l-7.84375 0l0 -1.34375l6.265625 0q0 -0.859375 -0.34375 -1.53125q-0.34375 -0.6875 -0.96875 -1.078125q-0.625 -0.390625 -1.484375 -0.390625q-0.921875 0 -1.609375 0.46875q-0.671875 0.453125 -1.046875 1.1875q-0.359375 0.734375 -0.359375 1.578125l0 0.90625q0 1.140625 0.390625 1.953125q0.40625 0.796875 1.125 1.21875q0.71875 0.40625 1.671875 0.40625q0.609375 0 1.109375 -0.171875q0.5 -0.1875 0.859375 -0.53125q0.375 -0.359375 0.5625 -0.890625l1.515625 0.421875q-0.234375 0.765625 -0.796875 1.34375q-0.5625 0.578125 -1.390625 0.90625q-0.828125 0.328125 -1.859375 0.328125zm10.44342 0q-1.28125 0 -2.265625 -0.640625q-0.96875 -0.65625 -1.515625 -1.828125q-0.546875 -1.1875 -0.546875 -2.8125q0 -1.609375 0.546875 -2.78125q0.546875 -1.1875 1.53125 -1.828125q0.984375 -0.640625 2.265625 -0.640625q1.0 0 1.578125 0.328125q0.578125 0.328125 0.875 0.75q0.3125 0.40625 0.484375 0.671875l0.140625 0l0 -5.0l1.5625 0l0 13.5625l-1.515625 0l0 -1.5625l-0.1875 0q-0.171875 0.28125 -0.484375 0.703125q-0.3125 0.421875 -0.90625 0.75q-0.59375 0.328125 -1.5625 0.328125zm0.203125 -1.40625q0.9375 0 1.578125 -0.484375q0.65625 -0.5 1.0 -1.375q0.34375 -0.890625 0.34375 -2.046875q0 -1.140625 -0.34375 -1.984375q-0.328125 -0.859375 -0.984375 -1.34375q-0.640625 -0.484375 -1.59375 -0.484375q-1.0 0 -1.65625 0.515625q-0.65625 0.5 -0.984375 1.375q-0.328125 0.859375 -0.328125 1.921875q0 1.09375 0.328125 1.984375q0.34375 0.875 1.0 1.40625q0.65625 0.515625 1.640625 0.515625z" fill-rule="nonzero"/><path fill="#000000" d="m332.43567 224.43365l1.796875 0l1.515625 1.984375l0.390625 0.53125l2.25 2.984375l-1.796875 0l-1.484375 -1.984375l-0.375 -0.5l-2.296875 -3.015625zm6.515625 -2.546875q0 2.140625 -0.78125 3.703125q-0.765625 1.5625 -2.125 2.421875q-1.34375 0.84375 -3.078125 0.84375q-1.75 0 -3.109375 -0.84375q-1.34375 -0.859375 -2.125 -2.421875q-0.765625 -1.5625 -0.765625 -3.703125q0 -2.15625 0.765625 -3.71875q0.78125 -1.5625 2.125 -2.40625q1.359375 -0.84375 3.109375 -0.84375q1.734375 0 3.078125 0.84375q1.359375 0.84375 2.125 2.40625q0.78125 1.5625 0.78125 3.71875zm-1.59375 0q0 -1.765625 -0.59375 -2.96875q-0.578125 -1.21875 -1.578125 -1.84375q-1.0 -0.625 -2.21875 -0.625q-1.234375 0 -2.234375 0.625q-1.0 0.625 -1.59375 1.84375q-0.578125 1.203125 -0.578125 2.96875q0 1.765625 0.578125 2.984375q0.59375 1.203125 1.59375 1.828125q1.0 0.625 2.234375 0.625q1.21875 0 2.21875 -0.625q1.0 -0.625 1.578125 -1.828125q0.59375 -1.21875 0.59375 -2.984375zm10.548126 2.625l0 -6.015625l1.5625 0l0 10.171875l-1.5625 0l0 -1.71875l-0.109375 0q-0.359375 0.765625 -1.109375 1.3125q-0.75 0.53125 -1.90625 0.53125q-0.953125 0 -1.703125 -0.40625q-0.734375 -0.421875 -1.15625 -1.265625q-0.421875 -0.859375 -0.421875 -2.15625l0 -6.46875l1.5625 0l0 6.359375q0 1.109375 0.625 1.78125q0.625 0.65625 1.59375 0.65625q0.578125 0 1.1875 -0.296875q0.609375 -0.296875 1.015625 -0.90625q0.421875 -0.625 0.421875 -1.578125zm8.698181 4.375q-1.46875 0 -2.546875 -0.65625q-1.0625 -0.65625 -1.640625 -1.828125q-0.5625 -1.171875 -0.5625 -2.75q0 -1.5625 0.5625 -2.75q0.578125 -1.203125 1.609375 -1.875q1.03125 -0.671875 2.40625 -0.671875q0.796875 0 1.578125 0.265625q0.78125 0.265625 1.40625 0.859375q0.640625 0.59375 1.015625 1.578125q0.375 0.96875 0.375 2.390625l0 0.65625l-7.84375 0l0 -1.34375l6.265625 0q0 -0.859375 -0.34375 -1.53125q-0.34375 -0.6875 -0.96875 -1.078125q-0.625 -0.390625 -1.484375 -0.390625q-0.921875 0 -1.609375 0.46875q-0.671875 0.453125 -1.046875 1.1875q-0.359375 0.734375 -0.359375 1.578125l0 0.90625q0 1.140625 0.390625 1.953125q0.40625 0.796875 1.125 1.21875q0.71875 0.40625 1.671875 0.40625q0.609375 0 1.109375 -0.171875q0.5 -0.1875 0.859375 -0.53125q0.375 -0.359375 0.5625 -0.890625l1.515625 0.421875q-0.234375 0.765625 -0.796875 1.34375q-0.5625 0.578125 -1.390625 0.90625q-0.828125 0.328125 -1.859375 0.328125zm6.5996704 -0.21875l0 -10.171875l1.5 0l0 1.53125l0.109375 0q0.28125 -0.75 1.0 -1.21875q0.734375 -0.46875 1.65625 -0.46875q0.171875 0 0.421875 0q0.265625 0 0.390625 0.015625l0 1.59375q-0.078125 -0.015625 -0.359375 -0.0625q-0.28125 -0.046875 -0.59375 -0.046875q-0.734375 0 -1.328125 0.3125q-0.578125 0.3125 -0.90625 0.859375q-0.328125 0.53125 -0.328125 1.21875l0 6.4375l-1.5625 0zm6.9431763 0l0 -10.171875l1.5625 0l0 10.171875l-1.5625 0zm0.78125 -11.875q-0.453125 0 -0.78125 -0.3125q-0.328125 -0.3125 -0.328125 -0.75q0 -0.4375 0.328125 -0.75q0.328125 -0.3125 0.78125 -0.3125q0.46875 0 0.796875 0.3125q0.328125 0.3125 0.328125 0.75q0 0.4375 -0.328125 0.75q-0.328125 0.3125 -0.796875 0.3125zm7.9100037 12.09375q-1.46875 0 -2.546875 -0.65625q-1.0625 -0.65625 -1.640625 -1.828125q-0.5625 -1.171875 -0.5625 -2.75q0 -1.5625 0.5625 -2.75q0.578125 -1.203125 1.609375 -1.875q1.03125 -0.671875 2.40625 -0.671875q0.796875 0 1.578125 0.265625q0.78125 0.265625 1.40625 0.859375q0.640625 0.59375 1.015625 1.578125q0.375 0.96875 0.375 2.390625l0 0.65625l-7.84375 0l0 -1.34375l6.265625 0q0 -0.859375 -0.34375 -1.53125q-0.34375 -0.6875 -0.96875 -1.078125q-0.625 -0.390625 -1.484375 -0.390625q-0.921875 0 -1.609375 0.46875q-0.671875 0.453125 -1.046875 1.1875q-0.359375 0.734375 -0.359375 1.578125l0 0.90625q0 1.140625 0.390625 1.953125q0.40625 0.796875 1.125 1.21875q0.71875 0.40625 1.671875 0.40625q0.609375 0 1.109375 -0.171875q0.5 -0.1875 0.859375 -0.53125q0.375 -0.359375 0.5625 -0.890625l1.515625 0.421875q-0.234375 0.765625 -0.796875 1.34375q-0.5625 0.578125 -1.390625 0.90625q-0.828125 0.328125 -1.859375 0.328125zm13.802795 -8.109375l-1.40625 0.390625q-0.125 -0.34375 -0.390625 -0.671875q-0.25 -0.34375 -0.6875 -0.5625q-0.4375 -0.21875 -1.125 -0.21875q-0.9375 0 -1.5625 0.421875q-0.609375 0.421875 -0.609375 1.078125q0 0.59375 0.421875 0.9375q0.421875 0.328125 1.328125 0.546875l1.515625 0.375q1.359375 0.328125 2.03125 1.015625q0.671875 0.671875 0.671875 1.75q0 0.859375 -0.5 1.5625q-0.5 0.6875 -1.40625 1.09375q-0.890625 0.390625 -2.078125 0.390625q-1.546875 0 -2.578125 -0.671875q-1.015625 -0.6875 -1.28125 -1.984375l1.484375 -0.375q0.203125 0.828125 0.796875 1.234375q0.59375 0.40625 1.5625 0.40625q1.09375 0 1.734375 -0.453125q0.640625 -0.46875 0.640625 -1.125q0 -0.53125 -0.375 -0.890625q-0.359375 -0.375 -1.125 -0.546875l-1.703125 -0.390625q-1.390625 -0.34375 -2.046875 -1.03125q-0.65625 -0.703125 -0.65625 -1.765625q0 -0.859375 0.484375 -1.515625q0.484375 -0.65625 1.328125 -1.03125q0.859375 -0.390625 1.921875 -0.390625q1.515625 0 2.375 0.671875q0.875 0.65625 1.234375 1.75z" fill-rule="nonzero"/><path fill="#ffffff" d="m507.8619 177.58301l0 0c0 -9.158539 7.424469 -16.583008 16.582977 -16.583008l178.58203 0c4.3980713 0 8.616028 1.7471313 11.725952 4.8570557c3.1099243 3.109909 4.8570557 7.3278656 4.8570557 11.725952l0 66.33005c0 9.158539 -7.4244385 16.583008 -16.583008 16.583008l-178.58203 0c-9.158508 0 -16.582977 -7.424469 -16.582977 -16.583008z" fill-rule="evenodd"/><path stroke="#000000" stroke-width="1.0" stroke-linejoin="round" stroke-linecap="butt" d="m507.8619 177.58301l0 0c0 -9.158539 7.424469 -16.583008 16.582977 -16.583008l178.58203 0c4.3980713 0 8.616028 1.7471313 11.725952 4.8570557c3.1099243 3.109909 4.8570557 7.3278656 4.8570557 11.725952l0 66.33005c0 9.158539 -7.4244385 16.583008 -16.583008 16.583008l-178.58203 0c-9.158508 0 -16.582977 -7.424469 -16.582977 -16.583008z" fill-rule="evenodd"/><path fill="#000000" d="m533.4502 217.66803l-4.1875 0l0 -13.5625l4.375 0q1.96875 0 3.375 0.8125q1.40625 0.8125 2.15625 2.328125q0.75 1.5 0.75 3.609375q0 2.125 -0.765625 3.65625q-0.75 1.515625 -2.203125 2.34375q-1.4375 0.8125 -3.5 0.8125zm-2.546875 -1.453125l2.4375 0q1.6875 0 2.796875 -0.640625q1.109375 -0.65625 1.640625 -1.859375q0.546875 -1.203125 0.546875 -2.859375q0 -1.640625 -0.53125 -2.828125q-0.53125 -1.1875 -1.609375 -1.828125q-1.0625 -0.640625 -2.65625 -0.640625l-2.625 0l0 10.65625zm15.690613 1.671875q-1.375 0 -2.421875 -0.65625q-1.03125 -0.65625 -1.609375 -1.828125q-0.578125 -1.1875 -0.578125 -2.765625q0 -1.59375 0.578125 -2.78125q0.578125 -1.1875 1.609375 -1.84375q1.046875 -0.65625 2.421875 -0.65625q1.375 0 2.40625 0.65625q1.046875 0.65625 1.625 1.84375q0.578125 1.1875 0.578125 2.78125q0 1.578125 -0.578125 2.765625q-0.578125 1.171875 -1.625 1.828125q-1.03125 0.65625 -2.40625 0.65625zm0 -1.40625q1.046875 0 1.71875 -0.53125q0.6875 -0.546875 1.0 -1.421875q0.328125 -0.875 0.328125 -1.890625q0 -1.03125 -0.328125 -1.90625q-0.3125 -0.875 -1.0 -1.421875q-0.671875 -0.546875 -1.71875 -0.546875q-1.046875 0 -1.71875 0.546875q-0.671875 0.546875 -1.0 1.421875q-0.328125 0.875 -0.328125 1.90625q0 1.015625 0.328125 1.890625q0.328125 0.875 1.0 1.421875q0.671875 0.53125 1.71875 0.53125zm11.13031 1.40625q-1.421875 0 -2.46875 -0.671875q-1.03125 -0.6875 -1.59375 -1.875q-0.546875 -1.1875 -0.546875 -2.703125q0 -1.546875 0.5625 -2.734375q0.578125 -1.203125 1.609375 -1.875q1.03125 -0.671875 2.40625 -0.671875q1.078125 0 1.9375 0.40625q0.859375 0.390625 1.40625 1.109375q0.5625 0.71875 0.6875 1.671875l-1.5625 0q-0.171875 -0.703125 -0.796875 -1.234375q-0.609375 -0.546875 -1.640625 -0.546875q-0.90625 0 -1.59375 0.484375q-0.6875 0.46875 -1.078125 1.328125q-0.375 0.859375 -0.375 2.0q0 1.1875 0.375 2.0625q0.375 0.875 1.0625 1.359375q0.6875 0.484375 1.609375 0.484375q0.609375 0 1.109375 -0.203125q0.5 -0.21875 0.84375 -0.609375q0.34375 -0.40625 0.484375 -0.96875l1.5625 0q-0.125 0.90625 -0.65625 1.625q-0.515625 0.71875 -1.375 1.140625q-0.84375 0.421875 -1.96875 0.421875zm12.695984 -4.375l0 -6.015625l1.5625 0l0 10.171875l-1.5625 0l0 -1.71875l-0.109375 0q-0.359375 0.765625 -1.109375 1.3125q-0.75 0.53125 -1.90625 0.53125q-0.953125 0 -1.703125 -0.40625q-0.734375 -0.421875 -1.15625 -1.265625q-0.421875 -0.859375 -0.421875 -2.15625l0 -6.46875l1.5625 0l0 6.359375q0 1.109375 0.625 1.78125q0.625 0.65625 1.59375 0.65625q0.578125 0 1.1875 -0.296875q0.609375 -0.296875 1.015625 -0.90625q0.421875 -0.625 0.421875 -1.578125zm4.432556 4.15625l0 -10.171875l1.5 0l0 1.578125l0.140625 0q0.3125 -0.8125 1.015625 -1.265625q0.71875 -0.453125 1.703125 -0.453125q1.015625 0 1.6875 0.453125q0.671875 0.453125 1.046875 1.265625l0.109375 0q0.390625 -0.78125 1.171875 -1.25q0.78125 -0.46875 1.875 -0.46875q1.359375 0 2.21875 0.859375q0.875 0.84375 0.875 2.640625l0 6.8125l-1.5625 0l0 -6.8125q0 -1.125 -0.625 -1.609375q-0.609375 -0.484375 -1.4375 -0.484375q-1.078125 0 -1.671875 0.65625q-0.578125 0.640625 -0.578125 1.625l0 6.625l-1.59375 0l0 -6.96875q0 -0.875 -0.5625 -1.40625q-0.5625 -0.53125 -1.453125 -0.53125q-0.609375 0 -1.140625 0.328125q-0.515625 0.328125 -0.84375 0.90625q-0.3125 0.5625 -0.3125 1.3125l0 6.359375l-1.5625 0zm20.48407 0.21875q-1.46875 0 -2.546875 -0.65625q-1.0625 -0.65625 -1.640625 -1.828125q-0.5625 -1.171875 -0.5625 -2.75q0 -1.5625 0.5625 -2.75q0.578125 -1.203125 1.609375 -1.875q1.03125 -0.671875 2.40625 -0.671875q0.796875 0 1.578125 0.265625q0.78125 0.265625 1.40625 0.859375q0.640625 0.59375 1.015625 1.578125q0.375 0.96875 0.375 2.390625l0 0.65625l-7.84375 0l0 -1.34375l6.265625 0q0 -0.859375 -0.34375 -1.53125q-0.34375 -0.6875 -0.96875 -1.078125q-0.625 -0.390625 -1.484375 -0.390625q-0.921875 0 -1.609375 0.46875q-0.671875 0.453125 -1.046875 1.1875q-0.359375 0.734375 -0.359375 1.578125l0 0.90625q0 1.140625 0.390625 1.953125q0.40625 0.796875 1.125 1.21875q0.71875 0.40625 1.671875 0.40625q0.609375 0 1.109375 -0.171875q0.5 -0.1875 0.859375 -0.53125q0.375 -0.359375 0.5625 -0.890625l1.515625 0.421875q-0.234375 0.765625 -0.796875 1.34375q-0.5625 0.578125 -1.390625 0.90625q-0.828125 0.328125 -1.859375 0.328125zm8.16217 -6.34375l0 6.125l-1.5625 0l0 -10.171875l1.5 0l0 1.578125l0.140625 0q0.359375 -0.765625 1.078125 -1.234375q0.734375 -0.484375 1.890625 -0.484375q1.03125 0 1.796875 0.421875q0.78125 0.421875 1.203125 1.28125q0.4375 0.84375 0.4375 2.140625l0 6.46875l-1.5625 0l0 -6.359375q0 -1.203125 -0.625 -1.875q-0.625 -0.671875 -1.703125 -0.671875q-0.75 0 -1.34375 0.328125q-0.578125 0.328125 -0.921875 0.953125q-0.328125 0.609375 -0.328125 1.5zm13.777649 -4.046875l0 1.328125l-5.28125 0l0 -1.328125l5.28125 0zm-3.734375 -2.4375l1.5625 0l0 9.6875q0 0.671875 0.1875 1.0q0.203125 0.328125 0.5 0.4375q0.3125 0.109375 0.65625 0.109375q0.265625 0 0.421875 -0.03125q0.171875 -0.03125 0.265625 -0.046875l0.328125 1.40625q-0.15625 0.046875 -0.453125 0.109375q-0.28125 0.0625 -0.71875 0.0625q-0.65625 0 -1.296875 -0.28125q-0.625 -0.28125 -1.046875 -0.859375q-0.40625 -0.59375 -0.40625 -1.46875l0 -10.125zm11.546936 12.609375l0 -13.5625l4.59375 0q1.578125 0 2.59375 0.546875q1.03125 0.53125 1.515625 1.46875q0.5 0.9375 0.5 2.140625q0 1.203125 -0.5 2.125q-0.484375 0.921875 -1.5 1.453125q-1.015625 0.53125 -2.59375 0.53125l-3.703125 0l0 -1.484375l3.65625 0q1.078125 0 1.75 -0.3125q0.671875 -0.328125 0.96875 -0.90625q0.296875 -0.59375 0.296875 -1.40625q0 -0.8125 -0.3125 -1.421875q-0.296875 -0.609375 -0.96875 -0.9375q-0.65625 -0.34375 -1.765625 -0.34375l-2.890625 0l0 12.109375l-1.640625 0zm6.390625 -6.09375l3.34375 6.09375l-1.921875 0l-3.28125 -6.09375l1.859375 0zm9.49115 6.3125q-1.46875 0 -2.546875 -0.65625q-1.0625 -0.65625 -1.640625 -1.828125q-0.5625 -1.171875 -0.5625 -2.75q0 -1.5625 0.5625 -2.75q0.578125 -1.203125 1.609375 -1.875q1.03125 -0.671875 2.40625 -0.671875q0.796875 0 1.578125 0.265625q0.78125 0.265625 1.40625 0.859375q0.640625 0.59375 1.015625 1.578125q0.375 0.96875 0.375 2.390625l0 0.65625l-7.84375 0l0 -1.34375l6.265625 0q0 -0.859375 -0.34375 -1.53125q-0.34375 -0.6875 -0.96875 -1.078125q-0.625 -0.390625 -1.484375 -0.390625q-0.921875 0 -1.609375 0.46875q-0.671875 0.453125 -1.046875 1.1875q-0.359375 0.734375 -0.359375 1.578125l0 0.90625q0 1.140625 0.390625 1.953125q0.40625 0.796875 1.125 1.21875q0.71875 0.40625 1.671875 0.40625q0.609375 0 1.109375 -0.171875q0.5 -0.1875 0.859375 -0.53125q0.375 -0.359375 0.5625 -0.890625l1.515625 0.421875q-0.234375 0.765625 -0.796875 1.34375q-0.5625 0.578125 -1.390625 0.90625q-0.828125 0.328125 -1.859375 0.328125zm11.021545 -10.390625l0 1.328125l-5.28125 0l0 -1.328125l5.28125 0zm-3.734375 -2.4375l1.5625 0l0 9.6875q0 0.671875 0.1875 1.0q0.203125 0.328125 0.5 0.4375q0.3125 0.109375 0.65625 0.109375q0.265625 0 0.421875 -0.03125q0.171875 -0.03125 0.265625 -0.046875l0.328125 1.40625q-0.15625 0.046875 -0.453125 0.109375q-0.28125 0.0625 -0.71875 0.0625q-0.65625 0 -1.296875 -0.28125q-0.625 -0.28125 -1.046875 -0.859375q-0.40625 -0.59375 -0.40625 -1.46875l0 -10.125zm6.0966797 12.609375l0 -10.171875l1.5 0l0 1.53125l0.109375 0q0.28125 -0.75 1.0 -1.21875q0.734375 -0.46875 1.65625 -0.46875q0.171875 0 0.421875 0q0.265625 0 0.390625 0.015625l0 1.59375q-0.078125 -0.015625 -0.359375 -0.0625q-0.28125 -0.046875 -0.59375 -0.046875q-0.734375 0 -1.328125 0.3125q-0.578125 0.3125 -0.90625 0.859375q-0.328125 0.53125 -0.328125 1.21875l0 6.4375l-1.5625 0zm6.9431763 0l0 -10.171875l1.5625 0l0 10.171875l-1.5625 0zm0.78125 -11.875q-0.453125 0 -0.78125 -0.3125q-0.328125 -0.3125 -0.328125 -0.75q0 -0.4375 0.328125 -0.75q0.328125 -0.3125 0.78125 -0.3125q0.46875 0 0.796875 0.3125q0.328125 0.3125 0.328125 0.75q0 0.4375 -0.328125 0.75q-0.328125 0.3125 -0.796875 0.3125zm7.909973 12.09375q-1.46875 0 -2.546875 -0.65625q-1.0625 -0.65625 -1.640625 -1.828125q-0.5625 -1.171875 -0.5625 -2.75q0 -1.5625 0.5625 -2.75q0.578125 -1.203125 1.609375 -1.875q1.03125 -0.671875 2.40625 -0.671875q0.796875 0 1.578125 0.265625q0.78125 0.265625 1.40625 0.859375q0.640625 0.59375 1.015625 1.578125q0.375 0.96875 0.375 2.390625l0 0.65625l-7.84375 0l0 -1.34375l6.265625 0q0 -0.859375 -0.34375 -1.53125q-0.34375 -0.6875 -0.96875 -1.078125q-0.625 -0.390625 -1.484375 -0.390625q-0.921875 0 -1.609375 0.46875q-0.671875 0.453125 -1.046875 1.1875q-0.359375 0.734375 -0.359375 1.578125l0 0.90625q0 1.140625 0.390625 1.953125q0.40625 0.796875 1.125 1.21875q0.71875 0.40625 1.671875 0.40625q0.609375 0 1.109375 -0.171875q0.5 -0.1875 0.859375 -0.53125q0.375 -0.359375 0.5625 -0.890625l1.515625 0.421875q-0.234375 0.765625 -0.796875 1.34375q-0.5625 0.578125 -1.390625 0.90625q-0.828125 0.328125 -1.859375 0.328125zm14.593994 -10.390625l-3.765625 10.171875l-1.578125 0l-3.765625 -10.171875l1.6875 0l2.8125 8.109375l0.109375 0l2.8125 -8.109375l1.6875 0zm4.7420044 10.40625q-0.96875 0 -1.765625 -0.359375q-0.78125 -0.375 -1.25 -1.0625q-0.453125 -0.703125 -0.453125 -1.703125q0 -0.875 0.34375 -1.421875q0.34375 -0.546875 0.921875 -0.859375q0.578125 -0.3125 1.265625 -0.46875q0.703125 -0.15625 1.421875 -0.25q0.921875 -0.109375 1.5 -0.171875q0.578125 -0.0625 0.84375 -0.21875q0.28125 -0.15625 0.28125 -0.53125l0 -0.046875q0 -0.984375 -0.546875 -1.53125q-0.53125 -0.546875 -1.609375 -0.546875q-1.109375 0 -1.75 0.5q-0.640625 0.484375 -0.890625 1.046875l-1.484375 -0.53125q0.390625 -0.921875 1.046875 -1.4375q0.671875 -0.53125 1.46875 -0.734375q0.796875 -0.21875 1.5625 -0.21875q0.484375 0 1.125 0.125q0.640625 0.109375 1.234375 0.46875q0.609375 0.359375 1.0 1.078125q0.40625 0.71875 0.40625 1.9375l0 6.703125l-1.5625 0l0 -1.375l-0.078125 0q-0.171875 0.328125 -0.546875 0.703125q-0.359375 0.375 -0.984375 0.640625q-0.609375 0.265625 -1.5 0.265625zm0.25 -1.40625q0.921875 0 1.5625 -0.359375q0.640625 -0.359375 0.96875 -0.9375q0.328125 -0.578125 0.328125 -1.21875l0 -1.421875q-0.109375 0.109375 -0.453125 0.21875q-0.328125 0.09375 -0.765625 0.15625q-0.421875 0.0625 -0.828125 0.125q-0.40625 0.046875 -0.65625 0.078125q-0.609375 0.078125 -1.140625 0.265625q-0.53125 0.171875 -0.859375 0.515625q-0.3125 0.34375 -0.3125 0.9375q0 0.8125 0.609375 1.234375q0.609375 0.40625 1.546875 0.40625zm8.848877 -12.390625l0 13.5625l-1.5625 0l0 -13.5625l1.5625 0z" fill-rule="nonzero"/><path fill="#ffffff" d="m793.4359 128.87401l105.03937 0l0 124.82381l-17.506897 17.506897l-87.53247 0z" fill-rule="evenodd"/><path fill="#cbcbcb" d="m880.9684 271.2047l3.5013428 -14.005524l14.005554 -3.5013733z" fill-rule="evenodd"/><path fill="#000000" fill-opacity="0.0" d="m880.9684 271.2047l3.5013428 -14.005524l14.005554 -3.5013733l-17.506897 17.506897l-87.53247 0l0 -142.3307l105.03937 0l0 124.82381" fill-rule="evenodd"/><path stroke="#000000" stroke-width="1.0" stroke-linejoin="round" stroke-linecap="butt" d="m880.9684 271.2047l3.5013428 -14.005524l14.005554 -3.5013733l-17.506897 17.506897l-87.53247 0l0 -142.3307l105.03937 0l0 124.82381" fill-rule="evenodd"/><path fill="#ffffff" d="m770.2338 150.29134l105.03937 0l0 124.82381l-17.506958 17.506897l-87.53241 0z" fill-rule="evenodd"/><path fill="#cbcbcb" d="m857.76624 292.62204l3.5014038 -14.005524l14.005554 -3.5013733z" fill-rule="evenodd"/><path fill="#000000" fill-opacity="0.0" d="m857.76624 292.62204l3.5014038 -14.005524l14.005554 -3.5013733l-17.506958 17.506897l-87.53241 0l0 -142.3307l105.03937 0l0 124.82381" fill-rule="evenodd"/><path stroke="#000000" stroke-width="1.0" stroke-linejoin="round" stroke-linecap="butt" d="m857.76624 292.62204l3.5014038 -14.005524l14.005554 -3.5013733l-17.506958 17.506897l-87.53241 0l0 -142.3307l105.03937 0l0 124.82381" fill-rule="evenodd"/><path fill="#ffffff" d="m949.0991 177.58301l0 0c0 -9.158539 7.4244995 -16.583008 16.583008 -16.583008l178.58203 0c4.3980713 0 8.616089 1.7471313 11.725952 4.8570557c3.1098633 3.109909 4.8570557 7.3278656 4.8570557 11.725952l0 66.33005c0 9.158539 -7.4244385 16.583008 -16.583008 16.583008l-178.58203 0c-9.158508 0 -16.583008 -7.424469 -16.583008 -16.583008z" fill-rule="evenodd"/><path stroke="#000000" stroke-width="1.0" stroke-linejoin="round" stroke-linecap="butt" d="m949.0991 177.58301l0 0c0 -9.158539 7.4244995 -16.583008 16.583008 -16.583008l178.58203 0c4.3980713 0 8.616089 1.7471313 11.725952 4.8570557c3.1098633 3.109909 4.8570557 7.3278656 4.8570557 11.725952l0 66.33005c0 9.158539 -7.4244385 16.583008 -16.583008 16.583008l-178.58203 0c-9.158508 0 -16.583008 -7.424469 -16.583008 -16.583008z" fill-rule="evenodd"/><path fill="#000000" d="m977.02496 217.66803l-1.71875 0l4.96875 -13.5625l1.703125 0l4.984375 13.5625l-1.71875 0l-4.0625 -11.421875l-0.109375 0l-4.046875 11.421875zm0.625 -5.296875l6.953125 0l0 1.453125l-6.953125 0l0 -1.453125zm12.786194 -0.828125l0 6.125l-1.5625 0l0 -10.171875l1.5 0l0 1.578125l0.140625 0q0.359375 -0.765625 1.078125 -1.234375q0.734375 -0.484375 1.890625 -0.484375q1.03125 0 1.796875 0.421875q0.78125 0.421875 1.203125 1.28125q0.4375 0.84375 0.4375 2.140625l0 6.46875l-1.5625 0l0 -6.359375q0 -1.203125 -0.625 -1.875q-0.625 -0.671875 -1.703125 -0.671875q-0.75 0 -1.34375 0.328125q-0.578125 0.328125 -0.921875 0.953125q-0.328125 0.609375 -0.328125 1.5zm16.55896 -1.765625l-1.40625 0.390625q-0.125 -0.34375 -0.390625 -0.671875q-0.25 -0.34375 -0.6875 -0.5625q-0.4375 -0.21875 -1.125 -0.21875q-0.9375 0 -1.5625 0.421875q-0.609375 0.421875 -0.609375 1.078125q0 0.59375 0.421875 0.9375q0.421875 0.328125 1.328125 0.546875l1.515625 0.375q1.359375 0.328125 2.03125 1.015625q0.671875 0.671875 0.671875 1.75q0 0.859375 -0.5 1.5625q-0.5 0.6875 -1.40625 1.09375q-0.890625 0.390625 -2.078125 0.390625q-1.546875 0 -2.578125 -0.671875q-1.015625 -0.6875 -1.28125 -1.984375l1.484375 -0.375q0.203125 0.828125 0.796875 1.234375q0.59375 0.40625 1.5625 0.40625q1.09375 0 1.734375 -0.453125q0.640625 -0.46875 0.640625 -1.125q0 -0.53125 -0.375 -0.890625q-0.359375 -0.375 -1.125 -0.546875l-1.703125 -0.390625q-1.390625 -0.34375 -2.046875 -1.03125q-0.65625 -0.703125 -0.65625 -1.765625q0 -0.859375 0.484375 -1.515625q0.484375 -0.65625 1.328125 -1.03125q0.859375 -0.390625 1.921875 -0.390625q1.515625 0 2.375 0.671875q0.875 0.65625 1.234375 1.75zm4.8460083 7.890625l-3.09375 -10.171875l1.640625 0l2.203125 7.78125l0.09375 0l2.171875 -7.78125l1.671875 0l2.15625 7.765625l0.109375 0l2.1875 -7.765625l1.640625 0l-3.09375 10.171875l-1.53125 0l-2.234375 -7.8125l-0.15625 0l-2.21875 7.8125l-1.546875 0zm16.78241 0.21875q-1.46875 0 -2.546875 -0.65625q-1.0625 -0.65625 -1.640625 -1.828125q-0.5625 -1.171875 -0.5625 -2.75q0 -1.5625 0.5625 -2.75q0.578125 -1.203125 1.609375 -1.875q1.03125 -0.671875 2.40625 -0.671875q0.796875 0 1.578125 0.265625q0.78125 0.265625 1.40625 0.859375q0.640625 0.59375 1.015625 1.578125q0.375 0.96875 0.375 2.390625l0 0.65625l-7.84375 0l0 -1.34375l6.265625 0q0 -0.859375 -0.34375 -1.53125q-0.34375 -0.6875 -0.96875 -1.078125q-0.625 -0.390625 -1.484375 -0.390625q-0.921875 0 -1.609375 0.46875q-0.671875 0.453125 -1.046875 1.1875q-0.359375 0.734375 -0.359375 1.578125l0 0.90625q0 1.140625 0.390625 1.953125q0.40625 0.796875 1.125 1.21875q0.71875 0.40625 1.671875 0.40625q0.609375 0 1.109375 -0.171875q0.5 -0.1875 0.859375 -0.53125q0.375 -0.359375 0.5625 -0.890625l1.515625 0.421875q-0.234375 0.765625 -0.796875 1.34375q-0.5625 0.578125 -1.390625 0.90625q-0.828125 0.328125 -1.859375 0.328125zm6.5997314 -0.21875l0 -10.171875l1.5 0l0 1.53125l0.109375 0q0.28125 -0.75 1.0 -1.21875q0.734375 -0.46875 1.65625 -0.46875q0.171875 0 0.421875 0q0.265625 0 0.390625 0.015625l0 1.59375q-0.078125 -0.015625 -0.359375 -0.0625q-0.28125 -0.046875 -0.59375 -0.046875q-0.734375 0 -1.328125 0.3125q-0.578125 0.3125 -0.90625 0.859375q-0.328125 0.53125 -0.328125 1.21875l0 6.4375l-1.5625 0zm12.393433 0l0 -13.5625l8.1875 0l0 1.453125l-6.546875 0l0 4.578125l6.125 0l0 1.46875l-6.125 0l0 4.609375l6.65625 0l0 1.453125l-8.296875 0zm12.109863 -10.171875l2.4375 4.15625l2.4375 -4.15625l1.8125 0l-3.296875 5.078125l3.296875 5.09375l-1.8125 0l-2.4375 -3.953125l-2.4375 3.953125l-1.796875 0l3.234375 -5.09375l-3.234375 -5.078125l1.796875 0zm13.3359375 0l0 1.328125l-5.28125 0l0 -1.328125l5.28125 0zm-3.734375 -2.4375l1.5625 0l0 9.6875q0 0.671875 0.1875 1.0q0.203125 0.328125 0.5 0.4375q0.3125 0.109375 0.65625 0.109375q0.265625 0 0.421875 -0.03125q0.171875 -0.03125 0.265625 -0.046875l0.328125 1.40625q-0.15625 0.046875 -0.453125 0.109375q-0.28125 0.0625 -0.71875 0.0625q-0.65625 0 -1.296875 -0.28125q-0.625 -0.28125 -1.046875 -0.859375q-0.40625 -0.59375 -0.40625 -1.46875l0 -10.125zm6.0966797 12.609375l0 -10.171875l1.5 0l0 1.53125l0.109375 0q0.28125 -0.75 1.0 -1.21875q0.734375 -0.46875 1.65625 -0.46875q0.171875 0 0.421875 0q0.265625 0 0.390625 0.015625l0 1.59375q-0.078125 -0.015625 -0.359375 -0.0625q-0.28125 -0.046875 -0.59375 -0.046875q-0.734375 0 -1.328125 0.3125q-0.578125 0.3125 -0.90625 0.859375q-0.328125 0.53125 -0.328125 1.21875l0 6.4375l-1.5625 0zm9.927612 0.234375q-0.96875 0 -1.765625 -0.359375q-0.78125 -0.375 -1.25 -1.0625q-0.453125 -0.703125 -0.453125 -1.703125q0 -0.875 0.34375 -1.421875q0.34375 -0.546875 0.921875 -0.859375q0.578125 -0.3125 1.265625 -0.46875q0.703125 -0.15625 1.421875 -0.25q0.921875 -0.109375 1.5 -0.171875q0.578125 -0.0625 0.84375 -0.21875q0.28125 -0.15625 0.28125 -0.53125l0 -0.046875q0 -0.984375 -0.546875 -1.53125q-0.53125 -0.546875 -1.609375 -0.546875q-1.109375 0 -1.75 0.5q-0.640625 0.484375 -0.890625 1.046875l-1.484375 -0.53125q0.390625 -0.921875 1.046875 -1.4375q0.671875 -0.53125 1.46875 -0.734375q0.796875 -0.21875 1.5625 -0.21875q0.484375 0 1.125 0.125q0.640625 0.109375 1.234375 0.46875q0.609375 0.359375 1.0 1.078125q0.40625 0.71875 0.40625 1.9375l0 6.703125l-1.5625 0l0 -1.375l-0.078125 0q-0.171875 0.328125 -0.546875 0.703125q-0.359375 0.375 -0.984375 0.640625q-0.609375 0.265625 -1.5 0.265625zm0.25 -1.40625q0.921875 0 1.5625 -0.359375q0.640625 -0.359375 0.96875 -0.9375q0.328125 -0.578125 0.328125 -1.21875l0 -1.421875q-0.109375 0.109375 -0.453125 0.21875q-0.328125 0.09375 -0.765625 0.15625q-0.421875 0.0625 -0.828125 0.125q-0.40625 0.046875 -0.65625 0.078125q-0.609375 0.078125 -1.140625 0.265625q-0.53125 0.171875 -0.859375 0.515625q-0.3125 0.34375 -0.3125 0.9375q0 0.8125 0.609375 1.234375q0.609375 0.40625 1.546875 0.40625zm11.411377 1.390625q-1.421875 0 -2.46875 -0.671875q-1.03125 -0.6875 -1.59375 -1.875q-0.546875 -1.1875 -0.546875 -2.703125q0 -1.546875 0.5625 -2.734375q0.578125 -1.203125 1.609375 -1.875q1.03125 -0.671875 2.40625 -0.671875q1.078125 0 1.9375 0.40625q0.859375 0.390625 1.40625 1.109375q0.5625 0.71875 0.6875 1.671875l-1.5625 0q-0.171875 -0.703125 -0.796875 -1.234375q-0.609375 -0.546875 -1.640625 -0.546875q-0.90625 0 -1.59375 0.484375q-0.6875 0.46875 -1.078125 1.328125q-0.375 0.859375 -0.375 2.0q0 1.1875 0.375 2.0625q0.375 0.875 1.0625 1.359375q0.6875 0.484375 1.609375 0.484375q0.609375 0 1.109375 -0.203125q0.5 -0.21875 0.84375 -0.609375q0.34375 -0.40625 0.484375 -0.96875l1.5625 0q-0.125 0.90625 -0.65625 1.625q-0.515625 0.71875 -1.375 1.140625q-0.84375 0.421875 -1.96875 0.421875zm10.71167 -10.390625l0 1.328125l-5.28125 0l0 -1.328125l5.28125 0zm-3.734375 -2.4375l1.5625 0l0 9.6875q0 0.671875 0.1875 1.0q0.203125 0.328125 0.5 0.4375q0.3125 0.109375 0.65625 0.109375q0.265625 0 0.421875 -0.03125q0.171875 -0.03125 0.265625 -0.046875l0.328125 1.40625q-0.15625 0.046875 -0.453125 0.109375q-0.28125 0.0625 -0.71875 0.0625q-0.65625 0 -1.296875 -0.28125q-0.625 -0.28125 -1.046875 -0.859375q-0.40625 -0.59375 -0.40625 -1.46875l0 -10.125zm6.0966797 12.609375l0 -10.171875l1.5625 0l0 10.171875l-1.5625 0zm0.78125 -11.875q-0.453125 0 -0.78125 -0.3125q-0.328125 -0.3125 -0.328125 -0.75q0 -0.4375 0.328125 -0.75q0.328125 -0.3125 0.78125 -0.3125q0.46875 0 0.796875 0.3125q0.328125 0.3125 0.328125 0.75q0 0.4375 -0.328125 0.75q-0.328125 0.3125 -0.796875 0.3125zm7.769287 12.09375q-1.375 0 -2.421875 -0.65625q-1.03125 -0.65625 -1.609375 -1.828125q-0.578125 -1.1875 -0.578125 -2.765625q0 -1.59375 0.578125 -2.78125q0.578125 -1.1875 1.609375 -1.84375q1.046875 -0.65625 2.421875 -0.65625q1.375 0 2.40625 0.65625q1.046875 0.65625 1.625 1.84375q0.578125 1.1875 0.578125 2.78125q0 1.578125 -0.578125 2.765625q-0.578125 1.171875 -1.625 1.828125q-1.03125 0.65625 -2.40625 0.65625zm0 -1.40625q1.046875 0 1.71875 -0.53125q0.6875 -0.546875 1.0 -1.421875q0.328125 -0.875 0.328125 -1.890625q0 -1.03125 -0.328125 -1.90625q-0.3125 -0.875 -1.0 -1.421875q-0.671875 -0.546875 -1.71875 -0.546875q-1.046875 0 -1.71875 0.546875q-0.671875 0.546875 -1.0 1.421875q-0.328125 0.875 -0.328125 1.90625q0 1.015625 0.328125 1.890625q0.328125 0.875 1.0 1.421875q0.671875 0.53125 1.71875 0.53125zm8.567871 -4.9375l0 6.125l-1.5625 0l0 -10.171875l1.5 0l0 1.578125l0.140625 0q0.359375 -0.765625 1.078125 -1.234375q0.734375 -0.484375 1.890625 -0.484375q1.03125 0 1.796875 0.421875q0.78125 0.421875 1.203125 1.28125q0.4375 0.84375 0.4375 2.140625l0 6.46875l-1.5625 0l0 -6.359375q0 -1.203125 -0.625 -1.875q-0.625 -0.671875 -1.703125 -0.671875q-0.75 0 -1.34375 0.328125q-0.578125 0.328125 -0.921875 0.953125q-0.328125 0.609375 -0.328125 1.5z" fill-rule="nonzero"/><path fill="#ffffff" d="m957.5407 0l194.86615 0l0 80.15748l-194.86615 0z" fill-rule="evenodd"/><path stroke="#000000" stroke-width="1.0" stroke-linejoin="round" stroke-linecap="butt" d="m957.5407 0l194.86615 0l0 80.15748l-194.86615 0z" fill-rule="evenodd"/><path fill="#000000" d="m1024.2234 46.99874l-1.718811 0l4.968811 -13.5625l1.703125 0l4.984375 13.5625l-1.71875 0l-4.0625 -11.421875l-0.109375 0l-4.046875 11.421875zm0.625 -5.296875l6.953125 0l0 1.453125l-6.953125 0l0 -1.453125zm12.786133 -0.828125l0 6.125l-1.5625 0l0 -10.171875l1.5 0l0 1.578125l0.140625 0q0.359375 -0.765625 1.078125 -1.234375q0.734375 -0.484375 1.890625 -0.484375q1.03125 0 1.796875 0.421875q0.78125 0.421875 1.203125 1.28125q0.4375 0.84375 0.4375 2.140625l0 6.46875l-1.5625 0l0 -6.359375q0 -1.203125 -0.625 -1.875q-0.625 -0.671875 -1.703125 -0.671875q-0.75 0 -1.34375 0.328125q-0.578125 0.328125 -0.921875 0.953125q-0.328125 0.609375 -0.328125 1.5zm16.55896 -1.765625l-1.40625 0.390625q-0.125 -0.34375 -0.390625 -0.671875q-0.25 -0.34375 -0.6875 -0.5625q-0.4375 -0.21875 -1.125 -0.21875q-0.9375 0 -1.5625 0.421875q-0.609375 0.421875 -0.609375 1.078125q0 0.59375 0.421875 0.9375q0.421875 0.328125 1.328125 0.546875l1.515625 0.375q1.359375 0.328125 2.03125 1.015625q0.671875 0.671875 0.671875 1.75q0 0.859375 -0.5 1.5625q-0.5 0.6875 -1.40625 1.09375q-0.890625 0.390625 -2.078125 0.390625q-1.546875 0 -2.578125 -0.671875q-1.015625 -0.6875 -1.28125 -1.984375l1.484375 -0.375q0.203125 0.828125 0.796875 1.234375q0.59375 0.40625 1.5625 0.40625q1.09375 0 1.734375 -0.453125q0.640625 -0.46875 0.640625 -1.125q0 -0.53125 -0.375 -0.890625q-0.359375 -0.375 -1.125 -0.546875l-1.703125 -0.390625q-1.390625 -0.34375 -2.046875 -1.03125q-0.65625 -0.703125 -0.65625 -1.765625q0 -0.859375 0.484375 -1.515625q0.484375 -0.65625 1.328125 -1.03125q0.859375 -0.390625 1.921875 -0.390625q1.515625 0 2.375 0.671875q0.875 0.65625 1.234375 1.75zm4.8459473 7.890625l-3.09375 -10.171875l1.640625 0l2.203125 7.78125l0.09375 0l2.171875 -7.78125l1.671875 0l2.15625 7.765625l0.109375 0l2.1875 -7.765625l1.640625 0l-3.09375 10.171875l-1.53125 0l-2.234375 -7.8125l-0.15625 0l-2.21875 7.8125l-1.546875 0zm16.78247 0.21875q-1.46875 0 -2.546875 -0.65625q-1.0625 -0.65625 -1.640625 -1.828125q-0.5625 -1.171875 -0.5625 -2.75q0 -1.5625 0.5625 -2.75q0.578125 -1.203125 1.609375 -1.875q1.03125 -0.671875 2.40625 -0.671875q0.796875 0 1.578125 0.265625q0.78125 0.265625 1.40625 0.859375q0.640625 0.59375 1.015625 1.578125q0.375 0.96875 0.375 2.390625l0 0.65625l-7.84375 0l0 -1.34375l6.265625 0q0 -0.859375 -0.34375 -1.53125q-0.34375 -0.6875 -0.96875 -1.078125q-0.625 -0.390625 -1.484375 -0.390625q-0.921875 0 -1.609375 0.46875q-0.671875 0.453125 -1.046875 1.1875q-0.359375 0.734375 -0.359375 1.578125l0 0.90625q0 1.140625 0.390625 1.953125q0.40625 0.796875 1.125 1.21875q0.71875 0.40625 1.671875 0.40625q0.609375 0 1.109375 -0.171875q0.5 -0.1875 0.859375 -0.53125q0.375 -0.359375 0.5625 -0.890625l1.515625 0.421875q-0.234375 0.765625 -0.796875 1.34375q-0.5625 0.578125 -1.390625 0.90625q-0.828125 0.328125 -1.859375 0.328125zm6.5997314 -0.21875l0 -10.171875l1.5 0l0 1.53125l0.109375 0q0.28125 -0.75 1.0 -1.21875q0.734375 -0.46875 1.65625 -0.46875q0.171875 0 0.421875 0q0.265625 0 0.390625 0.015625l0 1.59375q-0.078125 -0.015625 -0.359375 -0.0625q-0.28125 -0.046875 -0.59375 -0.046875q-0.734375 0 -1.328125 0.3125q-0.578125 0.3125 -0.90625 0.859375q-0.328125 0.53125 -0.328125 1.21875l0 6.4375l-1.5625 0z" fill-rule="nonzero"/><path fill="#ffffff" d="m375.10944 337.30185l194.86615 0l0 80.15747l-194.86615 0z" fill-rule="evenodd"/><path stroke="#000000" stroke-width="1.0" stroke-linejoin="round" stroke-linecap="butt" d="m375.10944 337.30185l194.86615 0l0 80.15747l-194.86615 0z" fill-rule="evenodd"/><path fill="#000000" d="m397.10593 373.30057l0 -13.5625l8.1875 0l0 1.453125l-6.546875 0l0 4.578125l6.125 0l0 1.46875l-6.125 0l0 4.609375l6.65625 0l0 1.453125l-8.296875 0zm12.109924 -10.171875l2.4375 4.15625l2.4375 -4.15625l1.8125 0l-3.296875 5.078125l3.296875 5.09375l-1.8125 0l-2.4375 -3.953125l-2.4375 3.953125l-1.796875 0l3.234375 -5.09375l-3.234375 -5.078125l1.796875 0zm8.914032 13.984375l0 -13.984375l1.5 0l0 1.609375l0.1875 0q0.171875 -0.265625 0.484375 -0.671875q0.3125 -0.421875 0.890625 -0.75q0.578125 -0.328125 1.5625 -0.328125q1.296875 0 2.265625 0.640625q0.984375 0.640625 1.53125 1.828125q0.5625 1.171875 0.5625 2.78125q0 1.625 -0.5625 2.8125q-0.546875 1.171875 -1.515625 1.828125q-0.96875 0.640625 -2.25 0.640625q-0.984375 0 -1.578125 -0.328125q-0.578125 -0.328125 -0.90625 -0.75q-0.3125 -0.421875 -0.484375 -0.703125l-0.125 0l0 5.375l-1.5625 0zm1.53125 -8.90625q0 1.15625 0.328125 2.046875q0.34375 0.875 0.984375 1.375q0.65625 0.484375 1.609375 0.484375q0.96875 0 1.625 -0.515625q0.671875 -0.53125 1.0 -1.40625q0.328125 -0.890625 0.328125 -1.984375q0 -1.0625 -0.328125 -1.921875q-0.3125 -0.875 -0.984375 -1.375q-0.65625 -0.515625 -1.640625 -0.515625q-0.96875 0 -1.625 0.484375q-0.640625 0.484375 -0.96875 1.34375q-0.328125 0.84375 -0.328125 1.984375zm14.10318 5.3125q-1.46875 0 -2.546875 -0.65625q-1.0625 -0.65625 -1.640625 -1.828125q-0.5625 -1.171875 -0.5625 -2.75q0 -1.5625 0.5625 -2.75q0.578125 -1.203125 1.609375 -1.875q1.03125 -0.671875 2.40625 -0.671875q0.796875 0 1.578125 0.265625q0.78125 0.265625 1.40625 0.859375q0.640625 0.59375 1.015625 1.578125q0.375 0.96875 0.375 2.390625l0 0.65625l-7.84375 0l0 -1.34375l6.265625 0q0 -0.859375 -0.34375 -1.53125q-0.34375 -0.6875 -0.96875 -1.078125q-0.625 -0.390625 -1.484375 -0.390625q-0.921875 0 -1.609375 0.46875q-0.671875 0.453125 -1.046875 1.1875q-0.359375 0.734375 -0.359375 1.578125l0 0.90625q0 1.140625 0.390625 1.953125q0.40625 0.796875 1.125 1.21875q0.71875 0.40625 1.671875 0.40625q0.609375 0 1.109375 -0.171875q0.5 -0.1875 0.859375 -0.53125q0.375 -0.359375 0.5625 -0.890625l1.515625 0.421875q-0.234375 0.765625 -0.796875 1.34375q-0.5625 0.578125 -1.390625 0.90625q-0.828125 0.328125 -1.859375 0.328125zm10.72467 0q-1.421875 0 -2.46875 -0.671875q-1.03125 -0.6875 -1.59375 -1.875q-0.546875 -1.1875 -0.546875 -2.703125q0 -1.546875 0.5625 -2.734375q0.578125 -1.203125 1.609375 -1.875q1.03125 -0.671875 2.40625 -0.671875q1.078125 0 1.9375 0.40625q0.859375 0.390625 1.40625 1.109375q0.5625 0.71875 0.6875 1.671875l-1.5625 0q-0.171875 -0.703125 -0.796875 -1.234375q-0.609375 -0.546875 -1.640625 -0.546875q-0.90625 0 -1.59375 0.484375q-0.6875 0.46875 -1.078125 1.328125q-0.375 0.859375 -0.375 2.0q0 1.1875 0.375 2.0625q0.375 0.875 1.0625 1.359375q0.6875 0.484375 1.609375 0.484375q0.609375 0 1.109375 -0.203125q0.5 -0.21875 0.84375 -0.609375q0.34375 -0.40625 0.484375 -0.96875l1.5625 0q-0.125 0.90625 -0.65625 1.625q-0.515625 0.71875 -1.375 1.140625q-0.84375 0.421875 -1.96875 0.421875zm10.711639 -10.390625l0 1.328125l-5.28125 0l0 -1.328125l5.28125 0zm-3.734375 -2.4375l1.5625 0l0 9.6875q0 0.671875 0.1875 1.0q0.203125 0.328125 0.5 0.4375q0.3125 0.109375 0.65625 0.109375q0.265625 0 0.421875 -0.03125q0.171875 -0.03125 0.265625 -0.046875l0.328125 1.40625q-0.15625 0.046875 -0.453125 0.109375q-0.28125 0.0625 -0.71875 0.0625q-0.65625 0 -1.296875 -0.28125q-0.625 -0.28125 -1.046875 -0.859375q-0.40625 -0.59375 -0.40625 -1.46875l0 -10.125zm10.256256 12.828125q-1.46875 0 -2.546875 -0.65625q-1.0625 -0.65625 -1.640625 -1.828125q-0.5625 -1.171875 -0.5625 -2.75q0 -1.5625 0.5625 -2.75q0.578125 -1.203125 1.609375 -1.875q1.03125 -0.671875 2.40625 -0.671875q0.796875 0 1.578125 0.265625q0.78125 0.265625 1.40625 0.859375q0.640625 0.59375 1.015625 1.578125q0.375 0.96875 0.375 2.390625l0 0.65625l-7.84375 0l0 -1.34375l6.265625 0q0 -0.859375 -0.34375 -1.53125q-0.34375 -0.6875 -0.96875 -1.078125q-0.625 -0.390625 -1.484375 -0.390625q-0.921875 0 -1.609375 0.46875q-0.671875 0.453125 -1.046875 1.1875q-0.359375 0.734375 -0.359375 1.578125l0 0.90625q0 1.140625 0.390625 1.953125q0.40625 0.796875 1.125 1.21875q0.71875 0.40625 1.671875 0.40625q0.609375 0 1.109375 -0.171875q0.5 -0.1875 0.859375 -0.53125q0.375 -0.359375 0.5625 -0.890625l1.515625 0.421875q-0.234375 0.765625 -0.796875 1.34375q-0.5625 0.578125 -1.390625 0.90625q-0.828125 0.328125 -1.859375 0.328125zm10.44342 0q-1.28125 0 -2.265625 -0.640625q-0.96875 -0.65625 -1.515625 -1.828125q-0.546875 -1.1875 -0.546875 -2.8125q0 -1.609375 0.546875 -2.78125q0.546875 -1.1875 1.53125 -1.828125q0.984375 -0.640625 2.265625 -0.640625q1.0 0 1.578125 0.328125q0.578125 0.328125 0.875 0.75q0.3125 0.40625 0.484375 0.671875l0.140625 0l0 -5.0l1.5625 0l0 13.5625l-1.515625 0l0 -1.5625l-0.1875 0q-0.171875 0.28125 -0.484375 0.703125q-0.3125 0.421875 -0.90625 0.75q-0.59375 0.328125 -1.5625 0.328125zm0.203125 -1.40625q0.9375 0 1.578125 -0.484375q0.65625 -0.5 1.0 -1.375q0.34375 -0.890625 0.34375 -2.046875q0 -1.140625 -0.34375 -1.984375q-0.328125 -0.859375 -0.984375 -1.34375q-0.640625 -0.484375 -1.59375 -0.484375q-1.0 0 -1.65625 0.515625q-0.65625 0.5 -0.984375 1.375q-0.328125 0.859375 -0.328125 1.921875q0 1.09375 0.328125 1.984375q0.34375 0.875 1.0 1.40625q0.65625 0.515625 1.640625 0.515625zm13.546692 1.1875l-1.71875 0l4.96875 -13.5625l1.703125 0l4.984375 13.5625l-1.71875 0l-4.0625 -11.421875l-0.109375 0l-4.046875 11.421875zm0.625 -5.296875l6.953125 0l0 1.453125l-6.953125 0l0 -1.453125zm12.786224 -0.828125l0 6.125l-1.5625 0l0 -10.171875l1.5 0l0 1.578125l0.140625 0q0.359375 -0.765625 1.078125 -1.234375q0.734375 -0.484375 1.890625 -0.484375q1.03125 0 1.796875 0.421875q0.78125 0.421875 1.203125 1.28125q0.4375 0.84375 0.4375 2.140625l0 6.46875l-1.5625 0l0 -6.359375q0 -1.203125 -0.625 -1.875q-0.625 -0.671875 -1.703125 -0.671875q-0.75 0 -1.34375 0.328125q-0.578125 0.328125 -0.921875 0.953125q-0.328125 0.609375 -0.328125 1.5zm16.558899 -1.765625l-1.40625 0.390625q-0.125 -0.34375 -0.390625 -0.671875q-0.25 -0.34375 -0.6875 -0.5625q-0.4375 -0.21875 -1.125 -0.21875q-0.9375 0 -1.5625 0.421875q-0.609375 0.421875 -0.609375 1.078125q0 0.59375 0.421875 0.9375q0.421875 0.328125 1.328125 0.546875l1.515625 0.375q1.359375 0.328125 2.03125 1.015625q0.671875 0.671875 0.671875 1.75q0 0.859375 -0.5 1.5625q-0.5 0.6875 -1.40625 1.09375q-0.890625 0.390625 -2.078125 0.390625q-1.546875 0 -2.578125 -0.671875q-1.015625 -0.6875 -1.28125 -1.984375l1.484375 -0.375q0.203125 0.828125 0.796875 1.234375q0.59375 0.40625 1.5625 0.40625q1.09375 0 1.734375 -0.453125q0.640625 -0.46875 0.640625 -1.125q0 -0.53125 -0.375 -0.890625q-0.359375 -0.375 -1.125 -0.546875l-1.703125 -0.390625q-1.390625 -0.34375 -2.046875 -1.03125q-0.65625 -0.703125 -0.65625 -1.765625q0 -0.859375 0.484375 -1.515625q0.484375 -0.65625 1.328125 -1.03125q0.859375 -0.390625 1.921875 -0.390625q1.515625 0 2.375 0.671875q0.875 0.65625 1.234375 1.75zm4.8460083 7.890625l-3.09375 -10.171875l1.640625 0l2.203125 7.78125l0.09375 0l2.171875 -7.78125l1.671875 0l2.15625 7.765625l0.109375 0l2.1875 -7.765625l1.640625 0l-3.09375 10.171875l-1.53125 0l-2.234375 -7.8125l-0.15625 0l-2.21875 7.8125l-1.546875 0zm16.78247 0.21875q-1.46875 0 -2.546875 -0.65625q-1.0625 -0.65625 -1.640625 -1.828125q-0.5625 -1.171875 -0.5625 -2.75q0 -1.5625 0.5625 -2.75q0.578125 -1.203125 1.609375 -1.875q1.03125 -0.671875 2.40625 -0.671875q0.796875 0 1.578125 0.265625q0.78125 0.265625 1.40625 0.859375q0.640625 0.59375 1.015625 1.578125q0.375 0.96875 0.375 2.390625l0 0.65625l-7.84375 0l0 -1.34375l6.265625 0q0 -0.859375 -0.34375 -1.53125q-0.34375 -0.6875 -0.96875 -1.078125q-0.625 -0.390625 -1.484375 -0.390625q-0.921875 0 -1.609375 0.46875q-0.671875 0.453125 -1.046875 1.1875q-0.359375 0.734375 -0.359375 1.578125l0 0.90625q0 1.140625 0.390625 1.953125q0.40625 0.796875 1.125 1.21875q0.71875 0.40625 1.671875 0.40625q0.609375 0 1.109375 -0.171875q0.5 -0.1875 0.859375 -0.53125q0.375 -0.359375 0.5625 -0.890625l1.515625 0.421875q-0.234375 0.765625 -0.796875 1.34375q-0.5625 0.578125 -1.390625 0.90625q-0.828125 0.328125 -1.859375 0.328125zm6.5996704 -0.21875l0 -10.171875l1.5 0l0 1.53125l0.109375 0q0.28125 -0.75 1.0 -1.21875q0.734375 -0.46875 1.65625 -0.46875q0.171875 0 0.421875 0q0.265625 0 0.390625 0.015625l0 1.59375q-0.078125 -0.015625 -0.359375 -0.0625q-0.28125 -0.046875 -0.59375 -0.046875q-0.734375 0 -1.328125 0.3125q-0.578125 0.3125 -0.90625 0.859375q-0.328125 0.53125 -0.328125 1.21875l0 6.4375l-1.5625 0z" fill-rule="nonzero"/><path fill="#000000" d="m446.85562 383.1912l0 -1.453125l10.171875 0l0 1.453125l-4.265625 0l0 12.109375l-1.640625 0l0 -12.109375l-4.265625 0zm12.3428955 15.921875q-0.390625 0 -0.703125 -0.0625q-0.3125 -0.0625 -0.4375 -0.125l0.40625 -1.375q0.5625 0.140625 1.0 0.09375q0.4375 -0.03125 0.78125 -0.375q0.34375 -0.34375 0.625 -1.125l0.296875 -0.796875l-3.765625 -10.21875l1.6875 0l2.8125 8.109375l0.109375 0l2.8125 -8.109375l1.6875 0l-4.3125 11.65625q-0.296875 0.78125 -0.734375 1.296875q-0.421875 0.53125 -1.0 0.78125q-0.5625 0.25 -1.265625 0.25zm9.388275 0l0 -13.984375l1.5 0l0 1.609375l0.1875 0q0.171875 -0.265625 0.484375 -0.671875q0.3125 -0.421875 0.890625 -0.75q0.578125 -0.328125 1.5625 -0.328125q1.296875 0 2.265625 0.640625q0.984375 0.640625 1.53125 1.828125q0.5625 1.171875 0.5625 2.78125q0 1.625 -0.5625 2.8125q-0.546875 1.171875 -1.515625 1.828125q-0.96875 0.640625 -2.25 0.640625q-0.984375 0 -1.578125 -0.328125q-0.578125 -0.328125 -0.90625 -0.75q-0.3125 -0.421875 -0.484375 -0.703125l-0.125 0l0 5.375l-1.5625 0zm1.53125 -8.90625q0 1.15625 0.328125 2.046875q0.34375 0.875 0.984375 1.375q0.65625 0.484375 1.609375 0.484375q0.96875 0 1.625 -0.515625q0.671875 -0.53125 1.0 -1.40625q0.328125 -0.890625 0.328125 -1.984375q0 -1.0625 -0.328125 -1.921875q-0.3125 -0.875 -0.984375 -1.375q-0.65625 -0.515625 -1.640625 -0.515625q-0.96875 0 -1.625 0.484375q-0.640625 0.484375 -0.96875 1.34375q-0.328125 0.84375 -0.328125 1.984375zm14.10318 5.3125q-1.46875 0 -2.546875 -0.65625q-1.0625 -0.65625 -1.640625 -1.828125q-0.5625 -1.171875 -0.5625 -2.75q0 -1.5625 0.5625 -2.75q0.578125 -1.203125 1.609375 -1.875q1.03125 -0.671875 2.40625 -0.671875q0.796875 0 1.578125 0.265625q0.78125 0.265625 1.40625 0.859375q0.640625 0.59375 1.015625 1.578125q0.375 0.96875 0.375 2.390625l0 0.65625l-7.84375 0l0 -1.34375l6.265625 0q0 -0.859375 -0.34375 -1.53125q-0.34375 -0.6875 -0.96875 -1.078125q-0.625 -0.390625 -1.484375 -0.390625q-0.921875 0 -1.609375 0.46875q-0.671875 0.453125 -1.046875 1.1875q-0.359375 0.734375 -0.359375 1.578125l0 0.90625q0 1.140625 0.390625 1.953125q0.40625 0.796875 1.125 1.21875q0.71875 0.40625 1.671875 0.40625q0.609375 0 1.109375 -0.171875q0.5 -0.1875 0.859375 -0.53125q0.375 -0.359375 0.5625 -0.890625l1.515625 0.421875q-0.234375 0.765625 -0.796875 1.34375q-0.5625 0.578125 -1.390625 0.90625q-0.828125 0.328125 -1.859375 0.328125zm13.802795 -8.109375l-1.40625 0.390625q-0.125 -0.34375 -0.390625 -0.671875q-0.25 -0.34375 -0.6875 -0.5625q-0.4375 -0.21875 -1.125 -0.21875q-0.9375 0 -1.5625 0.421875q-0.609375 0.421875 -0.609375 1.078125q0 0.59375 0.421875 0.9375q0.421875 0.328125 1.328125 0.546875l1.515625 0.375q1.359375 0.328125 2.03125 1.015625q0.671875 0.671875 0.671875 1.75q0 0.859375 -0.5 1.5625q-0.5 0.6875 -1.40625 1.09375q-0.890625 0.390625 -2.078125 0.390625q-1.546875 0 -2.578125 -0.671875q-1.015625 -0.6875 -1.28125 -1.984375l1.484375 -0.375q0.203125 0.828125 0.796875 1.234375q0.59375 0.40625 1.5625 0.40625q1.09375 0 1.734375 -0.453125q0.640625 -0.46875 0.640625 -1.125q0 -0.53125 -0.375 -0.890625q-0.359375 -0.375 -1.125 -0.546875l-1.703125 -0.390625q-1.390625 -0.34375 -2.046875 -1.03125q-0.65625 -0.703125 -0.65625 -1.765625q0 -0.859375 0.484375 -1.515625q0.484375 -0.65625 1.328125 -1.03125q0.859375 -0.390625 1.921875 -0.390625q1.515625 0 2.375 0.671875q0.875 0.65625 1.234375 1.75z" fill-rule="nonzero"/><path fill="#000000" fill-opacity="0.0" d="m105.874016 80.15748l0 80.850395" fill-rule="evenodd"/><path stroke="#000000" stroke-width="1.0" stroke-linejoin="round" stroke-linecap="butt" d="m105.874016 80.15748l0 74.850395" fill-rule="evenodd"/><path fill="#000000" stroke="#000000" stroke-width="1.0" stroke-linecap="butt" d="m104.22228 155.00787l1.6517334 4.538101l1.6517334 -4.538101z" fill-rule="evenodd"/><path fill="#000000" fill-opacity="0.0" d="m105.874016 260.49606l0 116.8819l269.22833 0" fill-rule="evenodd"/><path stroke="#000000" stroke-width="1.0" stroke-linejoin="round" stroke-linecap="butt" d="m105.874016 260.49606l0 116.8819l263.22833 0" fill-rule="evenodd"/><path fill="#000000" stroke="#000000" stroke-width="1.0" stroke-linecap="butt" d="m369.10236 379.0297l4.5381165 -1.6517334l-4.5381165 -1.6517334z" fill-rule="evenodd"/><path fill="#000000" fill-opacity="0.0" d="m569.9756 377.38058l485.0078 0l0 -116.8819" fill-rule="evenodd"/><path stroke="#000000" stroke-width="1.0" stroke-linejoin="round" stroke-linecap="butt" d="m569.9756 377.38058l485.0078 0l0 -110.8819" fill-rule="evenodd"/><path fill="#000000" stroke="#000000" stroke-width="1.0" stroke-linecap="butt" d="m1056.6351 266.4987l-1.6517334 -4.538086l-1.6517334 4.538086z" fill-rule="evenodd"/><path fill="#000000" fill-opacity="0.0" d="m211.74803 210.74803l50.61418 0" fill-rule="evenodd"/><path stroke="#000000" stroke-width="1.0" stroke-linejoin="round" stroke-linecap="butt" d="m211.74803 210.74803l44.61418 0" fill-rule="evenodd"/><path fill="#000000" stroke="#000000" stroke-width="1.0" stroke-linecap="butt" d="m256.3622 212.39977l4.538086 -1.6517334l-4.538086 -1.6517334z" fill-rule="evenodd"/><path fill="#000000" fill-opacity="0.0" d="m457.23804 210.74803l50.614166 0" fill-rule="evenodd"/><path stroke="#000000" stroke-width="1.0" stroke-linejoin="round" stroke-linecap="butt" d="m457.23804 210.74803l44.614166 0" fill-rule="evenodd"/><path fill="#000000" stroke="#000000" stroke-width="1.0" stroke-linecap="butt" d="m501.8522 212.39977l4.538086 -1.6517334l-4.538086 -1.6517334z" fill-rule="evenodd"/><path fill="#000000" fill-opacity="0.0" d="m1054.9731 161.0l0 -80.850395" fill-rule="evenodd"/><path stroke="#000000" stroke-width="1.0" stroke-linejoin="round" stroke-linecap="butt" d="m1054.9731 161.0l0 -74.850395" fill-rule="evenodd"/><path fill="#000000" stroke="#000000" stroke-width="1.0" stroke-linecap="butt" d="m1056.6249 86.149605l-1.6517334 -4.5380936l-1.6517334 4.5380936z" fill-rule="evenodd"/></g></svg>